%TF.GenerationSoftware,KiCad,Pcbnew,8.0.3*%
%TF.CreationDate,2025-03-04T10:00:30-06:00*%
%TF.ProjectId,wearable_v2_nrf,77656172-6162-46c6-955f-76325f6e7266,rev?*%
%TF.SameCoordinates,Original*%
%TF.FileFunction,Drillmap*%
%TF.FilePolarity,Positive*%
%FSLAX45Y45*%
G04 Gerber Fmt 4.5, Leading zero omitted, Abs format (unit mm)*
G04 Created by KiCad (PCBNEW 8.0.3) date 2025-03-04 10:00:30*
%MOMM*%
%LPD*%
G01*
G04 APERTURE LIST*
%ADD10C,0.050000*%
%ADD11C,0.200000*%
%ADD12C,0.100000*%
%ADD13C,0.134000*%
G04 APERTURE END LIST*
D10*
X8603921Y-5081421D02*
G75*
G02*
X8303921Y-5081421I-150000J0D01*
G01*
X8303921Y-5081421D02*
G75*
G02*
X8603921Y-5081421I150000J0D01*
G01*
X8628921Y-8581421D02*
G75*
G02*
X8328921Y-8581421I-150000J0D01*
G01*
X8328921Y-8581421D02*
G75*
G02*
X8628921Y-8581421I150000J0D01*
G01*
X8428921Y-8831421D02*
G75*
G02*
X8228919Y-8631421I-1J200001D01*
G01*
X12003921Y-4831421D02*
G75*
G02*
X12203919Y-5031421I-1J-199999D01*
G01*
X12128921Y-8581421D02*
G75*
G02*
X11828921Y-8581421I-150000J0D01*
G01*
X11828921Y-8581421D02*
G75*
G02*
X12128921Y-8581421I150000J0D01*
G01*
X8228921Y-8631421D02*
X8203921Y-5031421D01*
X12228921Y-8631421D02*
G75*
G02*
X12028921Y-8831421I-200001J1D01*
G01*
X12103921Y-5081421D02*
G75*
G02*
X11803921Y-5081421I-150000J0D01*
G01*
X11803921Y-5081421D02*
G75*
G02*
X12103921Y-5081421I150000J0D01*
G01*
X8203921Y-5031421D02*
G75*
G02*
X8403921Y-4831421I199999J1D01*
G01*
X8428921Y-8831421D02*
X12028921Y-8831421D01*
X8403921Y-4831421D02*
X12003921Y-4831421D01*
X12203921Y-5031421D02*
X12228921Y-8631421D01*
D11*
D12*
X10842500Y-6647500D02*
X10862500Y-6667500D01*
X10862500Y-6647500D02*
X10842500Y-6667500D01*
X10842500Y-6747500D02*
X10862500Y-6767500D01*
X10862500Y-6747500D02*
X10842500Y-6767500D01*
X10842500Y-6847500D02*
X10862500Y-6867500D01*
X10862500Y-6847500D02*
X10842500Y-6867500D01*
X10942500Y-6647500D02*
X10962500Y-6667500D01*
X10962500Y-6647500D02*
X10942500Y-6667500D01*
X10942500Y-6747500D02*
X10962500Y-6767500D01*
X10962500Y-6747500D02*
X10942500Y-6767500D01*
X10942500Y-6847500D02*
X10962500Y-6867500D01*
X10962500Y-6847500D02*
X10942500Y-6867500D01*
X11042500Y-6647500D02*
X11062500Y-6667500D01*
X11062500Y-6647500D02*
X11042500Y-6667500D01*
X11042500Y-6747500D02*
X11062500Y-6767500D01*
X11062500Y-6747500D02*
X11042500Y-6767500D01*
X11042500Y-6847500D02*
X11062500Y-6867500D01*
X11062500Y-6847500D02*
X11042500Y-6867500D01*
X8437500Y-8130000D02*
G75*
G02*
X8407500Y-8130000I-15000J0D01*
G01*
X8407500Y-8130000D02*
G75*
G02*
X8437500Y-8130000I15000J0D01*
G01*
X8462500Y-6712500D02*
G75*
G02*
X8432500Y-6712500I-15000J0D01*
G01*
X8432500Y-6712500D02*
G75*
G02*
X8462500Y-6712500I15000J0D01*
G01*
X8465000Y-7010000D02*
G75*
G02*
X8435000Y-7010000I-15000J0D01*
G01*
X8435000Y-7010000D02*
G75*
G02*
X8465000Y-7010000I15000J0D01*
G01*
X8535000Y-5720000D02*
G75*
G02*
X8505000Y-5720000I-15000J0D01*
G01*
X8505000Y-5720000D02*
G75*
G02*
X8535000Y-5720000I15000J0D01*
G01*
X8646250Y-6715000D02*
G75*
G02*
X8616250Y-6715000I-15000J0D01*
G01*
X8616250Y-6715000D02*
G75*
G02*
X8646250Y-6715000I15000J0D01*
G01*
X8646250Y-7010000D02*
G75*
G02*
X8616250Y-7010000I-15000J0D01*
G01*
X8616250Y-7010000D02*
G75*
G02*
X8646250Y-7010000I15000J0D01*
G01*
X8772500Y-8600000D02*
G75*
G02*
X8742500Y-8600000I-15000J0D01*
G01*
X8742500Y-8600000D02*
G75*
G02*
X8772500Y-8600000I15000J0D01*
G01*
X8887500Y-5075000D02*
G75*
G02*
X8857500Y-5075000I-15000J0D01*
G01*
X8857500Y-5075000D02*
G75*
G02*
X8887500Y-5075000I15000J0D01*
G01*
X8997500Y-7827500D02*
G75*
G02*
X8967500Y-7827500I-15000J0D01*
G01*
X8967500Y-7827500D02*
G75*
G02*
X8997500Y-7827500I15000J0D01*
G01*
X9000000Y-8017500D02*
G75*
G02*
X8970000Y-8017500I-15000J0D01*
G01*
X8970000Y-8017500D02*
G75*
G02*
X9000000Y-8017500I15000J0D01*
G01*
X9012500Y-8122500D02*
G75*
G02*
X8982500Y-8122500I-15000J0D01*
G01*
X8982500Y-8122500D02*
G75*
G02*
X9012500Y-8122500I15000J0D01*
G01*
X9135000Y-5708500D02*
G75*
G02*
X9105000Y-5708500I-15000J0D01*
G01*
X9105000Y-5708500D02*
G75*
G02*
X9135000Y-5708500I15000J0D01*
G01*
X9175000Y-7285000D02*
G75*
G02*
X9145000Y-7285000I-15000J0D01*
G01*
X9145000Y-7285000D02*
G75*
G02*
X9175000Y-7285000I15000J0D01*
G01*
X9210000Y-8570000D02*
G75*
G02*
X9180000Y-8570000I-15000J0D01*
G01*
X9180000Y-8570000D02*
G75*
G02*
X9210000Y-8570000I15000J0D01*
G01*
X9272500Y-7170000D02*
G75*
G02*
X9242500Y-7170000I-15000J0D01*
G01*
X9242500Y-7170000D02*
G75*
G02*
X9272500Y-7170000I15000J0D01*
G01*
X9277500Y-7332500D02*
G75*
G02*
X9247500Y-7332500I-15000J0D01*
G01*
X9247500Y-7332500D02*
G75*
G02*
X9277500Y-7332500I15000J0D01*
G01*
X9340000Y-6052500D02*
G75*
G02*
X9310000Y-6052500I-15000J0D01*
G01*
X9310000Y-6052500D02*
G75*
G02*
X9340000Y-6052500I15000J0D01*
G01*
X9355000Y-7560000D02*
G75*
G02*
X9325000Y-7560000I-15000J0D01*
G01*
X9325000Y-7560000D02*
G75*
G02*
X9355000Y-7560000I15000J0D01*
G01*
X9357500Y-7832500D02*
G75*
G02*
X9327500Y-7832500I-15000J0D01*
G01*
X9327500Y-7832500D02*
G75*
G02*
X9357500Y-7832500I15000J0D01*
G01*
X9362500Y-7265000D02*
G75*
G02*
X9332500Y-7265000I-15000J0D01*
G01*
X9332500Y-7265000D02*
G75*
G02*
X9362500Y-7265000I15000J0D01*
G01*
X9367500Y-8005000D02*
G75*
G02*
X9337500Y-8005000I-15000J0D01*
G01*
X9337500Y-8005000D02*
G75*
G02*
X9367500Y-8005000I15000J0D01*
G01*
X9417500Y-8190000D02*
G75*
G02*
X9387500Y-8190000I-15000J0D01*
G01*
X9387500Y-8190000D02*
G75*
G02*
X9417500Y-8190000I15000J0D01*
G01*
X9542500Y-5730000D02*
G75*
G02*
X9512500Y-5730000I-15000J0D01*
G01*
X9512500Y-5730000D02*
G75*
G02*
X9542500Y-5730000I15000J0D01*
G01*
X9545000Y-7555000D02*
G75*
G02*
X9515000Y-7555000I-15000J0D01*
G01*
X9515000Y-7555000D02*
G75*
G02*
X9545000Y-7555000I15000J0D01*
G01*
X9547500Y-6255000D02*
G75*
G02*
X9517500Y-6255000I-15000J0D01*
G01*
X9517500Y-6255000D02*
G75*
G02*
X9547500Y-6255000I15000J0D01*
G01*
X9550000Y-7982500D02*
G75*
G02*
X9520000Y-7982500I-15000J0D01*
G01*
X9520000Y-7982500D02*
G75*
G02*
X9550000Y-7982500I15000J0D01*
G01*
X9635000Y-5502500D02*
G75*
G02*
X9605000Y-5502500I-15000J0D01*
G01*
X9605000Y-5502500D02*
G75*
G02*
X9635000Y-5502500I15000J0D01*
G01*
X9695000Y-8320000D02*
G75*
G02*
X9665000Y-8320000I-15000J0D01*
G01*
X9665000Y-8320000D02*
G75*
G02*
X9695000Y-8320000I15000J0D01*
G01*
X9702500Y-6865000D02*
G75*
G02*
X9672500Y-6865000I-15000J0D01*
G01*
X9672500Y-6865000D02*
G75*
G02*
X9702500Y-6865000I15000J0D01*
G01*
X9731250Y-5501250D02*
G75*
G02*
X9701250Y-5501250I-15000J0D01*
G01*
X9701250Y-5501250D02*
G75*
G02*
X9731250Y-5501250I15000J0D01*
G01*
X9905000Y-5527500D02*
G75*
G02*
X9875000Y-5527500I-15000J0D01*
G01*
X9875000Y-5527500D02*
G75*
G02*
X9905000Y-5527500I15000J0D01*
G01*
X9947500Y-6415000D02*
G75*
G02*
X9917500Y-6415000I-15000J0D01*
G01*
X9917500Y-6415000D02*
G75*
G02*
X9947500Y-6415000I15000J0D01*
G01*
X9949755Y-7211250D02*
G75*
G02*
X9919755Y-7211250I-15000J0D01*
G01*
X9919755Y-7211250D02*
G75*
G02*
X9949755Y-7211250I15000J0D01*
G01*
X9952500Y-7545000D02*
G75*
G02*
X9922500Y-7545000I-15000J0D01*
G01*
X9922500Y-7545000D02*
G75*
G02*
X9952500Y-7545000I15000J0D01*
G01*
X9957500Y-6727500D02*
G75*
G02*
X9927500Y-6727500I-15000J0D01*
G01*
X9927500Y-6727500D02*
G75*
G02*
X9957500Y-6727500I15000J0D01*
G01*
X10050000Y-7475000D02*
G75*
G02*
X10020000Y-7475000I-15000J0D01*
G01*
X10020000Y-7475000D02*
G75*
G02*
X10050000Y-7475000I15000J0D01*
G01*
X10072500Y-5145000D02*
G75*
G02*
X10042500Y-5145000I-15000J0D01*
G01*
X10042500Y-5145000D02*
G75*
G02*
X10072500Y-5145000I15000J0D01*
G01*
X10077500Y-5317500D02*
G75*
G02*
X10047500Y-5317500I-15000J0D01*
G01*
X10047500Y-5317500D02*
G75*
G02*
X10077500Y-5317500I15000J0D01*
G01*
X10102500Y-5520000D02*
G75*
G02*
X10072500Y-5520000I-15000J0D01*
G01*
X10072500Y-5520000D02*
G75*
G02*
X10102500Y-5520000I15000J0D01*
G01*
X10140000Y-7895000D02*
G75*
G02*
X10110000Y-7895000I-15000J0D01*
G01*
X10110000Y-7895000D02*
G75*
G02*
X10140000Y-7895000I15000J0D01*
G01*
X10162500Y-7357500D02*
G75*
G02*
X10132500Y-7357500I-15000J0D01*
G01*
X10132500Y-7357500D02*
G75*
G02*
X10162500Y-7357500I15000J0D01*
G01*
X10215000Y-5147500D02*
G75*
G02*
X10185000Y-5147500I-15000J0D01*
G01*
X10185000Y-5147500D02*
G75*
G02*
X10215000Y-5147500I15000J0D01*
G01*
X10220000Y-5300000D02*
G75*
G02*
X10190000Y-5300000I-15000J0D01*
G01*
X10190000Y-5300000D02*
G75*
G02*
X10220000Y-5300000I15000J0D01*
G01*
X10235000Y-7087500D02*
G75*
G02*
X10205000Y-7087500I-15000J0D01*
G01*
X10205000Y-7087500D02*
G75*
G02*
X10235000Y-7087500I15000J0D01*
G01*
X10265000Y-5525000D02*
G75*
G02*
X10235000Y-5525000I-15000J0D01*
G01*
X10235000Y-5525000D02*
G75*
G02*
X10265000Y-5525000I15000J0D01*
G01*
X10267500Y-7522500D02*
G75*
G02*
X10237500Y-7522500I-15000J0D01*
G01*
X10237500Y-7522500D02*
G75*
G02*
X10267500Y-7522500I15000J0D01*
G01*
X10392500Y-5322500D02*
G75*
G02*
X10362500Y-5322500I-15000J0D01*
G01*
X10362500Y-5322500D02*
G75*
G02*
X10392500Y-5322500I15000J0D01*
G01*
X10400000Y-5140000D02*
G75*
G02*
X10370000Y-5140000I-15000J0D01*
G01*
X10370000Y-5140000D02*
G75*
G02*
X10400000Y-5140000I15000J0D01*
G01*
X10427500Y-7680000D02*
G75*
G02*
X10397500Y-7680000I-15000J0D01*
G01*
X10397500Y-7680000D02*
G75*
G02*
X10427500Y-7680000I15000J0D01*
G01*
X10430000Y-5527500D02*
G75*
G02*
X10400000Y-5527500I-15000J0D01*
G01*
X10400000Y-5527500D02*
G75*
G02*
X10430000Y-5527500I15000J0D01*
G01*
X10430000Y-7547500D02*
G75*
G02*
X10400000Y-7547500I-15000J0D01*
G01*
X10400000Y-7547500D02*
G75*
G02*
X10430000Y-7547500I15000J0D01*
G01*
X10442500Y-6003750D02*
G75*
G02*
X10412500Y-6003750I-15000J0D01*
G01*
X10412500Y-6003750D02*
G75*
G02*
X10442500Y-6003750I15000J0D01*
G01*
X10505000Y-7497500D02*
G75*
G02*
X10475000Y-7497500I-15000J0D01*
G01*
X10475000Y-7497500D02*
G75*
G02*
X10505000Y-7497500I15000J0D01*
G01*
X10532500Y-7252500D02*
G75*
G02*
X10502500Y-7252500I-15000J0D01*
G01*
X10502500Y-7252500D02*
G75*
G02*
X10532500Y-7252500I15000J0D01*
G01*
X10552500Y-7087500D02*
G75*
G02*
X10522500Y-7087500I-15000J0D01*
G01*
X10522500Y-7087500D02*
G75*
G02*
X10552500Y-7087500I15000J0D01*
G01*
X10655000Y-6007500D02*
G75*
G02*
X10625000Y-6007500I-15000J0D01*
G01*
X10625000Y-6007500D02*
G75*
G02*
X10655000Y-6007500I15000J0D01*
G01*
X10807500Y-7760000D02*
G75*
G02*
X10777500Y-7760000I-15000J0D01*
G01*
X10777500Y-7760000D02*
G75*
G02*
X10807500Y-7760000I15000J0D01*
G01*
X10815000Y-5287500D02*
G75*
G02*
X10785000Y-5287500I-15000J0D01*
G01*
X10785000Y-5287500D02*
G75*
G02*
X10815000Y-5287500I15000J0D01*
G01*
X10902500Y-7212500D02*
G75*
G02*
X10872500Y-7212500I-15000J0D01*
G01*
X10872500Y-7212500D02*
G75*
G02*
X10902500Y-7212500I15000J0D01*
G01*
X10952500Y-7132776D02*
G75*
G02*
X10922500Y-7132776I-15000J0D01*
G01*
X10922500Y-7132776D02*
G75*
G02*
X10952500Y-7132776I15000J0D01*
G01*
X11022500Y-7190000D02*
G75*
G02*
X10992500Y-7190000I-15000J0D01*
G01*
X10992500Y-7190000D02*
G75*
G02*
X11022500Y-7190000I15000J0D01*
G01*
X11040000Y-6367500D02*
G75*
G02*
X11010000Y-6367500I-15000J0D01*
G01*
X11010000Y-6367500D02*
G75*
G02*
X11040000Y-6367500I15000J0D01*
G01*
X11152500Y-7212500D02*
G75*
G02*
X11122500Y-7212500I-15000J0D01*
G01*
X11122500Y-7212500D02*
G75*
G02*
X11152500Y-7212500I15000J0D01*
G01*
X11177500Y-6360000D02*
G75*
G02*
X11147500Y-6360000I-15000J0D01*
G01*
X11147500Y-6360000D02*
G75*
G02*
X11177500Y-6360000I15000J0D01*
G01*
X11237500Y-6010000D02*
G75*
G02*
X11207500Y-6010000I-15000J0D01*
G01*
X11207500Y-6010000D02*
G75*
G02*
X11237500Y-6010000I15000J0D01*
G01*
X11262500Y-8522500D02*
G75*
G02*
X11232500Y-8522500I-15000J0D01*
G01*
X11232500Y-8522500D02*
G75*
G02*
X11262500Y-8522500I15000J0D01*
G01*
X11382500Y-7317500D02*
G75*
G02*
X11352500Y-7317500I-15000J0D01*
G01*
X11352500Y-7317500D02*
G75*
G02*
X11382500Y-7317500I15000J0D01*
G01*
X11400000Y-8677500D02*
G75*
G02*
X11370000Y-8677500I-15000J0D01*
G01*
X11370000Y-8677500D02*
G75*
G02*
X11400000Y-8677500I15000J0D01*
G01*
X11430000Y-5010000D02*
G75*
G02*
X11400000Y-5010000I-15000J0D01*
G01*
X11400000Y-5010000D02*
G75*
G02*
X11430000Y-5010000I15000J0D01*
G01*
X11430000Y-5530000D02*
G75*
G02*
X11400000Y-5530000I-15000J0D01*
G01*
X11400000Y-5530000D02*
G75*
G02*
X11430000Y-5530000I15000J0D01*
G01*
X11437500Y-6012500D02*
G75*
G02*
X11407500Y-6012500I-15000J0D01*
G01*
X11407500Y-6012500D02*
G75*
G02*
X11437500Y-6012500I15000J0D01*
G01*
X11659069Y-8692245D02*
G75*
G02*
X11629069Y-8692245I-15000J0D01*
G01*
X11629069Y-8692245D02*
G75*
G02*
X11659069Y-8692245I15000J0D01*
G01*
X11722500Y-6697500D02*
G75*
G02*
X11692500Y-6697500I-15000J0D01*
G01*
X11692500Y-6697500D02*
G75*
G02*
X11722500Y-6697500I15000J0D01*
G01*
X11751200Y-6248800D02*
G75*
G02*
X11721200Y-6248800I-15000J0D01*
G01*
X11721200Y-6248800D02*
G75*
G02*
X11751200Y-6248800I15000J0D01*
G01*
X11882500Y-5885000D02*
G75*
G02*
X11852500Y-5885000I-15000J0D01*
G01*
X11852500Y-5885000D02*
G75*
G02*
X11882500Y-5885000I15000J0D01*
G01*
X11885000Y-5685000D02*
G75*
G02*
X11855000Y-5685000I-15000J0D01*
G01*
X11855000Y-5685000D02*
G75*
G02*
X11885000Y-5685000I15000J0D01*
G01*
X11982500Y-7932500D02*
G75*
G02*
X11952500Y-7932500I-15000J0D01*
G01*
X11952500Y-7932500D02*
G75*
G02*
X11982500Y-7932500I15000J0D01*
G01*
X12002951Y-8147766D02*
G75*
G02*
X11972951Y-8147766I-15000J0D01*
G01*
X11972951Y-8147766D02*
G75*
G02*
X12002951Y-8147766I15000J0D01*
G01*
X12060000Y-6062500D02*
G75*
G02*
X12030000Y-6062500I-15000J0D01*
G01*
X12030000Y-6062500D02*
G75*
G02*
X12060000Y-6062500I15000J0D01*
G01*
X12125000Y-5800000D02*
G75*
G02*
X12095000Y-5800000I-15000J0D01*
G01*
X12095000Y-5800000D02*
G75*
G02*
X12125000Y-5800000I15000J0D01*
G01*
X8732500Y-5487500D02*
X8732500Y-5537500D01*
X8707500Y-5512500D02*
X8757500Y-5512500D01*
X8780000Y-6000000D02*
X8780000Y-6050000D01*
X8755000Y-6025000D02*
X8805000Y-6025000D01*
X9272500Y-6342500D02*
X9272500Y-6392500D01*
X9247500Y-6367500D02*
X9297500Y-6367500D01*
X9452249Y-6807249D02*
X9452249Y-6757751D01*
X9402751Y-6757751D01*
X9402751Y-6807249D01*
X9452249Y-6807249D01*
X9864749Y-8062249D02*
X9864749Y-8012751D01*
X9815251Y-8012751D01*
X9815251Y-8062249D01*
X9864749Y-8062249D01*
X9869749Y-7762249D02*
X9869749Y-7712751D01*
X9820251Y-7712751D01*
X9820251Y-7762249D01*
X9869749Y-7762249D01*
X10599749Y-7962249D02*
X10599749Y-7912751D01*
X10550251Y-7912751D01*
X10550251Y-7962249D01*
X10599749Y-7962249D01*
X9477500Y-5095000D02*
X9515000Y-5057500D01*
X9477500Y-5020000D01*
X9440000Y-5057500D01*
X9477500Y-5095000D01*
X9677500Y-5095000D02*
X9715000Y-5057500D01*
X9677500Y-5020000D01*
X9640000Y-5057500D01*
X9677500Y-5095000D01*
X9652000Y-8585000D02*
X9752000Y-8685000D01*
X9752000Y-8585000D02*
X9652000Y-8685000D01*
X9752000Y-8635000D02*
G75*
G02*
X9652000Y-8635000I-50000J0D01*
G01*
X9652000Y-8635000D02*
G75*
G02*
X9752000Y-8635000I50000J0D01*
G01*
X9906000Y-8585000D02*
X10006000Y-8685000D01*
X10006000Y-8585000D02*
X9906000Y-8685000D01*
X10006000Y-8635000D02*
G75*
G02*
X9906000Y-8635000I-50000J0D01*
G01*
X9906000Y-8635000D02*
G75*
G02*
X10006000Y-8635000I50000J0D01*
G01*
X10160000Y-8585000D02*
X10260000Y-8685000D01*
X10260000Y-8585000D02*
X10160000Y-8685000D01*
X10260000Y-8635000D02*
G75*
G02*
X10160000Y-8635000I-50000J0D01*
G01*
X10160000Y-8635000D02*
G75*
G02*
X10260000Y-8635000I50000J0D01*
G01*
X10632500Y-8590000D02*
X10732500Y-8690000D01*
X10732500Y-8590000D02*
X10632500Y-8690000D01*
X10732500Y-8640000D02*
G75*
G02*
X10632500Y-8640000I-50000J0D01*
G01*
X10632500Y-8640000D02*
G75*
G02*
X10732500Y-8640000I50000J0D01*
G01*
X10716000Y-5477500D02*
X10816000Y-5577500D01*
X10816000Y-5477500D02*
X10716000Y-5577500D01*
X10816000Y-5527500D02*
G75*
G02*
X10716000Y-5527500I-50000J0D01*
G01*
X10716000Y-5527500D02*
G75*
G02*
X10816000Y-5527500I50000J0D01*
G01*
X10886500Y-8590000D02*
X10986500Y-8690000D01*
X10986500Y-8590000D02*
X10886500Y-8690000D01*
X10986500Y-8640000D02*
G75*
G02*
X10886500Y-8640000I-50000J0D01*
G01*
X10886500Y-8640000D02*
G75*
G02*
X10986500Y-8640000I50000J0D01*
G01*
X10970000Y-5477500D02*
X11070000Y-5577500D01*
X11070000Y-5477500D02*
X10970000Y-5577500D01*
X11070000Y-5527500D02*
G75*
G02*
X10970000Y-5527500I-50000J0D01*
G01*
X10970000Y-5527500D02*
G75*
G02*
X11070000Y-5527500I50000J0D01*
G01*
X11505000Y-7604500D02*
X11605000Y-7704500D01*
X11605000Y-7604500D02*
X11505000Y-7704500D01*
X11605000Y-7654500D02*
G75*
G02*
X11505000Y-7654500I-50000J0D01*
G01*
X11505000Y-7654500D02*
G75*
G02*
X11605000Y-7654500I50000J0D01*
G01*
X11505000Y-7858500D02*
X11605000Y-7958500D01*
X11605000Y-7858500D02*
X11505000Y-7958500D01*
X11605000Y-7908500D02*
G75*
G02*
X11505000Y-7908500I-50000J0D01*
G01*
X11505000Y-7908500D02*
G75*
G02*
X11605000Y-7908500I50000J0D01*
G01*
X11505000Y-8112500D02*
X11605000Y-8212500D01*
X11605000Y-8112500D02*
X11505000Y-8212500D01*
X11605000Y-8162500D02*
G75*
G02*
X11505000Y-8162500I-50000J0D01*
G01*
X11505000Y-8162500D02*
G75*
G02*
X11605000Y-8162500I50000J0D01*
G01*
X11505000Y-8366500D02*
X11605000Y-8466500D01*
X11605000Y-8366500D02*
X11505000Y-8466500D01*
X11605000Y-8416500D02*
G75*
G02*
X11505000Y-8416500I-50000J0D01*
G01*
X11505000Y-8416500D02*
G75*
G02*
X11605000Y-8416500I50000J0D01*
G01*
D13*
X8367750Y-6341000D02*
X8501750Y-6475000D01*
X8501750Y-6341000D02*
X8367750Y-6475000D01*
X8434750Y-6341000D02*
X8434750Y-6475000D01*
X8367750Y-6408000D02*
X8501750Y-6408000D01*
X8367750Y-7205000D02*
X8501750Y-7339000D01*
X8501750Y-7205000D02*
X8367750Y-7339000D01*
X8434750Y-7205000D02*
X8434750Y-7339000D01*
X8367750Y-7272000D02*
X8501750Y-7272000D01*
X8747750Y-6341000D02*
X8881750Y-6475000D01*
X8881750Y-6341000D02*
X8747750Y-6475000D01*
X8814750Y-6341000D02*
X8814750Y-6475000D01*
X8747750Y-6408000D02*
X8881750Y-6408000D01*
X8747750Y-7205000D02*
X8881750Y-7339000D01*
X8881750Y-7205000D02*
X8747750Y-7339000D01*
X8814750Y-7205000D02*
X8814750Y-7339000D01*
X8747750Y-7272000D02*
X8881750Y-7272000D01*
D11*
X8462198Y-9145405D02*
X8462198Y-8945405D01*
X8462198Y-8945405D02*
X8509817Y-8945405D01*
X8509817Y-8945405D02*
X8538389Y-8954929D01*
X8538389Y-8954929D02*
X8557436Y-8973977D01*
X8557436Y-8973977D02*
X8566960Y-8993024D01*
X8566960Y-8993024D02*
X8576484Y-9031119D01*
X8576484Y-9031119D02*
X8576484Y-9059691D01*
X8576484Y-9059691D02*
X8566960Y-9097786D01*
X8566960Y-9097786D02*
X8557436Y-9116834D01*
X8557436Y-9116834D02*
X8538389Y-9135881D01*
X8538389Y-9135881D02*
X8509817Y-9145405D01*
X8509817Y-9145405D02*
X8462198Y-9145405D01*
X8662198Y-9145405D02*
X8662198Y-9012072D01*
X8662198Y-9050167D02*
X8671722Y-9031119D01*
X8671722Y-9031119D02*
X8681246Y-9021596D01*
X8681246Y-9021596D02*
X8700293Y-9012072D01*
X8700293Y-9012072D02*
X8719341Y-9012072D01*
X8786008Y-9145405D02*
X8786008Y-9012072D01*
X8786008Y-8945405D02*
X8776484Y-8954929D01*
X8776484Y-8954929D02*
X8786008Y-8964453D01*
X8786008Y-8964453D02*
X8795532Y-8954929D01*
X8795532Y-8954929D02*
X8786008Y-8945405D01*
X8786008Y-8945405D02*
X8786008Y-8964453D01*
X8909817Y-9145405D02*
X8890770Y-9135881D01*
X8890770Y-9135881D02*
X8881246Y-9116834D01*
X8881246Y-9116834D02*
X8881246Y-8945405D01*
X9014579Y-9145405D02*
X8995532Y-9135881D01*
X8995532Y-9135881D02*
X8986008Y-9116834D01*
X8986008Y-9116834D02*
X8986008Y-8945405D01*
X9243151Y-9145405D02*
X9243151Y-8945405D01*
X9243151Y-8945405D02*
X9309817Y-9088262D01*
X9309817Y-9088262D02*
X9376484Y-8945405D01*
X9376484Y-8945405D02*
X9376484Y-9145405D01*
X9557436Y-9145405D02*
X9557436Y-9040643D01*
X9557436Y-9040643D02*
X9547913Y-9021596D01*
X9547913Y-9021596D02*
X9528865Y-9012072D01*
X9528865Y-9012072D02*
X9490770Y-9012072D01*
X9490770Y-9012072D02*
X9471722Y-9021596D01*
X9557436Y-9135881D02*
X9538389Y-9145405D01*
X9538389Y-9145405D02*
X9490770Y-9145405D01*
X9490770Y-9145405D02*
X9471722Y-9135881D01*
X9471722Y-9135881D02*
X9462198Y-9116834D01*
X9462198Y-9116834D02*
X9462198Y-9097786D01*
X9462198Y-9097786D02*
X9471722Y-9078739D01*
X9471722Y-9078739D02*
X9490770Y-9069215D01*
X9490770Y-9069215D02*
X9538389Y-9069215D01*
X9538389Y-9069215D02*
X9557436Y-9059691D01*
X9652674Y-9012072D02*
X9652674Y-9212072D01*
X9652674Y-9021596D02*
X9671722Y-9012072D01*
X9671722Y-9012072D02*
X9709817Y-9012072D01*
X9709817Y-9012072D02*
X9728865Y-9021596D01*
X9728865Y-9021596D02*
X9738389Y-9031119D01*
X9738389Y-9031119D02*
X9747913Y-9050167D01*
X9747913Y-9050167D02*
X9747913Y-9107310D01*
X9747913Y-9107310D02*
X9738389Y-9126358D01*
X9738389Y-9126358D02*
X9728865Y-9135881D01*
X9728865Y-9135881D02*
X9709817Y-9145405D01*
X9709817Y-9145405D02*
X9671722Y-9145405D01*
X9671722Y-9145405D02*
X9652674Y-9135881D01*
X9833627Y-9126358D02*
X9843151Y-9135881D01*
X9843151Y-9135881D02*
X9833627Y-9145405D01*
X9833627Y-9145405D02*
X9824103Y-9135881D01*
X9824103Y-9135881D02*
X9833627Y-9126358D01*
X9833627Y-9126358D02*
X9833627Y-9145405D01*
X9833627Y-9021596D02*
X9843151Y-9031119D01*
X9843151Y-9031119D02*
X9833627Y-9040643D01*
X9833627Y-9040643D02*
X9824103Y-9031119D01*
X9824103Y-9031119D02*
X9833627Y-9021596D01*
X9833627Y-9021596D02*
X9833627Y-9040643D01*
D12*
X8181421Y-9463921D02*
X8201421Y-9483921D01*
X8201421Y-9463921D02*
X8181421Y-9483921D01*
D11*
X8500293Y-9365405D02*
X8519341Y-9365405D01*
X8519341Y-9365405D02*
X8538389Y-9374929D01*
X8538389Y-9374929D02*
X8547913Y-9384453D01*
X8547913Y-9384453D02*
X8557436Y-9403500D01*
X8557436Y-9403500D02*
X8566960Y-9441596D01*
X8566960Y-9441596D02*
X8566960Y-9489215D01*
X8566960Y-9489215D02*
X8557436Y-9527310D01*
X8557436Y-9527310D02*
X8547913Y-9546358D01*
X8547913Y-9546358D02*
X8538389Y-9555881D01*
X8538389Y-9555881D02*
X8519341Y-9565405D01*
X8519341Y-9565405D02*
X8500293Y-9565405D01*
X8500293Y-9565405D02*
X8481246Y-9555881D01*
X8481246Y-9555881D02*
X8471722Y-9546358D01*
X8471722Y-9546358D02*
X8462198Y-9527310D01*
X8462198Y-9527310D02*
X8452674Y-9489215D01*
X8452674Y-9489215D02*
X8452674Y-9441596D01*
X8452674Y-9441596D02*
X8462198Y-9403500D01*
X8462198Y-9403500D02*
X8471722Y-9384453D01*
X8471722Y-9384453D02*
X8481246Y-9374929D01*
X8481246Y-9374929D02*
X8500293Y-9365405D01*
X8652674Y-9546358D02*
X8662198Y-9555881D01*
X8662198Y-9555881D02*
X8652674Y-9565405D01*
X8652674Y-9565405D02*
X8643151Y-9555881D01*
X8643151Y-9555881D02*
X8652674Y-9546358D01*
X8652674Y-9546358D02*
X8652674Y-9565405D01*
X8738389Y-9384453D02*
X8747913Y-9374929D01*
X8747913Y-9374929D02*
X8766960Y-9365405D01*
X8766960Y-9365405D02*
X8814579Y-9365405D01*
X8814579Y-9365405D02*
X8833627Y-9374929D01*
X8833627Y-9374929D02*
X8843151Y-9384453D01*
X8843151Y-9384453D02*
X8852674Y-9403500D01*
X8852674Y-9403500D02*
X8852674Y-9422548D01*
X8852674Y-9422548D02*
X8843151Y-9451119D01*
X8843151Y-9451119D02*
X8728865Y-9565405D01*
X8728865Y-9565405D02*
X8852674Y-9565405D01*
X8976484Y-9365405D02*
X8995532Y-9365405D01*
X8995532Y-9365405D02*
X9014579Y-9374929D01*
X9014579Y-9374929D02*
X9024103Y-9384453D01*
X9024103Y-9384453D02*
X9033627Y-9403500D01*
X9033627Y-9403500D02*
X9043151Y-9441596D01*
X9043151Y-9441596D02*
X9043151Y-9489215D01*
X9043151Y-9489215D02*
X9033627Y-9527310D01*
X9033627Y-9527310D02*
X9024103Y-9546358D01*
X9024103Y-9546358D02*
X9014579Y-9555881D01*
X9014579Y-9555881D02*
X8995532Y-9565405D01*
X8995532Y-9565405D02*
X8976484Y-9565405D01*
X8976484Y-9565405D02*
X8957436Y-9555881D01*
X8957436Y-9555881D02*
X8947913Y-9546358D01*
X8947913Y-9546358D02*
X8938389Y-9527310D01*
X8938389Y-9527310D02*
X8928865Y-9489215D01*
X8928865Y-9489215D02*
X8928865Y-9441596D01*
X8928865Y-9441596D02*
X8938389Y-9403500D01*
X8938389Y-9403500D02*
X8947913Y-9384453D01*
X8947913Y-9384453D02*
X8957436Y-9374929D01*
X8957436Y-9374929D02*
X8976484Y-9365405D01*
X9166960Y-9365405D02*
X9186008Y-9365405D01*
X9186008Y-9365405D02*
X9205055Y-9374929D01*
X9205055Y-9374929D02*
X9214579Y-9384453D01*
X9214579Y-9384453D02*
X9224103Y-9403500D01*
X9224103Y-9403500D02*
X9233627Y-9441596D01*
X9233627Y-9441596D02*
X9233627Y-9489215D01*
X9233627Y-9489215D02*
X9224103Y-9527310D01*
X9224103Y-9527310D02*
X9214579Y-9546358D01*
X9214579Y-9546358D02*
X9205055Y-9555881D01*
X9205055Y-9555881D02*
X9186008Y-9565405D01*
X9186008Y-9565405D02*
X9166960Y-9565405D01*
X9166960Y-9565405D02*
X9147913Y-9555881D01*
X9147913Y-9555881D02*
X9138389Y-9546358D01*
X9138389Y-9546358D02*
X9128865Y-9527310D01*
X9128865Y-9527310D02*
X9119341Y-9489215D01*
X9119341Y-9489215D02*
X9119341Y-9441596D01*
X9119341Y-9441596D02*
X9128865Y-9403500D01*
X9128865Y-9403500D02*
X9138389Y-9384453D01*
X9138389Y-9384453D02*
X9147913Y-9374929D01*
X9147913Y-9374929D02*
X9166960Y-9365405D01*
X9319341Y-9565405D02*
X9319341Y-9432072D01*
X9319341Y-9451119D02*
X9328865Y-9441596D01*
X9328865Y-9441596D02*
X9347913Y-9432072D01*
X9347913Y-9432072D02*
X9376484Y-9432072D01*
X9376484Y-9432072D02*
X9395532Y-9441596D01*
X9395532Y-9441596D02*
X9405055Y-9460643D01*
X9405055Y-9460643D02*
X9405055Y-9565405D01*
X9405055Y-9460643D02*
X9414579Y-9441596D01*
X9414579Y-9441596D02*
X9433627Y-9432072D01*
X9433627Y-9432072D02*
X9462198Y-9432072D01*
X9462198Y-9432072D02*
X9481246Y-9441596D01*
X9481246Y-9441596D02*
X9490770Y-9460643D01*
X9490770Y-9460643D02*
X9490770Y-9565405D01*
X9586008Y-9565405D02*
X9586008Y-9432072D01*
X9586008Y-9451119D02*
X9595532Y-9441596D01*
X9595532Y-9441596D02*
X9614579Y-9432072D01*
X9614579Y-9432072D02*
X9643151Y-9432072D01*
X9643151Y-9432072D02*
X9662198Y-9441596D01*
X9662198Y-9441596D02*
X9671722Y-9460643D01*
X9671722Y-9460643D02*
X9671722Y-9565405D01*
X9671722Y-9460643D02*
X9681246Y-9441596D01*
X9681246Y-9441596D02*
X9700294Y-9432072D01*
X9700294Y-9432072D02*
X9728865Y-9432072D01*
X9728865Y-9432072D02*
X9747913Y-9441596D01*
X9747913Y-9441596D02*
X9757436Y-9460643D01*
X9757436Y-9460643D02*
X9757436Y-9565405D01*
X10147913Y-9355881D02*
X9976484Y-9613024D01*
X10405056Y-9365405D02*
X10424103Y-9365405D01*
X10424103Y-9365405D02*
X10443151Y-9374929D01*
X10443151Y-9374929D02*
X10452675Y-9384453D01*
X10452675Y-9384453D02*
X10462198Y-9403500D01*
X10462198Y-9403500D02*
X10471722Y-9441596D01*
X10471722Y-9441596D02*
X10471722Y-9489215D01*
X10471722Y-9489215D02*
X10462198Y-9527310D01*
X10462198Y-9527310D02*
X10452675Y-9546358D01*
X10452675Y-9546358D02*
X10443151Y-9555881D01*
X10443151Y-9555881D02*
X10424103Y-9565405D01*
X10424103Y-9565405D02*
X10405056Y-9565405D01*
X10405056Y-9565405D02*
X10386008Y-9555881D01*
X10386008Y-9555881D02*
X10376484Y-9546358D01*
X10376484Y-9546358D02*
X10366960Y-9527310D01*
X10366960Y-9527310D02*
X10357437Y-9489215D01*
X10357437Y-9489215D02*
X10357437Y-9441596D01*
X10357437Y-9441596D02*
X10366960Y-9403500D01*
X10366960Y-9403500D02*
X10376484Y-9384453D01*
X10376484Y-9384453D02*
X10386008Y-9374929D01*
X10386008Y-9374929D02*
X10405056Y-9365405D01*
X10557437Y-9546358D02*
X10566960Y-9555881D01*
X10566960Y-9555881D02*
X10557437Y-9565405D01*
X10557437Y-9565405D02*
X10547913Y-9555881D01*
X10547913Y-9555881D02*
X10557437Y-9546358D01*
X10557437Y-9546358D02*
X10557437Y-9565405D01*
X10690770Y-9365405D02*
X10709818Y-9365405D01*
X10709818Y-9365405D02*
X10728865Y-9374929D01*
X10728865Y-9374929D02*
X10738389Y-9384453D01*
X10738389Y-9384453D02*
X10747913Y-9403500D01*
X10747913Y-9403500D02*
X10757437Y-9441596D01*
X10757437Y-9441596D02*
X10757437Y-9489215D01*
X10757437Y-9489215D02*
X10747913Y-9527310D01*
X10747913Y-9527310D02*
X10738389Y-9546358D01*
X10738389Y-9546358D02*
X10728865Y-9555881D01*
X10728865Y-9555881D02*
X10709818Y-9565405D01*
X10709818Y-9565405D02*
X10690770Y-9565405D01*
X10690770Y-9565405D02*
X10671722Y-9555881D01*
X10671722Y-9555881D02*
X10662198Y-9546358D01*
X10662198Y-9546358D02*
X10652675Y-9527310D01*
X10652675Y-9527310D02*
X10643151Y-9489215D01*
X10643151Y-9489215D02*
X10643151Y-9441596D01*
X10643151Y-9441596D02*
X10652675Y-9403500D01*
X10652675Y-9403500D02*
X10662198Y-9384453D01*
X10662198Y-9384453D02*
X10671722Y-9374929D01*
X10671722Y-9374929D02*
X10690770Y-9365405D01*
X10881246Y-9365405D02*
X10900294Y-9365405D01*
X10900294Y-9365405D02*
X10919341Y-9374929D01*
X10919341Y-9374929D02*
X10928865Y-9384453D01*
X10928865Y-9384453D02*
X10938389Y-9403500D01*
X10938389Y-9403500D02*
X10947913Y-9441596D01*
X10947913Y-9441596D02*
X10947913Y-9489215D01*
X10947913Y-9489215D02*
X10938389Y-9527310D01*
X10938389Y-9527310D02*
X10928865Y-9546358D01*
X10928865Y-9546358D02*
X10919341Y-9555881D01*
X10919341Y-9555881D02*
X10900294Y-9565405D01*
X10900294Y-9565405D02*
X10881246Y-9565405D01*
X10881246Y-9565405D02*
X10862198Y-9555881D01*
X10862198Y-9555881D02*
X10852675Y-9546358D01*
X10852675Y-9546358D02*
X10843151Y-9527310D01*
X10843151Y-9527310D02*
X10833627Y-9489215D01*
X10833627Y-9489215D02*
X10833627Y-9441596D01*
X10833627Y-9441596D02*
X10843151Y-9403500D01*
X10843151Y-9403500D02*
X10852675Y-9384453D01*
X10852675Y-9384453D02*
X10862198Y-9374929D01*
X10862198Y-9374929D02*
X10881246Y-9365405D01*
X11014579Y-9365405D02*
X11147913Y-9365405D01*
X11147913Y-9365405D02*
X11062198Y-9565405D01*
X11233627Y-9565405D02*
X11271722Y-9565405D01*
X11271722Y-9565405D02*
X11290770Y-9555881D01*
X11290770Y-9555881D02*
X11300294Y-9546358D01*
X11300294Y-9546358D02*
X11319341Y-9517786D01*
X11319341Y-9517786D02*
X11328865Y-9479691D01*
X11328865Y-9479691D02*
X11328865Y-9403500D01*
X11328865Y-9403500D02*
X11319341Y-9384453D01*
X11319341Y-9384453D02*
X11309817Y-9374929D01*
X11309817Y-9374929D02*
X11290770Y-9365405D01*
X11290770Y-9365405D02*
X11252675Y-9365405D01*
X11252675Y-9365405D02*
X11233627Y-9374929D01*
X11233627Y-9374929D02*
X11224103Y-9384453D01*
X11224103Y-9384453D02*
X11214579Y-9403500D01*
X11214579Y-9403500D02*
X11214579Y-9451119D01*
X11214579Y-9451119D02*
X11224103Y-9470167D01*
X11224103Y-9470167D02*
X11233627Y-9479691D01*
X11233627Y-9479691D02*
X11252675Y-9489215D01*
X11252675Y-9489215D02*
X11290770Y-9489215D01*
X11290770Y-9489215D02*
X11309817Y-9479691D01*
X11309817Y-9479691D02*
X11319341Y-9470167D01*
X11319341Y-9470167D02*
X11328865Y-9451119D01*
X11405056Y-9365405D02*
X11405056Y-9403500D01*
X11481246Y-9365405D02*
X11481246Y-9403500D01*
X11776484Y-9641596D02*
X11766960Y-9632072D01*
X11766960Y-9632072D02*
X11747913Y-9603500D01*
X11747913Y-9603500D02*
X11738389Y-9584453D01*
X11738389Y-9584453D02*
X11728865Y-9555881D01*
X11728865Y-9555881D02*
X11719341Y-9508262D01*
X11719341Y-9508262D02*
X11719341Y-9470167D01*
X11719341Y-9470167D02*
X11728865Y-9422548D01*
X11728865Y-9422548D02*
X11738389Y-9393977D01*
X11738389Y-9393977D02*
X11747913Y-9374929D01*
X11747913Y-9374929D02*
X11766960Y-9346358D01*
X11766960Y-9346358D02*
X11776484Y-9336834D01*
X11862198Y-9565405D02*
X11900294Y-9565405D01*
X11900294Y-9565405D02*
X11919341Y-9555881D01*
X11919341Y-9555881D02*
X11928865Y-9546358D01*
X11928865Y-9546358D02*
X11947913Y-9517786D01*
X11947913Y-9517786D02*
X11957437Y-9479691D01*
X11957437Y-9479691D02*
X11957437Y-9403500D01*
X11957437Y-9403500D02*
X11947913Y-9384453D01*
X11947913Y-9384453D02*
X11938389Y-9374929D01*
X11938389Y-9374929D02*
X11919341Y-9365405D01*
X11919341Y-9365405D02*
X11881246Y-9365405D01*
X11881246Y-9365405D02*
X11862198Y-9374929D01*
X11862198Y-9374929D02*
X11852675Y-9384453D01*
X11852675Y-9384453D02*
X11843151Y-9403500D01*
X11843151Y-9403500D02*
X11843151Y-9451119D01*
X11843151Y-9451119D02*
X11852675Y-9470167D01*
X11852675Y-9470167D02*
X11862198Y-9479691D01*
X11862198Y-9479691D02*
X11881246Y-9489215D01*
X11881246Y-9489215D02*
X11919341Y-9489215D01*
X11919341Y-9489215D02*
X11938389Y-9479691D01*
X11938389Y-9479691D02*
X11947913Y-9470167D01*
X11947913Y-9470167D02*
X11957437Y-9451119D01*
X12195532Y-9565405D02*
X12195532Y-9365405D01*
X12281246Y-9565405D02*
X12281246Y-9460643D01*
X12281246Y-9460643D02*
X12271722Y-9441596D01*
X12271722Y-9441596D02*
X12252675Y-9432072D01*
X12252675Y-9432072D02*
X12224103Y-9432072D01*
X12224103Y-9432072D02*
X12205056Y-9441596D01*
X12205056Y-9441596D02*
X12195532Y-9451119D01*
X12405056Y-9565405D02*
X12386008Y-9555881D01*
X12386008Y-9555881D02*
X12376484Y-9546358D01*
X12376484Y-9546358D02*
X12366960Y-9527310D01*
X12366960Y-9527310D02*
X12366960Y-9470167D01*
X12366960Y-9470167D02*
X12376484Y-9451119D01*
X12376484Y-9451119D02*
X12386008Y-9441596D01*
X12386008Y-9441596D02*
X12405056Y-9432072D01*
X12405056Y-9432072D02*
X12433627Y-9432072D01*
X12433627Y-9432072D02*
X12452675Y-9441596D01*
X12452675Y-9441596D02*
X12462199Y-9451119D01*
X12462199Y-9451119D02*
X12471722Y-9470167D01*
X12471722Y-9470167D02*
X12471722Y-9527310D01*
X12471722Y-9527310D02*
X12462199Y-9546358D01*
X12462199Y-9546358D02*
X12452675Y-9555881D01*
X12452675Y-9555881D02*
X12433627Y-9565405D01*
X12433627Y-9565405D02*
X12405056Y-9565405D01*
X12586008Y-9565405D02*
X12566960Y-9555881D01*
X12566960Y-9555881D02*
X12557437Y-9536834D01*
X12557437Y-9536834D02*
X12557437Y-9365405D01*
X12738389Y-9555881D02*
X12719341Y-9565405D01*
X12719341Y-9565405D02*
X12681246Y-9565405D01*
X12681246Y-9565405D02*
X12662199Y-9555881D01*
X12662199Y-9555881D02*
X12652675Y-9536834D01*
X12652675Y-9536834D02*
X12652675Y-9460643D01*
X12652675Y-9460643D02*
X12662199Y-9441596D01*
X12662199Y-9441596D02*
X12681246Y-9432072D01*
X12681246Y-9432072D02*
X12719341Y-9432072D01*
X12719341Y-9432072D02*
X12738389Y-9441596D01*
X12738389Y-9441596D02*
X12747913Y-9460643D01*
X12747913Y-9460643D02*
X12747913Y-9479691D01*
X12747913Y-9479691D02*
X12652675Y-9498739D01*
X12824103Y-9555881D02*
X12843151Y-9565405D01*
X12843151Y-9565405D02*
X12881246Y-9565405D01*
X12881246Y-9565405D02*
X12900294Y-9555881D01*
X12900294Y-9555881D02*
X12909818Y-9536834D01*
X12909818Y-9536834D02*
X12909818Y-9527310D01*
X12909818Y-9527310D02*
X12900294Y-9508262D01*
X12900294Y-9508262D02*
X12881246Y-9498739D01*
X12881246Y-9498739D02*
X12852675Y-9498739D01*
X12852675Y-9498739D02*
X12833627Y-9489215D01*
X12833627Y-9489215D02*
X12824103Y-9470167D01*
X12824103Y-9470167D02*
X12824103Y-9460643D01*
X12824103Y-9460643D02*
X12833627Y-9441596D01*
X12833627Y-9441596D02*
X12852675Y-9432072D01*
X12852675Y-9432072D02*
X12881246Y-9432072D01*
X12881246Y-9432072D02*
X12900294Y-9441596D01*
X12976484Y-9641596D02*
X12986008Y-9632072D01*
X12986008Y-9632072D02*
X13005056Y-9603500D01*
X13005056Y-9603500D02*
X13014580Y-9584453D01*
X13014580Y-9584453D02*
X13024103Y-9555881D01*
X13024103Y-9555881D02*
X13033627Y-9508262D01*
X13033627Y-9508262D02*
X13033627Y-9470167D01*
X13033627Y-9470167D02*
X13024103Y-9422548D01*
X13024103Y-9422548D02*
X13014580Y-9393977D01*
X13014580Y-9393977D02*
X13005056Y-9374929D01*
X13005056Y-9374929D02*
X12986008Y-9346358D01*
X12986008Y-9346358D02*
X12976484Y-9336834D01*
D12*
X8201421Y-9737921D02*
G75*
G02*
X8171421Y-9737921I-15000J0D01*
G01*
X8171421Y-9737921D02*
G75*
G02*
X8201421Y-9737921I15000J0D01*
G01*
D11*
X8500293Y-9629405D02*
X8519341Y-9629405D01*
X8519341Y-9629405D02*
X8538389Y-9638929D01*
X8538389Y-9638929D02*
X8547913Y-9648453D01*
X8547913Y-9648453D02*
X8557436Y-9667500D01*
X8557436Y-9667500D02*
X8566960Y-9705596D01*
X8566960Y-9705596D02*
X8566960Y-9753215D01*
X8566960Y-9753215D02*
X8557436Y-9791310D01*
X8557436Y-9791310D02*
X8547913Y-9810358D01*
X8547913Y-9810358D02*
X8538389Y-9819881D01*
X8538389Y-9819881D02*
X8519341Y-9829405D01*
X8519341Y-9829405D02*
X8500293Y-9829405D01*
X8500293Y-9829405D02*
X8481246Y-9819881D01*
X8481246Y-9819881D02*
X8471722Y-9810358D01*
X8471722Y-9810358D02*
X8462198Y-9791310D01*
X8462198Y-9791310D02*
X8452674Y-9753215D01*
X8452674Y-9753215D02*
X8452674Y-9705596D01*
X8452674Y-9705596D02*
X8462198Y-9667500D01*
X8462198Y-9667500D02*
X8471722Y-9648453D01*
X8471722Y-9648453D02*
X8481246Y-9638929D01*
X8481246Y-9638929D02*
X8500293Y-9629405D01*
X8652674Y-9810358D02*
X8662198Y-9819881D01*
X8662198Y-9819881D02*
X8652674Y-9829405D01*
X8652674Y-9829405D02*
X8643151Y-9819881D01*
X8643151Y-9819881D02*
X8652674Y-9810358D01*
X8652674Y-9810358D02*
X8652674Y-9829405D01*
X8728865Y-9629405D02*
X8852674Y-9629405D01*
X8852674Y-9629405D02*
X8786008Y-9705596D01*
X8786008Y-9705596D02*
X8814579Y-9705596D01*
X8814579Y-9705596D02*
X8833627Y-9715119D01*
X8833627Y-9715119D02*
X8843151Y-9724643D01*
X8843151Y-9724643D02*
X8852674Y-9743691D01*
X8852674Y-9743691D02*
X8852674Y-9791310D01*
X8852674Y-9791310D02*
X8843151Y-9810358D01*
X8843151Y-9810358D02*
X8833627Y-9819881D01*
X8833627Y-9819881D02*
X8814579Y-9829405D01*
X8814579Y-9829405D02*
X8757436Y-9829405D01*
X8757436Y-9829405D02*
X8738389Y-9819881D01*
X8738389Y-9819881D02*
X8728865Y-9810358D01*
X8976484Y-9629405D02*
X8995532Y-9629405D01*
X8995532Y-9629405D02*
X9014579Y-9638929D01*
X9014579Y-9638929D02*
X9024103Y-9648453D01*
X9024103Y-9648453D02*
X9033627Y-9667500D01*
X9033627Y-9667500D02*
X9043151Y-9705596D01*
X9043151Y-9705596D02*
X9043151Y-9753215D01*
X9043151Y-9753215D02*
X9033627Y-9791310D01*
X9033627Y-9791310D02*
X9024103Y-9810358D01*
X9024103Y-9810358D02*
X9014579Y-9819881D01*
X9014579Y-9819881D02*
X8995532Y-9829405D01*
X8995532Y-9829405D02*
X8976484Y-9829405D01*
X8976484Y-9829405D02*
X8957436Y-9819881D01*
X8957436Y-9819881D02*
X8947913Y-9810358D01*
X8947913Y-9810358D02*
X8938389Y-9791310D01*
X8938389Y-9791310D02*
X8928865Y-9753215D01*
X8928865Y-9753215D02*
X8928865Y-9705596D01*
X8928865Y-9705596D02*
X8938389Y-9667500D01*
X8938389Y-9667500D02*
X8947913Y-9648453D01*
X8947913Y-9648453D02*
X8957436Y-9638929D01*
X8957436Y-9638929D02*
X8976484Y-9629405D01*
X9166960Y-9629405D02*
X9186008Y-9629405D01*
X9186008Y-9629405D02*
X9205055Y-9638929D01*
X9205055Y-9638929D02*
X9214579Y-9648453D01*
X9214579Y-9648453D02*
X9224103Y-9667500D01*
X9224103Y-9667500D02*
X9233627Y-9705596D01*
X9233627Y-9705596D02*
X9233627Y-9753215D01*
X9233627Y-9753215D02*
X9224103Y-9791310D01*
X9224103Y-9791310D02*
X9214579Y-9810358D01*
X9214579Y-9810358D02*
X9205055Y-9819881D01*
X9205055Y-9819881D02*
X9186008Y-9829405D01*
X9186008Y-9829405D02*
X9166960Y-9829405D01*
X9166960Y-9829405D02*
X9147913Y-9819881D01*
X9147913Y-9819881D02*
X9138389Y-9810358D01*
X9138389Y-9810358D02*
X9128865Y-9791310D01*
X9128865Y-9791310D02*
X9119341Y-9753215D01*
X9119341Y-9753215D02*
X9119341Y-9705596D01*
X9119341Y-9705596D02*
X9128865Y-9667500D01*
X9128865Y-9667500D02*
X9138389Y-9648453D01*
X9138389Y-9648453D02*
X9147913Y-9638929D01*
X9147913Y-9638929D02*
X9166960Y-9629405D01*
X9319341Y-9829405D02*
X9319341Y-9696072D01*
X9319341Y-9715119D02*
X9328865Y-9705596D01*
X9328865Y-9705596D02*
X9347913Y-9696072D01*
X9347913Y-9696072D02*
X9376484Y-9696072D01*
X9376484Y-9696072D02*
X9395532Y-9705596D01*
X9395532Y-9705596D02*
X9405055Y-9724643D01*
X9405055Y-9724643D02*
X9405055Y-9829405D01*
X9405055Y-9724643D02*
X9414579Y-9705596D01*
X9414579Y-9705596D02*
X9433627Y-9696072D01*
X9433627Y-9696072D02*
X9462198Y-9696072D01*
X9462198Y-9696072D02*
X9481246Y-9705596D01*
X9481246Y-9705596D02*
X9490770Y-9724643D01*
X9490770Y-9724643D02*
X9490770Y-9829405D01*
X9586008Y-9829405D02*
X9586008Y-9696072D01*
X9586008Y-9715119D02*
X9595532Y-9705596D01*
X9595532Y-9705596D02*
X9614579Y-9696072D01*
X9614579Y-9696072D02*
X9643151Y-9696072D01*
X9643151Y-9696072D02*
X9662198Y-9705596D01*
X9662198Y-9705596D02*
X9671722Y-9724643D01*
X9671722Y-9724643D02*
X9671722Y-9829405D01*
X9671722Y-9724643D02*
X9681246Y-9705596D01*
X9681246Y-9705596D02*
X9700294Y-9696072D01*
X9700294Y-9696072D02*
X9728865Y-9696072D01*
X9728865Y-9696072D02*
X9747913Y-9705596D01*
X9747913Y-9705596D02*
X9757436Y-9724643D01*
X9757436Y-9724643D02*
X9757436Y-9829405D01*
X10147913Y-9619881D02*
X9976484Y-9877024D01*
X10405056Y-9629405D02*
X10424103Y-9629405D01*
X10424103Y-9629405D02*
X10443151Y-9638929D01*
X10443151Y-9638929D02*
X10452675Y-9648453D01*
X10452675Y-9648453D02*
X10462198Y-9667500D01*
X10462198Y-9667500D02*
X10471722Y-9705596D01*
X10471722Y-9705596D02*
X10471722Y-9753215D01*
X10471722Y-9753215D02*
X10462198Y-9791310D01*
X10462198Y-9791310D02*
X10452675Y-9810358D01*
X10452675Y-9810358D02*
X10443151Y-9819881D01*
X10443151Y-9819881D02*
X10424103Y-9829405D01*
X10424103Y-9829405D02*
X10405056Y-9829405D01*
X10405056Y-9829405D02*
X10386008Y-9819881D01*
X10386008Y-9819881D02*
X10376484Y-9810358D01*
X10376484Y-9810358D02*
X10366960Y-9791310D01*
X10366960Y-9791310D02*
X10357437Y-9753215D01*
X10357437Y-9753215D02*
X10357437Y-9705596D01*
X10357437Y-9705596D02*
X10366960Y-9667500D01*
X10366960Y-9667500D02*
X10376484Y-9648453D01*
X10376484Y-9648453D02*
X10386008Y-9638929D01*
X10386008Y-9638929D02*
X10405056Y-9629405D01*
X10557437Y-9810358D02*
X10566960Y-9819881D01*
X10566960Y-9819881D02*
X10557437Y-9829405D01*
X10557437Y-9829405D02*
X10547913Y-9819881D01*
X10547913Y-9819881D02*
X10557437Y-9810358D01*
X10557437Y-9810358D02*
X10557437Y-9829405D01*
X10690770Y-9629405D02*
X10709818Y-9629405D01*
X10709818Y-9629405D02*
X10728865Y-9638929D01*
X10728865Y-9638929D02*
X10738389Y-9648453D01*
X10738389Y-9648453D02*
X10747913Y-9667500D01*
X10747913Y-9667500D02*
X10757437Y-9705596D01*
X10757437Y-9705596D02*
X10757437Y-9753215D01*
X10757437Y-9753215D02*
X10747913Y-9791310D01*
X10747913Y-9791310D02*
X10738389Y-9810358D01*
X10738389Y-9810358D02*
X10728865Y-9819881D01*
X10728865Y-9819881D02*
X10709818Y-9829405D01*
X10709818Y-9829405D02*
X10690770Y-9829405D01*
X10690770Y-9829405D02*
X10671722Y-9819881D01*
X10671722Y-9819881D02*
X10662198Y-9810358D01*
X10662198Y-9810358D02*
X10652675Y-9791310D01*
X10652675Y-9791310D02*
X10643151Y-9753215D01*
X10643151Y-9753215D02*
X10643151Y-9705596D01*
X10643151Y-9705596D02*
X10652675Y-9667500D01*
X10652675Y-9667500D02*
X10662198Y-9648453D01*
X10662198Y-9648453D02*
X10671722Y-9638929D01*
X10671722Y-9638929D02*
X10690770Y-9629405D01*
X10947913Y-9829405D02*
X10833627Y-9829405D01*
X10890770Y-9829405D02*
X10890770Y-9629405D01*
X10890770Y-9629405D02*
X10871722Y-9657977D01*
X10871722Y-9657977D02*
X10852675Y-9677024D01*
X10852675Y-9677024D02*
X10833627Y-9686548D01*
X11138389Y-9829405D02*
X11024103Y-9829405D01*
X11081246Y-9829405D02*
X11081246Y-9629405D01*
X11081246Y-9629405D02*
X11062198Y-9657977D01*
X11062198Y-9657977D02*
X11043151Y-9677024D01*
X11043151Y-9677024D02*
X11024103Y-9686548D01*
X11252675Y-9715119D02*
X11233627Y-9705596D01*
X11233627Y-9705596D02*
X11224103Y-9696072D01*
X11224103Y-9696072D02*
X11214579Y-9677024D01*
X11214579Y-9677024D02*
X11214579Y-9667500D01*
X11214579Y-9667500D02*
X11224103Y-9648453D01*
X11224103Y-9648453D02*
X11233627Y-9638929D01*
X11233627Y-9638929D02*
X11252675Y-9629405D01*
X11252675Y-9629405D02*
X11290770Y-9629405D01*
X11290770Y-9629405D02*
X11309817Y-9638929D01*
X11309817Y-9638929D02*
X11319341Y-9648453D01*
X11319341Y-9648453D02*
X11328865Y-9667500D01*
X11328865Y-9667500D02*
X11328865Y-9677024D01*
X11328865Y-9677024D02*
X11319341Y-9696072D01*
X11319341Y-9696072D02*
X11309817Y-9705596D01*
X11309817Y-9705596D02*
X11290770Y-9715119D01*
X11290770Y-9715119D02*
X11252675Y-9715119D01*
X11252675Y-9715119D02*
X11233627Y-9724643D01*
X11233627Y-9724643D02*
X11224103Y-9734167D01*
X11224103Y-9734167D02*
X11214579Y-9753215D01*
X11214579Y-9753215D02*
X11214579Y-9791310D01*
X11214579Y-9791310D02*
X11224103Y-9810358D01*
X11224103Y-9810358D02*
X11233627Y-9819881D01*
X11233627Y-9819881D02*
X11252675Y-9829405D01*
X11252675Y-9829405D02*
X11290770Y-9829405D01*
X11290770Y-9829405D02*
X11309817Y-9819881D01*
X11309817Y-9819881D02*
X11319341Y-9810358D01*
X11319341Y-9810358D02*
X11328865Y-9791310D01*
X11328865Y-9791310D02*
X11328865Y-9753215D01*
X11328865Y-9753215D02*
X11319341Y-9734167D01*
X11319341Y-9734167D02*
X11309817Y-9724643D01*
X11309817Y-9724643D02*
X11290770Y-9715119D01*
X11405056Y-9629405D02*
X11405056Y-9667500D01*
X11481246Y-9629405D02*
X11481246Y-9667500D01*
X11776484Y-9905596D02*
X11766960Y-9896072D01*
X11766960Y-9896072D02*
X11747913Y-9867500D01*
X11747913Y-9867500D02*
X11738389Y-9848453D01*
X11738389Y-9848453D02*
X11728865Y-9819881D01*
X11728865Y-9819881D02*
X11719341Y-9772262D01*
X11719341Y-9772262D02*
X11719341Y-9734167D01*
X11719341Y-9734167D02*
X11728865Y-9686548D01*
X11728865Y-9686548D02*
X11738389Y-9657977D01*
X11738389Y-9657977D02*
X11747913Y-9638929D01*
X11747913Y-9638929D02*
X11766960Y-9610358D01*
X11766960Y-9610358D02*
X11776484Y-9600834D01*
X11881246Y-9715119D02*
X11862198Y-9705596D01*
X11862198Y-9705596D02*
X11852675Y-9696072D01*
X11852675Y-9696072D02*
X11843151Y-9677024D01*
X11843151Y-9677024D02*
X11843151Y-9667500D01*
X11843151Y-9667500D02*
X11852675Y-9648453D01*
X11852675Y-9648453D02*
X11862198Y-9638929D01*
X11862198Y-9638929D02*
X11881246Y-9629405D01*
X11881246Y-9629405D02*
X11919341Y-9629405D01*
X11919341Y-9629405D02*
X11938389Y-9638929D01*
X11938389Y-9638929D02*
X11947913Y-9648453D01*
X11947913Y-9648453D02*
X11957437Y-9667500D01*
X11957437Y-9667500D02*
X11957437Y-9677024D01*
X11957437Y-9677024D02*
X11947913Y-9696072D01*
X11947913Y-9696072D02*
X11938389Y-9705596D01*
X11938389Y-9705596D02*
X11919341Y-9715119D01*
X11919341Y-9715119D02*
X11881246Y-9715119D01*
X11881246Y-9715119D02*
X11862198Y-9724643D01*
X11862198Y-9724643D02*
X11852675Y-9734167D01*
X11852675Y-9734167D02*
X11843151Y-9753215D01*
X11843151Y-9753215D02*
X11843151Y-9791310D01*
X11843151Y-9791310D02*
X11852675Y-9810358D01*
X11852675Y-9810358D02*
X11862198Y-9819881D01*
X11862198Y-9819881D02*
X11881246Y-9829405D01*
X11881246Y-9829405D02*
X11919341Y-9829405D01*
X11919341Y-9829405D02*
X11938389Y-9819881D01*
X11938389Y-9819881D02*
X11947913Y-9810358D01*
X11947913Y-9810358D02*
X11957437Y-9791310D01*
X11957437Y-9791310D02*
X11957437Y-9753215D01*
X11957437Y-9753215D02*
X11947913Y-9734167D01*
X11947913Y-9734167D02*
X11938389Y-9724643D01*
X11938389Y-9724643D02*
X11919341Y-9715119D01*
X12081246Y-9629405D02*
X12100294Y-9629405D01*
X12100294Y-9629405D02*
X12119341Y-9638929D01*
X12119341Y-9638929D02*
X12128865Y-9648453D01*
X12128865Y-9648453D02*
X12138389Y-9667500D01*
X12138389Y-9667500D02*
X12147913Y-9705596D01*
X12147913Y-9705596D02*
X12147913Y-9753215D01*
X12147913Y-9753215D02*
X12138389Y-9791310D01*
X12138389Y-9791310D02*
X12128865Y-9810358D01*
X12128865Y-9810358D02*
X12119341Y-9819881D01*
X12119341Y-9819881D02*
X12100294Y-9829405D01*
X12100294Y-9829405D02*
X12081246Y-9829405D01*
X12081246Y-9829405D02*
X12062198Y-9819881D01*
X12062198Y-9819881D02*
X12052675Y-9810358D01*
X12052675Y-9810358D02*
X12043151Y-9791310D01*
X12043151Y-9791310D02*
X12033627Y-9753215D01*
X12033627Y-9753215D02*
X12033627Y-9705596D01*
X12033627Y-9705596D02*
X12043151Y-9667500D01*
X12043151Y-9667500D02*
X12052675Y-9648453D01*
X12052675Y-9648453D02*
X12062198Y-9638929D01*
X12062198Y-9638929D02*
X12081246Y-9629405D01*
X12386008Y-9829405D02*
X12386008Y-9629405D01*
X12471722Y-9829405D02*
X12471722Y-9724643D01*
X12471722Y-9724643D02*
X12462199Y-9705596D01*
X12462199Y-9705596D02*
X12443151Y-9696072D01*
X12443151Y-9696072D02*
X12414579Y-9696072D01*
X12414579Y-9696072D02*
X12395532Y-9705596D01*
X12395532Y-9705596D02*
X12386008Y-9715119D01*
X12595532Y-9829405D02*
X12576484Y-9819881D01*
X12576484Y-9819881D02*
X12566960Y-9810358D01*
X12566960Y-9810358D02*
X12557437Y-9791310D01*
X12557437Y-9791310D02*
X12557437Y-9734167D01*
X12557437Y-9734167D02*
X12566960Y-9715119D01*
X12566960Y-9715119D02*
X12576484Y-9705596D01*
X12576484Y-9705596D02*
X12595532Y-9696072D01*
X12595532Y-9696072D02*
X12624103Y-9696072D01*
X12624103Y-9696072D02*
X12643151Y-9705596D01*
X12643151Y-9705596D02*
X12652675Y-9715119D01*
X12652675Y-9715119D02*
X12662199Y-9734167D01*
X12662199Y-9734167D02*
X12662199Y-9791310D01*
X12662199Y-9791310D02*
X12652675Y-9810358D01*
X12652675Y-9810358D02*
X12643151Y-9819881D01*
X12643151Y-9819881D02*
X12624103Y-9829405D01*
X12624103Y-9829405D02*
X12595532Y-9829405D01*
X12776484Y-9829405D02*
X12757437Y-9819881D01*
X12757437Y-9819881D02*
X12747913Y-9800834D01*
X12747913Y-9800834D02*
X12747913Y-9629405D01*
X12928865Y-9819881D02*
X12909818Y-9829405D01*
X12909818Y-9829405D02*
X12871722Y-9829405D01*
X12871722Y-9829405D02*
X12852675Y-9819881D01*
X12852675Y-9819881D02*
X12843151Y-9800834D01*
X12843151Y-9800834D02*
X12843151Y-9724643D01*
X12843151Y-9724643D02*
X12852675Y-9705596D01*
X12852675Y-9705596D02*
X12871722Y-9696072D01*
X12871722Y-9696072D02*
X12909818Y-9696072D01*
X12909818Y-9696072D02*
X12928865Y-9705596D01*
X12928865Y-9705596D02*
X12938389Y-9724643D01*
X12938389Y-9724643D02*
X12938389Y-9743691D01*
X12938389Y-9743691D02*
X12843151Y-9762739D01*
X13014580Y-9819881D02*
X13033627Y-9829405D01*
X13033627Y-9829405D02*
X13071722Y-9829405D01*
X13071722Y-9829405D02*
X13090770Y-9819881D01*
X13090770Y-9819881D02*
X13100294Y-9800834D01*
X13100294Y-9800834D02*
X13100294Y-9791310D01*
X13100294Y-9791310D02*
X13090770Y-9772262D01*
X13090770Y-9772262D02*
X13071722Y-9762739D01*
X13071722Y-9762739D02*
X13043151Y-9762739D01*
X13043151Y-9762739D02*
X13024103Y-9753215D01*
X13024103Y-9753215D02*
X13014580Y-9734167D01*
X13014580Y-9734167D02*
X13014580Y-9724643D01*
X13014580Y-9724643D02*
X13024103Y-9705596D01*
X13024103Y-9705596D02*
X13043151Y-9696072D01*
X13043151Y-9696072D02*
X13071722Y-9696072D01*
X13071722Y-9696072D02*
X13090770Y-9705596D01*
X13166961Y-9905596D02*
X13176484Y-9896072D01*
X13176484Y-9896072D02*
X13195532Y-9867500D01*
X13195532Y-9867500D02*
X13205056Y-9848453D01*
X13205056Y-9848453D02*
X13214580Y-9819881D01*
X13214580Y-9819881D02*
X13224103Y-9772262D01*
X13224103Y-9772262D02*
X13224103Y-9734167D01*
X13224103Y-9734167D02*
X13214580Y-9686548D01*
X13214580Y-9686548D02*
X13205056Y-9657977D01*
X13205056Y-9657977D02*
X13195532Y-9638929D01*
X13195532Y-9638929D02*
X13176484Y-9610358D01*
X13176484Y-9610358D02*
X13166961Y-9600834D01*
D12*
X8176421Y-9976921D02*
X8176421Y-10026921D01*
X8151421Y-10001921D02*
X8201421Y-10001921D01*
D11*
X8500293Y-9893405D02*
X8519341Y-9893405D01*
X8519341Y-9893405D02*
X8538389Y-9902929D01*
X8538389Y-9902929D02*
X8547913Y-9912453D01*
X8547913Y-9912453D02*
X8557436Y-9931500D01*
X8557436Y-9931500D02*
X8566960Y-9969596D01*
X8566960Y-9969596D02*
X8566960Y-10017215D01*
X8566960Y-10017215D02*
X8557436Y-10055310D01*
X8557436Y-10055310D02*
X8547913Y-10074358D01*
X8547913Y-10074358D02*
X8538389Y-10083881D01*
X8538389Y-10083881D02*
X8519341Y-10093405D01*
X8519341Y-10093405D02*
X8500293Y-10093405D01*
X8500293Y-10093405D02*
X8481246Y-10083881D01*
X8481246Y-10083881D02*
X8471722Y-10074358D01*
X8471722Y-10074358D02*
X8462198Y-10055310D01*
X8462198Y-10055310D02*
X8452674Y-10017215D01*
X8452674Y-10017215D02*
X8452674Y-9969596D01*
X8452674Y-9969596D02*
X8462198Y-9931500D01*
X8462198Y-9931500D02*
X8471722Y-9912453D01*
X8471722Y-9912453D02*
X8481246Y-9902929D01*
X8481246Y-9902929D02*
X8500293Y-9893405D01*
X8652674Y-10074358D02*
X8662198Y-10083881D01*
X8662198Y-10083881D02*
X8652674Y-10093405D01*
X8652674Y-10093405D02*
X8643151Y-10083881D01*
X8643151Y-10083881D02*
X8652674Y-10074358D01*
X8652674Y-10074358D02*
X8652674Y-10093405D01*
X8843151Y-9893405D02*
X8747913Y-9893405D01*
X8747913Y-9893405D02*
X8738389Y-9988643D01*
X8738389Y-9988643D02*
X8747913Y-9979119D01*
X8747913Y-9979119D02*
X8766960Y-9969596D01*
X8766960Y-9969596D02*
X8814579Y-9969596D01*
X8814579Y-9969596D02*
X8833627Y-9979119D01*
X8833627Y-9979119D02*
X8843151Y-9988643D01*
X8843151Y-9988643D02*
X8852674Y-10007691D01*
X8852674Y-10007691D02*
X8852674Y-10055310D01*
X8852674Y-10055310D02*
X8843151Y-10074358D01*
X8843151Y-10074358D02*
X8833627Y-10083881D01*
X8833627Y-10083881D02*
X8814579Y-10093405D01*
X8814579Y-10093405D02*
X8766960Y-10093405D01*
X8766960Y-10093405D02*
X8747913Y-10083881D01*
X8747913Y-10083881D02*
X8738389Y-10074358D01*
X8976484Y-9893405D02*
X8995532Y-9893405D01*
X8995532Y-9893405D02*
X9014579Y-9902929D01*
X9014579Y-9902929D02*
X9024103Y-9912453D01*
X9024103Y-9912453D02*
X9033627Y-9931500D01*
X9033627Y-9931500D02*
X9043151Y-9969596D01*
X9043151Y-9969596D02*
X9043151Y-10017215D01*
X9043151Y-10017215D02*
X9033627Y-10055310D01*
X9033627Y-10055310D02*
X9024103Y-10074358D01*
X9024103Y-10074358D02*
X9014579Y-10083881D01*
X9014579Y-10083881D02*
X8995532Y-10093405D01*
X8995532Y-10093405D02*
X8976484Y-10093405D01*
X8976484Y-10093405D02*
X8957436Y-10083881D01*
X8957436Y-10083881D02*
X8947913Y-10074358D01*
X8947913Y-10074358D02*
X8938389Y-10055310D01*
X8938389Y-10055310D02*
X8928865Y-10017215D01*
X8928865Y-10017215D02*
X8928865Y-9969596D01*
X8928865Y-9969596D02*
X8938389Y-9931500D01*
X8938389Y-9931500D02*
X8947913Y-9912453D01*
X8947913Y-9912453D02*
X8957436Y-9902929D01*
X8957436Y-9902929D02*
X8976484Y-9893405D01*
X9166960Y-9893405D02*
X9186008Y-9893405D01*
X9186008Y-9893405D02*
X9205055Y-9902929D01*
X9205055Y-9902929D02*
X9214579Y-9912453D01*
X9214579Y-9912453D02*
X9224103Y-9931500D01*
X9224103Y-9931500D02*
X9233627Y-9969596D01*
X9233627Y-9969596D02*
X9233627Y-10017215D01*
X9233627Y-10017215D02*
X9224103Y-10055310D01*
X9224103Y-10055310D02*
X9214579Y-10074358D01*
X9214579Y-10074358D02*
X9205055Y-10083881D01*
X9205055Y-10083881D02*
X9186008Y-10093405D01*
X9186008Y-10093405D02*
X9166960Y-10093405D01*
X9166960Y-10093405D02*
X9147913Y-10083881D01*
X9147913Y-10083881D02*
X9138389Y-10074358D01*
X9138389Y-10074358D02*
X9128865Y-10055310D01*
X9128865Y-10055310D02*
X9119341Y-10017215D01*
X9119341Y-10017215D02*
X9119341Y-9969596D01*
X9119341Y-9969596D02*
X9128865Y-9931500D01*
X9128865Y-9931500D02*
X9138389Y-9912453D01*
X9138389Y-9912453D02*
X9147913Y-9902929D01*
X9147913Y-9902929D02*
X9166960Y-9893405D01*
X9319341Y-10093405D02*
X9319341Y-9960072D01*
X9319341Y-9979119D02*
X9328865Y-9969596D01*
X9328865Y-9969596D02*
X9347913Y-9960072D01*
X9347913Y-9960072D02*
X9376484Y-9960072D01*
X9376484Y-9960072D02*
X9395532Y-9969596D01*
X9395532Y-9969596D02*
X9405055Y-9988643D01*
X9405055Y-9988643D02*
X9405055Y-10093405D01*
X9405055Y-9988643D02*
X9414579Y-9969596D01*
X9414579Y-9969596D02*
X9433627Y-9960072D01*
X9433627Y-9960072D02*
X9462198Y-9960072D01*
X9462198Y-9960072D02*
X9481246Y-9969596D01*
X9481246Y-9969596D02*
X9490770Y-9988643D01*
X9490770Y-9988643D02*
X9490770Y-10093405D01*
X9586008Y-10093405D02*
X9586008Y-9960072D01*
X9586008Y-9979119D02*
X9595532Y-9969596D01*
X9595532Y-9969596D02*
X9614579Y-9960072D01*
X9614579Y-9960072D02*
X9643151Y-9960072D01*
X9643151Y-9960072D02*
X9662198Y-9969596D01*
X9662198Y-9969596D02*
X9671722Y-9988643D01*
X9671722Y-9988643D02*
X9671722Y-10093405D01*
X9671722Y-9988643D02*
X9681246Y-9969596D01*
X9681246Y-9969596D02*
X9700294Y-9960072D01*
X9700294Y-9960072D02*
X9728865Y-9960072D01*
X9728865Y-9960072D02*
X9747913Y-9969596D01*
X9747913Y-9969596D02*
X9757436Y-9988643D01*
X9757436Y-9988643D02*
X9757436Y-10093405D01*
X10147913Y-9883881D02*
X9976484Y-10141024D01*
X10405056Y-9893405D02*
X10424103Y-9893405D01*
X10424103Y-9893405D02*
X10443151Y-9902929D01*
X10443151Y-9902929D02*
X10452675Y-9912453D01*
X10452675Y-9912453D02*
X10462198Y-9931500D01*
X10462198Y-9931500D02*
X10471722Y-9969596D01*
X10471722Y-9969596D02*
X10471722Y-10017215D01*
X10471722Y-10017215D02*
X10462198Y-10055310D01*
X10462198Y-10055310D02*
X10452675Y-10074358D01*
X10452675Y-10074358D02*
X10443151Y-10083881D01*
X10443151Y-10083881D02*
X10424103Y-10093405D01*
X10424103Y-10093405D02*
X10405056Y-10093405D01*
X10405056Y-10093405D02*
X10386008Y-10083881D01*
X10386008Y-10083881D02*
X10376484Y-10074358D01*
X10376484Y-10074358D02*
X10366960Y-10055310D01*
X10366960Y-10055310D02*
X10357437Y-10017215D01*
X10357437Y-10017215D02*
X10357437Y-9969596D01*
X10357437Y-9969596D02*
X10366960Y-9931500D01*
X10366960Y-9931500D02*
X10376484Y-9912453D01*
X10376484Y-9912453D02*
X10386008Y-9902929D01*
X10386008Y-9902929D02*
X10405056Y-9893405D01*
X10557437Y-10074358D02*
X10566960Y-10083881D01*
X10566960Y-10083881D02*
X10557437Y-10093405D01*
X10557437Y-10093405D02*
X10547913Y-10083881D01*
X10547913Y-10083881D02*
X10557437Y-10074358D01*
X10557437Y-10074358D02*
X10557437Y-10093405D01*
X10690770Y-9893405D02*
X10709818Y-9893405D01*
X10709818Y-9893405D02*
X10728865Y-9902929D01*
X10728865Y-9902929D02*
X10738389Y-9912453D01*
X10738389Y-9912453D02*
X10747913Y-9931500D01*
X10747913Y-9931500D02*
X10757437Y-9969596D01*
X10757437Y-9969596D02*
X10757437Y-10017215D01*
X10757437Y-10017215D02*
X10747913Y-10055310D01*
X10747913Y-10055310D02*
X10738389Y-10074358D01*
X10738389Y-10074358D02*
X10728865Y-10083881D01*
X10728865Y-10083881D02*
X10709818Y-10093405D01*
X10709818Y-10093405D02*
X10690770Y-10093405D01*
X10690770Y-10093405D02*
X10671722Y-10083881D01*
X10671722Y-10083881D02*
X10662198Y-10074358D01*
X10662198Y-10074358D02*
X10652675Y-10055310D01*
X10652675Y-10055310D02*
X10643151Y-10017215D01*
X10643151Y-10017215D02*
X10643151Y-9969596D01*
X10643151Y-9969596D02*
X10652675Y-9931500D01*
X10652675Y-9931500D02*
X10662198Y-9912453D01*
X10662198Y-9912453D02*
X10671722Y-9902929D01*
X10671722Y-9902929D02*
X10690770Y-9893405D01*
X10947913Y-10093405D02*
X10833627Y-10093405D01*
X10890770Y-10093405D02*
X10890770Y-9893405D01*
X10890770Y-9893405D02*
X10871722Y-9921977D01*
X10871722Y-9921977D02*
X10852675Y-9941024D01*
X10852675Y-9941024D02*
X10833627Y-9950548D01*
X11043151Y-10093405D02*
X11081246Y-10093405D01*
X11081246Y-10093405D02*
X11100294Y-10083881D01*
X11100294Y-10083881D02*
X11109818Y-10074358D01*
X11109818Y-10074358D02*
X11128865Y-10045786D01*
X11128865Y-10045786D02*
X11138389Y-10007691D01*
X11138389Y-10007691D02*
X11138389Y-9931500D01*
X11138389Y-9931500D02*
X11128865Y-9912453D01*
X11128865Y-9912453D02*
X11119341Y-9902929D01*
X11119341Y-9902929D02*
X11100294Y-9893405D01*
X11100294Y-9893405D02*
X11062198Y-9893405D01*
X11062198Y-9893405D02*
X11043151Y-9902929D01*
X11043151Y-9902929D02*
X11033627Y-9912453D01*
X11033627Y-9912453D02*
X11024103Y-9931500D01*
X11024103Y-9931500D02*
X11024103Y-9979119D01*
X11024103Y-9979119D02*
X11033627Y-9998167D01*
X11033627Y-9998167D02*
X11043151Y-10007691D01*
X11043151Y-10007691D02*
X11062198Y-10017215D01*
X11062198Y-10017215D02*
X11100294Y-10017215D01*
X11100294Y-10017215D02*
X11119341Y-10007691D01*
X11119341Y-10007691D02*
X11128865Y-9998167D01*
X11128865Y-9998167D02*
X11138389Y-9979119D01*
X11205056Y-9893405D02*
X11338389Y-9893405D01*
X11338389Y-9893405D02*
X11252675Y-10093405D01*
X11405056Y-9893405D02*
X11405056Y-9931500D01*
X11481246Y-9893405D02*
X11481246Y-9931500D01*
X11776484Y-10169596D02*
X11766960Y-10160072D01*
X11766960Y-10160072D02*
X11747913Y-10131500D01*
X11747913Y-10131500D02*
X11738389Y-10112453D01*
X11738389Y-10112453D02*
X11728865Y-10083881D01*
X11728865Y-10083881D02*
X11719341Y-10036262D01*
X11719341Y-10036262D02*
X11719341Y-9998167D01*
X11719341Y-9998167D02*
X11728865Y-9950548D01*
X11728865Y-9950548D02*
X11738389Y-9921977D01*
X11738389Y-9921977D02*
X11747913Y-9902929D01*
X11747913Y-9902929D02*
X11766960Y-9874358D01*
X11766960Y-9874358D02*
X11776484Y-9864834D01*
X11833627Y-9893405D02*
X11957437Y-9893405D01*
X11957437Y-9893405D02*
X11890770Y-9969596D01*
X11890770Y-9969596D02*
X11919341Y-9969596D01*
X11919341Y-9969596D02*
X11938389Y-9979119D01*
X11938389Y-9979119D02*
X11947913Y-9988643D01*
X11947913Y-9988643D02*
X11957437Y-10007691D01*
X11957437Y-10007691D02*
X11957437Y-10055310D01*
X11957437Y-10055310D02*
X11947913Y-10074358D01*
X11947913Y-10074358D02*
X11938389Y-10083881D01*
X11938389Y-10083881D02*
X11919341Y-10093405D01*
X11919341Y-10093405D02*
X11862198Y-10093405D01*
X11862198Y-10093405D02*
X11843151Y-10083881D01*
X11843151Y-10083881D02*
X11833627Y-10074358D01*
X12195532Y-10093405D02*
X12195532Y-9893405D01*
X12281246Y-10093405D02*
X12281246Y-9988643D01*
X12281246Y-9988643D02*
X12271722Y-9969596D01*
X12271722Y-9969596D02*
X12252675Y-9960072D01*
X12252675Y-9960072D02*
X12224103Y-9960072D01*
X12224103Y-9960072D02*
X12205056Y-9969596D01*
X12205056Y-9969596D02*
X12195532Y-9979119D01*
X12405056Y-10093405D02*
X12386008Y-10083881D01*
X12386008Y-10083881D02*
X12376484Y-10074358D01*
X12376484Y-10074358D02*
X12366960Y-10055310D01*
X12366960Y-10055310D02*
X12366960Y-9998167D01*
X12366960Y-9998167D02*
X12376484Y-9979119D01*
X12376484Y-9979119D02*
X12386008Y-9969596D01*
X12386008Y-9969596D02*
X12405056Y-9960072D01*
X12405056Y-9960072D02*
X12433627Y-9960072D01*
X12433627Y-9960072D02*
X12452675Y-9969596D01*
X12452675Y-9969596D02*
X12462199Y-9979119D01*
X12462199Y-9979119D02*
X12471722Y-9998167D01*
X12471722Y-9998167D02*
X12471722Y-10055310D01*
X12471722Y-10055310D02*
X12462199Y-10074358D01*
X12462199Y-10074358D02*
X12452675Y-10083881D01*
X12452675Y-10083881D02*
X12433627Y-10093405D01*
X12433627Y-10093405D02*
X12405056Y-10093405D01*
X12586008Y-10093405D02*
X12566960Y-10083881D01*
X12566960Y-10083881D02*
X12557437Y-10064834D01*
X12557437Y-10064834D02*
X12557437Y-9893405D01*
X12738389Y-10083881D02*
X12719341Y-10093405D01*
X12719341Y-10093405D02*
X12681246Y-10093405D01*
X12681246Y-10093405D02*
X12662199Y-10083881D01*
X12662199Y-10083881D02*
X12652675Y-10064834D01*
X12652675Y-10064834D02*
X12652675Y-9988643D01*
X12652675Y-9988643D02*
X12662199Y-9969596D01*
X12662199Y-9969596D02*
X12681246Y-9960072D01*
X12681246Y-9960072D02*
X12719341Y-9960072D01*
X12719341Y-9960072D02*
X12738389Y-9969596D01*
X12738389Y-9969596D02*
X12747913Y-9988643D01*
X12747913Y-9988643D02*
X12747913Y-10007691D01*
X12747913Y-10007691D02*
X12652675Y-10026739D01*
X12824103Y-10083881D02*
X12843151Y-10093405D01*
X12843151Y-10093405D02*
X12881246Y-10093405D01*
X12881246Y-10093405D02*
X12900294Y-10083881D01*
X12900294Y-10083881D02*
X12909818Y-10064834D01*
X12909818Y-10064834D02*
X12909818Y-10055310D01*
X12909818Y-10055310D02*
X12900294Y-10036262D01*
X12900294Y-10036262D02*
X12881246Y-10026739D01*
X12881246Y-10026739D02*
X12852675Y-10026739D01*
X12852675Y-10026739D02*
X12833627Y-10017215D01*
X12833627Y-10017215D02*
X12824103Y-9998167D01*
X12824103Y-9998167D02*
X12824103Y-9988643D01*
X12824103Y-9988643D02*
X12833627Y-9969596D01*
X12833627Y-9969596D02*
X12852675Y-9960072D01*
X12852675Y-9960072D02*
X12881246Y-9960072D01*
X12881246Y-9960072D02*
X12900294Y-9969596D01*
X12976484Y-10169596D02*
X12986008Y-10160072D01*
X12986008Y-10160072D02*
X13005056Y-10131500D01*
X13005056Y-10131500D02*
X13014580Y-10112453D01*
X13014580Y-10112453D02*
X13024103Y-10083881D01*
X13024103Y-10083881D02*
X13033627Y-10036262D01*
X13033627Y-10036262D02*
X13033627Y-9998167D01*
X13033627Y-9998167D02*
X13024103Y-9950548D01*
X13024103Y-9950548D02*
X13014580Y-9921977D01*
X13014580Y-9921977D02*
X13005056Y-9902929D01*
X13005056Y-9902929D02*
X12986008Y-9874358D01*
X12986008Y-9874358D02*
X12976484Y-9864834D01*
D12*
X8191170Y-10290670D02*
X8191170Y-10241172D01*
X8141672Y-10241172D01*
X8141672Y-10290670D01*
X8191170Y-10290670D01*
D11*
X8500293Y-10157405D02*
X8519341Y-10157405D01*
X8519341Y-10157405D02*
X8538389Y-10166929D01*
X8538389Y-10166929D02*
X8547913Y-10176453D01*
X8547913Y-10176453D02*
X8557436Y-10195500D01*
X8557436Y-10195500D02*
X8566960Y-10233596D01*
X8566960Y-10233596D02*
X8566960Y-10281215D01*
X8566960Y-10281215D02*
X8557436Y-10319310D01*
X8557436Y-10319310D02*
X8547913Y-10338358D01*
X8547913Y-10338358D02*
X8538389Y-10347881D01*
X8538389Y-10347881D02*
X8519341Y-10357405D01*
X8519341Y-10357405D02*
X8500293Y-10357405D01*
X8500293Y-10357405D02*
X8481246Y-10347881D01*
X8481246Y-10347881D02*
X8471722Y-10338358D01*
X8471722Y-10338358D02*
X8462198Y-10319310D01*
X8462198Y-10319310D02*
X8452674Y-10281215D01*
X8452674Y-10281215D02*
X8452674Y-10233596D01*
X8452674Y-10233596D02*
X8462198Y-10195500D01*
X8462198Y-10195500D02*
X8471722Y-10176453D01*
X8471722Y-10176453D02*
X8481246Y-10166929D01*
X8481246Y-10166929D02*
X8500293Y-10157405D01*
X8652674Y-10338358D02*
X8662198Y-10347881D01*
X8662198Y-10347881D02*
X8652674Y-10357405D01*
X8652674Y-10357405D02*
X8643151Y-10347881D01*
X8643151Y-10347881D02*
X8652674Y-10338358D01*
X8652674Y-10338358D02*
X8652674Y-10357405D01*
X8728865Y-10157405D02*
X8862198Y-10157405D01*
X8862198Y-10157405D02*
X8776484Y-10357405D01*
X8976484Y-10157405D02*
X8995532Y-10157405D01*
X8995532Y-10157405D02*
X9014579Y-10166929D01*
X9014579Y-10166929D02*
X9024103Y-10176453D01*
X9024103Y-10176453D02*
X9033627Y-10195500D01*
X9033627Y-10195500D02*
X9043151Y-10233596D01*
X9043151Y-10233596D02*
X9043151Y-10281215D01*
X9043151Y-10281215D02*
X9033627Y-10319310D01*
X9033627Y-10319310D02*
X9024103Y-10338358D01*
X9024103Y-10338358D02*
X9014579Y-10347881D01*
X9014579Y-10347881D02*
X8995532Y-10357405D01*
X8995532Y-10357405D02*
X8976484Y-10357405D01*
X8976484Y-10357405D02*
X8957436Y-10347881D01*
X8957436Y-10347881D02*
X8947913Y-10338358D01*
X8947913Y-10338358D02*
X8938389Y-10319310D01*
X8938389Y-10319310D02*
X8928865Y-10281215D01*
X8928865Y-10281215D02*
X8928865Y-10233596D01*
X8928865Y-10233596D02*
X8938389Y-10195500D01*
X8938389Y-10195500D02*
X8947913Y-10176453D01*
X8947913Y-10176453D02*
X8957436Y-10166929D01*
X8957436Y-10166929D02*
X8976484Y-10157405D01*
X9166960Y-10157405D02*
X9186008Y-10157405D01*
X9186008Y-10157405D02*
X9205055Y-10166929D01*
X9205055Y-10166929D02*
X9214579Y-10176453D01*
X9214579Y-10176453D02*
X9224103Y-10195500D01*
X9224103Y-10195500D02*
X9233627Y-10233596D01*
X9233627Y-10233596D02*
X9233627Y-10281215D01*
X9233627Y-10281215D02*
X9224103Y-10319310D01*
X9224103Y-10319310D02*
X9214579Y-10338358D01*
X9214579Y-10338358D02*
X9205055Y-10347881D01*
X9205055Y-10347881D02*
X9186008Y-10357405D01*
X9186008Y-10357405D02*
X9166960Y-10357405D01*
X9166960Y-10357405D02*
X9147913Y-10347881D01*
X9147913Y-10347881D02*
X9138389Y-10338358D01*
X9138389Y-10338358D02*
X9128865Y-10319310D01*
X9128865Y-10319310D02*
X9119341Y-10281215D01*
X9119341Y-10281215D02*
X9119341Y-10233596D01*
X9119341Y-10233596D02*
X9128865Y-10195500D01*
X9128865Y-10195500D02*
X9138389Y-10176453D01*
X9138389Y-10176453D02*
X9147913Y-10166929D01*
X9147913Y-10166929D02*
X9166960Y-10157405D01*
X9319341Y-10357405D02*
X9319341Y-10224072D01*
X9319341Y-10243119D02*
X9328865Y-10233596D01*
X9328865Y-10233596D02*
X9347913Y-10224072D01*
X9347913Y-10224072D02*
X9376484Y-10224072D01*
X9376484Y-10224072D02*
X9395532Y-10233596D01*
X9395532Y-10233596D02*
X9405055Y-10252643D01*
X9405055Y-10252643D02*
X9405055Y-10357405D01*
X9405055Y-10252643D02*
X9414579Y-10233596D01*
X9414579Y-10233596D02*
X9433627Y-10224072D01*
X9433627Y-10224072D02*
X9462198Y-10224072D01*
X9462198Y-10224072D02*
X9481246Y-10233596D01*
X9481246Y-10233596D02*
X9490770Y-10252643D01*
X9490770Y-10252643D02*
X9490770Y-10357405D01*
X9586008Y-10357405D02*
X9586008Y-10224072D01*
X9586008Y-10243119D02*
X9595532Y-10233596D01*
X9595532Y-10233596D02*
X9614579Y-10224072D01*
X9614579Y-10224072D02*
X9643151Y-10224072D01*
X9643151Y-10224072D02*
X9662198Y-10233596D01*
X9662198Y-10233596D02*
X9671722Y-10252643D01*
X9671722Y-10252643D02*
X9671722Y-10357405D01*
X9671722Y-10252643D02*
X9681246Y-10233596D01*
X9681246Y-10233596D02*
X9700294Y-10224072D01*
X9700294Y-10224072D02*
X9728865Y-10224072D01*
X9728865Y-10224072D02*
X9747913Y-10233596D01*
X9747913Y-10233596D02*
X9757436Y-10252643D01*
X9757436Y-10252643D02*
X9757436Y-10357405D01*
X10147913Y-10147881D02*
X9976484Y-10405024D01*
X10405056Y-10157405D02*
X10424103Y-10157405D01*
X10424103Y-10157405D02*
X10443151Y-10166929D01*
X10443151Y-10166929D02*
X10452675Y-10176453D01*
X10452675Y-10176453D02*
X10462198Y-10195500D01*
X10462198Y-10195500D02*
X10471722Y-10233596D01*
X10471722Y-10233596D02*
X10471722Y-10281215D01*
X10471722Y-10281215D02*
X10462198Y-10319310D01*
X10462198Y-10319310D02*
X10452675Y-10338358D01*
X10452675Y-10338358D02*
X10443151Y-10347881D01*
X10443151Y-10347881D02*
X10424103Y-10357405D01*
X10424103Y-10357405D02*
X10405056Y-10357405D01*
X10405056Y-10357405D02*
X10386008Y-10347881D01*
X10386008Y-10347881D02*
X10376484Y-10338358D01*
X10376484Y-10338358D02*
X10366960Y-10319310D01*
X10366960Y-10319310D02*
X10357437Y-10281215D01*
X10357437Y-10281215D02*
X10357437Y-10233596D01*
X10357437Y-10233596D02*
X10366960Y-10195500D01*
X10366960Y-10195500D02*
X10376484Y-10176453D01*
X10376484Y-10176453D02*
X10386008Y-10166929D01*
X10386008Y-10166929D02*
X10405056Y-10157405D01*
X10557437Y-10338358D02*
X10566960Y-10347881D01*
X10566960Y-10347881D02*
X10557437Y-10357405D01*
X10557437Y-10357405D02*
X10547913Y-10347881D01*
X10547913Y-10347881D02*
X10557437Y-10338358D01*
X10557437Y-10338358D02*
X10557437Y-10357405D01*
X10690770Y-10157405D02*
X10709818Y-10157405D01*
X10709818Y-10157405D02*
X10728865Y-10166929D01*
X10728865Y-10166929D02*
X10738389Y-10176453D01*
X10738389Y-10176453D02*
X10747913Y-10195500D01*
X10747913Y-10195500D02*
X10757437Y-10233596D01*
X10757437Y-10233596D02*
X10757437Y-10281215D01*
X10757437Y-10281215D02*
X10747913Y-10319310D01*
X10747913Y-10319310D02*
X10738389Y-10338358D01*
X10738389Y-10338358D02*
X10728865Y-10347881D01*
X10728865Y-10347881D02*
X10709818Y-10357405D01*
X10709818Y-10357405D02*
X10690770Y-10357405D01*
X10690770Y-10357405D02*
X10671722Y-10347881D01*
X10671722Y-10347881D02*
X10662198Y-10338358D01*
X10662198Y-10338358D02*
X10652675Y-10319310D01*
X10652675Y-10319310D02*
X10643151Y-10281215D01*
X10643151Y-10281215D02*
X10643151Y-10233596D01*
X10643151Y-10233596D02*
X10652675Y-10195500D01*
X10652675Y-10195500D02*
X10662198Y-10176453D01*
X10662198Y-10176453D02*
X10671722Y-10166929D01*
X10671722Y-10166929D02*
X10690770Y-10157405D01*
X10833627Y-10176453D02*
X10843151Y-10166929D01*
X10843151Y-10166929D02*
X10862198Y-10157405D01*
X10862198Y-10157405D02*
X10909818Y-10157405D01*
X10909818Y-10157405D02*
X10928865Y-10166929D01*
X10928865Y-10166929D02*
X10938389Y-10176453D01*
X10938389Y-10176453D02*
X10947913Y-10195500D01*
X10947913Y-10195500D02*
X10947913Y-10214548D01*
X10947913Y-10214548D02*
X10938389Y-10243119D01*
X10938389Y-10243119D02*
X10824103Y-10357405D01*
X10824103Y-10357405D02*
X10947913Y-10357405D01*
X11014579Y-10157405D02*
X11147913Y-10157405D01*
X11147913Y-10157405D02*
X11062198Y-10357405D01*
X11309817Y-10157405D02*
X11271722Y-10157405D01*
X11271722Y-10157405D02*
X11252675Y-10166929D01*
X11252675Y-10166929D02*
X11243151Y-10176453D01*
X11243151Y-10176453D02*
X11224103Y-10205024D01*
X11224103Y-10205024D02*
X11214579Y-10243119D01*
X11214579Y-10243119D02*
X11214579Y-10319310D01*
X11214579Y-10319310D02*
X11224103Y-10338358D01*
X11224103Y-10338358D02*
X11233627Y-10347881D01*
X11233627Y-10347881D02*
X11252675Y-10357405D01*
X11252675Y-10357405D02*
X11290770Y-10357405D01*
X11290770Y-10357405D02*
X11309817Y-10347881D01*
X11309817Y-10347881D02*
X11319341Y-10338358D01*
X11319341Y-10338358D02*
X11328865Y-10319310D01*
X11328865Y-10319310D02*
X11328865Y-10271691D01*
X11328865Y-10271691D02*
X11319341Y-10252643D01*
X11319341Y-10252643D02*
X11309817Y-10243119D01*
X11309817Y-10243119D02*
X11290770Y-10233596D01*
X11290770Y-10233596D02*
X11252675Y-10233596D01*
X11252675Y-10233596D02*
X11233627Y-10243119D01*
X11233627Y-10243119D02*
X11224103Y-10252643D01*
X11224103Y-10252643D02*
X11214579Y-10271691D01*
X11405056Y-10157405D02*
X11405056Y-10195500D01*
X11481246Y-10157405D02*
X11481246Y-10195500D01*
X11776484Y-10433596D02*
X11766960Y-10424072D01*
X11766960Y-10424072D02*
X11747913Y-10395500D01*
X11747913Y-10395500D02*
X11738389Y-10376453D01*
X11738389Y-10376453D02*
X11728865Y-10347881D01*
X11728865Y-10347881D02*
X11719341Y-10300262D01*
X11719341Y-10300262D02*
X11719341Y-10262167D01*
X11719341Y-10262167D02*
X11728865Y-10214548D01*
X11728865Y-10214548D02*
X11738389Y-10185977D01*
X11738389Y-10185977D02*
X11747913Y-10166929D01*
X11747913Y-10166929D02*
X11766960Y-10138358D01*
X11766960Y-10138358D02*
X11776484Y-10128834D01*
X11938389Y-10224072D02*
X11938389Y-10357405D01*
X11890770Y-10147881D02*
X11843151Y-10290739D01*
X11843151Y-10290739D02*
X11966960Y-10290739D01*
X12195532Y-10357405D02*
X12195532Y-10157405D01*
X12281246Y-10357405D02*
X12281246Y-10252643D01*
X12281246Y-10252643D02*
X12271722Y-10233596D01*
X12271722Y-10233596D02*
X12252675Y-10224072D01*
X12252675Y-10224072D02*
X12224103Y-10224072D01*
X12224103Y-10224072D02*
X12205056Y-10233596D01*
X12205056Y-10233596D02*
X12195532Y-10243119D01*
X12405056Y-10357405D02*
X12386008Y-10347881D01*
X12386008Y-10347881D02*
X12376484Y-10338358D01*
X12376484Y-10338358D02*
X12366960Y-10319310D01*
X12366960Y-10319310D02*
X12366960Y-10262167D01*
X12366960Y-10262167D02*
X12376484Y-10243119D01*
X12376484Y-10243119D02*
X12386008Y-10233596D01*
X12386008Y-10233596D02*
X12405056Y-10224072D01*
X12405056Y-10224072D02*
X12433627Y-10224072D01*
X12433627Y-10224072D02*
X12452675Y-10233596D01*
X12452675Y-10233596D02*
X12462199Y-10243119D01*
X12462199Y-10243119D02*
X12471722Y-10262167D01*
X12471722Y-10262167D02*
X12471722Y-10319310D01*
X12471722Y-10319310D02*
X12462199Y-10338358D01*
X12462199Y-10338358D02*
X12452675Y-10347881D01*
X12452675Y-10347881D02*
X12433627Y-10357405D01*
X12433627Y-10357405D02*
X12405056Y-10357405D01*
X12586008Y-10357405D02*
X12566960Y-10347881D01*
X12566960Y-10347881D02*
X12557437Y-10328834D01*
X12557437Y-10328834D02*
X12557437Y-10157405D01*
X12738389Y-10347881D02*
X12719341Y-10357405D01*
X12719341Y-10357405D02*
X12681246Y-10357405D01*
X12681246Y-10357405D02*
X12662199Y-10347881D01*
X12662199Y-10347881D02*
X12652675Y-10328834D01*
X12652675Y-10328834D02*
X12652675Y-10252643D01*
X12652675Y-10252643D02*
X12662199Y-10233596D01*
X12662199Y-10233596D02*
X12681246Y-10224072D01*
X12681246Y-10224072D02*
X12719341Y-10224072D01*
X12719341Y-10224072D02*
X12738389Y-10233596D01*
X12738389Y-10233596D02*
X12747913Y-10252643D01*
X12747913Y-10252643D02*
X12747913Y-10271691D01*
X12747913Y-10271691D02*
X12652675Y-10290739D01*
X12824103Y-10347881D02*
X12843151Y-10357405D01*
X12843151Y-10357405D02*
X12881246Y-10357405D01*
X12881246Y-10357405D02*
X12900294Y-10347881D01*
X12900294Y-10347881D02*
X12909818Y-10328834D01*
X12909818Y-10328834D02*
X12909818Y-10319310D01*
X12909818Y-10319310D02*
X12900294Y-10300262D01*
X12900294Y-10300262D02*
X12881246Y-10290739D01*
X12881246Y-10290739D02*
X12852675Y-10290739D01*
X12852675Y-10290739D02*
X12833627Y-10281215D01*
X12833627Y-10281215D02*
X12824103Y-10262167D01*
X12824103Y-10262167D02*
X12824103Y-10252643D01*
X12824103Y-10252643D02*
X12833627Y-10233596D01*
X12833627Y-10233596D02*
X12852675Y-10224072D01*
X12852675Y-10224072D02*
X12881246Y-10224072D01*
X12881246Y-10224072D02*
X12900294Y-10233596D01*
X12976484Y-10433596D02*
X12986008Y-10424072D01*
X12986008Y-10424072D02*
X13005056Y-10395500D01*
X13005056Y-10395500D02*
X13014580Y-10376453D01*
X13014580Y-10376453D02*
X13024103Y-10347881D01*
X13024103Y-10347881D02*
X13033627Y-10300262D01*
X13033627Y-10300262D02*
X13033627Y-10262167D01*
X13033627Y-10262167D02*
X13024103Y-10214548D01*
X13024103Y-10214548D02*
X13014580Y-10185977D01*
X13014580Y-10185977D02*
X13005056Y-10166929D01*
X13005056Y-10166929D02*
X12986008Y-10138358D01*
X12986008Y-10138358D02*
X12976484Y-10128834D01*
D12*
X8163921Y-10567421D02*
X8201421Y-10529921D01*
X8163921Y-10492421D01*
X8126421Y-10529921D01*
X8163921Y-10567421D01*
D11*
X8500293Y-10421405D02*
X8519341Y-10421405D01*
X8519341Y-10421405D02*
X8538389Y-10430929D01*
X8538389Y-10430929D02*
X8547913Y-10440453D01*
X8547913Y-10440453D02*
X8557436Y-10459500D01*
X8557436Y-10459500D02*
X8566960Y-10497596D01*
X8566960Y-10497596D02*
X8566960Y-10545215D01*
X8566960Y-10545215D02*
X8557436Y-10583310D01*
X8557436Y-10583310D02*
X8547913Y-10602358D01*
X8547913Y-10602358D02*
X8538389Y-10611881D01*
X8538389Y-10611881D02*
X8519341Y-10621405D01*
X8519341Y-10621405D02*
X8500293Y-10621405D01*
X8500293Y-10621405D02*
X8481246Y-10611881D01*
X8481246Y-10611881D02*
X8471722Y-10602358D01*
X8471722Y-10602358D02*
X8462198Y-10583310D01*
X8462198Y-10583310D02*
X8452674Y-10545215D01*
X8452674Y-10545215D02*
X8452674Y-10497596D01*
X8452674Y-10497596D02*
X8462198Y-10459500D01*
X8462198Y-10459500D02*
X8471722Y-10440453D01*
X8471722Y-10440453D02*
X8481246Y-10430929D01*
X8481246Y-10430929D02*
X8500293Y-10421405D01*
X8652674Y-10602358D02*
X8662198Y-10611881D01*
X8662198Y-10611881D02*
X8652674Y-10621405D01*
X8652674Y-10621405D02*
X8643151Y-10611881D01*
X8643151Y-10611881D02*
X8652674Y-10602358D01*
X8652674Y-10602358D02*
X8652674Y-10621405D01*
X8728865Y-10421405D02*
X8862198Y-10421405D01*
X8862198Y-10421405D02*
X8776484Y-10621405D01*
X9033627Y-10421405D02*
X8938389Y-10421405D01*
X8938389Y-10421405D02*
X8928865Y-10516643D01*
X8928865Y-10516643D02*
X8938389Y-10507119D01*
X8938389Y-10507119D02*
X8957436Y-10497596D01*
X8957436Y-10497596D02*
X9005055Y-10497596D01*
X9005055Y-10497596D02*
X9024103Y-10507119D01*
X9024103Y-10507119D02*
X9033627Y-10516643D01*
X9033627Y-10516643D02*
X9043151Y-10535691D01*
X9043151Y-10535691D02*
X9043151Y-10583310D01*
X9043151Y-10583310D02*
X9033627Y-10602358D01*
X9033627Y-10602358D02*
X9024103Y-10611881D01*
X9024103Y-10611881D02*
X9005055Y-10621405D01*
X9005055Y-10621405D02*
X8957436Y-10621405D01*
X8957436Y-10621405D02*
X8938389Y-10611881D01*
X8938389Y-10611881D02*
X8928865Y-10602358D01*
X9166960Y-10421405D02*
X9186008Y-10421405D01*
X9186008Y-10421405D02*
X9205055Y-10430929D01*
X9205055Y-10430929D02*
X9214579Y-10440453D01*
X9214579Y-10440453D02*
X9224103Y-10459500D01*
X9224103Y-10459500D02*
X9233627Y-10497596D01*
X9233627Y-10497596D02*
X9233627Y-10545215D01*
X9233627Y-10545215D02*
X9224103Y-10583310D01*
X9224103Y-10583310D02*
X9214579Y-10602358D01*
X9214579Y-10602358D02*
X9205055Y-10611881D01*
X9205055Y-10611881D02*
X9186008Y-10621405D01*
X9186008Y-10621405D02*
X9166960Y-10621405D01*
X9166960Y-10621405D02*
X9147913Y-10611881D01*
X9147913Y-10611881D02*
X9138389Y-10602358D01*
X9138389Y-10602358D02*
X9128865Y-10583310D01*
X9128865Y-10583310D02*
X9119341Y-10545215D01*
X9119341Y-10545215D02*
X9119341Y-10497596D01*
X9119341Y-10497596D02*
X9128865Y-10459500D01*
X9128865Y-10459500D02*
X9138389Y-10440453D01*
X9138389Y-10440453D02*
X9147913Y-10430929D01*
X9147913Y-10430929D02*
X9166960Y-10421405D01*
X9319341Y-10621405D02*
X9319341Y-10488072D01*
X9319341Y-10507119D02*
X9328865Y-10497596D01*
X9328865Y-10497596D02*
X9347913Y-10488072D01*
X9347913Y-10488072D02*
X9376484Y-10488072D01*
X9376484Y-10488072D02*
X9395532Y-10497596D01*
X9395532Y-10497596D02*
X9405055Y-10516643D01*
X9405055Y-10516643D02*
X9405055Y-10621405D01*
X9405055Y-10516643D02*
X9414579Y-10497596D01*
X9414579Y-10497596D02*
X9433627Y-10488072D01*
X9433627Y-10488072D02*
X9462198Y-10488072D01*
X9462198Y-10488072D02*
X9481246Y-10497596D01*
X9481246Y-10497596D02*
X9490770Y-10516643D01*
X9490770Y-10516643D02*
X9490770Y-10621405D01*
X9586008Y-10621405D02*
X9586008Y-10488072D01*
X9586008Y-10507119D02*
X9595532Y-10497596D01*
X9595532Y-10497596D02*
X9614579Y-10488072D01*
X9614579Y-10488072D02*
X9643151Y-10488072D01*
X9643151Y-10488072D02*
X9662198Y-10497596D01*
X9662198Y-10497596D02*
X9671722Y-10516643D01*
X9671722Y-10516643D02*
X9671722Y-10621405D01*
X9671722Y-10516643D02*
X9681246Y-10497596D01*
X9681246Y-10497596D02*
X9700294Y-10488072D01*
X9700294Y-10488072D02*
X9728865Y-10488072D01*
X9728865Y-10488072D02*
X9747913Y-10497596D01*
X9747913Y-10497596D02*
X9757436Y-10516643D01*
X9757436Y-10516643D02*
X9757436Y-10621405D01*
X10147913Y-10411881D02*
X9976484Y-10669024D01*
X10405056Y-10421405D02*
X10424103Y-10421405D01*
X10424103Y-10421405D02*
X10443151Y-10430929D01*
X10443151Y-10430929D02*
X10452675Y-10440453D01*
X10452675Y-10440453D02*
X10462198Y-10459500D01*
X10462198Y-10459500D02*
X10471722Y-10497596D01*
X10471722Y-10497596D02*
X10471722Y-10545215D01*
X10471722Y-10545215D02*
X10462198Y-10583310D01*
X10462198Y-10583310D02*
X10452675Y-10602358D01*
X10452675Y-10602358D02*
X10443151Y-10611881D01*
X10443151Y-10611881D02*
X10424103Y-10621405D01*
X10424103Y-10621405D02*
X10405056Y-10621405D01*
X10405056Y-10621405D02*
X10386008Y-10611881D01*
X10386008Y-10611881D02*
X10376484Y-10602358D01*
X10376484Y-10602358D02*
X10366960Y-10583310D01*
X10366960Y-10583310D02*
X10357437Y-10545215D01*
X10357437Y-10545215D02*
X10357437Y-10497596D01*
X10357437Y-10497596D02*
X10366960Y-10459500D01*
X10366960Y-10459500D02*
X10376484Y-10440453D01*
X10376484Y-10440453D02*
X10386008Y-10430929D01*
X10386008Y-10430929D02*
X10405056Y-10421405D01*
X10557437Y-10602358D02*
X10566960Y-10611881D01*
X10566960Y-10611881D02*
X10557437Y-10621405D01*
X10557437Y-10621405D02*
X10547913Y-10611881D01*
X10547913Y-10611881D02*
X10557437Y-10602358D01*
X10557437Y-10602358D02*
X10557437Y-10621405D01*
X10690770Y-10421405D02*
X10709818Y-10421405D01*
X10709818Y-10421405D02*
X10728865Y-10430929D01*
X10728865Y-10430929D02*
X10738389Y-10440453D01*
X10738389Y-10440453D02*
X10747913Y-10459500D01*
X10747913Y-10459500D02*
X10757437Y-10497596D01*
X10757437Y-10497596D02*
X10757437Y-10545215D01*
X10757437Y-10545215D02*
X10747913Y-10583310D01*
X10747913Y-10583310D02*
X10738389Y-10602358D01*
X10738389Y-10602358D02*
X10728865Y-10611881D01*
X10728865Y-10611881D02*
X10709818Y-10621405D01*
X10709818Y-10621405D02*
X10690770Y-10621405D01*
X10690770Y-10621405D02*
X10671722Y-10611881D01*
X10671722Y-10611881D02*
X10662198Y-10602358D01*
X10662198Y-10602358D02*
X10652675Y-10583310D01*
X10652675Y-10583310D02*
X10643151Y-10545215D01*
X10643151Y-10545215D02*
X10643151Y-10497596D01*
X10643151Y-10497596D02*
X10652675Y-10459500D01*
X10652675Y-10459500D02*
X10662198Y-10440453D01*
X10662198Y-10440453D02*
X10671722Y-10430929D01*
X10671722Y-10430929D02*
X10690770Y-10421405D01*
X10833627Y-10440453D02*
X10843151Y-10430929D01*
X10843151Y-10430929D02*
X10862198Y-10421405D01*
X10862198Y-10421405D02*
X10909818Y-10421405D01*
X10909818Y-10421405D02*
X10928865Y-10430929D01*
X10928865Y-10430929D02*
X10938389Y-10440453D01*
X10938389Y-10440453D02*
X10947913Y-10459500D01*
X10947913Y-10459500D02*
X10947913Y-10478548D01*
X10947913Y-10478548D02*
X10938389Y-10507119D01*
X10938389Y-10507119D02*
X10824103Y-10621405D01*
X10824103Y-10621405D02*
X10947913Y-10621405D01*
X11043151Y-10621405D02*
X11081246Y-10621405D01*
X11081246Y-10621405D02*
X11100294Y-10611881D01*
X11100294Y-10611881D02*
X11109818Y-10602358D01*
X11109818Y-10602358D02*
X11128865Y-10573786D01*
X11128865Y-10573786D02*
X11138389Y-10535691D01*
X11138389Y-10535691D02*
X11138389Y-10459500D01*
X11138389Y-10459500D02*
X11128865Y-10440453D01*
X11128865Y-10440453D02*
X11119341Y-10430929D01*
X11119341Y-10430929D02*
X11100294Y-10421405D01*
X11100294Y-10421405D02*
X11062198Y-10421405D01*
X11062198Y-10421405D02*
X11043151Y-10430929D01*
X11043151Y-10430929D02*
X11033627Y-10440453D01*
X11033627Y-10440453D02*
X11024103Y-10459500D01*
X11024103Y-10459500D02*
X11024103Y-10507119D01*
X11024103Y-10507119D02*
X11033627Y-10526167D01*
X11033627Y-10526167D02*
X11043151Y-10535691D01*
X11043151Y-10535691D02*
X11062198Y-10545215D01*
X11062198Y-10545215D02*
X11100294Y-10545215D01*
X11100294Y-10545215D02*
X11119341Y-10535691D01*
X11119341Y-10535691D02*
X11128865Y-10526167D01*
X11128865Y-10526167D02*
X11138389Y-10507119D01*
X11319341Y-10421405D02*
X11224103Y-10421405D01*
X11224103Y-10421405D02*
X11214579Y-10516643D01*
X11214579Y-10516643D02*
X11224103Y-10507119D01*
X11224103Y-10507119D02*
X11243151Y-10497596D01*
X11243151Y-10497596D02*
X11290770Y-10497596D01*
X11290770Y-10497596D02*
X11309817Y-10507119D01*
X11309817Y-10507119D02*
X11319341Y-10516643D01*
X11319341Y-10516643D02*
X11328865Y-10535691D01*
X11328865Y-10535691D02*
X11328865Y-10583310D01*
X11328865Y-10583310D02*
X11319341Y-10602358D01*
X11319341Y-10602358D02*
X11309817Y-10611881D01*
X11309817Y-10611881D02*
X11290770Y-10621405D01*
X11290770Y-10621405D02*
X11243151Y-10621405D01*
X11243151Y-10621405D02*
X11224103Y-10611881D01*
X11224103Y-10611881D02*
X11214579Y-10602358D01*
X11405056Y-10421405D02*
X11405056Y-10459500D01*
X11481246Y-10421405D02*
X11481246Y-10459500D01*
X11776484Y-10697596D02*
X11766960Y-10688072D01*
X11766960Y-10688072D02*
X11747913Y-10659500D01*
X11747913Y-10659500D02*
X11738389Y-10640453D01*
X11738389Y-10640453D02*
X11728865Y-10611881D01*
X11728865Y-10611881D02*
X11719341Y-10564262D01*
X11719341Y-10564262D02*
X11719341Y-10526167D01*
X11719341Y-10526167D02*
X11728865Y-10478548D01*
X11728865Y-10478548D02*
X11738389Y-10449977D01*
X11738389Y-10449977D02*
X11747913Y-10430929D01*
X11747913Y-10430929D02*
X11766960Y-10402358D01*
X11766960Y-10402358D02*
X11776484Y-10392834D01*
X11843151Y-10440453D02*
X11852675Y-10430929D01*
X11852675Y-10430929D02*
X11871722Y-10421405D01*
X11871722Y-10421405D02*
X11919341Y-10421405D01*
X11919341Y-10421405D02*
X11938389Y-10430929D01*
X11938389Y-10430929D02*
X11947913Y-10440453D01*
X11947913Y-10440453D02*
X11957437Y-10459500D01*
X11957437Y-10459500D02*
X11957437Y-10478548D01*
X11957437Y-10478548D02*
X11947913Y-10507119D01*
X11947913Y-10507119D02*
X11833627Y-10621405D01*
X11833627Y-10621405D02*
X11957437Y-10621405D01*
X12195532Y-10621405D02*
X12195532Y-10421405D01*
X12281246Y-10621405D02*
X12281246Y-10516643D01*
X12281246Y-10516643D02*
X12271722Y-10497596D01*
X12271722Y-10497596D02*
X12252675Y-10488072D01*
X12252675Y-10488072D02*
X12224103Y-10488072D01*
X12224103Y-10488072D02*
X12205056Y-10497596D01*
X12205056Y-10497596D02*
X12195532Y-10507119D01*
X12405056Y-10621405D02*
X12386008Y-10611881D01*
X12386008Y-10611881D02*
X12376484Y-10602358D01*
X12376484Y-10602358D02*
X12366960Y-10583310D01*
X12366960Y-10583310D02*
X12366960Y-10526167D01*
X12366960Y-10526167D02*
X12376484Y-10507119D01*
X12376484Y-10507119D02*
X12386008Y-10497596D01*
X12386008Y-10497596D02*
X12405056Y-10488072D01*
X12405056Y-10488072D02*
X12433627Y-10488072D01*
X12433627Y-10488072D02*
X12452675Y-10497596D01*
X12452675Y-10497596D02*
X12462199Y-10507119D01*
X12462199Y-10507119D02*
X12471722Y-10526167D01*
X12471722Y-10526167D02*
X12471722Y-10583310D01*
X12471722Y-10583310D02*
X12462199Y-10602358D01*
X12462199Y-10602358D02*
X12452675Y-10611881D01*
X12452675Y-10611881D02*
X12433627Y-10621405D01*
X12433627Y-10621405D02*
X12405056Y-10621405D01*
X12586008Y-10621405D02*
X12566960Y-10611881D01*
X12566960Y-10611881D02*
X12557437Y-10592834D01*
X12557437Y-10592834D02*
X12557437Y-10421405D01*
X12738389Y-10611881D02*
X12719341Y-10621405D01*
X12719341Y-10621405D02*
X12681246Y-10621405D01*
X12681246Y-10621405D02*
X12662199Y-10611881D01*
X12662199Y-10611881D02*
X12652675Y-10592834D01*
X12652675Y-10592834D02*
X12652675Y-10516643D01*
X12652675Y-10516643D02*
X12662199Y-10497596D01*
X12662199Y-10497596D02*
X12681246Y-10488072D01*
X12681246Y-10488072D02*
X12719341Y-10488072D01*
X12719341Y-10488072D02*
X12738389Y-10497596D01*
X12738389Y-10497596D02*
X12747913Y-10516643D01*
X12747913Y-10516643D02*
X12747913Y-10535691D01*
X12747913Y-10535691D02*
X12652675Y-10554739D01*
X12824103Y-10611881D02*
X12843151Y-10621405D01*
X12843151Y-10621405D02*
X12881246Y-10621405D01*
X12881246Y-10621405D02*
X12900294Y-10611881D01*
X12900294Y-10611881D02*
X12909818Y-10592834D01*
X12909818Y-10592834D02*
X12909818Y-10583310D01*
X12909818Y-10583310D02*
X12900294Y-10564262D01*
X12900294Y-10564262D02*
X12881246Y-10554739D01*
X12881246Y-10554739D02*
X12852675Y-10554739D01*
X12852675Y-10554739D02*
X12833627Y-10545215D01*
X12833627Y-10545215D02*
X12824103Y-10526167D01*
X12824103Y-10526167D02*
X12824103Y-10516643D01*
X12824103Y-10516643D02*
X12833627Y-10497596D01*
X12833627Y-10497596D02*
X12852675Y-10488072D01*
X12852675Y-10488072D02*
X12881246Y-10488072D01*
X12881246Y-10488072D02*
X12900294Y-10497596D01*
X12976484Y-10697596D02*
X12986008Y-10688072D01*
X12986008Y-10688072D02*
X13005056Y-10659500D01*
X13005056Y-10659500D02*
X13014580Y-10640453D01*
X13014580Y-10640453D02*
X13024103Y-10611881D01*
X13024103Y-10611881D02*
X13033627Y-10564262D01*
X13033627Y-10564262D02*
X13033627Y-10526167D01*
X13033627Y-10526167D02*
X13024103Y-10478548D01*
X13024103Y-10478548D02*
X13014580Y-10449977D01*
X13014580Y-10449977D02*
X13005056Y-10430929D01*
X13005056Y-10430929D02*
X12986008Y-10402358D01*
X12986008Y-10402358D02*
X12976484Y-10392834D01*
D12*
X8101421Y-10743921D02*
X8201421Y-10843921D01*
X8201421Y-10743921D02*
X8101421Y-10843921D01*
X8201421Y-10793921D02*
G75*
G02*
X8101421Y-10793921I-50000J0D01*
G01*
X8101421Y-10793921D02*
G75*
G02*
X8201421Y-10793921I50000J0D01*
G01*
D11*
X8566960Y-10885405D02*
X8452674Y-10885405D01*
X8509817Y-10885405D02*
X8509817Y-10685405D01*
X8509817Y-10685405D02*
X8490770Y-10713977D01*
X8490770Y-10713977D02*
X8471722Y-10733024D01*
X8471722Y-10733024D02*
X8452674Y-10742548D01*
X8652674Y-10866358D02*
X8662198Y-10875881D01*
X8662198Y-10875881D02*
X8652674Y-10885405D01*
X8652674Y-10885405D02*
X8643151Y-10875881D01*
X8643151Y-10875881D02*
X8652674Y-10866358D01*
X8652674Y-10866358D02*
X8652674Y-10885405D01*
X8786008Y-10685405D02*
X8805055Y-10685405D01*
X8805055Y-10685405D02*
X8824103Y-10694929D01*
X8824103Y-10694929D02*
X8833627Y-10704453D01*
X8833627Y-10704453D02*
X8843151Y-10723500D01*
X8843151Y-10723500D02*
X8852674Y-10761596D01*
X8852674Y-10761596D02*
X8852674Y-10809215D01*
X8852674Y-10809215D02*
X8843151Y-10847310D01*
X8843151Y-10847310D02*
X8833627Y-10866358D01*
X8833627Y-10866358D02*
X8824103Y-10875881D01*
X8824103Y-10875881D02*
X8805055Y-10885405D01*
X8805055Y-10885405D02*
X8786008Y-10885405D01*
X8786008Y-10885405D02*
X8766960Y-10875881D01*
X8766960Y-10875881D02*
X8757436Y-10866358D01*
X8757436Y-10866358D02*
X8747913Y-10847310D01*
X8747913Y-10847310D02*
X8738389Y-10809215D01*
X8738389Y-10809215D02*
X8738389Y-10761596D01*
X8738389Y-10761596D02*
X8747913Y-10723500D01*
X8747913Y-10723500D02*
X8757436Y-10704453D01*
X8757436Y-10704453D02*
X8766960Y-10694929D01*
X8766960Y-10694929D02*
X8786008Y-10685405D01*
X8976484Y-10685405D02*
X8995532Y-10685405D01*
X8995532Y-10685405D02*
X9014579Y-10694929D01*
X9014579Y-10694929D02*
X9024103Y-10704453D01*
X9024103Y-10704453D02*
X9033627Y-10723500D01*
X9033627Y-10723500D02*
X9043151Y-10761596D01*
X9043151Y-10761596D02*
X9043151Y-10809215D01*
X9043151Y-10809215D02*
X9033627Y-10847310D01*
X9033627Y-10847310D02*
X9024103Y-10866358D01*
X9024103Y-10866358D02*
X9014579Y-10875881D01*
X9014579Y-10875881D02*
X8995532Y-10885405D01*
X8995532Y-10885405D02*
X8976484Y-10885405D01*
X8976484Y-10885405D02*
X8957436Y-10875881D01*
X8957436Y-10875881D02*
X8947913Y-10866358D01*
X8947913Y-10866358D02*
X8938389Y-10847310D01*
X8938389Y-10847310D02*
X8928865Y-10809215D01*
X8928865Y-10809215D02*
X8928865Y-10761596D01*
X8928865Y-10761596D02*
X8938389Y-10723500D01*
X8938389Y-10723500D02*
X8947913Y-10704453D01*
X8947913Y-10704453D02*
X8957436Y-10694929D01*
X8957436Y-10694929D02*
X8976484Y-10685405D01*
X9166960Y-10685405D02*
X9186008Y-10685405D01*
X9186008Y-10685405D02*
X9205055Y-10694929D01*
X9205055Y-10694929D02*
X9214579Y-10704453D01*
X9214579Y-10704453D02*
X9224103Y-10723500D01*
X9224103Y-10723500D02*
X9233627Y-10761596D01*
X9233627Y-10761596D02*
X9233627Y-10809215D01*
X9233627Y-10809215D02*
X9224103Y-10847310D01*
X9224103Y-10847310D02*
X9214579Y-10866358D01*
X9214579Y-10866358D02*
X9205055Y-10875881D01*
X9205055Y-10875881D02*
X9186008Y-10885405D01*
X9186008Y-10885405D02*
X9166960Y-10885405D01*
X9166960Y-10885405D02*
X9147913Y-10875881D01*
X9147913Y-10875881D02*
X9138389Y-10866358D01*
X9138389Y-10866358D02*
X9128865Y-10847310D01*
X9128865Y-10847310D02*
X9119341Y-10809215D01*
X9119341Y-10809215D02*
X9119341Y-10761596D01*
X9119341Y-10761596D02*
X9128865Y-10723500D01*
X9128865Y-10723500D02*
X9138389Y-10704453D01*
X9138389Y-10704453D02*
X9147913Y-10694929D01*
X9147913Y-10694929D02*
X9166960Y-10685405D01*
X9319341Y-10885405D02*
X9319341Y-10752072D01*
X9319341Y-10771119D02*
X9328865Y-10761596D01*
X9328865Y-10761596D02*
X9347913Y-10752072D01*
X9347913Y-10752072D02*
X9376484Y-10752072D01*
X9376484Y-10752072D02*
X9395532Y-10761596D01*
X9395532Y-10761596D02*
X9405055Y-10780643D01*
X9405055Y-10780643D02*
X9405055Y-10885405D01*
X9405055Y-10780643D02*
X9414579Y-10761596D01*
X9414579Y-10761596D02*
X9433627Y-10752072D01*
X9433627Y-10752072D02*
X9462198Y-10752072D01*
X9462198Y-10752072D02*
X9481246Y-10761596D01*
X9481246Y-10761596D02*
X9490770Y-10780643D01*
X9490770Y-10780643D02*
X9490770Y-10885405D01*
X9586008Y-10885405D02*
X9586008Y-10752072D01*
X9586008Y-10771119D02*
X9595532Y-10761596D01*
X9595532Y-10761596D02*
X9614579Y-10752072D01*
X9614579Y-10752072D02*
X9643151Y-10752072D01*
X9643151Y-10752072D02*
X9662198Y-10761596D01*
X9662198Y-10761596D02*
X9671722Y-10780643D01*
X9671722Y-10780643D02*
X9671722Y-10885405D01*
X9671722Y-10780643D02*
X9681246Y-10761596D01*
X9681246Y-10761596D02*
X9700294Y-10752072D01*
X9700294Y-10752072D02*
X9728865Y-10752072D01*
X9728865Y-10752072D02*
X9747913Y-10761596D01*
X9747913Y-10761596D02*
X9757436Y-10780643D01*
X9757436Y-10780643D02*
X9757436Y-10885405D01*
X10147913Y-10675881D02*
X9976484Y-10933024D01*
X10405056Y-10685405D02*
X10424103Y-10685405D01*
X10424103Y-10685405D02*
X10443151Y-10694929D01*
X10443151Y-10694929D02*
X10452675Y-10704453D01*
X10452675Y-10704453D02*
X10462198Y-10723500D01*
X10462198Y-10723500D02*
X10471722Y-10761596D01*
X10471722Y-10761596D02*
X10471722Y-10809215D01*
X10471722Y-10809215D02*
X10462198Y-10847310D01*
X10462198Y-10847310D02*
X10452675Y-10866358D01*
X10452675Y-10866358D02*
X10443151Y-10875881D01*
X10443151Y-10875881D02*
X10424103Y-10885405D01*
X10424103Y-10885405D02*
X10405056Y-10885405D01*
X10405056Y-10885405D02*
X10386008Y-10875881D01*
X10386008Y-10875881D02*
X10376484Y-10866358D01*
X10376484Y-10866358D02*
X10366960Y-10847310D01*
X10366960Y-10847310D02*
X10357437Y-10809215D01*
X10357437Y-10809215D02*
X10357437Y-10761596D01*
X10357437Y-10761596D02*
X10366960Y-10723500D01*
X10366960Y-10723500D02*
X10376484Y-10704453D01*
X10376484Y-10704453D02*
X10386008Y-10694929D01*
X10386008Y-10694929D02*
X10405056Y-10685405D01*
X10557437Y-10866358D02*
X10566960Y-10875881D01*
X10566960Y-10875881D02*
X10557437Y-10885405D01*
X10557437Y-10885405D02*
X10547913Y-10875881D01*
X10547913Y-10875881D02*
X10557437Y-10866358D01*
X10557437Y-10866358D02*
X10557437Y-10885405D01*
X10690770Y-10685405D02*
X10709818Y-10685405D01*
X10709818Y-10685405D02*
X10728865Y-10694929D01*
X10728865Y-10694929D02*
X10738389Y-10704453D01*
X10738389Y-10704453D02*
X10747913Y-10723500D01*
X10747913Y-10723500D02*
X10757437Y-10761596D01*
X10757437Y-10761596D02*
X10757437Y-10809215D01*
X10757437Y-10809215D02*
X10747913Y-10847310D01*
X10747913Y-10847310D02*
X10738389Y-10866358D01*
X10738389Y-10866358D02*
X10728865Y-10875881D01*
X10728865Y-10875881D02*
X10709818Y-10885405D01*
X10709818Y-10885405D02*
X10690770Y-10885405D01*
X10690770Y-10885405D02*
X10671722Y-10875881D01*
X10671722Y-10875881D02*
X10662198Y-10866358D01*
X10662198Y-10866358D02*
X10652675Y-10847310D01*
X10652675Y-10847310D02*
X10643151Y-10809215D01*
X10643151Y-10809215D02*
X10643151Y-10761596D01*
X10643151Y-10761596D02*
X10652675Y-10723500D01*
X10652675Y-10723500D02*
X10662198Y-10704453D01*
X10662198Y-10704453D02*
X10671722Y-10694929D01*
X10671722Y-10694929D02*
X10690770Y-10685405D01*
X10824103Y-10685405D02*
X10947913Y-10685405D01*
X10947913Y-10685405D02*
X10881246Y-10761596D01*
X10881246Y-10761596D02*
X10909818Y-10761596D01*
X10909818Y-10761596D02*
X10928865Y-10771119D01*
X10928865Y-10771119D02*
X10938389Y-10780643D01*
X10938389Y-10780643D02*
X10947913Y-10799691D01*
X10947913Y-10799691D02*
X10947913Y-10847310D01*
X10947913Y-10847310D02*
X10938389Y-10866358D01*
X10938389Y-10866358D02*
X10928865Y-10875881D01*
X10928865Y-10875881D02*
X10909818Y-10885405D01*
X10909818Y-10885405D02*
X10852675Y-10885405D01*
X10852675Y-10885405D02*
X10833627Y-10875881D01*
X10833627Y-10875881D02*
X10824103Y-10866358D01*
X11043151Y-10885405D02*
X11081246Y-10885405D01*
X11081246Y-10885405D02*
X11100294Y-10875881D01*
X11100294Y-10875881D02*
X11109818Y-10866358D01*
X11109818Y-10866358D02*
X11128865Y-10837786D01*
X11128865Y-10837786D02*
X11138389Y-10799691D01*
X11138389Y-10799691D02*
X11138389Y-10723500D01*
X11138389Y-10723500D02*
X11128865Y-10704453D01*
X11128865Y-10704453D02*
X11119341Y-10694929D01*
X11119341Y-10694929D02*
X11100294Y-10685405D01*
X11100294Y-10685405D02*
X11062198Y-10685405D01*
X11062198Y-10685405D02*
X11043151Y-10694929D01*
X11043151Y-10694929D02*
X11033627Y-10704453D01*
X11033627Y-10704453D02*
X11024103Y-10723500D01*
X11024103Y-10723500D02*
X11024103Y-10771119D01*
X11024103Y-10771119D02*
X11033627Y-10790167D01*
X11033627Y-10790167D02*
X11043151Y-10799691D01*
X11043151Y-10799691D02*
X11062198Y-10809215D01*
X11062198Y-10809215D02*
X11100294Y-10809215D01*
X11100294Y-10809215D02*
X11119341Y-10799691D01*
X11119341Y-10799691D02*
X11128865Y-10790167D01*
X11128865Y-10790167D02*
X11138389Y-10771119D01*
X11309817Y-10752072D02*
X11309817Y-10885405D01*
X11262198Y-10675881D02*
X11214579Y-10818739D01*
X11214579Y-10818739D02*
X11338389Y-10818739D01*
X11405056Y-10685405D02*
X11405056Y-10723500D01*
X11481246Y-10685405D02*
X11481246Y-10723500D01*
X11776484Y-10961596D02*
X11766960Y-10952072D01*
X11766960Y-10952072D02*
X11747913Y-10923500D01*
X11747913Y-10923500D02*
X11738389Y-10904453D01*
X11738389Y-10904453D02*
X11728865Y-10875881D01*
X11728865Y-10875881D02*
X11719341Y-10828262D01*
X11719341Y-10828262D02*
X11719341Y-10790167D01*
X11719341Y-10790167D02*
X11728865Y-10742548D01*
X11728865Y-10742548D02*
X11738389Y-10713977D01*
X11738389Y-10713977D02*
X11747913Y-10694929D01*
X11747913Y-10694929D02*
X11766960Y-10666358D01*
X11766960Y-10666358D02*
X11776484Y-10656834D01*
X11957437Y-10885405D02*
X11843151Y-10885405D01*
X11900294Y-10885405D02*
X11900294Y-10685405D01*
X11900294Y-10685405D02*
X11881246Y-10713977D01*
X11881246Y-10713977D02*
X11862198Y-10733024D01*
X11862198Y-10733024D02*
X11843151Y-10742548D01*
X12147913Y-10885405D02*
X12033627Y-10885405D01*
X12090770Y-10885405D02*
X12090770Y-10685405D01*
X12090770Y-10685405D02*
X12071722Y-10713977D01*
X12071722Y-10713977D02*
X12052675Y-10733024D01*
X12052675Y-10733024D02*
X12033627Y-10742548D01*
X12386008Y-10885405D02*
X12386008Y-10685405D01*
X12471722Y-10885405D02*
X12471722Y-10780643D01*
X12471722Y-10780643D02*
X12462199Y-10761596D01*
X12462199Y-10761596D02*
X12443151Y-10752072D01*
X12443151Y-10752072D02*
X12414579Y-10752072D01*
X12414579Y-10752072D02*
X12395532Y-10761596D01*
X12395532Y-10761596D02*
X12386008Y-10771119D01*
X12595532Y-10885405D02*
X12576484Y-10875881D01*
X12576484Y-10875881D02*
X12566960Y-10866358D01*
X12566960Y-10866358D02*
X12557437Y-10847310D01*
X12557437Y-10847310D02*
X12557437Y-10790167D01*
X12557437Y-10790167D02*
X12566960Y-10771119D01*
X12566960Y-10771119D02*
X12576484Y-10761596D01*
X12576484Y-10761596D02*
X12595532Y-10752072D01*
X12595532Y-10752072D02*
X12624103Y-10752072D01*
X12624103Y-10752072D02*
X12643151Y-10761596D01*
X12643151Y-10761596D02*
X12652675Y-10771119D01*
X12652675Y-10771119D02*
X12662199Y-10790167D01*
X12662199Y-10790167D02*
X12662199Y-10847310D01*
X12662199Y-10847310D02*
X12652675Y-10866358D01*
X12652675Y-10866358D02*
X12643151Y-10875881D01*
X12643151Y-10875881D02*
X12624103Y-10885405D01*
X12624103Y-10885405D02*
X12595532Y-10885405D01*
X12776484Y-10885405D02*
X12757437Y-10875881D01*
X12757437Y-10875881D02*
X12747913Y-10856834D01*
X12747913Y-10856834D02*
X12747913Y-10685405D01*
X12928865Y-10875881D02*
X12909818Y-10885405D01*
X12909818Y-10885405D02*
X12871722Y-10885405D01*
X12871722Y-10885405D02*
X12852675Y-10875881D01*
X12852675Y-10875881D02*
X12843151Y-10856834D01*
X12843151Y-10856834D02*
X12843151Y-10780643D01*
X12843151Y-10780643D02*
X12852675Y-10761596D01*
X12852675Y-10761596D02*
X12871722Y-10752072D01*
X12871722Y-10752072D02*
X12909818Y-10752072D01*
X12909818Y-10752072D02*
X12928865Y-10761596D01*
X12928865Y-10761596D02*
X12938389Y-10780643D01*
X12938389Y-10780643D02*
X12938389Y-10799691D01*
X12938389Y-10799691D02*
X12843151Y-10818739D01*
X13014580Y-10875881D02*
X13033627Y-10885405D01*
X13033627Y-10885405D02*
X13071722Y-10885405D01*
X13071722Y-10885405D02*
X13090770Y-10875881D01*
X13090770Y-10875881D02*
X13100294Y-10856834D01*
X13100294Y-10856834D02*
X13100294Y-10847310D01*
X13100294Y-10847310D02*
X13090770Y-10828262D01*
X13090770Y-10828262D02*
X13071722Y-10818739D01*
X13071722Y-10818739D02*
X13043151Y-10818739D01*
X13043151Y-10818739D02*
X13024103Y-10809215D01*
X13024103Y-10809215D02*
X13014580Y-10790167D01*
X13014580Y-10790167D02*
X13014580Y-10780643D01*
X13014580Y-10780643D02*
X13024103Y-10761596D01*
X13024103Y-10761596D02*
X13043151Y-10752072D01*
X13043151Y-10752072D02*
X13071722Y-10752072D01*
X13071722Y-10752072D02*
X13090770Y-10761596D01*
X13166961Y-10961596D02*
X13176484Y-10952072D01*
X13176484Y-10952072D02*
X13195532Y-10923500D01*
X13195532Y-10923500D02*
X13205056Y-10904453D01*
X13205056Y-10904453D02*
X13214580Y-10875881D01*
X13214580Y-10875881D02*
X13224103Y-10828262D01*
X13224103Y-10828262D02*
X13224103Y-10790167D01*
X13224103Y-10790167D02*
X13214580Y-10742548D01*
X13214580Y-10742548D02*
X13205056Y-10713977D01*
X13205056Y-10713977D02*
X13195532Y-10694929D01*
X13195532Y-10694929D02*
X13176484Y-10666358D01*
X13176484Y-10666358D02*
X13166961Y-10656834D01*
D13*
X8067421Y-10990921D02*
X8201421Y-11124921D01*
X8201421Y-10990921D02*
X8067421Y-11124921D01*
X8134421Y-10990921D02*
X8134421Y-11124921D01*
X8067421Y-11057921D02*
X8201421Y-11057921D01*
D11*
X8566960Y-11149405D02*
X8452674Y-11149405D01*
X8509817Y-11149405D02*
X8509817Y-10949405D01*
X8509817Y-10949405D02*
X8490770Y-10977977D01*
X8490770Y-10977977D02*
X8471722Y-10997024D01*
X8471722Y-10997024D02*
X8452674Y-11006548D01*
X8652674Y-11130358D02*
X8662198Y-11139881D01*
X8662198Y-11139881D02*
X8652674Y-11149405D01*
X8652674Y-11149405D02*
X8643151Y-11139881D01*
X8643151Y-11139881D02*
X8652674Y-11130358D01*
X8652674Y-11130358D02*
X8652674Y-11149405D01*
X8728865Y-10949405D02*
X8852674Y-10949405D01*
X8852674Y-10949405D02*
X8786008Y-11025596D01*
X8786008Y-11025596D02*
X8814579Y-11025596D01*
X8814579Y-11025596D02*
X8833627Y-11035119D01*
X8833627Y-11035119D02*
X8843151Y-11044643D01*
X8843151Y-11044643D02*
X8852674Y-11063691D01*
X8852674Y-11063691D02*
X8852674Y-11111310D01*
X8852674Y-11111310D02*
X8843151Y-11130358D01*
X8843151Y-11130358D02*
X8833627Y-11139881D01*
X8833627Y-11139881D02*
X8814579Y-11149405D01*
X8814579Y-11149405D02*
X8757436Y-11149405D01*
X8757436Y-11149405D02*
X8738389Y-11139881D01*
X8738389Y-11139881D02*
X8728865Y-11130358D01*
X9024103Y-11016072D02*
X9024103Y-11149405D01*
X8976484Y-10939881D02*
X8928865Y-11082739D01*
X8928865Y-11082739D02*
X9052674Y-11082739D01*
X9166960Y-10949405D02*
X9186008Y-10949405D01*
X9186008Y-10949405D02*
X9205055Y-10958929D01*
X9205055Y-10958929D02*
X9214579Y-10968453D01*
X9214579Y-10968453D02*
X9224103Y-10987500D01*
X9224103Y-10987500D02*
X9233627Y-11025596D01*
X9233627Y-11025596D02*
X9233627Y-11073215D01*
X9233627Y-11073215D02*
X9224103Y-11111310D01*
X9224103Y-11111310D02*
X9214579Y-11130358D01*
X9214579Y-11130358D02*
X9205055Y-11139881D01*
X9205055Y-11139881D02*
X9186008Y-11149405D01*
X9186008Y-11149405D02*
X9166960Y-11149405D01*
X9166960Y-11149405D02*
X9147913Y-11139881D01*
X9147913Y-11139881D02*
X9138389Y-11130358D01*
X9138389Y-11130358D02*
X9128865Y-11111310D01*
X9128865Y-11111310D02*
X9119341Y-11073215D01*
X9119341Y-11073215D02*
X9119341Y-11025596D01*
X9119341Y-11025596D02*
X9128865Y-10987500D01*
X9128865Y-10987500D02*
X9138389Y-10968453D01*
X9138389Y-10968453D02*
X9147913Y-10958929D01*
X9147913Y-10958929D02*
X9166960Y-10949405D01*
X9319341Y-11149405D02*
X9319341Y-11016072D01*
X9319341Y-11035119D02*
X9328865Y-11025596D01*
X9328865Y-11025596D02*
X9347913Y-11016072D01*
X9347913Y-11016072D02*
X9376484Y-11016072D01*
X9376484Y-11016072D02*
X9395532Y-11025596D01*
X9395532Y-11025596D02*
X9405055Y-11044643D01*
X9405055Y-11044643D02*
X9405055Y-11149405D01*
X9405055Y-11044643D02*
X9414579Y-11025596D01*
X9414579Y-11025596D02*
X9433627Y-11016072D01*
X9433627Y-11016072D02*
X9462198Y-11016072D01*
X9462198Y-11016072D02*
X9481246Y-11025596D01*
X9481246Y-11025596D02*
X9490770Y-11044643D01*
X9490770Y-11044643D02*
X9490770Y-11149405D01*
X9586008Y-11149405D02*
X9586008Y-11016072D01*
X9586008Y-11035119D02*
X9595532Y-11025596D01*
X9595532Y-11025596D02*
X9614579Y-11016072D01*
X9614579Y-11016072D02*
X9643151Y-11016072D01*
X9643151Y-11016072D02*
X9662198Y-11025596D01*
X9662198Y-11025596D02*
X9671722Y-11044643D01*
X9671722Y-11044643D02*
X9671722Y-11149405D01*
X9671722Y-11044643D02*
X9681246Y-11025596D01*
X9681246Y-11025596D02*
X9700294Y-11016072D01*
X9700294Y-11016072D02*
X9728865Y-11016072D01*
X9728865Y-11016072D02*
X9747913Y-11025596D01*
X9747913Y-11025596D02*
X9757436Y-11044643D01*
X9757436Y-11044643D02*
X9757436Y-11149405D01*
X10147913Y-10939881D02*
X9976484Y-11197024D01*
X10405056Y-10949405D02*
X10424103Y-10949405D01*
X10424103Y-10949405D02*
X10443151Y-10958929D01*
X10443151Y-10958929D02*
X10452675Y-10968453D01*
X10452675Y-10968453D02*
X10462198Y-10987500D01*
X10462198Y-10987500D02*
X10471722Y-11025596D01*
X10471722Y-11025596D02*
X10471722Y-11073215D01*
X10471722Y-11073215D02*
X10462198Y-11111310D01*
X10462198Y-11111310D02*
X10452675Y-11130358D01*
X10452675Y-11130358D02*
X10443151Y-11139881D01*
X10443151Y-11139881D02*
X10424103Y-11149405D01*
X10424103Y-11149405D02*
X10405056Y-11149405D01*
X10405056Y-11149405D02*
X10386008Y-11139881D01*
X10386008Y-11139881D02*
X10376484Y-11130358D01*
X10376484Y-11130358D02*
X10366960Y-11111310D01*
X10366960Y-11111310D02*
X10357437Y-11073215D01*
X10357437Y-11073215D02*
X10357437Y-11025596D01*
X10357437Y-11025596D02*
X10366960Y-10987500D01*
X10366960Y-10987500D02*
X10376484Y-10968453D01*
X10376484Y-10968453D02*
X10386008Y-10958929D01*
X10386008Y-10958929D02*
X10405056Y-10949405D01*
X10557437Y-11130358D02*
X10566960Y-11139881D01*
X10566960Y-11139881D02*
X10557437Y-11149405D01*
X10557437Y-11149405D02*
X10547913Y-11139881D01*
X10547913Y-11139881D02*
X10557437Y-11130358D01*
X10557437Y-11130358D02*
X10557437Y-11149405D01*
X10690770Y-10949405D02*
X10709818Y-10949405D01*
X10709818Y-10949405D02*
X10728865Y-10958929D01*
X10728865Y-10958929D02*
X10738389Y-10968453D01*
X10738389Y-10968453D02*
X10747913Y-10987500D01*
X10747913Y-10987500D02*
X10757437Y-11025596D01*
X10757437Y-11025596D02*
X10757437Y-11073215D01*
X10757437Y-11073215D02*
X10747913Y-11111310D01*
X10747913Y-11111310D02*
X10738389Y-11130358D01*
X10738389Y-11130358D02*
X10728865Y-11139881D01*
X10728865Y-11139881D02*
X10709818Y-11149405D01*
X10709818Y-11149405D02*
X10690770Y-11149405D01*
X10690770Y-11149405D02*
X10671722Y-11139881D01*
X10671722Y-11139881D02*
X10662198Y-11130358D01*
X10662198Y-11130358D02*
X10652675Y-11111310D01*
X10652675Y-11111310D02*
X10643151Y-11073215D01*
X10643151Y-11073215D02*
X10643151Y-11025596D01*
X10643151Y-11025596D02*
X10652675Y-10987500D01*
X10652675Y-10987500D02*
X10662198Y-10968453D01*
X10662198Y-10968453D02*
X10671722Y-10958929D01*
X10671722Y-10958929D02*
X10690770Y-10949405D01*
X10938389Y-10949405D02*
X10843151Y-10949405D01*
X10843151Y-10949405D02*
X10833627Y-11044643D01*
X10833627Y-11044643D02*
X10843151Y-11035119D01*
X10843151Y-11035119D02*
X10862198Y-11025596D01*
X10862198Y-11025596D02*
X10909818Y-11025596D01*
X10909818Y-11025596D02*
X10928865Y-11035119D01*
X10928865Y-11035119D02*
X10938389Y-11044643D01*
X10938389Y-11044643D02*
X10947913Y-11063691D01*
X10947913Y-11063691D02*
X10947913Y-11111310D01*
X10947913Y-11111310D02*
X10938389Y-11130358D01*
X10938389Y-11130358D02*
X10928865Y-11139881D01*
X10928865Y-11139881D02*
X10909818Y-11149405D01*
X10909818Y-11149405D02*
X10862198Y-11149405D01*
X10862198Y-11149405D02*
X10843151Y-11139881D01*
X10843151Y-11139881D02*
X10833627Y-11130358D01*
X11024103Y-10968453D02*
X11033627Y-10958929D01*
X11033627Y-10958929D02*
X11052675Y-10949405D01*
X11052675Y-10949405D02*
X11100294Y-10949405D01*
X11100294Y-10949405D02*
X11119341Y-10958929D01*
X11119341Y-10958929D02*
X11128865Y-10968453D01*
X11128865Y-10968453D02*
X11138389Y-10987500D01*
X11138389Y-10987500D02*
X11138389Y-11006548D01*
X11138389Y-11006548D02*
X11128865Y-11035119D01*
X11128865Y-11035119D02*
X11014579Y-11149405D01*
X11014579Y-11149405D02*
X11138389Y-11149405D01*
X11252675Y-11035119D02*
X11233627Y-11025596D01*
X11233627Y-11025596D02*
X11224103Y-11016072D01*
X11224103Y-11016072D02*
X11214579Y-10997024D01*
X11214579Y-10997024D02*
X11214579Y-10987500D01*
X11214579Y-10987500D02*
X11224103Y-10968453D01*
X11224103Y-10968453D02*
X11233627Y-10958929D01*
X11233627Y-10958929D02*
X11252675Y-10949405D01*
X11252675Y-10949405D02*
X11290770Y-10949405D01*
X11290770Y-10949405D02*
X11309817Y-10958929D01*
X11309817Y-10958929D02*
X11319341Y-10968453D01*
X11319341Y-10968453D02*
X11328865Y-10987500D01*
X11328865Y-10987500D02*
X11328865Y-10997024D01*
X11328865Y-10997024D02*
X11319341Y-11016072D01*
X11319341Y-11016072D02*
X11309817Y-11025596D01*
X11309817Y-11025596D02*
X11290770Y-11035119D01*
X11290770Y-11035119D02*
X11252675Y-11035119D01*
X11252675Y-11035119D02*
X11233627Y-11044643D01*
X11233627Y-11044643D02*
X11224103Y-11054167D01*
X11224103Y-11054167D02*
X11214579Y-11073215D01*
X11214579Y-11073215D02*
X11214579Y-11111310D01*
X11214579Y-11111310D02*
X11224103Y-11130358D01*
X11224103Y-11130358D02*
X11233627Y-11139881D01*
X11233627Y-11139881D02*
X11252675Y-11149405D01*
X11252675Y-11149405D02*
X11290770Y-11149405D01*
X11290770Y-11149405D02*
X11309817Y-11139881D01*
X11309817Y-11139881D02*
X11319341Y-11130358D01*
X11319341Y-11130358D02*
X11328865Y-11111310D01*
X11328865Y-11111310D02*
X11328865Y-11073215D01*
X11328865Y-11073215D02*
X11319341Y-11054167D01*
X11319341Y-11054167D02*
X11309817Y-11044643D01*
X11309817Y-11044643D02*
X11290770Y-11035119D01*
X11405056Y-10949405D02*
X11405056Y-10987500D01*
X11481246Y-10949405D02*
X11481246Y-10987500D01*
X11776484Y-11225596D02*
X11766960Y-11216072D01*
X11766960Y-11216072D02*
X11747913Y-11187500D01*
X11747913Y-11187500D02*
X11738389Y-11168453D01*
X11738389Y-11168453D02*
X11728865Y-11139881D01*
X11728865Y-11139881D02*
X11719341Y-11092262D01*
X11719341Y-11092262D02*
X11719341Y-11054167D01*
X11719341Y-11054167D02*
X11728865Y-11006548D01*
X11728865Y-11006548D02*
X11738389Y-10977977D01*
X11738389Y-10977977D02*
X11747913Y-10958929D01*
X11747913Y-10958929D02*
X11766960Y-10930358D01*
X11766960Y-10930358D02*
X11776484Y-10920834D01*
X11938389Y-11016072D02*
X11938389Y-11149405D01*
X11890770Y-10939881D02*
X11843151Y-11082739D01*
X11843151Y-11082739D02*
X11966960Y-11082739D01*
X12195532Y-11149405D02*
X12195532Y-10949405D01*
X12281246Y-11149405D02*
X12281246Y-11044643D01*
X12281246Y-11044643D02*
X12271722Y-11025596D01*
X12271722Y-11025596D02*
X12252675Y-11016072D01*
X12252675Y-11016072D02*
X12224103Y-11016072D01*
X12224103Y-11016072D02*
X12205056Y-11025596D01*
X12205056Y-11025596D02*
X12195532Y-11035119D01*
X12405056Y-11149405D02*
X12386008Y-11139881D01*
X12386008Y-11139881D02*
X12376484Y-11130358D01*
X12376484Y-11130358D02*
X12366960Y-11111310D01*
X12366960Y-11111310D02*
X12366960Y-11054167D01*
X12366960Y-11054167D02*
X12376484Y-11035119D01*
X12376484Y-11035119D02*
X12386008Y-11025596D01*
X12386008Y-11025596D02*
X12405056Y-11016072D01*
X12405056Y-11016072D02*
X12433627Y-11016072D01*
X12433627Y-11016072D02*
X12452675Y-11025596D01*
X12452675Y-11025596D02*
X12462199Y-11035119D01*
X12462199Y-11035119D02*
X12471722Y-11054167D01*
X12471722Y-11054167D02*
X12471722Y-11111310D01*
X12471722Y-11111310D02*
X12462199Y-11130358D01*
X12462199Y-11130358D02*
X12452675Y-11139881D01*
X12452675Y-11139881D02*
X12433627Y-11149405D01*
X12433627Y-11149405D02*
X12405056Y-11149405D01*
X12586008Y-11149405D02*
X12566960Y-11139881D01*
X12566960Y-11139881D02*
X12557437Y-11120834D01*
X12557437Y-11120834D02*
X12557437Y-10949405D01*
X12738389Y-11139881D02*
X12719341Y-11149405D01*
X12719341Y-11149405D02*
X12681246Y-11149405D01*
X12681246Y-11149405D02*
X12662199Y-11139881D01*
X12662199Y-11139881D02*
X12652675Y-11120834D01*
X12652675Y-11120834D02*
X12652675Y-11044643D01*
X12652675Y-11044643D02*
X12662199Y-11025596D01*
X12662199Y-11025596D02*
X12681246Y-11016072D01*
X12681246Y-11016072D02*
X12719341Y-11016072D01*
X12719341Y-11016072D02*
X12738389Y-11025596D01*
X12738389Y-11025596D02*
X12747913Y-11044643D01*
X12747913Y-11044643D02*
X12747913Y-11063691D01*
X12747913Y-11063691D02*
X12652675Y-11082739D01*
X12824103Y-11139881D02*
X12843151Y-11149405D01*
X12843151Y-11149405D02*
X12881246Y-11149405D01*
X12881246Y-11149405D02*
X12900294Y-11139881D01*
X12900294Y-11139881D02*
X12909818Y-11120834D01*
X12909818Y-11120834D02*
X12909818Y-11111310D01*
X12909818Y-11111310D02*
X12900294Y-11092262D01*
X12900294Y-11092262D02*
X12881246Y-11082739D01*
X12881246Y-11082739D02*
X12852675Y-11082739D01*
X12852675Y-11082739D02*
X12833627Y-11073215D01*
X12833627Y-11073215D02*
X12824103Y-11054167D01*
X12824103Y-11054167D02*
X12824103Y-11044643D01*
X12824103Y-11044643D02*
X12833627Y-11025596D01*
X12833627Y-11025596D02*
X12852675Y-11016072D01*
X12852675Y-11016072D02*
X12881246Y-11016072D01*
X12881246Y-11016072D02*
X12900294Y-11025596D01*
X12976484Y-11225596D02*
X12986008Y-11216072D01*
X12986008Y-11216072D02*
X13005056Y-11187500D01*
X13005056Y-11187500D02*
X13014580Y-11168453D01*
X13014580Y-11168453D02*
X13024103Y-11139881D01*
X13024103Y-11139881D02*
X13033627Y-11092262D01*
X13033627Y-11092262D02*
X13033627Y-11054167D01*
X13033627Y-11054167D02*
X13024103Y-11006548D01*
X13024103Y-11006548D02*
X13014580Y-10977977D01*
X13014580Y-10977977D02*
X13005056Y-10958929D01*
X13005056Y-10958929D02*
X12986008Y-10930358D01*
X12986008Y-10930358D02*
X12976484Y-10920834D01*
M02*
