<?xml version="1.0" standalone="no"?>
 <!DOCTYPE svg PUBLIC "-//W3C//DTD SVG 1.1//EN" 
 "http://www.w3.org/Graphics/SVG/1.1/DTD/svg11.dtd"> 
<svg
  xmlns:svg="http://www.w3.org/2000/svg"
  xmlns="http://www.w3.org/2000/svg"
  xmlns:xlink="http://www.w3.org/1999/xlink"
  version="1.1"
  width="40.2844mm" height="40.0304mm" viewBox="0.0000 0.0000 40.2844 40.0304">
<title>SVG Image created as wearable_v2_nrf-Edge_Cuts.svg date 2025/03/31 13:43:33 </title>
  <desc>Image generated by PCBNEW </desc>
<g style="fill:#000000; fill-opacity:1.0000;stroke:#000000; stroke-opacity:1.0000;
stroke-linecap:round; stroke-linejoin:round;"
 transform="translate(0 0) scale(1 1)">
</g>
<g style="fill:none; 
stroke:#000000; stroke-width:0.0500; stroke-opacity:1; 
stroke-linecap:round; stroke-linejoin:round;">
<circle cx="2.5250" cy="2.5250" r="1.5000" /> 
<circle cx="2.7750" cy="37.5250" r="1.5000" /> 
<path d="M0.2750 38.0250 A2.0000 2.0000 0.0 0 0 2.2750 40.0250" />
<path d="M40.0250 2.0250 A2.0000 2.0000 0.0 0 0 38.0250 0.0250" />
<circle cx="37.7750" cy="37.5250" r="1.5000" /> 
<path d="M0.2750 38.0250
L0.0250 2.0250
" />
<path d="M38.2750 40.0250 A2.0000 2.0000 0.0 0 0 40.2750 38.0250" />
<circle cx="37.5250" cy="2.5250" r="1.5000" /> 
<path d="M2.0250 0.0250 A2.0000 2.0000 0.0 0 0 0.0250 2.0250" />
<path d="M2.2750 40.0250
L38.2750 40.0250
" />
<path d="M2.0250 0.0250
L38.0250 0.0250
" />
<path d="M40.0250 2.0250
L40.2750 38.0250
" />
<circle cx="2.5250" cy="2.5250" r="1.5000" /> 
<circle cx="2.7750" cy="37.5250" r="1.5000" /> 
<path d="M0.2750 38.0250 A2.0000 2.0000 0.0 0 0 2.2750 40.0250" />
<path d="M40.0250 2.0250 A2.0000 2.0000 0.0 0 0 38.0250 0.0250" />
<circle cx="37.7750" cy="37.5250" r="1.5000" /> 
<path d="M0.2750 38.0250
L0.0250 2.0250
" />
<path d="M38.2750 40.0250 A2.0000 2.0000 0.0 0 0 40.2750 38.0250" />
<circle cx="37.5250" cy="2.5250" r="1.5000" /> 
<path d="M2.0250 0.0250 A2.0000 2.0000 0.0 0 0 0.0250 2.0250" />
<path d="M2.2750 40.0250
L38.2750 40.0250
" />
<path d="M2.0250 0.0250
L38.0250 0.0250
" />
<path d="M40.0250 2.0250
L40.2750 38.0250
" />
</g> 
</svg>
