M48
; DRILL file {KiCad 8.0.3} date 2025-03-04T10:00:24-0600
; FORMAT={-:-/ absolute / metric / decimal}
; #@! TF.CreationDate,2025-03-04T10:00:24-06:00
; #@! TF.GenerationSoftware,Kicad,Pcbnew,8.0.3
; #@! TF.FileFunction,Plated,1,4,PTH
FMAT,2
METRIC
; #@! TA.AperFunction,Plated,PTH,ComponentDrill
T1C0.200
; #@! TA.AperFunction,Plated,PTH,ViaDrill
T2C0.300
; #@! TA.AperFunction,Plated,PTH,ComponentDrill
T3C0.500
; #@! TA.AperFunction,Plated,PTH,ComponentDrill
T4C0.700
; #@! TA.AperFunction,Plated,PTH,ComponentDrill
T5C0.750
; #@! TA.AperFunction,Plated,PTH,ComponentDrill
T6C1.000
; #@! TA.AperFunction,Plated,PTH,ComponentDrill
T7C1.340
%
G90
G05
T1
X108.525Y-66.575
X108.525Y-67.575
X108.525Y-68.575
X109.525Y-66.575
X109.525Y-67.575
X109.525Y-68.575
X110.525Y-66.575
X110.525Y-67.575
X110.525Y-68.575
T2
X84.225Y-81.3
X84.475Y-67.125
X84.5Y-70.1
X85.2Y-57.2
X86.312Y-67.15
X86.312Y-70.1
X87.575Y-86.0
X88.725Y-50.75
X89.825Y-78.275
X89.85Y-80.175
X89.975Y-81.225
X91.2Y-57.085
X91.6Y-72.85
X91.95Y-85.7
X92.575Y-71.7
X92.625Y-73.325
X93.25Y-60.525
X93.4Y-75.6
X93.425Y-78.325
X93.475Y-72.65
X93.525Y-80.05
X94.025Y-81.9
X95.275Y-57.3
X95.3Y-75.55
X95.325Y-62.55
X95.35Y-79.825
X96.2Y-55.025
X96.8Y-83.2
X96.875Y-68.65
X97.162Y-55.012
X98.9Y-55.275
X99.325Y-64.15
X99.348Y-72.112
X99.375Y-75.45
X99.425Y-67.275
X100.35Y-74.75
X100.575Y-51.45
X100.625Y-53.175
X100.875Y-55.2
X101.25Y-78.95
X101.475Y-73.575
X102.0Y-51.475
X102.05Y-53.0
X102.2Y-70.875
X102.5Y-55.25
X102.525Y-75.225
X103.775Y-53.225
X103.85Y-51.4
X104.125Y-76.8
X104.15Y-55.275
X104.15Y-75.475
X104.275Y-60.037
X104.9Y-74.975
X105.175Y-72.525
X105.375Y-70.875
X106.4Y-60.075
X107.925Y-77.6
X108.0Y-52.875
X108.875Y-72.125
X109.375Y-71.328
X110.075Y-71.9
X110.25Y-63.675
X111.375Y-72.125
X111.625Y-63.6
X112.225Y-60.1
X112.475Y-85.225
X113.675Y-73.175
X113.85Y-86.775
X114.15Y-50.1
X114.15Y-55.3
X114.225Y-60.125
X116.441Y-86.922
X117.075Y-66.975
X117.362Y-62.488
X118.675Y-58.85
X118.7Y-56.85
X119.675Y-79.325
X119.88Y-81.478
X120.45Y-60.625
X121.1Y-58.0
T3
X87.325Y-55.125
X87.8Y-60.25
X92.725Y-63.675
T4
X94.275Y-67.825
X98.4Y-80.375
X98.45Y-77.375
X105.75Y-79.375
T5
X94.775Y-50.575
X96.775Y-50.575
T6
X97.02Y-86.35
X99.56Y-86.35
X102.1Y-86.35
X106.825Y-86.4
X107.66Y-55.275
X109.365Y-86.4
X110.2Y-55.275
X115.55Y-76.545
X115.55Y-79.085
X115.55Y-81.625
X115.55Y-84.165
T7
X84.347Y-64.08
X84.347Y-72.72
X88.147Y-64.08
X88.147Y-72.72
M30
