%TF.GenerationSoftware,KiCad,Pcbnew,8.0.3*%
%TF.CreationDate,2025-04-01T13:45:42-05:00*%
%TF.ProjectId,wearable_v2_nrf,77656172-6162-46c6-955f-76325f6e7266,rev?*%
%TF.SameCoordinates,Original*%
%TF.FileFunction,Legend,Bot*%
%TF.FilePolarity,Positive*%
%FSLAX46Y46*%
G04 Gerber Fmt 4.6, Leading zero omitted, Abs format (unit mm)*
G04 Created by KiCad (PCBNEW 8.0.3) date 2025-04-01 13:45:42*
%MOMM*%
%LPD*%
G01*
G04 APERTURE LIST*
%ADD10C,0.093750*%
%ADD11C,0.150000*%
%ADD12C,0.120000*%
G04 APERTURE END LIST*
D10*
X113106180Y-56530965D02*
X112927608Y-57280965D01*
X112927608Y-57280965D02*
X112784751Y-56745251D01*
X112784751Y-56745251D02*
X112641894Y-57280965D01*
X112641894Y-57280965D02*
X112463323Y-56530965D01*
X111891894Y-57245251D02*
X111963322Y-57280965D01*
X111963322Y-57280965D02*
X112106180Y-57280965D01*
X112106180Y-57280965D02*
X112177608Y-57245251D01*
X112177608Y-57245251D02*
X112213322Y-57173822D01*
X112213322Y-57173822D02*
X112213322Y-56888108D01*
X112213322Y-56888108D02*
X112177608Y-56816679D01*
X112177608Y-56816679D02*
X112106180Y-56780965D01*
X112106180Y-56780965D02*
X111963322Y-56780965D01*
X111963322Y-56780965D02*
X111891894Y-56816679D01*
X111891894Y-56816679D02*
X111856180Y-56888108D01*
X111856180Y-56888108D02*
X111856180Y-56959536D01*
X111856180Y-56959536D02*
X112213322Y-57030965D01*
X111213323Y-57280965D02*
X111213323Y-56888108D01*
X111213323Y-56888108D02*
X111249037Y-56816679D01*
X111249037Y-56816679D02*
X111320465Y-56780965D01*
X111320465Y-56780965D02*
X111463323Y-56780965D01*
X111463323Y-56780965D02*
X111534751Y-56816679D01*
X111213323Y-57245251D02*
X111284751Y-57280965D01*
X111284751Y-57280965D02*
X111463323Y-57280965D01*
X111463323Y-57280965D02*
X111534751Y-57245251D01*
X111534751Y-57245251D02*
X111570465Y-57173822D01*
X111570465Y-57173822D02*
X111570465Y-57102393D01*
X111570465Y-57102393D02*
X111534751Y-57030965D01*
X111534751Y-57030965D02*
X111463323Y-56995251D01*
X111463323Y-56995251D02*
X111284751Y-56995251D01*
X111284751Y-56995251D02*
X111213323Y-56959536D01*
X110856180Y-57280965D02*
X110856180Y-56780965D01*
X110856180Y-56923822D02*
X110820466Y-56852393D01*
X110820466Y-56852393D02*
X110784752Y-56816679D01*
X110784752Y-56816679D02*
X110713323Y-56780965D01*
X110713323Y-56780965D02*
X110641894Y-56780965D01*
X110070466Y-57280965D02*
X110070466Y-56888108D01*
X110070466Y-56888108D02*
X110106180Y-56816679D01*
X110106180Y-56816679D02*
X110177608Y-56780965D01*
X110177608Y-56780965D02*
X110320466Y-56780965D01*
X110320466Y-56780965D02*
X110391894Y-56816679D01*
X110070466Y-57245251D02*
X110141894Y-57280965D01*
X110141894Y-57280965D02*
X110320466Y-57280965D01*
X110320466Y-57280965D02*
X110391894Y-57245251D01*
X110391894Y-57245251D02*
X110427608Y-57173822D01*
X110427608Y-57173822D02*
X110427608Y-57102393D01*
X110427608Y-57102393D02*
X110391894Y-57030965D01*
X110391894Y-57030965D02*
X110320466Y-56995251D01*
X110320466Y-56995251D02*
X110141894Y-56995251D01*
X110141894Y-56995251D02*
X110070466Y-56959536D01*
X109713323Y-57280965D02*
X109713323Y-56530965D01*
X109713323Y-56816679D02*
X109641895Y-56780965D01*
X109641895Y-56780965D02*
X109499037Y-56780965D01*
X109499037Y-56780965D02*
X109427609Y-56816679D01*
X109427609Y-56816679D02*
X109391895Y-56852393D01*
X109391895Y-56852393D02*
X109356180Y-56923822D01*
X109356180Y-56923822D02*
X109356180Y-57138108D01*
X109356180Y-57138108D02*
X109391895Y-57209536D01*
X109391895Y-57209536D02*
X109427609Y-57245251D01*
X109427609Y-57245251D02*
X109499037Y-57280965D01*
X109499037Y-57280965D02*
X109641895Y-57280965D01*
X109641895Y-57280965D02*
X109713323Y-57245251D01*
X108927609Y-57280965D02*
X108999038Y-57245251D01*
X108999038Y-57245251D02*
X109034752Y-57173822D01*
X109034752Y-57173822D02*
X109034752Y-56530965D01*
X108356181Y-57245251D02*
X108427609Y-57280965D01*
X108427609Y-57280965D02*
X108570467Y-57280965D01*
X108570467Y-57280965D02*
X108641895Y-57245251D01*
X108641895Y-57245251D02*
X108677609Y-57173822D01*
X108677609Y-57173822D02*
X108677609Y-56888108D01*
X108677609Y-56888108D02*
X108641895Y-56816679D01*
X108641895Y-56816679D02*
X108570467Y-56780965D01*
X108570467Y-56780965D02*
X108427609Y-56780965D01*
X108427609Y-56780965D02*
X108356181Y-56816679D01*
X108356181Y-56816679D02*
X108320467Y-56888108D01*
X108320467Y-56888108D02*
X108320467Y-56959536D01*
X108320467Y-56959536D02*
X108677609Y-57030965D01*
X107534752Y-56530965D02*
X107284752Y-57280965D01*
X107284752Y-57280965D02*
X107034752Y-56530965D01*
X106820466Y-56602393D02*
X106784752Y-56566679D01*
X106784752Y-56566679D02*
X106713324Y-56530965D01*
X106713324Y-56530965D02*
X106534752Y-56530965D01*
X106534752Y-56530965D02*
X106463324Y-56566679D01*
X106463324Y-56566679D02*
X106427609Y-56602393D01*
X106427609Y-56602393D02*
X106391895Y-56673822D01*
X106391895Y-56673822D02*
X106391895Y-56745251D01*
X106391895Y-56745251D02*
X106427609Y-56852393D01*
X106427609Y-56852393D02*
X106856181Y-57280965D01*
X106856181Y-57280965D02*
X106391895Y-57280965D01*
X113034751Y-58488423D02*
X113034751Y-57738423D01*
X113034751Y-57738423D02*
X112856180Y-57738423D01*
X112856180Y-57738423D02*
X112749037Y-57774137D01*
X112749037Y-57774137D02*
X112677608Y-57845566D01*
X112677608Y-57845566D02*
X112641894Y-57916994D01*
X112641894Y-57916994D02*
X112606180Y-58059851D01*
X112606180Y-58059851D02*
X112606180Y-58166994D01*
X112606180Y-58166994D02*
X112641894Y-58309851D01*
X112641894Y-58309851D02*
X112677608Y-58381280D01*
X112677608Y-58381280D02*
X112749037Y-58452709D01*
X112749037Y-58452709D02*
X112856180Y-58488423D01*
X112856180Y-58488423D02*
X113034751Y-58488423D01*
X111999037Y-58452709D02*
X112070465Y-58488423D01*
X112070465Y-58488423D02*
X112213323Y-58488423D01*
X112213323Y-58488423D02*
X112284751Y-58452709D01*
X112284751Y-58452709D02*
X112320465Y-58381280D01*
X112320465Y-58381280D02*
X112320465Y-58095566D01*
X112320465Y-58095566D02*
X112284751Y-58024137D01*
X112284751Y-58024137D02*
X112213323Y-57988423D01*
X112213323Y-57988423D02*
X112070465Y-57988423D01*
X112070465Y-57988423D02*
X111999037Y-58024137D01*
X111999037Y-58024137D02*
X111963323Y-58095566D01*
X111963323Y-58095566D02*
X111963323Y-58166994D01*
X111963323Y-58166994D02*
X112320465Y-58238423D01*
X111677608Y-58452709D02*
X111606180Y-58488423D01*
X111606180Y-58488423D02*
X111463323Y-58488423D01*
X111463323Y-58488423D02*
X111391894Y-58452709D01*
X111391894Y-58452709D02*
X111356180Y-58381280D01*
X111356180Y-58381280D02*
X111356180Y-58345566D01*
X111356180Y-58345566D02*
X111391894Y-58274137D01*
X111391894Y-58274137D02*
X111463323Y-58238423D01*
X111463323Y-58238423D02*
X111570466Y-58238423D01*
X111570466Y-58238423D02*
X111641894Y-58202709D01*
X111641894Y-58202709D02*
X111677608Y-58131280D01*
X111677608Y-58131280D02*
X111677608Y-58095566D01*
X111677608Y-58095566D02*
X111641894Y-58024137D01*
X111641894Y-58024137D02*
X111570466Y-57988423D01*
X111570466Y-57988423D02*
X111463323Y-57988423D01*
X111463323Y-57988423D02*
X111391894Y-58024137D01*
X111034751Y-58488423D02*
X111034751Y-57988423D01*
X111034751Y-57738423D02*
X111070465Y-57774137D01*
X111070465Y-57774137D02*
X111034751Y-57809851D01*
X111034751Y-57809851D02*
X110999037Y-57774137D01*
X110999037Y-57774137D02*
X111034751Y-57738423D01*
X111034751Y-57738423D02*
X111034751Y-57809851D01*
X110356180Y-57988423D02*
X110356180Y-58595566D01*
X110356180Y-58595566D02*
X110391894Y-58666994D01*
X110391894Y-58666994D02*
X110427608Y-58702709D01*
X110427608Y-58702709D02*
X110499037Y-58738423D01*
X110499037Y-58738423D02*
X110606180Y-58738423D01*
X110606180Y-58738423D02*
X110677608Y-58702709D01*
X110356180Y-58452709D02*
X110427608Y-58488423D01*
X110427608Y-58488423D02*
X110570465Y-58488423D01*
X110570465Y-58488423D02*
X110641894Y-58452709D01*
X110641894Y-58452709D02*
X110677608Y-58416994D01*
X110677608Y-58416994D02*
X110713322Y-58345566D01*
X110713322Y-58345566D02*
X110713322Y-58131280D01*
X110713322Y-58131280D02*
X110677608Y-58059851D01*
X110677608Y-58059851D02*
X110641894Y-58024137D01*
X110641894Y-58024137D02*
X110570465Y-57988423D01*
X110570465Y-57988423D02*
X110427608Y-57988423D01*
X110427608Y-57988423D02*
X110356180Y-58024137D01*
X109999037Y-57988423D02*
X109999037Y-58488423D01*
X109999037Y-58059851D02*
X109963323Y-58024137D01*
X109963323Y-58024137D02*
X109891894Y-57988423D01*
X109891894Y-57988423D02*
X109784751Y-57988423D01*
X109784751Y-57988423D02*
X109713323Y-58024137D01*
X109713323Y-58024137D02*
X109677609Y-58095566D01*
X109677609Y-58095566D02*
X109677609Y-58488423D01*
X109034752Y-58452709D02*
X109106180Y-58488423D01*
X109106180Y-58488423D02*
X109249038Y-58488423D01*
X109249038Y-58488423D02*
X109320466Y-58452709D01*
X109320466Y-58452709D02*
X109356180Y-58381280D01*
X109356180Y-58381280D02*
X109356180Y-58095566D01*
X109356180Y-58095566D02*
X109320466Y-58024137D01*
X109320466Y-58024137D02*
X109249038Y-57988423D01*
X109249038Y-57988423D02*
X109106180Y-57988423D01*
X109106180Y-57988423D02*
X109034752Y-58024137D01*
X109034752Y-58024137D02*
X108999038Y-58095566D01*
X108999038Y-58095566D02*
X108999038Y-58166994D01*
X108999038Y-58166994D02*
X109356180Y-58238423D01*
X108356181Y-58488423D02*
X108356181Y-57738423D01*
X108356181Y-58452709D02*
X108427609Y-58488423D01*
X108427609Y-58488423D02*
X108570466Y-58488423D01*
X108570466Y-58488423D02*
X108641895Y-58452709D01*
X108641895Y-58452709D02*
X108677609Y-58416994D01*
X108677609Y-58416994D02*
X108713323Y-58345566D01*
X108713323Y-58345566D02*
X108713323Y-58131280D01*
X108713323Y-58131280D02*
X108677609Y-58059851D01*
X108677609Y-58059851D02*
X108641895Y-58024137D01*
X108641895Y-58024137D02*
X108570466Y-57988423D01*
X108570466Y-57988423D02*
X108427609Y-57988423D01*
X108427609Y-57988423D02*
X108356181Y-58024137D01*
X107427609Y-58488423D02*
X107427609Y-57738423D01*
X107427609Y-58024137D02*
X107356181Y-57988423D01*
X107356181Y-57988423D02*
X107213323Y-57988423D01*
X107213323Y-57988423D02*
X107141895Y-58024137D01*
X107141895Y-58024137D02*
X107106181Y-58059851D01*
X107106181Y-58059851D02*
X107070466Y-58131280D01*
X107070466Y-58131280D02*
X107070466Y-58345566D01*
X107070466Y-58345566D02*
X107106181Y-58416994D01*
X107106181Y-58416994D02*
X107141895Y-58452709D01*
X107141895Y-58452709D02*
X107213323Y-58488423D01*
X107213323Y-58488423D02*
X107356181Y-58488423D01*
X107356181Y-58488423D02*
X107427609Y-58452709D01*
X106820467Y-57988423D02*
X106641895Y-58488423D01*
X106463324Y-57988423D02*
X106641895Y-58488423D01*
X106641895Y-58488423D02*
X106713324Y-58666994D01*
X106713324Y-58666994D02*
X106749038Y-58702709D01*
X106749038Y-58702709D02*
X106820467Y-58738423D01*
X105177609Y-58488423D02*
X105427609Y-58131280D01*
X105606180Y-58488423D02*
X105606180Y-57738423D01*
X105606180Y-57738423D02*
X105320466Y-57738423D01*
X105320466Y-57738423D02*
X105249037Y-57774137D01*
X105249037Y-57774137D02*
X105213323Y-57809851D01*
X105213323Y-57809851D02*
X105177609Y-57881280D01*
X105177609Y-57881280D02*
X105177609Y-57988423D01*
X105177609Y-57988423D02*
X105213323Y-58059851D01*
X105213323Y-58059851D02*
X105249037Y-58095566D01*
X105249037Y-58095566D02*
X105320466Y-58131280D01*
X105320466Y-58131280D02*
X105606180Y-58131280D01*
X104534752Y-58488423D02*
X104534752Y-58095566D01*
X104534752Y-58095566D02*
X104570466Y-58024137D01*
X104570466Y-58024137D02*
X104641894Y-57988423D01*
X104641894Y-57988423D02*
X104784752Y-57988423D01*
X104784752Y-57988423D02*
X104856180Y-58024137D01*
X104534752Y-58452709D02*
X104606180Y-58488423D01*
X104606180Y-58488423D02*
X104784752Y-58488423D01*
X104784752Y-58488423D02*
X104856180Y-58452709D01*
X104856180Y-58452709D02*
X104891894Y-58381280D01*
X104891894Y-58381280D02*
X104891894Y-58309851D01*
X104891894Y-58309851D02*
X104856180Y-58238423D01*
X104856180Y-58238423D02*
X104784752Y-58202709D01*
X104784752Y-58202709D02*
X104606180Y-58202709D01*
X104606180Y-58202709D02*
X104534752Y-58166994D01*
X104249038Y-57988423D02*
X104070466Y-58488423D01*
X103891895Y-57988423D02*
X104070466Y-58488423D01*
X104070466Y-58488423D02*
X104141895Y-58666994D01*
X104141895Y-58666994D02*
X104177609Y-58702709D01*
X104177609Y-58702709D02*
X104249038Y-58738423D01*
X103606180Y-58488423D02*
X103606180Y-57988423D01*
X103606180Y-58059851D02*
X103570466Y-58024137D01*
X103570466Y-58024137D02*
X103499037Y-57988423D01*
X103499037Y-57988423D02*
X103391894Y-57988423D01*
X103391894Y-57988423D02*
X103320466Y-58024137D01*
X103320466Y-58024137D02*
X103284752Y-58095566D01*
X103284752Y-58095566D02*
X103284752Y-58488423D01*
X103284752Y-58095566D02*
X103249037Y-58024137D01*
X103249037Y-58024137D02*
X103177609Y-57988423D01*
X103177609Y-57988423D02*
X103070466Y-57988423D01*
X103070466Y-57988423D02*
X102999037Y-58024137D01*
X102999037Y-58024137D02*
X102963323Y-58095566D01*
X102963323Y-58095566D02*
X102963323Y-58488423D01*
X102499037Y-58488423D02*
X102570466Y-58452709D01*
X102570466Y-58452709D02*
X102606180Y-58416994D01*
X102606180Y-58416994D02*
X102641894Y-58345566D01*
X102641894Y-58345566D02*
X102641894Y-58131280D01*
X102641894Y-58131280D02*
X102606180Y-58059851D01*
X102606180Y-58059851D02*
X102570466Y-58024137D01*
X102570466Y-58024137D02*
X102499037Y-57988423D01*
X102499037Y-57988423D02*
X102391894Y-57988423D01*
X102391894Y-57988423D02*
X102320466Y-58024137D01*
X102320466Y-58024137D02*
X102284752Y-58059851D01*
X102284752Y-58059851D02*
X102249037Y-58131280D01*
X102249037Y-58131280D02*
X102249037Y-58345566D01*
X102249037Y-58345566D02*
X102284752Y-58416994D01*
X102284752Y-58416994D02*
X102320466Y-58452709D01*
X102320466Y-58452709D02*
X102391894Y-58488423D01*
X102391894Y-58488423D02*
X102499037Y-58488423D01*
X101927609Y-57988423D02*
X101927609Y-58488423D01*
X101927609Y-58059851D02*
X101891895Y-58024137D01*
X101891895Y-58024137D02*
X101820466Y-57988423D01*
X101820466Y-57988423D02*
X101713323Y-57988423D01*
X101713323Y-57988423D02*
X101641895Y-58024137D01*
X101641895Y-58024137D02*
X101606181Y-58095566D01*
X101606181Y-58095566D02*
X101606181Y-58488423D01*
X100927610Y-58488423D02*
X100927610Y-57738423D01*
X100927610Y-58452709D02*
X100999038Y-58488423D01*
X100999038Y-58488423D02*
X101141895Y-58488423D01*
X101141895Y-58488423D02*
X101213324Y-58452709D01*
X101213324Y-58452709D02*
X101249038Y-58416994D01*
X101249038Y-58416994D02*
X101284752Y-58345566D01*
X101284752Y-58345566D02*
X101284752Y-58131280D01*
X101284752Y-58131280D02*
X101249038Y-58059851D01*
X101249038Y-58059851D02*
X101213324Y-58024137D01*
X101213324Y-58024137D02*
X101141895Y-57988423D01*
X101141895Y-57988423D02*
X100999038Y-57988423D01*
X100999038Y-57988423D02*
X100927610Y-58024137D01*
X99784752Y-57738423D02*
X99784752Y-58274137D01*
X99784752Y-58274137D02*
X99820467Y-58381280D01*
X99820467Y-58381280D02*
X99891895Y-58452709D01*
X99891895Y-58452709D02*
X99999038Y-58488423D01*
X99999038Y-58488423D02*
X100070467Y-58488423D01*
X99427609Y-58488423D02*
X99427609Y-57988423D01*
X99427609Y-57738423D02*
X99463323Y-57774137D01*
X99463323Y-57774137D02*
X99427609Y-57809851D01*
X99427609Y-57809851D02*
X99391895Y-57774137D01*
X99391895Y-57774137D02*
X99427609Y-57738423D01*
X99427609Y-57738423D02*
X99427609Y-57809851D01*
X98749038Y-58488423D02*
X98749038Y-58095566D01*
X98749038Y-58095566D02*
X98784752Y-58024137D01*
X98784752Y-58024137D02*
X98856180Y-57988423D01*
X98856180Y-57988423D02*
X98999038Y-57988423D01*
X98999038Y-57988423D02*
X99070466Y-58024137D01*
X98749038Y-58452709D02*
X98820466Y-58488423D01*
X98820466Y-58488423D02*
X98999038Y-58488423D01*
X98999038Y-58488423D02*
X99070466Y-58452709D01*
X99070466Y-58452709D02*
X99106180Y-58381280D01*
X99106180Y-58381280D02*
X99106180Y-58309851D01*
X99106180Y-58309851D02*
X99070466Y-58238423D01*
X99070466Y-58238423D02*
X98999038Y-58202709D01*
X98999038Y-58202709D02*
X98820466Y-58202709D01*
X98820466Y-58202709D02*
X98749038Y-58166994D01*
X98391895Y-57988423D02*
X98391895Y-58488423D01*
X98391895Y-58059851D02*
X98356181Y-58024137D01*
X98356181Y-58024137D02*
X98284752Y-57988423D01*
X98284752Y-57988423D02*
X98177609Y-57988423D01*
X98177609Y-57988423D02*
X98106181Y-58024137D01*
X98106181Y-58024137D02*
X98070467Y-58095566D01*
X98070467Y-58095566D02*
X98070467Y-58488423D01*
X97391896Y-57988423D02*
X97391896Y-58595566D01*
X97391896Y-58595566D02*
X97427610Y-58666994D01*
X97427610Y-58666994D02*
X97463324Y-58702709D01*
X97463324Y-58702709D02*
X97534753Y-58738423D01*
X97534753Y-58738423D02*
X97641896Y-58738423D01*
X97641896Y-58738423D02*
X97713324Y-58702709D01*
X97391896Y-58452709D02*
X97463324Y-58488423D01*
X97463324Y-58488423D02*
X97606181Y-58488423D01*
X97606181Y-58488423D02*
X97677610Y-58452709D01*
X97677610Y-58452709D02*
X97713324Y-58416994D01*
X97713324Y-58416994D02*
X97749038Y-58345566D01*
X97749038Y-58345566D02*
X97749038Y-58131280D01*
X97749038Y-58131280D02*
X97713324Y-58059851D01*
X97713324Y-58059851D02*
X97677610Y-58024137D01*
X97677610Y-58024137D02*
X97606181Y-57988423D01*
X97606181Y-57988423D02*
X97463324Y-57988423D01*
X97463324Y-57988423D02*
X97391896Y-58024137D01*
X96999039Y-58452709D02*
X96999039Y-58488423D01*
X96999039Y-58488423D02*
X97034753Y-58559851D01*
X97034753Y-58559851D02*
X97070467Y-58595566D01*
X112891894Y-59338738D02*
X112891894Y-59695881D01*
X113141894Y-58945881D02*
X112891894Y-59338738D01*
X112891894Y-59338738D02*
X112641894Y-58945881D01*
X112391894Y-59695881D02*
X112391894Y-59195881D01*
X112391894Y-58945881D02*
X112427608Y-58981595D01*
X112427608Y-58981595D02*
X112391894Y-59017309D01*
X112391894Y-59017309D02*
X112356180Y-58981595D01*
X112356180Y-58981595D02*
X112391894Y-58945881D01*
X112391894Y-58945881D02*
X112391894Y-59017309D01*
X111927608Y-59695881D02*
X111999037Y-59660167D01*
X111999037Y-59660167D02*
X112034751Y-59588738D01*
X112034751Y-59588738D02*
X112034751Y-58945881D01*
X111641894Y-59695881D02*
X111641894Y-59195881D01*
X111641894Y-58945881D02*
X111677608Y-58981595D01*
X111677608Y-58981595D02*
X111641894Y-59017309D01*
X111641894Y-59017309D02*
X111606180Y-58981595D01*
X111606180Y-58981595D02*
X111641894Y-58945881D01*
X111641894Y-58945881D02*
X111641894Y-59017309D01*
X111284751Y-59195881D02*
X111284751Y-59695881D01*
X111284751Y-59267309D02*
X111249037Y-59231595D01*
X111249037Y-59231595D02*
X111177608Y-59195881D01*
X111177608Y-59195881D02*
X111070465Y-59195881D01*
X111070465Y-59195881D02*
X110999037Y-59231595D01*
X110999037Y-59231595D02*
X110963323Y-59303024D01*
X110963323Y-59303024D02*
X110963323Y-59695881D01*
X109820465Y-58945881D02*
X109820465Y-59481595D01*
X109820465Y-59481595D02*
X109856180Y-59588738D01*
X109856180Y-59588738D02*
X109927608Y-59660167D01*
X109927608Y-59660167D02*
X110034751Y-59695881D01*
X110034751Y-59695881D02*
X110106180Y-59695881D01*
X109463322Y-59695881D02*
X109463322Y-59195881D01*
X109463322Y-58945881D02*
X109499036Y-58981595D01*
X109499036Y-58981595D02*
X109463322Y-59017309D01*
X109463322Y-59017309D02*
X109427608Y-58981595D01*
X109427608Y-58981595D02*
X109463322Y-58945881D01*
X109463322Y-58945881D02*
X109463322Y-59017309D01*
X109106179Y-59195881D02*
X109106179Y-59695881D01*
X109106179Y-59267309D02*
X109070465Y-59231595D01*
X109070465Y-59231595D02*
X108999036Y-59195881D01*
X108999036Y-59195881D02*
X108891893Y-59195881D01*
X108891893Y-59195881D02*
X108820465Y-59231595D01*
X108820465Y-59231595D02*
X108784751Y-59303024D01*
X108784751Y-59303024D02*
X108784751Y-59695881D01*
X108391894Y-59660167D02*
X108391894Y-59695881D01*
X108391894Y-59695881D02*
X108427608Y-59767309D01*
X108427608Y-59767309D02*
X108463322Y-59803024D01*
X107534750Y-59481595D02*
X107177608Y-59481595D01*
X107606179Y-59695881D02*
X107356179Y-58945881D01*
X107356179Y-58945881D02*
X107106179Y-59695881D01*
X106856179Y-59195881D02*
X106856179Y-59695881D01*
X106856179Y-59267309D02*
X106820465Y-59231595D01*
X106820465Y-59231595D02*
X106749036Y-59195881D01*
X106749036Y-59195881D02*
X106641893Y-59195881D01*
X106641893Y-59195881D02*
X106570465Y-59231595D01*
X106570465Y-59231595D02*
X106534751Y-59303024D01*
X106534751Y-59303024D02*
X106534751Y-59695881D01*
X106177608Y-59195881D02*
X106177608Y-59695881D01*
X106177608Y-59267309D02*
X106141894Y-59231595D01*
X106141894Y-59231595D02*
X106070465Y-59195881D01*
X106070465Y-59195881D02*
X105963322Y-59195881D01*
X105963322Y-59195881D02*
X105891894Y-59231595D01*
X105891894Y-59231595D02*
X105856180Y-59303024D01*
X105856180Y-59303024D02*
X105856180Y-59695881D01*
X105177609Y-59695881D02*
X105177609Y-59303024D01*
X105177609Y-59303024D02*
X105213323Y-59231595D01*
X105213323Y-59231595D02*
X105284751Y-59195881D01*
X105284751Y-59195881D02*
X105427609Y-59195881D01*
X105427609Y-59195881D02*
X105499037Y-59231595D01*
X105177609Y-59660167D02*
X105249037Y-59695881D01*
X105249037Y-59695881D02*
X105427609Y-59695881D01*
X105427609Y-59695881D02*
X105499037Y-59660167D01*
X105499037Y-59660167D02*
X105534751Y-59588738D01*
X105534751Y-59588738D02*
X105534751Y-59517309D01*
X105534751Y-59517309D02*
X105499037Y-59445881D01*
X105499037Y-59445881D02*
X105427609Y-59410167D01*
X105427609Y-59410167D02*
X105249037Y-59410167D01*
X105249037Y-59410167D02*
X105177609Y-59374452D01*
X103856180Y-58981595D02*
X103927609Y-58945881D01*
X103927609Y-58945881D02*
X104034751Y-58945881D01*
X104034751Y-58945881D02*
X104141894Y-58981595D01*
X104141894Y-58981595D02*
X104213323Y-59053024D01*
X104213323Y-59053024D02*
X104249037Y-59124452D01*
X104249037Y-59124452D02*
X104284751Y-59267309D01*
X104284751Y-59267309D02*
X104284751Y-59374452D01*
X104284751Y-59374452D02*
X104249037Y-59517309D01*
X104249037Y-59517309D02*
X104213323Y-59588738D01*
X104213323Y-59588738D02*
X104141894Y-59660167D01*
X104141894Y-59660167D02*
X104034751Y-59695881D01*
X104034751Y-59695881D02*
X103963323Y-59695881D01*
X103963323Y-59695881D02*
X103856180Y-59660167D01*
X103856180Y-59660167D02*
X103820466Y-59624452D01*
X103820466Y-59624452D02*
X103820466Y-59374452D01*
X103820466Y-59374452D02*
X103963323Y-59374452D01*
X103177609Y-59195881D02*
X103177609Y-59695881D01*
X103499037Y-59195881D02*
X103499037Y-59588738D01*
X103499037Y-59588738D02*
X103463323Y-59660167D01*
X103463323Y-59660167D02*
X103391894Y-59695881D01*
X103391894Y-59695881D02*
X103284751Y-59695881D01*
X103284751Y-59695881D02*
X103213323Y-59660167D01*
X103213323Y-59660167D02*
X103177609Y-59624452D01*
X102713323Y-59695881D02*
X102784752Y-59660167D01*
X102784752Y-59660167D02*
X102820466Y-59624452D01*
X102820466Y-59624452D02*
X102856180Y-59553024D01*
X102856180Y-59553024D02*
X102856180Y-59338738D01*
X102856180Y-59338738D02*
X102820466Y-59267309D01*
X102820466Y-59267309D02*
X102784752Y-59231595D01*
X102784752Y-59231595D02*
X102713323Y-59195881D01*
X102713323Y-59195881D02*
X102606180Y-59195881D01*
X102606180Y-59195881D02*
X102534752Y-59231595D01*
X102534752Y-59231595D02*
X102499038Y-59267309D01*
X102499038Y-59267309D02*
X102463323Y-59338738D01*
X102463323Y-59338738D02*
X102463323Y-59553024D01*
X102463323Y-59553024D02*
X102499038Y-59624452D01*
X102499038Y-59624452D02*
X102534752Y-59660167D01*
X102534752Y-59660167D02*
X102606180Y-59695881D01*
X102606180Y-59695881D02*
X102713323Y-59695881D01*
X102106181Y-59660167D02*
X102106181Y-59695881D01*
X102106181Y-59695881D02*
X102141895Y-59767309D01*
X102141895Y-59767309D02*
X102177609Y-59803024D01*
X113141894Y-60153339D02*
X112891894Y-60903339D01*
X112891894Y-60903339D02*
X112641894Y-60153339D01*
X112070466Y-60903339D02*
X112070466Y-60510482D01*
X112070466Y-60510482D02*
X112106180Y-60439053D01*
X112106180Y-60439053D02*
X112177608Y-60403339D01*
X112177608Y-60403339D02*
X112320466Y-60403339D01*
X112320466Y-60403339D02*
X112391894Y-60439053D01*
X112070466Y-60867625D02*
X112141894Y-60903339D01*
X112141894Y-60903339D02*
X112320466Y-60903339D01*
X112320466Y-60903339D02*
X112391894Y-60867625D01*
X112391894Y-60867625D02*
X112427608Y-60796196D01*
X112427608Y-60796196D02*
X112427608Y-60724767D01*
X112427608Y-60724767D02*
X112391894Y-60653339D01*
X112391894Y-60653339D02*
X112320466Y-60617625D01*
X112320466Y-60617625D02*
X112141894Y-60617625D01*
X112141894Y-60617625D02*
X112070466Y-60581910D01*
X111713323Y-60903339D02*
X111713323Y-60403339D01*
X111713323Y-60546196D02*
X111677609Y-60474767D01*
X111677609Y-60474767D02*
X111641895Y-60439053D01*
X111641895Y-60439053D02*
X111570466Y-60403339D01*
X111570466Y-60403339D02*
X111499037Y-60403339D01*
X110927609Y-60403339D02*
X110927609Y-60903339D01*
X111249037Y-60403339D02*
X111249037Y-60796196D01*
X111249037Y-60796196D02*
X111213323Y-60867625D01*
X111213323Y-60867625D02*
X111141894Y-60903339D01*
X111141894Y-60903339D02*
X111034751Y-60903339D01*
X111034751Y-60903339D02*
X110963323Y-60867625D01*
X110963323Y-60867625D02*
X110927609Y-60831910D01*
X110570466Y-60403339D02*
X110570466Y-60903339D01*
X110570466Y-60474767D02*
X110534752Y-60439053D01*
X110534752Y-60439053D02*
X110463323Y-60403339D01*
X110463323Y-60403339D02*
X110356180Y-60403339D01*
X110356180Y-60403339D02*
X110284752Y-60439053D01*
X110284752Y-60439053D02*
X110249038Y-60510482D01*
X110249038Y-60510482D02*
X110249038Y-60903339D01*
X109356180Y-60867625D02*
X109249038Y-60903339D01*
X109249038Y-60903339D02*
X109070466Y-60903339D01*
X109070466Y-60903339D02*
X108999038Y-60867625D01*
X108999038Y-60867625D02*
X108963323Y-60831910D01*
X108963323Y-60831910D02*
X108927609Y-60760482D01*
X108927609Y-60760482D02*
X108927609Y-60689053D01*
X108927609Y-60689053D02*
X108963323Y-60617625D01*
X108963323Y-60617625D02*
X108999038Y-60581910D01*
X108999038Y-60581910D02*
X109070466Y-60546196D01*
X109070466Y-60546196D02*
X109213323Y-60510482D01*
X109213323Y-60510482D02*
X109284752Y-60474767D01*
X109284752Y-60474767D02*
X109320466Y-60439053D01*
X109320466Y-60439053D02*
X109356180Y-60367625D01*
X109356180Y-60367625D02*
X109356180Y-60296196D01*
X109356180Y-60296196D02*
X109320466Y-60224767D01*
X109320466Y-60224767D02*
X109284752Y-60189053D01*
X109284752Y-60189053D02*
X109213323Y-60153339D01*
X109213323Y-60153339D02*
X109034752Y-60153339D01*
X109034752Y-60153339D02*
X108927609Y-60189053D01*
X108606180Y-60903339D02*
X108606180Y-60403339D01*
X108606180Y-60546196D02*
X108570466Y-60474767D01*
X108570466Y-60474767D02*
X108534752Y-60439053D01*
X108534752Y-60439053D02*
X108463323Y-60403339D01*
X108463323Y-60403339D02*
X108391894Y-60403339D01*
X108141894Y-60903339D02*
X108141894Y-60403339D01*
X108141894Y-60153339D02*
X108177608Y-60189053D01*
X108177608Y-60189053D02*
X108141894Y-60224767D01*
X108141894Y-60224767D02*
X108106180Y-60189053D01*
X108106180Y-60189053D02*
X108141894Y-60153339D01*
X108141894Y-60153339D02*
X108141894Y-60224767D01*
X107784751Y-60403339D02*
X107784751Y-60903339D01*
X107784751Y-60474767D02*
X107749037Y-60439053D01*
X107749037Y-60439053D02*
X107677608Y-60403339D01*
X107677608Y-60403339D02*
X107570465Y-60403339D01*
X107570465Y-60403339D02*
X107499037Y-60439053D01*
X107499037Y-60439053D02*
X107463323Y-60510482D01*
X107463323Y-60510482D02*
X107463323Y-60903339D01*
X107106180Y-60903339D02*
X107106180Y-60403339D01*
X107106180Y-60153339D02*
X107141894Y-60189053D01*
X107141894Y-60189053D02*
X107106180Y-60224767D01*
X107106180Y-60224767D02*
X107070466Y-60189053D01*
X107070466Y-60189053D02*
X107106180Y-60153339D01*
X107106180Y-60153339D02*
X107106180Y-60224767D01*
X106820466Y-60403339D02*
X106641894Y-60903339D01*
X106641894Y-60903339D02*
X106463323Y-60403339D01*
X105856180Y-60903339D02*
X105856180Y-60510482D01*
X105856180Y-60510482D02*
X105891894Y-60439053D01*
X105891894Y-60439053D02*
X105963322Y-60403339D01*
X105963322Y-60403339D02*
X106106180Y-60403339D01*
X106106180Y-60403339D02*
X106177608Y-60439053D01*
X105856180Y-60867625D02*
X105927608Y-60903339D01*
X105927608Y-60903339D02*
X106106180Y-60903339D01*
X106106180Y-60903339D02*
X106177608Y-60867625D01*
X106177608Y-60867625D02*
X106213322Y-60796196D01*
X106213322Y-60796196D02*
X106213322Y-60724767D01*
X106213322Y-60724767D02*
X106177608Y-60653339D01*
X106177608Y-60653339D02*
X106106180Y-60617625D01*
X106106180Y-60617625D02*
X105927608Y-60617625D01*
X105927608Y-60617625D02*
X105856180Y-60581910D01*
X105534751Y-60867625D02*
X105463323Y-60903339D01*
X105463323Y-60903339D02*
X105320466Y-60903339D01*
X105320466Y-60903339D02*
X105249037Y-60867625D01*
X105249037Y-60867625D02*
X105213323Y-60796196D01*
X105213323Y-60796196D02*
X105213323Y-60760482D01*
X105213323Y-60760482D02*
X105249037Y-60689053D01*
X105249037Y-60689053D02*
X105320466Y-60653339D01*
X105320466Y-60653339D02*
X105427609Y-60653339D01*
X105427609Y-60653339D02*
X105499037Y-60617625D01*
X105499037Y-60617625D02*
X105534751Y-60546196D01*
X105534751Y-60546196D02*
X105534751Y-60510482D01*
X105534751Y-60510482D02*
X105499037Y-60439053D01*
X105499037Y-60439053D02*
X105427609Y-60403339D01*
X105427609Y-60403339D02*
X105320466Y-60403339D01*
X105320466Y-60403339D02*
X105249037Y-60439053D01*
X104570466Y-60903339D02*
X104570466Y-60510482D01*
X104570466Y-60510482D02*
X104606180Y-60439053D01*
X104606180Y-60439053D02*
X104677608Y-60403339D01*
X104677608Y-60403339D02*
X104820466Y-60403339D01*
X104820466Y-60403339D02*
X104891894Y-60439053D01*
X104570466Y-60867625D02*
X104641894Y-60903339D01*
X104641894Y-60903339D02*
X104820466Y-60903339D01*
X104820466Y-60903339D02*
X104891894Y-60867625D01*
X104891894Y-60867625D02*
X104927608Y-60796196D01*
X104927608Y-60796196D02*
X104927608Y-60724767D01*
X104927608Y-60724767D02*
X104891894Y-60653339D01*
X104891894Y-60653339D02*
X104820466Y-60617625D01*
X104820466Y-60617625D02*
X104641894Y-60617625D01*
X104641894Y-60617625D02*
X104570466Y-60581910D01*
X104213323Y-60403339D02*
X104213323Y-60903339D01*
X104213323Y-60474767D02*
X104177609Y-60439053D01*
X104177609Y-60439053D02*
X104106180Y-60403339D01*
X104106180Y-60403339D02*
X103999037Y-60403339D01*
X103999037Y-60403339D02*
X103927609Y-60439053D01*
X103927609Y-60439053D02*
X103891895Y-60510482D01*
X103891895Y-60510482D02*
X103891895Y-60903339D01*
X103499038Y-60867625D02*
X103499038Y-60903339D01*
X103499038Y-60903339D02*
X103534752Y-60974767D01*
X103534752Y-60974767D02*
X103570466Y-61010482D01*
X102177609Y-60903339D02*
X102427609Y-60546196D01*
X102606180Y-60903339D02*
X102606180Y-60153339D01*
X102606180Y-60153339D02*
X102320466Y-60153339D01*
X102320466Y-60153339D02*
X102249037Y-60189053D01*
X102249037Y-60189053D02*
X102213323Y-60224767D01*
X102213323Y-60224767D02*
X102177609Y-60296196D01*
X102177609Y-60296196D02*
X102177609Y-60403339D01*
X102177609Y-60403339D02*
X102213323Y-60474767D01*
X102213323Y-60474767D02*
X102249037Y-60510482D01*
X102249037Y-60510482D02*
X102320466Y-60546196D01*
X102320466Y-60546196D02*
X102606180Y-60546196D01*
X101856180Y-60903339D02*
X101856180Y-60403339D01*
X101856180Y-60153339D02*
X101891894Y-60189053D01*
X101891894Y-60189053D02*
X101856180Y-60224767D01*
X101856180Y-60224767D02*
X101820466Y-60189053D01*
X101820466Y-60189053D02*
X101856180Y-60153339D01*
X101856180Y-60153339D02*
X101856180Y-60224767D01*
X101177609Y-60867625D02*
X101249037Y-60903339D01*
X101249037Y-60903339D02*
X101391894Y-60903339D01*
X101391894Y-60903339D02*
X101463323Y-60867625D01*
X101463323Y-60867625D02*
X101499037Y-60831910D01*
X101499037Y-60831910D02*
X101534751Y-60760482D01*
X101534751Y-60760482D02*
X101534751Y-60546196D01*
X101534751Y-60546196D02*
X101499037Y-60474767D01*
X101499037Y-60474767D02*
X101463323Y-60439053D01*
X101463323Y-60439053D02*
X101391894Y-60403339D01*
X101391894Y-60403339D02*
X101249037Y-60403339D01*
X101249037Y-60403339D02*
X101177609Y-60439053D01*
X100856180Y-60903339D02*
X100856180Y-60153339D01*
X100534752Y-60903339D02*
X100534752Y-60510482D01*
X100534752Y-60510482D02*
X100570466Y-60439053D01*
X100570466Y-60439053D02*
X100641894Y-60403339D01*
X100641894Y-60403339D02*
X100749037Y-60403339D01*
X100749037Y-60403339D02*
X100820466Y-60439053D01*
X100820466Y-60439053D02*
X100856180Y-60474767D01*
X99856181Y-60903339D02*
X99856181Y-60510482D01*
X99856181Y-60510482D02*
X99891895Y-60439053D01*
X99891895Y-60439053D02*
X99963323Y-60403339D01*
X99963323Y-60403339D02*
X100106181Y-60403339D01*
X100106181Y-60403339D02*
X100177609Y-60439053D01*
X99856181Y-60867625D02*
X99927609Y-60903339D01*
X99927609Y-60903339D02*
X100106181Y-60903339D01*
X100106181Y-60903339D02*
X100177609Y-60867625D01*
X100177609Y-60867625D02*
X100213323Y-60796196D01*
X100213323Y-60796196D02*
X100213323Y-60724767D01*
X100213323Y-60724767D02*
X100177609Y-60653339D01*
X100177609Y-60653339D02*
X100106181Y-60617625D01*
X100106181Y-60617625D02*
X99927609Y-60617625D01*
X99927609Y-60617625D02*
X99856181Y-60581910D01*
X99499038Y-60903339D02*
X99499038Y-60403339D01*
X99499038Y-60546196D02*
X99463324Y-60474767D01*
X99463324Y-60474767D02*
X99427610Y-60439053D01*
X99427610Y-60439053D02*
X99356181Y-60403339D01*
X99356181Y-60403339D02*
X99284752Y-60403339D01*
X98713324Y-60903339D02*
X98713324Y-60153339D01*
X98713324Y-60867625D02*
X98784752Y-60903339D01*
X98784752Y-60903339D02*
X98927609Y-60903339D01*
X98927609Y-60903339D02*
X98999038Y-60867625D01*
X98999038Y-60867625D02*
X99034752Y-60831910D01*
X99034752Y-60831910D02*
X99070466Y-60760482D01*
X99070466Y-60760482D02*
X99070466Y-60546196D01*
X99070466Y-60546196D02*
X99034752Y-60474767D01*
X99034752Y-60474767D02*
X98999038Y-60439053D01*
X98999038Y-60439053D02*
X98927609Y-60403339D01*
X98927609Y-60403339D02*
X98784752Y-60403339D01*
X98784752Y-60403339D02*
X98713324Y-60439053D01*
X97784752Y-60903339D02*
X97784752Y-60153339D01*
X97784752Y-60153339D02*
X97356181Y-60903339D01*
X97356181Y-60903339D02*
X97356181Y-60153339D01*
X96677610Y-60403339D02*
X96677610Y-61010482D01*
X96677610Y-61010482D02*
X96713324Y-61081910D01*
X96713324Y-61081910D02*
X96749038Y-61117625D01*
X96749038Y-61117625D02*
X96820467Y-61153339D01*
X96820467Y-61153339D02*
X96927610Y-61153339D01*
X96927610Y-61153339D02*
X96999038Y-61117625D01*
X96677610Y-60867625D02*
X96749038Y-60903339D01*
X96749038Y-60903339D02*
X96891895Y-60903339D01*
X96891895Y-60903339D02*
X96963324Y-60867625D01*
X96963324Y-60867625D02*
X96999038Y-60831910D01*
X96999038Y-60831910D02*
X97034752Y-60760482D01*
X97034752Y-60760482D02*
X97034752Y-60546196D01*
X97034752Y-60546196D02*
X96999038Y-60474767D01*
X96999038Y-60474767D02*
X96963324Y-60439053D01*
X96963324Y-60439053D02*
X96891895Y-60403339D01*
X96891895Y-60403339D02*
X96749038Y-60403339D01*
X96749038Y-60403339D02*
X96677610Y-60439053D01*
X95999039Y-60403339D02*
X95999039Y-60903339D01*
X96320467Y-60403339D02*
X96320467Y-60796196D01*
X96320467Y-60796196D02*
X96284753Y-60867625D01*
X96284753Y-60867625D02*
X96213324Y-60903339D01*
X96213324Y-60903339D02*
X96106181Y-60903339D01*
X96106181Y-60903339D02*
X96034753Y-60867625D01*
X96034753Y-60867625D02*
X95999039Y-60831910D01*
X95713325Y-60403339D02*
X95534753Y-60903339D01*
X95356182Y-60403339D02*
X95534753Y-60903339D01*
X95534753Y-60903339D02*
X95606182Y-61081910D01*
X95606182Y-61081910D02*
X95641896Y-61117625D01*
X95641896Y-61117625D02*
X95713325Y-61153339D01*
X94784753Y-60867625D02*
X94856181Y-60903339D01*
X94856181Y-60903339D02*
X94999039Y-60903339D01*
X94999039Y-60903339D02*
X95070467Y-60867625D01*
X95070467Y-60867625D02*
X95106181Y-60796196D01*
X95106181Y-60796196D02*
X95106181Y-60510482D01*
X95106181Y-60510482D02*
X95070467Y-60439053D01*
X95070467Y-60439053D02*
X94999039Y-60403339D01*
X94999039Y-60403339D02*
X94856181Y-60403339D01*
X94856181Y-60403339D02*
X94784753Y-60439053D01*
X94784753Y-60439053D02*
X94749039Y-60510482D01*
X94749039Y-60510482D02*
X94749039Y-60581910D01*
X94749039Y-60581910D02*
X95106181Y-60653339D01*
X94427610Y-60403339D02*
X94427610Y-60903339D01*
X94427610Y-60474767D02*
X94391896Y-60439053D01*
X94391896Y-60439053D02*
X94320467Y-60403339D01*
X94320467Y-60403339D02*
X94213324Y-60403339D01*
X94213324Y-60403339D02*
X94141896Y-60439053D01*
X94141896Y-60439053D02*
X94106182Y-60510482D01*
X94106182Y-60510482D02*
X94106182Y-60903339D01*
D11*
X85566666Y-65954819D02*
X85899999Y-65478628D01*
X86138094Y-65954819D02*
X86138094Y-64954819D01*
X86138094Y-64954819D02*
X85757142Y-64954819D01*
X85757142Y-64954819D02*
X85661904Y-65002438D01*
X85661904Y-65002438D02*
X85614285Y-65050057D01*
X85614285Y-65050057D02*
X85566666Y-65145295D01*
X85566666Y-65145295D02*
X85566666Y-65288152D01*
X85566666Y-65288152D02*
X85614285Y-65383390D01*
X85614285Y-65383390D02*
X85661904Y-65431009D01*
X85661904Y-65431009D02*
X85757142Y-65478628D01*
X85757142Y-65478628D02*
X86138094Y-65478628D01*
X85185713Y-65050057D02*
X85138094Y-65002438D01*
X85138094Y-65002438D02*
X85042856Y-64954819D01*
X85042856Y-64954819D02*
X84804761Y-64954819D01*
X84804761Y-64954819D02*
X84709523Y-65002438D01*
X84709523Y-65002438D02*
X84661904Y-65050057D01*
X84661904Y-65050057D02*
X84614285Y-65145295D01*
X84614285Y-65145295D02*
X84614285Y-65240533D01*
X84614285Y-65240533D02*
X84661904Y-65383390D01*
X84661904Y-65383390D02*
X85233332Y-65954819D01*
X85233332Y-65954819D02*
X84614285Y-65954819D01*
X92704819Y-54182142D02*
X92228628Y-53848809D01*
X92704819Y-53610714D02*
X91704819Y-53610714D01*
X91704819Y-53610714D02*
X91704819Y-53991666D01*
X91704819Y-53991666D02*
X91752438Y-54086904D01*
X91752438Y-54086904D02*
X91800057Y-54134523D01*
X91800057Y-54134523D02*
X91895295Y-54182142D01*
X91895295Y-54182142D02*
X92038152Y-54182142D01*
X92038152Y-54182142D02*
X92133390Y-54134523D01*
X92133390Y-54134523D02*
X92181009Y-54086904D01*
X92181009Y-54086904D02*
X92228628Y-53991666D01*
X92228628Y-53991666D02*
X92228628Y-53610714D01*
X92704819Y-55134523D02*
X92704819Y-54563095D01*
X92704819Y-54848809D02*
X91704819Y-54848809D01*
X91704819Y-54848809D02*
X91847676Y-54753571D01*
X91847676Y-54753571D02*
X91942914Y-54658333D01*
X91942914Y-54658333D02*
X91990533Y-54563095D01*
X91800057Y-55515476D02*
X91752438Y-55563095D01*
X91752438Y-55563095D02*
X91704819Y-55658333D01*
X91704819Y-55658333D02*
X91704819Y-55896428D01*
X91704819Y-55896428D02*
X91752438Y-55991666D01*
X91752438Y-55991666D02*
X91800057Y-56039285D01*
X91800057Y-56039285D02*
X91895295Y-56086904D01*
X91895295Y-56086904D02*
X91990533Y-56086904D01*
X91990533Y-56086904D02*
X92133390Y-56039285D01*
X92133390Y-56039285D02*
X92704819Y-55467857D01*
X92704819Y-55467857D02*
X92704819Y-56086904D01*
X88504580Y-79058333D02*
X88552200Y-79010714D01*
X88552200Y-79010714D02*
X88599819Y-78867857D01*
X88599819Y-78867857D02*
X88599819Y-78772619D01*
X88599819Y-78772619D02*
X88552200Y-78629762D01*
X88552200Y-78629762D02*
X88456961Y-78534524D01*
X88456961Y-78534524D02*
X88361723Y-78486905D01*
X88361723Y-78486905D02*
X88171247Y-78439286D01*
X88171247Y-78439286D02*
X88028390Y-78439286D01*
X88028390Y-78439286D02*
X87837914Y-78486905D01*
X87837914Y-78486905D02*
X87742676Y-78534524D01*
X87742676Y-78534524D02*
X87647438Y-78629762D01*
X87647438Y-78629762D02*
X87599819Y-78772619D01*
X87599819Y-78772619D02*
X87599819Y-78867857D01*
X87599819Y-78867857D02*
X87647438Y-79010714D01*
X87647438Y-79010714D02*
X87695057Y-79058333D01*
X87695057Y-79439286D02*
X87647438Y-79486905D01*
X87647438Y-79486905D02*
X87599819Y-79582143D01*
X87599819Y-79582143D02*
X87599819Y-79820238D01*
X87599819Y-79820238D02*
X87647438Y-79915476D01*
X87647438Y-79915476D02*
X87695057Y-79963095D01*
X87695057Y-79963095D02*
X87790295Y-80010714D01*
X87790295Y-80010714D02*
X87885533Y-80010714D01*
X87885533Y-80010714D02*
X88028390Y-79963095D01*
X88028390Y-79963095D02*
X88599819Y-79391667D01*
X88599819Y-79391667D02*
X88599819Y-80010714D01*
X110691666Y-56104819D02*
X111024999Y-55628628D01*
X111263094Y-56104819D02*
X111263094Y-55104819D01*
X111263094Y-55104819D02*
X110882142Y-55104819D01*
X110882142Y-55104819D02*
X110786904Y-55152438D01*
X110786904Y-55152438D02*
X110739285Y-55200057D01*
X110739285Y-55200057D02*
X110691666Y-55295295D01*
X110691666Y-55295295D02*
X110691666Y-55438152D01*
X110691666Y-55438152D02*
X110739285Y-55533390D01*
X110739285Y-55533390D02*
X110786904Y-55581009D01*
X110786904Y-55581009D02*
X110882142Y-55628628D01*
X110882142Y-55628628D02*
X111263094Y-55628628D01*
X109834523Y-55438152D02*
X109834523Y-56104819D01*
X110072618Y-55057200D02*
X110310713Y-55771485D01*
X110310713Y-55771485D02*
X109691666Y-55771485D01*
X92892857Y-61004819D02*
X93226190Y-60528628D01*
X93464285Y-61004819D02*
X93464285Y-60004819D01*
X93464285Y-60004819D02*
X93083333Y-60004819D01*
X93083333Y-60004819D02*
X92988095Y-60052438D01*
X92988095Y-60052438D02*
X92940476Y-60100057D01*
X92940476Y-60100057D02*
X92892857Y-60195295D01*
X92892857Y-60195295D02*
X92892857Y-60338152D01*
X92892857Y-60338152D02*
X92940476Y-60433390D01*
X92940476Y-60433390D02*
X92988095Y-60481009D01*
X92988095Y-60481009D02*
X93083333Y-60528628D01*
X93083333Y-60528628D02*
X93464285Y-60528628D01*
X91940476Y-61004819D02*
X92511904Y-61004819D01*
X92226190Y-61004819D02*
X92226190Y-60004819D01*
X92226190Y-60004819D02*
X92321428Y-60147676D01*
X92321428Y-60147676D02*
X92416666Y-60242914D01*
X92416666Y-60242914D02*
X92511904Y-60290533D01*
X90988095Y-61004819D02*
X91559523Y-61004819D01*
X91273809Y-61004819D02*
X91273809Y-60004819D01*
X91273809Y-60004819D02*
X91369047Y-60147676D01*
X91369047Y-60147676D02*
X91464285Y-60242914D01*
X91464285Y-60242914D02*
X91559523Y-60290533D01*
X85566666Y-68904819D02*
X85899999Y-68428628D01*
X86138094Y-68904819D02*
X86138094Y-67904819D01*
X86138094Y-67904819D02*
X85757142Y-67904819D01*
X85757142Y-67904819D02*
X85661904Y-67952438D01*
X85661904Y-67952438D02*
X85614285Y-68000057D01*
X85614285Y-68000057D02*
X85566666Y-68095295D01*
X85566666Y-68095295D02*
X85566666Y-68238152D01*
X85566666Y-68238152D02*
X85614285Y-68333390D01*
X85614285Y-68333390D02*
X85661904Y-68381009D01*
X85661904Y-68381009D02*
X85757142Y-68428628D01*
X85757142Y-68428628D02*
X86138094Y-68428628D01*
X85233332Y-67904819D02*
X84614285Y-67904819D01*
X84614285Y-67904819D02*
X84947618Y-68285771D01*
X84947618Y-68285771D02*
X84804761Y-68285771D01*
X84804761Y-68285771D02*
X84709523Y-68333390D01*
X84709523Y-68333390D02*
X84661904Y-68381009D01*
X84661904Y-68381009D02*
X84614285Y-68476247D01*
X84614285Y-68476247D02*
X84614285Y-68714342D01*
X84614285Y-68714342D02*
X84661904Y-68809580D01*
X84661904Y-68809580D02*
X84709523Y-68857200D01*
X84709523Y-68857200D02*
X84804761Y-68904819D01*
X84804761Y-68904819D02*
X85090475Y-68904819D01*
X85090475Y-68904819D02*
X85185713Y-68857200D01*
X85185713Y-68857200D02*
X85233332Y-68809580D01*
D12*
%TO.C,R2*%
X85172936Y-66415000D02*
X85627064Y-66415000D01*
X85172936Y-67885000D02*
X85627064Y-67885000D01*
%TO.C,R12*%
X89865000Y-54597936D02*
X89865000Y-55052064D01*
X91335000Y-54597936D02*
X91335000Y-55052064D01*
%TO.C,C2*%
X89090000Y-79486252D02*
X89090000Y-78963748D01*
X90560000Y-79486252D02*
X90560000Y-78963748D01*
%TO.C,R4*%
X110752064Y-53265000D02*
X110297936Y-53265000D01*
X110752064Y-54735000D02*
X110297936Y-54735000D01*
%TO.C,R11*%
X92477064Y-58165000D02*
X92022936Y-58165000D01*
X92477064Y-59635000D02*
X92022936Y-59635000D01*
%TO.C,R3*%
X85172936Y-69365000D02*
X85627064Y-69365000D01*
X85172936Y-70835000D02*
X85627064Y-70835000D01*
%TD*%
M02*
