%TF.GenerationSoftware,KiCad,Pcbnew,8.0.3*%
%TF.CreationDate,2025-04-01T13:45:42-05:00*%
%TF.ProjectId,wearable_v2_nrf,77656172-6162-46c6-955f-76325f6e7266,rev?*%
%TF.SameCoordinates,Original*%
%TF.FileFunction,Soldermask,Bot*%
%TF.FilePolarity,Negative*%
%FSLAX46Y46*%
G04 Gerber Fmt 4.6, Leading zero omitted, Abs format (unit mm)*
G04 Created by KiCad (PCBNEW 8.0.3) date 2025-04-01 13:45:42*
%MOMM*%
%LPD*%
G01*
G04 APERTURE LIST*
G04 Aperture macros list*
%AMRoundRect*
0 Rectangle with rounded corners*
0 $1 Rounding radius*
0 $2 $3 $4 $5 $6 $7 $8 $9 X,Y pos of 4 corners*
0 Add a 4 corners polygon primitive as box body*
4,1,4,$2,$3,$4,$5,$6,$7,$8,$9,$2,$3,0*
0 Add four circle primitives for the rounded corners*
1,1,$1+$1,$2,$3*
1,1,$1+$1,$4,$5*
1,1,$1+$1,$6,$7*
1,1,$1+$1,$8,$9*
0 Add four rect primitives between the rounded corners*
20,1,$1+$1,$2,$3,$4,$5,0*
20,1,$1+$1,$4,$5,$6,$7,0*
20,1,$1+$1,$6,$7,$8,$9,0*
20,1,$1+$1,$8,$9,$2,$3,0*%
G04 Aperture macros list end*
%ADD10R,1.700000X1.700000*%
%ADD11O,1.700000X1.700000*%
%ADD12R,1.500000X1.500000*%
%ADD13RoundRect,0.200000X-0.200000X-0.450000X0.200000X-0.450000X0.200000X0.450000X-0.200000X0.450000X0*%
%ADD14O,0.800000X1.300000*%
%ADD15C,2.010000*%
%ADD16O,2.304000X1.304000*%
%ADD17R,1.000000X1.000000*%
%ADD18RoundRect,0.250000X0.262500X0.450000X-0.262500X0.450000X-0.262500X-0.450000X0.262500X-0.450000X0*%
%ADD19RoundRect,0.250000X0.450000X-0.262500X0.450000X0.262500X-0.450000X0.262500X-0.450000X-0.262500X0*%
%ADD20RoundRect,0.250000X-0.475000X0.250000X-0.475000X-0.250000X0.475000X-0.250000X0.475000X0.250000X0*%
%ADD21RoundRect,0.250000X-0.262500X-0.450000X0.262500X-0.450000X0.262500X0.450000X-0.262500X0.450000X0*%
G04 APERTURE END LIST*
D10*
%TO.C,SW2*%
X93115000Y-51050000D03*
D11*
X90575000Y-51050000D03*
X88035000Y-51050000D03*
%TD*%
D10*
%TO.C,J3*%
X102100000Y-86350000D03*
D11*
X99560000Y-86350000D03*
X97020000Y-86350000D03*
X94480000Y-86350000D03*
%TD*%
D12*
%TO.C,TP5*%
X94750000Y-81675000D03*
%TD*%
%TO.C,TP4*%
X98275000Y-81650000D03*
%TD*%
D11*
%TO.C,R5*%
X102185000Y-50800000D03*
D10*
X104725000Y-50800000D03*
%TD*%
%TO.C,J4*%
X108375000Y-50775000D03*
D11*
X110915000Y-50775000D03*
%TD*%
D13*
%TO.C,BT1*%
X97100000Y-51375000D03*
D14*
X98350000Y-51375000D03*
%TD*%
D10*
%TO.C,M1*%
X106825000Y-86400000D03*
D11*
X109365000Y-86400000D03*
%TD*%
D10*
%TO.C,J1*%
X115550000Y-76545000D03*
D11*
X115550000Y-79085000D03*
X115550000Y-81625000D03*
X115550000Y-84165000D03*
%TD*%
D12*
%TO.C,TP6*%
X93550000Y-67775000D03*
%TD*%
D15*
%TO.C,J2*%
X84347500Y-64080000D03*
X84347500Y-72720000D03*
D16*
X88118500Y-64082000D03*
X88118500Y-72718000D03*
%TD*%
D17*
%TO.C,TP2*%
X85250000Y-54750000D03*
%TD*%
%TO.C,TP1*%
X87800000Y-60250000D03*
%TD*%
D12*
%TO.C,TP7*%
X105750000Y-79375000D03*
%TD*%
D17*
%TO.C,TP3*%
X92725000Y-63675000D03*
%TD*%
D18*
%TO.C,R2*%
X86312500Y-67150000D03*
X84487500Y-67150000D03*
%TD*%
D19*
%TO.C,R12*%
X90600000Y-55737500D03*
X90600000Y-53912500D03*
%TD*%
D20*
%TO.C,C2*%
X89825000Y-78275000D03*
X89825000Y-80175000D03*
%TD*%
D21*
%TO.C,R4*%
X109612500Y-54000000D03*
X111437500Y-54000000D03*
%TD*%
%TO.C,R11*%
X91337500Y-58900000D03*
X93162500Y-58900000D03*
%TD*%
D18*
%TO.C,R3*%
X86312500Y-70100000D03*
X84487500Y-70100000D03*
%TD*%
M02*
