M48
; DRILL file {KiCad 8.0.3} date 2025-04-01T13:45:37-0500
; FORMAT={-:-/ absolute / metric / decimal}
; #@! TF.CreationDate,2025-04-01T13:45:37-05:00
; #@! TF.GenerationSoftware,Kicad,Pcbnew,8.0.3
; #@! TF.FileFunction,Plated,1,4,PTH
FMAT,2
METRIC
; #@! TA.AperFunction,Plated,PTH,ComponentDrill
T1C0.200
; #@! TA.AperFunction,Plated,PTH,ViaDrill
T2C0.300
; #@! TA.AperFunction,Plated,PTH,ComponentDrill
T3C0.500
; #@! TA.AperFunction,Plated,PTH,ComponentDrill
T4C0.700
; #@! TA.AperFunction,Plated,PTH,ComponentDrill
T5C1.000
; #@! TA.AperFunction,Plated,PTH,ComponentDrill
T6C1.340
%
G90
G05
T1
X108.525Y-66.575
X108.525Y-67.575
X108.525Y-68.575
X109.525Y-66.575
X109.525Y-67.575
X109.525Y-68.575
X110.525Y-66.575
X110.525Y-67.575
X110.525Y-68.575
T2
X83.2Y-55.3
X83.325Y-58.275
X83.475Y-53.275
X83.5Y-59.525
X84.225Y-81.3
X84.475Y-67.125
X84.5Y-70.1
X85.138Y-56.975
X86.312Y-67.15
X86.312Y-70.1
X87.575Y-86.0
X88.4Y-49.15
X89.65Y-75.15
X89.8Y-86.5
X89.825Y-78.275
X89.85Y-80.175
X89.925Y-84.125
X89.975Y-81.225
X90.125Y-57.225
X91.05Y-58.625
X91.06Y-55.825
X91.25Y-79.3
X91.425Y-72.675
X91.475Y-65.475
X91.825Y-49.15
X91.85Y-74.375
X91.95Y-85.7
X92.425Y-83.7
X93.15Y-54.275
X93.225Y-58.6
X93.25Y-60.525
X93.4Y-75.6
X94.1Y-57.225
X94.725Y-78.3
X95.3Y-84.225
X95.325Y-62.55
X95.575Y-79.675
X95.7Y-75.55
X95.775Y-67.0
X96.225Y-54.45
X96.85Y-65.725
X97.55Y-79.175
X99.325Y-64.15
X99.348Y-72.112
X99.35Y-69.075
X99.425Y-67.275
X99.825Y-55.712
X100.275Y-77.875
X100.35Y-74.75
X100.95Y-53.0
X101.25Y-78.95
X101.55Y-54.8
X101.975Y-58.175
X102.05Y-53.0
X102.175Y-59.475
X102.2Y-70.875
X102.525Y-75.225
X103.5Y-83.15
X103.95Y-53.575
X104.125Y-76.8
X104.15Y-75.475
X104.275Y-60.037
X104.45Y-58.075
X104.85Y-55.825
X104.9Y-74.975
X105.175Y-72.525
X105.375Y-70.875
X106.044Y-53.231
X106.175Y-57.85
X106.4Y-60.075
X107.3Y-53.475
X107.875Y-57.9
X107.925Y-77.6
X108.875Y-72.125
X109.375Y-63.675
X109.375Y-71.328
X109.612Y-54.0
X110.075Y-71.9
X110.237Y-63.362
X111.375Y-72.125
X111.625Y-63.6
X112.225Y-60.1
X112.475Y-85.225
X113.675Y-73.175
X113.85Y-86.775
X114.15Y-50.1
X114.15Y-55.3
X114.225Y-60.125
X115.95Y-56.35
X116.441Y-86.922
X116.893Y-63.057
X116.975Y-54.15
X117.075Y-66.975
X118.206Y-59.419
X118.625Y-79.55
X118.625Y-82.925
X118.7Y-56.85
X119.525Y-54.575
X119.675Y-79.325
X119.88Y-81.478
X119.981Y-61.194
X121.1Y-58.0
T3
X85.25Y-54.75
X87.8Y-60.25
X92.725Y-63.675
X97.1Y-51.375
X98.35Y-51.375
T4
X93.55Y-67.775
X94.75Y-81.675
X98.275Y-81.65
X105.75Y-79.375
T5
X88.035Y-51.05
X90.575Y-51.05
X93.115Y-51.05
X94.48Y-86.35
X97.02Y-86.35
X99.56Y-86.35
X102.1Y-86.35
X102.185Y-50.8
X104.725Y-50.8
X106.825Y-86.4
X108.375Y-50.775
X109.365Y-86.4
X110.915Y-50.775
X115.55Y-76.545
X115.55Y-79.085
X115.55Y-81.625
X115.55Y-84.165
T6
X84.347Y-64.08
X84.347Y-72.72
T4
X88.618Y-64.082G85X87.618Y-64.082
G05
X88.618Y-72.718G85X87.618Y-72.718
G05
M30
