%TF.GenerationSoftware,KiCad,Pcbnew,8.0.3*%
%TF.CreationDate,2025-04-01T13:45:42-05:00*%
%TF.ProjectId,wearable_v2_nrf,77656172-6162-46c6-955f-76325f6e7266,rev?*%
%TF.SameCoordinates,Original*%
%TF.FileFunction,Copper,L4,Bot*%
%TF.FilePolarity,Positive*%
%FSLAX46Y46*%
G04 Gerber Fmt 4.6, Leading zero omitted, Abs format (unit mm)*
G04 Created by KiCad (PCBNEW 8.0.3) date 2025-04-01 13:45:42*
%MOMM*%
%LPD*%
G01*
G04 APERTURE LIST*
G04 Aperture macros list*
%AMRoundRect*
0 Rectangle with rounded corners*
0 $1 Rounding radius*
0 $2 $3 $4 $5 $6 $7 $8 $9 X,Y pos of 4 corners*
0 Add a 4 corners polygon primitive as box body*
4,1,4,$2,$3,$4,$5,$6,$7,$8,$9,$2,$3,0*
0 Add four circle primitives for the rounded corners*
1,1,$1+$1,$2,$3*
1,1,$1+$1,$4,$5*
1,1,$1+$1,$6,$7*
1,1,$1+$1,$8,$9*
0 Add four rect primitives between the rounded corners*
20,1,$1+$1,$2,$3,$4,$5,0*
20,1,$1+$1,$4,$5,$6,$7,0*
20,1,$1+$1,$6,$7,$8,$9,0*
20,1,$1+$1,$8,$9,$2,$3,0*%
G04 Aperture macros list end*
%TA.AperFunction,ComponentPad*%
%ADD10R,1.700000X1.700000*%
%TD*%
%TA.AperFunction,ComponentPad*%
%ADD11O,1.700000X1.700000*%
%TD*%
%TA.AperFunction,ComponentPad*%
%ADD12R,1.500000X1.500000*%
%TD*%
%TA.AperFunction,ComponentPad*%
%ADD13RoundRect,0.200000X-0.200000X-0.450000X0.200000X-0.450000X0.200000X0.450000X-0.200000X0.450000X0*%
%TD*%
%TA.AperFunction,ComponentPad*%
%ADD14O,0.800000X1.300000*%
%TD*%
%TA.AperFunction,HeatsinkPad*%
%ADD15C,0.500000*%
%TD*%
%TA.AperFunction,HeatsinkPad*%
%ADD16R,2.500000X2.500000*%
%TD*%
%TA.AperFunction,ComponentPad*%
%ADD17C,2.010000*%
%TD*%
%TA.AperFunction,ComponentPad*%
%ADD18O,2.100000X1.100000*%
%TD*%
%TA.AperFunction,ComponentPad*%
%ADD19R,1.000000X1.000000*%
%TD*%
%TA.AperFunction,SMDPad,CuDef*%
%ADD20RoundRect,0.250000X0.262500X0.450000X-0.262500X0.450000X-0.262500X-0.450000X0.262500X-0.450000X0*%
%TD*%
%TA.AperFunction,SMDPad,CuDef*%
%ADD21RoundRect,0.250000X0.450000X-0.262500X0.450000X0.262500X-0.450000X0.262500X-0.450000X-0.262500X0*%
%TD*%
%TA.AperFunction,SMDPad,CuDef*%
%ADD22RoundRect,0.250000X-0.475000X0.250000X-0.475000X-0.250000X0.475000X-0.250000X0.475000X0.250000X0*%
%TD*%
%TA.AperFunction,SMDPad,CuDef*%
%ADD23RoundRect,0.250000X-0.262500X-0.450000X0.262500X-0.450000X0.262500X0.450000X-0.262500X0.450000X0*%
%TD*%
%TA.AperFunction,ViaPad*%
%ADD24C,0.600000*%
%TD*%
%TA.AperFunction,Conductor*%
%ADD25C,0.200000*%
%TD*%
%TA.AperFunction,Conductor*%
%ADD26C,0.400000*%
%TD*%
G04 APERTURE END LIST*
D10*
%TO.P,SW2,1,A*%
%TO.N,Net-(Q1-D)*%
X93115000Y-51050000D03*
D11*
%TO.P,SW2,2,B*%
%TO.N,/VBAT+*%
X90575000Y-51050000D03*
%TO.P,SW2,3,C*%
%TO.N,unconnected-(SW2-C-Pad3)*%
X88035000Y-51050000D03*
%TD*%
D10*
%TO.P,J3,1,Pin_1*%
%TO.N,/USART1_TX*%
X102100000Y-86350000D03*
D11*
%TO.P,J3,2,Pin_2*%
%TO.N,/USART1_RX*%
X99560000Y-86350000D03*
%TO.P,J3,3,Pin_3*%
%TO.N,+3.3V*%
X97020000Y-86350000D03*
%TO.P,J3,4,Pin_4*%
%TO.N,GND*%
X94480000Y-86350000D03*
%TD*%
D12*
%TO.P,TP5,1,1*%
%TO.N,/I2C1_SCL*%
X94750000Y-81675000D03*
%TD*%
%TO.P,TP4,1,1*%
%TO.N,/I2C1_SDA*%
X98275000Y-81650000D03*
%TD*%
D11*
%TO.P,R5,2*%
%TO.N,/ADC1_N*%
X102185000Y-50800000D03*
D10*
%TO.P,R5,1*%
%TO.N,/ADC1_P*%
X104725000Y-50800000D03*
%TD*%
%TO.P,J4,1,Pin_1*%
%TO.N,+3.3V*%
X108375000Y-50775000D03*
D11*
%TO.P,J4,2,Pin_2*%
%TO.N,GND*%
X110915000Y-50775000D03*
%TD*%
D13*
%TO.P,BT1,1,+*%
%TO.N,/VBAT+*%
X97100000Y-51375000D03*
D14*
%TO.P,BT1,2,-*%
%TO.N,GND*%
X98350000Y-51375000D03*
%TD*%
D10*
%TO.P,M1,1,+*%
%TO.N,VCC*%
X106825000Y-86400000D03*
D11*
%TO.P,M1,2,-*%
%TO.N,Net-(D4-A)*%
X109365000Y-86400000D03*
%TD*%
D10*
%TO.P,J1,1,Pin_1*%
%TO.N,/SWDIO*%
X115550000Y-76545000D03*
D11*
%TO.P,J1,2,Pin_2*%
%TO.N,/SWCLK*%
X115550000Y-79085000D03*
%TO.P,J1,3,Pin_3*%
%TO.N,+3.3V*%
X115550000Y-81625000D03*
%TO.P,J1,4,Pin_4*%
%TO.N,GND*%
X115550000Y-84165000D03*
%TD*%
D12*
%TO.P,TP6,1,1*%
%TO.N,/INT1*%
X93550000Y-67775000D03*
%TD*%
D15*
%TO.P,U1,33,VSS*%
%TO.N,GND*%
X108525000Y-66575000D03*
X108525000Y-67575000D03*
X108525000Y-68575000D03*
X109525000Y-66575000D03*
X109525000Y-67575000D03*
D16*
X109525000Y-67575000D03*
D15*
X109525000Y-68575000D03*
X110525000Y-66575000D03*
X110525000Y-67575000D03*
X110525000Y-68575000D03*
%TD*%
D17*
%TO.P,J2,MH1,MH1*%
%TO.N,unconnected-(J2-PadMH1)*%
X84347500Y-64080000D03*
%TO.P,J2,MH2,MH2*%
%TO.N,unconnected-(J2-PadMH2)*%
X84347500Y-72720000D03*
D18*
%TO.P,J2,MH3,MH3*%
%TO.N,unconnected-(J2-PadMH3)*%
X88118500Y-64082000D03*
%TO.P,J2,MH4,MH4*%
%TO.N,unconnected-(J2-PadMH4)*%
X88118500Y-72718000D03*
%TD*%
D19*
%TO.P,TP2,1,1*%
%TO.N,/VBAT+*%
X85250000Y-54750000D03*
%TD*%
%TO.P,TP1,1,1*%
%TO.N,/VBUS*%
X87800000Y-60250000D03*
%TD*%
D12*
%TO.P,TP7,1,1*%
%TO.N,/HAPTIC*%
X105750000Y-79375000D03*
%TD*%
D19*
%TO.P,TP3,1,1*%
%TO.N,VCC*%
X92725000Y-63675000D03*
%TD*%
D20*
%TO.P,R2,1*%
%TO.N,Net-(J2-CC1)*%
X86312500Y-67150000D03*
%TO.P,R2,2*%
%TO.N,GND*%
X84487500Y-67150000D03*
%TD*%
D21*
%TO.P,R12,1*%
%TO.N,VCC*%
X90600000Y-55737500D03*
%TO.P,R12,2*%
%TO.N,/VBAT+*%
X90600000Y-53912500D03*
%TD*%
D22*
%TO.P,C2,1*%
%TO.N,/NRST*%
X89825000Y-78275000D03*
%TO.P,C2,2*%
%TO.N,GND*%
X89825000Y-80175000D03*
%TD*%
D23*
%TO.P,R4,1*%
%TO.N,+3.3V*%
X109612500Y-54000000D03*
%TO.P,R4,2*%
%TO.N,/ADC1_P*%
X111437500Y-54000000D03*
%TD*%
%TO.P,R11,1*%
%TO.N,/VBUS*%
X91337500Y-58900000D03*
%TO.P,R11,2*%
%TO.N,VCC*%
X93162500Y-58900000D03*
%TD*%
D20*
%TO.P,R3,1*%
%TO.N,Net-(J2-CC2)*%
X86312500Y-70100000D03*
%TO.P,R3,2*%
%TO.N,GND*%
X84487500Y-70100000D03*
%TD*%
D24*
%TO.N,GND*%
X96225000Y-54450000D03*
%TO.N,/STAT*%
X104850000Y-55825000D03*
%TO.N,/VBUS*%
X94100000Y-57225000D03*
X90125000Y-57225000D03*
%TO.N,+3.3V*%
X119525000Y-54575000D03*
X115950000Y-56350000D03*
%TO.N,GND*%
X116975000Y-54150000D03*
X104450000Y-58075000D03*
%TO.N,+3.3V*%
X99350000Y-69075000D03*
X97550000Y-79175000D03*
%TO.N,/NRST*%
X95700000Y-75550000D03*
%TO.N,GND*%
X95775000Y-67000000D03*
X112225000Y-60100000D03*
X106400000Y-60075000D03*
X89925000Y-84125000D03*
X112475000Y-85225000D03*
X92425000Y-83700000D03*
X103500000Y-83150000D03*
X85137500Y-56975000D03*
X83475000Y-53275000D03*
X99825000Y-55712500D03*
X84475000Y-67125000D03*
X117075000Y-66975000D03*
X118206500Y-59419500D03*
X89975000Y-81225000D03*
X118625000Y-79550000D03*
X114225000Y-60125000D03*
X91425000Y-72675000D03*
X93250000Y-60525000D03*
X106043872Y-53231128D03*
X113675000Y-73175000D03*
X83325000Y-58275000D03*
X95575000Y-79675000D03*
X83200000Y-55300000D03*
X101975000Y-58175000D03*
X119981500Y-61194500D03*
X114150000Y-50100000D03*
X89850000Y-80175000D03*
X107925000Y-77600000D03*
X91250000Y-79300000D03*
X105175000Y-72525000D03*
X99325000Y-64150000D03*
X107875000Y-57900000D03*
X84225000Y-81300000D03*
X84500000Y-70100000D03*
X95325000Y-62550000D03*
X99425000Y-67275000D03*
X104275000Y-60037500D03*
X118625000Y-82925000D03*
X116893500Y-63057500D03*
X104900000Y-74975000D03*
X118700000Y-56850000D03*
X121100000Y-58000000D03*
%TO.N,VCC*%
X96850000Y-65725000D03*
X93225000Y-58600000D03*
X91060000Y-55825000D03*
X100350000Y-74750000D03*
%TO.N,/NRST*%
X89825000Y-78275000D03*
X111375000Y-72125000D03*
%TO.N,+3.3V*%
X91950000Y-85700000D03*
X100950000Y-53000000D03*
X93400000Y-75600000D03*
X89800000Y-86500000D03*
X95300000Y-84225000D03*
X102175000Y-59475000D03*
X119675000Y-79325000D03*
X107300000Y-53475000D03*
X100275000Y-77875000D03*
X101550000Y-54800000D03*
X119879507Y-81477661D03*
X116440695Y-86922447D03*
X106175000Y-57850000D03*
X83500000Y-59525000D03*
X91825000Y-49150000D03*
X87575000Y-86000000D03*
X113850000Y-86775000D03*
X94725000Y-78300000D03*
X89650000Y-75150000D03*
X91850000Y-74375000D03*
X104125000Y-76800000D03*
X104150000Y-75475000D03*
X93150000Y-54275000D03*
X103950000Y-53575000D03*
X109612500Y-54000000D03*
X88400000Y-49150000D03*
X101250000Y-78950000D03*
X91475000Y-65475000D03*
X102050000Y-53000000D03*
%TO.N,Net-(J2-CC2)*%
X86312500Y-70100000D03*
%TO.N,Net-(J2-CC1)*%
X86312500Y-67150000D03*
%TO.N,/USART1_RX*%
X108875000Y-72125000D03*
%TO.N,/USART1_TX*%
X109375000Y-71327761D03*
%TO.N,/ADC1_P*%
X110236765Y-63361765D03*
%TO.N,/LED0*%
X114150000Y-55300000D03*
X111625000Y-63600000D03*
%TO.N,/I2C1_SDA*%
X99347551Y-72112500D03*
%TO.N,/I2C1_SCL*%
X102525000Y-75225000D03*
%TO.N,/INT1*%
X102200000Y-70875000D03*
X105375000Y-70875000D03*
%TO.N,/ADC1_N*%
X109375000Y-63675000D03*
%TO.N,/VBUS*%
X91050000Y-58625000D03*
%TO.N,/STAT*%
X110075000Y-71900000D03*
%TD*%
D25*
%TO.N,/STAT*%
X105925000Y-66125000D02*
X105925000Y-67029232D01*
X105925000Y-67029232D02*
X110075000Y-71179232D01*
X107275000Y-64775000D02*
X105925000Y-66125000D01*
X110075000Y-71179232D02*
X110075000Y-71900000D01*
X107275000Y-58101471D02*
X107275000Y-64775000D01*
X104998529Y-55825000D02*
X107275000Y-58101471D01*
X104850000Y-55825000D02*
X104998529Y-55825000D01*
D26*
%TO.N,/VBAT+*%
X90600000Y-51075000D02*
X90575000Y-51050000D01*
X90600000Y-53912500D02*
X90600000Y-51075000D01*
D25*
%TO.N,/ADC1_N*%
X106660000Y-55275000D02*
X102185000Y-50800000D01*
X109375000Y-56990000D02*
X107660000Y-55275000D01*
X109375000Y-63675000D02*
X109375000Y-56990000D01*
X107660000Y-55275000D02*
X106660000Y-55275000D01*
%TO.N,/ADC1_P*%
X104725000Y-52760785D02*
X104725000Y-50800000D01*
X107825686Y-54875000D02*
X106839215Y-54875000D01*
X106839215Y-54875000D02*
X104725000Y-52760785D01*
X109825343Y-56874657D02*
X107825686Y-54875000D01*
X111437500Y-54000000D02*
X111437500Y-55262500D01*
X111437500Y-55262500D02*
X109825343Y-56874657D01*
X110200000Y-57249314D02*
X109825343Y-56874657D01*
X110236765Y-63361765D02*
X110200000Y-63325000D01*
X110200000Y-63325000D02*
X110200000Y-57249314D01*
D26*
%TO.N,VCC*%
X96850000Y-68625000D02*
X100350000Y-72125000D01*
X100350000Y-72125000D02*
X100350000Y-74750000D01*
X96850000Y-65725000D02*
X96850000Y-68625000D01*
D25*
%TO.N,GND*%
X118206500Y-57343500D02*
X118206500Y-59419500D01*
X118206500Y-59419500D02*
X118206500Y-61744500D01*
X119981500Y-61194500D02*
X121100000Y-60076000D01*
D26*
X89850000Y-80175000D02*
X89850000Y-81100000D01*
D25*
X118700000Y-56850000D02*
X118206500Y-57343500D01*
D26*
X89850000Y-81100000D02*
X89975000Y-81225000D01*
D25*
X121100000Y-60076000D02*
X121100000Y-58000000D01*
X118206500Y-61744500D02*
X116893500Y-63057500D01*
%TO.N,/USART1_RX*%
X108875000Y-73400000D02*
X99560000Y-82715000D01*
X99560000Y-82715000D02*
X99560000Y-86350000D01*
X108875000Y-72125000D02*
X108875000Y-73400000D01*
%TO.N,/USART1_TX*%
X102100000Y-80850000D02*
X102100000Y-86350000D01*
X109375000Y-71327761D02*
X109475000Y-71427761D01*
X109475000Y-71427761D02*
X109475000Y-73475000D01*
X109475000Y-73475000D02*
X102100000Y-80850000D01*
%TO.N,/LED0*%
X111625000Y-63600000D02*
X111625000Y-57825000D01*
X111625000Y-57825000D02*
X114150000Y-55300000D01*
%TD*%
%TA.AperFunction,Conductor*%
%TO.N,GND*%
G36*
X87997089Y-48634399D02*
G01*
X88042844Y-48687203D01*
X88052788Y-48756361D01*
X88023763Y-48819914D01*
X87974623Y-48876627D01*
X87974622Y-48876628D01*
X87914834Y-49007543D01*
X87894353Y-49150000D01*
X87914834Y-49292456D01*
X87965398Y-49403173D01*
X87974623Y-49423373D01*
X88068872Y-49532143D01*
X88189947Y-49609953D01*
X88189950Y-49609954D01*
X88189949Y-49609954D01*
X88328036Y-49650499D01*
X88328038Y-49650500D01*
X88328039Y-49650500D01*
X88471962Y-49650500D01*
X88471962Y-49650499D01*
X88610053Y-49609953D01*
X88731128Y-49532143D01*
X88825377Y-49423373D01*
X88885165Y-49292457D01*
X88905647Y-49150000D01*
X88885165Y-49007543D01*
X88825377Y-48876627D01*
X88776236Y-48819914D01*
X88747212Y-48756361D01*
X88757155Y-48687203D01*
X88802910Y-48634399D01*
X88869950Y-48614714D01*
X91355050Y-48614714D01*
X91422089Y-48634399D01*
X91467844Y-48687203D01*
X91477788Y-48756361D01*
X91448763Y-48819914D01*
X91399623Y-48876627D01*
X91399622Y-48876628D01*
X91339834Y-49007543D01*
X91319353Y-49150000D01*
X91339834Y-49292456D01*
X91390398Y-49403173D01*
X91399623Y-49423373D01*
X91493872Y-49532143D01*
X91614947Y-49609953D01*
X91614950Y-49609954D01*
X91614949Y-49609954D01*
X91753036Y-49650499D01*
X91753038Y-49650500D01*
X91753039Y-49650500D01*
X91896962Y-49650500D01*
X91896962Y-49650499D01*
X92035053Y-49609953D01*
X92156128Y-49532143D01*
X92250377Y-49423373D01*
X92310165Y-49292457D01*
X92330647Y-49150000D01*
X92310165Y-49007543D01*
X92250377Y-48876627D01*
X92201236Y-48819914D01*
X92172212Y-48756361D01*
X92182155Y-48687203D01*
X92227910Y-48634399D01*
X92294950Y-48614714D01*
X119991617Y-48614714D01*
X120034783Y-48614714D01*
X120043629Y-48615029D01*
X120272231Y-48631381D01*
X120289737Y-48633898D01*
X120506726Y-48681103D01*
X120509347Y-48681673D01*
X120526322Y-48686658D01*
X120736889Y-48765197D01*
X120752979Y-48772544D01*
X120950239Y-48880258D01*
X120965121Y-48889822D01*
X120969173Y-48892856D01*
X121145035Y-49024506D01*
X121158406Y-49036092D01*
X121317325Y-49195013D01*
X121328911Y-49208385D01*
X121463588Y-49388297D01*
X121473152Y-49403180D01*
X121580861Y-49600436D01*
X121588211Y-49616530D01*
X121666749Y-49827105D01*
X121671733Y-49844080D01*
X121719503Y-50063682D01*
X121722021Y-50081193D01*
X121738397Y-50310172D01*
X121738713Y-50319018D01*
X121738713Y-50368337D01*
X121739116Y-50373254D01*
X121862039Y-68074129D01*
X121842820Y-68141303D01*
X121790335Y-68187424D01*
X121737719Y-68198990D01*
X112525002Y-68175000D01*
X112525000Y-68175000D01*
X117337550Y-69574568D01*
X117396425Y-69612190D01*
X117425615Y-69675670D01*
X117426896Y-69691052D01*
X117447383Y-70674425D01*
X117429099Y-70741860D01*
X117377260Y-70788705D01*
X117324402Y-70801004D01*
X114386317Y-70824509D01*
X114319122Y-70805361D01*
X114287389Y-70776570D01*
X114276759Y-70762882D01*
X112500000Y-68475000D01*
X112500000Y-68475001D01*
X113499139Y-70673106D01*
X113500785Y-70676892D01*
X113661105Y-71063236D01*
X115025000Y-74350000D01*
X119500000Y-76950000D01*
X121799251Y-76928905D01*
X121866469Y-76947974D01*
X121912706Y-77000356D01*
X121924386Y-77052039D01*
X121988673Y-86309443D01*
X121988360Y-86319151D01*
X121972046Y-86547230D01*
X121969528Y-86564742D01*
X121921755Y-86784347D01*
X121916771Y-86801322D01*
X121838228Y-87011902D01*
X121830878Y-87027996D01*
X121723169Y-87225247D01*
X121713604Y-87240129D01*
X121578920Y-87420046D01*
X121567334Y-87433417D01*
X121408417Y-87592334D01*
X121395046Y-87603920D01*
X121215129Y-87738604D01*
X121200247Y-87748169D01*
X121002996Y-87855878D01*
X120986902Y-87863228D01*
X120776322Y-87941771D01*
X120759347Y-87946755D01*
X120539742Y-87994528D01*
X120522230Y-87997046D01*
X120293630Y-88013398D01*
X120284783Y-88013714D01*
X84346806Y-88013714D01*
X84346794Y-88013713D01*
X84293637Y-88013713D01*
X84284792Y-88013397D01*
X84056190Y-87997049D01*
X84038678Y-87994531D01*
X83819072Y-87946760D01*
X83802096Y-87941776D01*
X83591517Y-87863236D01*
X83575424Y-87855887D01*
X83378168Y-87748179D01*
X83363284Y-87738614D01*
X83183363Y-87603929D01*
X83169992Y-87592343D01*
X83011067Y-87433420D01*
X82999488Y-87420057D01*
X82864791Y-87240127D01*
X82855238Y-87225261D01*
X82747519Y-87027991D01*
X82740173Y-87011905D01*
X82661629Y-86801322D01*
X82656647Y-86784357D01*
X82654611Y-86775000D01*
X82608870Y-86564742D01*
X82606353Y-86547231D01*
X82605857Y-86540303D01*
X82590030Y-86319027D01*
X82589714Y-86310180D01*
X82589714Y-86260064D01*
X82589310Y-86255154D01*
X82589112Y-86226626D01*
X82586248Y-85814209D01*
X82983665Y-85814209D01*
X82983665Y-85814218D01*
X83003830Y-86083315D01*
X83063878Y-86346402D01*
X83063880Y-86346409D01*
X83162470Y-86597610D01*
X83162472Y-86597614D01*
X83167276Y-86605934D01*
X83297399Y-86831316D01*
X83399984Y-86959953D01*
X83465656Y-87042303D01*
X83577858Y-87146410D01*
X83663473Y-87225849D01*
X83886440Y-87377865D01*
X84129573Y-87494952D01*
X84387442Y-87574494D01*
X84387443Y-87574494D01*
X84387446Y-87574495D01*
X84654277Y-87614713D01*
X84654282Y-87614713D01*
X84654285Y-87614714D01*
X84654286Y-87614714D01*
X84924142Y-87614714D01*
X84924143Y-87614714D01*
X84924150Y-87614713D01*
X85190981Y-87574495D01*
X85190982Y-87574494D01*
X85190986Y-87574494D01*
X85448855Y-87494952D01*
X85691989Y-87377865D01*
X85914955Y-87225849D01*
X86112775Y-87042299D01*
X86281029Y-86831316D01*
X86415957Y-86597612D01*
X86514548Y-86346409D01*
X86574597Y-86083317D01*
X86580841Y-86000000D01*
X87069353Y-86000000D01*
X87089834Y-86142456D01*
X87146540Y-86266622D01*
X87149623Y-86273373D01*
X87243872Y-86382143D01*
X87364947Y-86459953D01*
X87364950Y-86459954D01*
X87364949Y-86459954D01*
X87472107Y-86491417D01*
X87501336Y-86500000D01*
X87503036Y-86500499D01*
X87503038Y-86500500D01*
X87503039Y-86500500D01*
X87646962Y-86500500D01*
X87646962Y-86500499D01*
X87648661Y-86500000D01*
X89294353Y-86500000D01*
X89314834Y-86642456D01*
X89365755Y-86753956D01*
X89374623Y-86773373D01*
X89468872Y-86882143D01*
X89589947Y-86959953D01*
X89589950Y-86959954D01*
X89589949Y-86959954D01*
X89680195Y-86986452D01*
X89725893Y-86999870D01*
X89728036Y-87000499D01*
X89728038Y-87000500D01*
X89728039Y-87000500D01*
X89871962Y-87000500D01*
X89871962Y-87000499D01*
X90010053Y-86959953D01*
X90131128Y-86882143D01*
X90225377Y-86773373D01*
X90285165Y-86642457D01*
X90305647Y-86500000D01*
X90285165Y-86357543D01*
X90225377Y-86226627D01*
X90131128Y-86117857D01*
X90010053Y-86040047D01*
X90010051Y-86040046D01*
X90010049Y-86040045D01*
X90010050Y-86040045D01*
X89871963Y-85999500D01*
X89871961Y-85999500D01*
X89728039Y-85999500D01*
X89728036Y-85999500D01*
X89589949Y-86040045D01*
X89468873Y-86117856D01*
X89374623Y-86226626D01*
X89374622Y-86226628D01*
X89314834Y-86357543D01*
X89294353Y-86500000D01*
X87648661Y-86500000D01*
X87785053Y-86459953D01*
X87906128Y-86382143D01*
X88000377Y-86273373D01*
X88060165Y-86142457D01*
X88080647Y-86000000D01*
X88060165Y-85857543D01*
X88000377Y-85726627D01*
X87977305Y-85700000D01*
X91444353Y-85700000D01*
X91464834Y-85842456D01*
X91524622Y-85973371D01*
X91524623Y-85973373D01*
X91618872Y-86082143D01*
X91739947Y-86159953D01*
X91739950Y-86159954D01*
X91739949Y-86159954D01*
X91878036Y-86200499D01*
X91878038Y-86200500D01*
X91878039Y-86200500D01*
X92021962Y-86200500D01*
X92021962Y-86200499D01*
X92160053Y-86159953D01*
X92253342Y-86100000D01*
X93458590Y-86100000D01*
X94046988Y-86100000D01*
X94014075Y-86157007D01*
X93980000Y-86284174D01*
X93980000Y-86415826D01*
X94014075Y-86542993D01*
X94046988Y-86600000D01*
X93458590Y-86600000D01*
X93505233Y-86753766D01*
X93602728Y-86936166D01*
X93602732Y-86936173D01*
X93733944Y-87096055D01*
X93893826Y-87227267D01*
X93893833Y-87227271D01*
X94076233Y-87324766D01*
X94230000Y-87371410D01*
X94230000Y-86783012D01*
X94287007Y-86815925D01*
X94414174Y-86850000D01*
X94545826Y-86850000D01*
X94672993Y-86815925D01*
X94730000Y-86783012D01*
X94730000Y-87371410D01*
X94883766Y-87324766D01*
X95066166Y-87227271D01*
X95066173Y-87227267D01*
X95226055Y-87096055D01*
X95357267Y-86936173D01*
X95357271Y-86936166D01*
X95454766Y-86753766D01*
X95501410Y-86600000D01*
X94913012Y-86600000D01*
X94945925Y-86542993D01*
X94980000Y-86415826D01*
X94980000Y-86350000D01*
X95964417Y-86350000D01*
X95984699Y-86555932D01*
X95999867Y-86605934D01*
X96044768Y-86753954D01*
X96142315Y-86936450D01*
X96142317Y-86936452D01*
X96273589Y-87096410D01*
X96347594Y-87157143D01*
X96433550Y-87227685D01*
X96616046Y-87325232D01*
X96814066Y-87385300D01*
X96814065Y-87385300D01*
X96832529Y-87387118D01*
X97020000Y-87405583D01*
X97225934Y-87385300D01*
X97423954Y-87325232D01*
X97606450Y-87227685D01*
X97766410Y-87096410D01*
X97897685Y-86936450D01*
X97995232Y-86753954D01*
X98055300Y-86555934D01*
X98075583Y-86350000D01*
X98055300Y-86144066D01*
X97995232Y-85946046D01*
X97897685Y-85763550D01*
X97766701Y-85603944D01*
X97766410Y-85603589D01*
X97616121Y-85480252D01*
X97606450Y-85472315D01*
X97423954Y-85374768D01*
X97225934Y-85314700D01*
X97225932Y-85314699D01*
X97225934Y-85314699D01*
X97020000Y-85294417D01*
X96814067Y-85314699D01*
X96660998Y-85361132D01*
X96616050Y-85374767D01*
X96616043Y-85374769D01*
X96505898Y-85433643D01*
X96433550Y-85472315D01*
X96433548Y-85472316D01*
X96433547Y-85472317D01*
X96273589Y-85603589D01*
X96142317Y-85763547D01*
X96142315Y-85763550D01*
X96142164Y-85763833D01*
X96044769Y-85946043D01*
X95984699Y-86144067D01*
X95964417Y-86350000D01*
X94980000Y-86350000D01*
X94980000Y-86284174D01*
X94945925Y-86157007D01*
X94913012Y-86100000D01*
X95501410Y-86100000D01*
X95454766Y-85946233D01*
X95357271Y-85763833D01*
X95357267Y-85763826D01*
X95226055Y-85603944D01*
X95066173Y-85472732D01*
X95066166Y-85472728D01*
X94883763Y-85375232D01*
X94730000Y-85328587D01*
X94730000Y-85916988D01*
X94672993Y-85884075D01*
X94545826Y-85850000D01*
X94414174Y-85850000D01*
X94287007Y-85884075D01*
X94230000Y-85916988D01*
X94230000Y-85328587D01*
X94076236Y-85375232D01*
X93893833Y-85472728D01*
X93893826Y-85472732D01*
X93733944Y-85603944D01*
X93602732Y-85763826D01*
X93602728Y-85763833D01*
X93505233Y-85946233D01*
X93458590Y-86100000D01*
X92253342Y-86100000D01*
X92281128Y-86082143D01*
X92375377Y-85973373D01*
X92435165Y-85842457D01*
X92455647Y-85700000D01*
X92435165Y-85557543D01*
X92375377Y-85426627D01*
X92281128Y-85317857D01*
X92160053Y-85240047D01*
X92160051Y-85240046D01*
X92160049Y-85240045D01*
X92160050Y-85240045D01*
X92021963Y-85199500D01*
X92021961Y-85199500D01*
X91878039Y-85199500D01*
X91878036Y-85199500D01*
X91739949Y-85240045D01*
X91618873Y-85317856D01*
X91618872Y-85317856D01*
X91618872Y-85317857D01*
X91606804Y-85331784D01*
X91524623Y-85426626D01*
X91524622Y-85426628D01*
X91464834Y-85557543D01*
X91444353Y-85700000D01*
X87977305Y-85700000D01*
X87906128Y-85617857D01*
X87785053Y-85540047D01*
X87785051Y-85540046D01*
X87785049Y-85540045D01*
X87785050Y-85540045D01*
X87646963Y-85499500D01*
X87646961Y-85499500D01*
X87503039Y-85499500D01*
X87503036Y-85499500D01*
X87364949Y-85540045D01*
X87243873Y-85617856D01*
X87149623Y-85726626D01*
X87149622Y-85726628D01*
X87089834Y-85857543D01*
X87069353Y-86000000D01*
X86580841Y-86000000D01*
X86591516Y-85857543D01*
X86594763Y-85814218D01*
X86594763Y-85814209D01*
X86574597Y-85545112D01*
X86573441Y-85540047D01*
X86514548Y-85282019D01*
X86415957Y-85030816D01*
X86281029Y-84797112D01*
X86112775Y-84586129D01*
X86112774Y-84586128D01*
X86112771Y-84586124D01*
X85914955Y-84402579D01*
X85691989Y-84250563D01*
X85691983Y-84250560D01*
X85691982Y-84250559D01*
X85691981Y-84250558D01*
X85638909Y-84225000D01*
X94794353Y-84225000D01*
X94814834Y-84367456D01*
X94836547Y-84415000D01*
X94874623Y-84498373D01*
X94968872Y-84607143D01*
X95089947Y-84684953D01*
X95089950Y-84684954D01*
X95089949Y-84684954D01*
X95228036Y-84725499D01*
X95228038Y-84725500D01*
X95228039Y-84725500D01*
X95371962Y-84725500D01*
X95371962Y-84725499D01*
X95510053Y-84684953D01*
X95631128Y-84607143D01*
X95725377Y-84498373D01*
X95785165Y-84367457D01*
X95805647Y-84225000D01*
X95785165Y-84082543D01*
X95725377Y-83951627D01*
X95631128Y-83842857D01*
X95510053Y-83765047D01*
X95510051Y-83765046D01*
X95510049Y-83765045D01*
X95510050Y-83765045D01*
X95371963Y-83724500D01*
X95371961Y-83724500D01*
X95228039Y-83724500D01*
X95228036Y-83724500D01*
X95089949Y-83765045D01*
X94968873Y-83842856D01*
X94874623Y-83951626D01*
X94874622Y-83951628D01*
X94814834Y-84082543D01*
X94794353Y-84225000D01*
X85638909Y-84225000D01*
X85448857Y-84133477D01*
X85448859Y-84133477D01*
X85190987Y-84053934D01*
X85190981Y-84053932D01*
X84924150Y-84013714D01*
X84924143Y-84013714D01*
X84654285Y-84013714D01*
X84654277Y-84013714D01*
X84387446Y-84053932D01*
X84387440Y-84053934D01*
X84129572Y-84133476D01*
X83886444Y-84250560D01*
X83663472Y-84402579D01*
X83465656Y-84586124D01*
X83297399Y-84797112D01*
X83162472Y-85030813D01*
X83162470Y-85030817D01*
X83063880Y-85282018D01*
X83063878Y-85282025D01*
X83003830Y-85545112D01*
X82983665Y-85814209D01*
X82586248Y-85814209D01*
X82552158Y-80905247D01*
X93799500Y-80905247D01*
X93799500Y-82444752D01*
X93811131Y-82503229D01*
X93811132Y-82503230D01*
X93855447Y-82569552D01*
X93921769Y-82613867D01*
X93921770Y-82613868D01*
X93980247Y-82625499D01*
X93980250Y-82625500D01*
X93980252Y-82625500D01*
X95519750Y-82625500D01*
X95519751Y-82625499D01*
X95534568Y-82622552D01*
X95578229Y-82613868D01*
X95578229Y-82613867D01*
X95578231Y-82613867D01*
X95644552Y-82569552D01*
X95688867Y-82503231D01*
X95688867Y-82503229D01*
X95688868Y-82503229D01*
X95700499Y-82444752D01*
X95700500Y-82444750D01*
X95700500Y-80905249D01*
X95700499Y-80905247D01*
X95695527Y-80880247D01*
X97324500Y-80880247D01*
X97324500Y-82419752D01*
X97336131Y-82478229D01*
X97336132Y-82478230D01*
X97380447Y-82544552D01*
X97446769Y-82588867D01*
X97446770Y-82588868D01*
X97505247Y-82600499D01*
X97505250Y-82600500D01*
X97505252Y-82600500D01*
X99044749Y-82600500D01*
X99061689Y-82597130D01*
X99103231Y-82588867D01*
X99103232Y-82588866D01*
X99111307Y-82587260D01*
X99180899Y-82593487D01*
X99236077Y-82636349D01*
X99259322Y-82702239D01*
X99259500Y-82708877D01*
X99259500Y-85251421D01*
X99239815Y-85318460D01*
X99187011Y-85364215D01*
X99171496Y-85370081D01*
X99156046Y-85374767D01*
X99025358Y-85444622D01*
X98973550Y-85472315D01*
X98973548Y-85472316D01*
X98973547Y-85472317D01*
X98813589Y-85603589D01*
X98682317Y-85763547D01*
X98682315Y-85763550D01*
X98682164Y-85763833D01*
X98584769Y-85946043D01*
X98524699Y-86144067D01*
X98504417Y-86350000D01*
X98524699Y-86555932D01*
X98539867Y-86605934D01*
X98584768Y-86753954D01*
X98682315Y-86936450D01*
X98682317Y-86936452D01*
X98813589Y-87096410D01*
X98887594Y-87157143D01*
X98973550Y-87227685D01*
X99156046Y-87325232D01*
X99354066Y-87385300D01*
X99354065Y-87385300D01*
X99372529Y-87387118D01*
X99560000Y-87405583D01*
X99765934Y-87385300D01*
X99963954Y-87325232D01*
X100146450Y-87227685D01*
X100306410Y-87096410D01*
X100437685Y-86936450D01*
X100535232Y-86753954D01*
X100595300Y-86555934D01*
X100615583Y-86350000D01*
X100595300Y-86144066D01*
X100535232Y-85946046D01*
X100437685Y-85763550D01*
X100306701Y-85603944D01*
X100306410Y-85603589D01*
X100156121Y-85480252D01*
X100146450Y-85472315D01*
X100021350Y-85405447D01*
X99963953Y-85374767D01*
X99948504Y-85370081D01*
X99890066Y-85331784D01*
X99861609Y-85267971D01*
X99860500Y-85251421D01*
X99860500Y-82890833D01*
X99880185Y-82823794D01*
X99896819Y-82803152D01*
X101587819Y-81112152D01*
X101649142Y-81078667D01*
X101718834Y-81083651D01*
X101774767Y-81125523D01*
X101799184Y-81190987D01*
X101799500Y-81199833D01*
X101799500Y-85175500D01*
X101779815Y-85242539D01*
X101727011Y-85288294D01*
X101675500Y-85299500D01*
X101230247Y-85299500D01*
X101171770Y-85311131D01*
X101171769Y-85311132D01*
X101105447Y-85355447D01*
X101061132Y-85421769D01*
X101061131Y-85421770D01*
X101049500Y-85480247D01*
X101049500Y-87219752D01*
X101061131Y-87278229D01*
X101061132Y-87278230D01*
X101105447Y-87344552D01*
X101171769Y-87388867D01*
X101171770Y-87388868D01*
X101230247Y-87400499D01*
X101230250Y-87400500D01*
X101230252Y-87400500D01*
X102969750Y-87400500D01*
X102969751Y-87400499D01*
X102984568Y-87397552D01*
X103028229Y-87388868D01*
X103028229Y-87388867D01*
X103028231Y-87388867D01*
X103094552Y-87344552D01*
X103138867Y-87278231D01*
X103138867Y-87278229D01*
X103138868Y-87278229D01*
X103148922Y-87227682D01*
X103150500Y-87219748D01*
X103150500Y-85530247D01*
X105774500Y-85530247D01*
X105774500Y-87269752D01*
X105786131Y-87328229D01*
X105786132Y-87328230D01*
X105830447Y-87394552D01*
X105896769Y-87438867D01*
X105896770Y-87438868D01*
X105955247Y-87450499D01*
X105955250Y-87450500D01*
X105955252Y-87450500D01*
X107694750Y-87450500D01*
X107694751Y-87450499D01*
X107709568Y-87447552D01*
X107753229Y-87438868D01*
X107753229Y-87438867D01*
X107753231Y-87438867D01*
X107819552Y-87394552D01*
X107863867Y-87328231D01*
X107863867Y-87328229D01*
X107863868Y-87328229D01*
X107875499Y-87269752D01*
X107875500Y-87269750D01*
X107875500Y-86400000D01*
X108309417Y-86400000D01*
X108329699Y-86605932D01*
X108359734Y-86704944D01*
X108389768Y-86803954D01*
X108487315Y-86986450D01*
X108508202Y-87011901D01*
X108618589Y-87146410D01*
X108707953Y-87219748D01*
X108778550Y-87277685D01*
X108961046Y-87375232D01*
X109159066Y-87435300D01*
X109159065Y-87435300D01*
X109177529Y-87437118D01*
X109365000Y-87455583D01*
X109570934Y-87435300D01*
X109768954Y-87375232D01*
X109951450Y-87277685D01*
X110111410Y-87146410D01*
X110242685Y-86986450D01*
X110340232Y-86803954D01*
X110349015Y-86775000D01*
X113344353Y-86775000D01*
X113364834Y-86917456D01*
X113407967Y-87011902D01*
X113424623Y-87048373D01*
X113518872Y-87157143D01*
X113639947Y-87234953D01*
X113639950Y-87234954D01*
X113639949Y-87234954D01*
X113778036Y-87275499D01*
X113778038Y-87275500D01*
X113778039Y-87275500D01*
X113921962Y-87275500D01*
X113921962Y-87275499D01*
X114029121Y-87244035D01*
X114060050Y-87234954D01*
X114060050Y-87234953D01*
X114060053Y-87234953D01*
X114181128Y-87157143D01*
X114275377Y-87048373D01*
X114332886Y-86922447D01*
X115935048Y-86922447D01*
X115955529Y-87064903D01*
X116015317Y-87195818D01*
X116015318Y-87195820D01*
X116109567Y-87304590D01*
X116230642Y-87382400D01*
X116230645Y-87382401D01*
X116230644Y-87382401D01*
X116368731Y-87422946D01*
X116368733Y-87422947D01*
X116368734Y-87422947D01*
X116512657Y-87422947D01*
X116512657Y-87422946D01*
X116628723Y-87388867D01*
X116650745Y-87382401D01*
X116650745Y-87382400D01*
X116650748Y-87382400D01*
X116771823Y-87304590D01*
X116866072Y-87195820D01*
X116925860Y-87064904D01*
X116946342Y-86922447D01*
X116925860Y-86779990D01*
X116866072Y-86649074D01*
X116771823Y-86540304D01*
X116650748Y-86462494D01*
X116650746Y-86462493D01*
X116650744Y-86462492D01*
X116650745Y-86462492D01*
X116512658Y-86421947D01*
X116512656Y-86421947D01*
X116368734Y-86421947D01*
X116368731Y-86421947D01*
X116230644Y-86462492D01*
X116109568Y-86540303D01*
X116015318Y-86649073D01*
X116015317Y-86649075D01*
X115955529Y-86779990D01*
X115935048Y-86922447D01*
X114332886Y-86922447D01*
X114335165Y-86917457D01*
X114355647Y-86775000D01*
X114335165Y-86632543D01*
X114275377Y-86501627D01*
X114181128Y-86392857D01*
X114060053Y-86315047D01*
X114060051Y-86315046D01*
X114060049Y-86315045D01*
X114060050Y-86315045D01*
X113921963Y-86274500D01*
X113921961Y-86274500D01*
X113778039Y-86274500D01*
X113778036Y-86274500D01*
X113639949Y-86315045D01*
X113518873Y-86392856D01*
X113424623Y-86501626D01*
X113424622Y-86501628D01*
X113364834Y-86632543D01*
X113344353Y-86775000D01*
X110349015Y-86775000D01*
X110400300Y-86605934D01*
X110420583Y-86400000D01*
X110400300Y-86194066D01*
X110340232Y-85996046D01*
X110243037Y-85814209D01*
X117983665Y-85814209D01*
X117983665Y-85814218D01*
X118003830Y-86083315D01*
X118063878Y-86346402D01*
X118063880Y-86346409D01*
X118162470Y-86597610D01*
X118162472Y-86597614D01*
X118167276Y-86605934D01*
X118297399Y-86831316D01*
X118399984Y-86959953D01*
X118465656Y-87042303D01*
X118577858Y-87146410D01*
X118663473Y-87225849D01*
X118886440Y-87377865D01*
X119129573Y-87494952D01*
X119387442Y-87574494D01*
X119387443Y-87574494D01*
X119387446Y-87574495D01*
X119654277Y-87614713D01*
X119654282Y-87614713D01*
X119654285Y-87614714D01*
X119654286Y-87614714D01*
X119924142Y-87614714D01*
X119924143Y-87614714D01*
X119924150Y-87614713D01*
X120190981Y-87574495D01*
X120190982Y-87574494D01*
X120190986Y-87574494D01*
X120448855Y-87494952D01*
X120691989Y-87377865D01*
X120914955Y-87225849D01*
X121112775Y-87042299D01*
X121281029Y-86831316D01*
X121415957Y-86597612D01*
X121514548Y-86346409D01*
X121574597Y-86083317D01*
X121591516Y-85857543D01*
X121594763Y-85814218D01*
X121594763Y-85814209D01*
X121574597Y-85545112D01*
X121573441Y-85540047D01*
X121514548Y-85282019D01*
X121415957Y-85030816D01*
X121281029Y-84797112D01*
X121112775Y-84586129D01*
X121112774Y-84586128D01*
X121112771Y-84586124D01*
X120914955Y-84402579D01*
X120691989Y-84250563D01*
X120691983Y-84250560D01*
X120691982Y-84250559D01*
X120691981Y-84250558D01*
X120448857Y-84133477D01*
X120448859Y-84133477D01*
X120190987Y-84053934D01*
X120190981Y-84053932D01*
X119924150Y-84013714D01*
X119924143Y-84013714D01*
X119654285Y-84013714D01*
X119654277Y-84013714D01*
X119387446Y-84053932D01*
X119387440Y-84053934D01*
X119129572Y-84133476D01*
X118886444Y-84250560D01*
X118663472Y-84402579D01*
X118465656Y-84586124D01*
X118297399Y-84797112D01*
X118162472Y-85030813D01*
X118162470Y-85030817D01*
X118063880Y-85282018D01*
X118063878Y-85282025D01*
X118003830Y-85545112D01*
X117983665Y-85814209D01*
X110243037Y-85814209D01*
X110242685Y-85813550D01*
X110190702Y-85750209D01*
X110111410Y-85653589D01*
X109979227Y-85545111D01*
X109951450Y-85522315D01*
X109768954Y-85424768D01*
X109570934Y-85364700D01*
X109570932Y-85364699D01*
X109570934Y-85364699D01*
X109365000Y-85344417D01*
X109159067Y-85364699D01*
X109024736Y-85405448D01*
X108970933Y-85421769D01*
X108961043Y-85424769D01*
X108872089Y-85472317D01*
X108778550Y-85522315D01*
X108778548Y-85522316D01*
X108778547Y-85522317D01*
X108618589Y-85653589D01*
X108528116Y-85763833D01*
X108487315Y-85813550D01*
X108471864Y-85842457D01*
X108389769Y-85996043D01*
X108329699Y-86194067D01*
X108309417Y-86400000D01*
X107875500Y-86400000D01*
X107875500Y-85530249D01*
X107875499Y-85530247D01*
X107863868Y-85471770D01*
X107863867Y-85471769D01*
X107819552Y-85405447D01*
X107753230Y-85361132D01*
X107753229Y-85361131D01*
X107694752Y-85349500D01*
X107694748Y-85349500D01*
X105955252Y-85349500D01*
X105955247Y-85349500D01*
X105896770Y-85361131D01*
X105896769Y-85361132D01*
X105830447Y-85405447D01*
X105786132Y-85471769D01*
X105786131Y-85471770D01*
X105774500Y-85530247D01*
X103150500Y-85530247D01*
X103150500Y-85480252D01*
X103150500Y-85480249D01*
X103150499Y-85480247D01*
X103138868Y-85421770D01*
X103138867Y-85421769D01*
X103094552Y-85355447D01*
X103028230Y-85311132D01*
X103028229Y-85311131D01*
X102969752Y-85299500D01*
X102969748Y-85299500D01*
X102524500Y-85299500D01*
X102457461Y-85279815D01*
X102411706Y-85227011D01*
X102400500Y-85175500D01*
X102400500Y-83915000D01*
X114528590Y-83915000D01*
X115116988Y-83915000D01*
X115084075Y-83972007D01*
X115050000Y-84099174D01*
X115050000Y-84230826D01*
X115084075Y-84357993D01*
X115116988Y-84415000D01*
X114528590Y-84415000D01*
X114575233Y-84568766D01*
X114672728Y-84751166D01*
X114672732Y-84751173D01*
X114803944Y-84911055D01*
X114963826Y-85042267D01*
X114963833Y-85042271D01*
X115146233Y-85139766D01*
X115300000Y-85186410D01*
X115300000Y-84598012D01*
X115357007Y-84630925D01*
X115484174Y-84665000D01*
X115615826Y-84665000D01*
X115742993Y-84630925D01*
X115800000Y-84598012D01*
X115800000Y-85186410D01*
X115953766Y-85139766D01*
X116136166Y-85042271D01*
X116136173Y-85042267D01*
X116296055Y-84911055D01*
X116427267Y-84751173D01*
X116427271Y-84751166D01*
X116524766Y-84568766D01*
X116571410Y-84415000D01*
X115983012Y-84415000D01*
X116015925Y-84357993D01*
X116050000Y-84230826D01*
X116050000Y-84099174D01*
X116015925Y-83972007D01*
X115983012Y-83915000D01*
X116571410Y-83915000D01*
X116524766Y-83761233D01*
X116427271Y-83578833D01*
X116427267Y-83578826D01*
X116296055Y-83418944D01*
X116136173Y-83287732D01*
X116136166Y-83287728D01*
X115953763Y-83190232D01*
X115800000Y-83143587D01*
X115800000Y-83731988D01*
X115742993Y-83699075D01*
X115615826Y-83665000D01*
X115484174Y-83665000D01*
X115357007Y-83699075D01*
X115300000Y-83731988D01*
X115300000Y-83143587D01*
X115146236Y-83190232D01*
X114963833Y-83287728D01*
X114963826Y-83287732D01*
X114803944Y-83418944D01*
X114672732Y-83578826D01*
X114672728Y-83578833D01*
X114575233Y-83761233D01*
X114528590Y-83915000D01*
X102400500Y-83915000D01*
X102400500Y-81625000D01*
X114494417Y-81625000D01*
X114514699Y-81830932D01*
X114544734Y-81929944D01*
X114574768Y-82028954D01*
X114672315Y-82211450D01*
X114672317Y-82211452D01*
X114803589Y-82371410D01*
X114862490Y-82419748D01*
X114963550Y-82502685D01*
X115146046Y-82600232D01*
X115344066Y-82660300D01*
X115344065Y-82660300D01*
X115362529Y-82662118D01*
X115550000Y-82680583D01*
X115755934Y-82660300D01*
X115953954Y-82600232D01*
X116136450Y-82502685D01*
X116296410Y-82371410D01*
X116427685Y-82211450D01*
X116525232Y-82028954D01*
X116585300Y-81830934D01*
X116605583Y-81625000D01*
X116591071Y-81477661D01*
X119373860Y-81477661D01*
X119394341Y-81620117D01*
X119454129Y-81751032D01*
X119454130Y-81751034D01*
X119548379Y-81859804D01*
X119669454Y-81937614D01*
X119669457Y-81937615D01*
X119669456Y-81937615D01*
X119807543Y-81978160D01*
X119807545Y-81978161D01*
X119807546Y-81978161D01*
X119951469Y-81978161D01*
X119951469Y-81978160D01*
X120089560Y-81937614D01*
X120210635Y-81859804D01*
X120304884Y-81751034D01*
X120364672Y-81620118D01*
X120385154Y-81477661D01*
X120364672Y-81335204D01*
X120304884Y-81204288D01*
X120210635Y-81095518D01*
X120089560Y-81017708D01*
X120089558Y-81017707D01*
X120089556Y-81017706D01*
X120089557Y-81017706D01*
X119951470Y-80977161D01*
X119951468Y-80977161D01*
X119807546Y-80977161D01*
X119807543Y-80977161D01*
X119669456Y-81017706D01*
X119548380Y-81095517D01*
X119454130Y-81204287D01*
X119454129Y-81204289D01*
X119394341Y-81335204D01*
X119373860Y-81477661D01*
X116591071Y-81477661D01*
X116585300Y-81419066D01*
X116525232Y-81221046D01*
X116427685Y-81038550D01*
X116318291Y-80905252D01*
X116296410Y-80878589D01*
X116136452Y-80747317D01*
X116136453Y-80747317D01*
X116136450Y-80747315D01*
X115953954Y-80649768D01*
X115755934Y-80589700D01*
X115755932Y-80589699D01*
X115755934Y-80589699D01*
X115550000Y-80569417D01*
X115344067Y-80589699D01*
X115146043Y-80649769D01*
X115053005Y-80699500D01*
X114963550Y-80747315D01*
X114963548Y-80747316D01*
X114963547Y-80747317D01*
X114803589Y-80878589D01*
X114672317Y-81038547D01*
X114574769Y-81221043D01*
X114514699Y-81419067D01*
X114494417Y-81625000D01*
X102400500Y-81625000D01*
X102400500Y-81025832D01*
X102420185Y-80958793D01*
X102436814Y-80938156D01*
X104587819Y-78787150D01*
X104649142Y-78753666D01*
X104718834Y-78758650D01*
X104774767Y-78800522D01*
X104799184Y-78865986D01*
X104799500Y-78874832D01*
X104799500Y-80144752D01*
X104811131Y-80203229D01*
X104811132Y-80203230D01*
X104855447Y-80269552D01*
X104921769Y-80313867D01*
X104921770Y-80313868D01*
X104980247Y-80325499D01*
X104980250Y-80325500D01*
X104980252Y-80325500D01*
X106519750Y-80325500D01*
X106519751Y-80325499D01*
X106534568Y-80322552D01*
X106578229Y-80313868D01*
X106578229Y-80313867D01*
X106578231Y-80313867D01*
X106644552Y-80269552D01*
X106688867Y-80203231D01*
X106688867Y-80203229D01*
X106688868Y-80203229D01*
X106700499Y-80144752D01*
X106700500Y-80144750D01*
X106700500Y-79085000D01*
X114494417Y-79085000D01*
X114514699Y-79290932D01*
X114527200Y-79332143D01*
X114574768Y-79488954D01*
X114672315Y-79671450D01*
X114672317Y-79671452D01*
X114803589Y-79831410D01*
X114900209Y-79910702D01*
X114963550Y-79962685D01*
X115146046Y-80060232D01*
X115344066Y-80120300D01*
X115344065Y-80120300D01*
X115362529Y-80122118D01*
X115550000Y-80140583D01*
X115755934Y-80120300D01*
X115953954Y-80060232D01*
X116136450Y-79962685D01*
X116296410Y-79831410D01*
X116427685Y-79671450D01*
X116525232Y-79488954D01*
X116574966Y-79325000D01*
X119169353Y-79325000D01*
X119189834Y-79467456D01*
X119249622Y-79598371D01*
X119249623Y-79598373D01*
X119343872Y-79707143D01*
X119464947Y-79784953D01*
X119464950Y-79784954D01*
X119464949Y-79784954D01*
X119603036Y-79825499D01*
X119603038Y-79825500D01*
X119603039Y-79825500D01*
X119746962Y-79825500D01*
X119746962Y-79825499D01*
X119885053Y-79784953D01*
X120006128Y-79707143D01*
X120100377Y-79598373D01*
X120160165Y-79467457D01*
X120180647Y-79325000D01*
X120160165Y-79182543D01*
X120100377Y-79051627D01*
X120006128Y-78942857D01*
X119885053Y-78865047D01*
X119885051Y-78865046D01*
X119885049Y-78865045D01*
X119885050Y-78865045D01*
X119746963Y-78824500D01*
X119746961Y-78824500D01*
X119603039Y-78824500D01*
X119603036Y-78824500D01*
X119464949Y-78865045D01*
X119343873Y-78942856D01*
X119249623Y-79051626D01*
X119249622Y-79051628D01*
X119189834Y-79182543D01*
X119169353Y-79325000D01*
X116574966Y-79325000D01*
X116585300Y-79290934D01*
X116605583Y-79085000D01*
X116585300Y-78879066D01*
X116525232Y-78681046D01*
X116427685Y-78498550D01*
X116350759Y-78404815D01*
X116296410Y-78338589D01*
X116151050Y-78219297D01*
X116136450Y-78207315D01*
X115953954Y-78109768D01*
X115755934Y-78049700D01*
X115755932Y-78049699D01*
X115755934Y-78049699D01*
X115550000Y-78029417D01*
X115344067Y-78049699D01*
X115146043Y-78109769D01*
X115056666Y-78157543D01*
X114963550Y-78207315D01*
X114963548Y-78207316D01*
X114963547Y-78207317D01*
X114803589Y-78338589D01*
X114672317Y-78498547D01*
X114574769Y-78681043D01*
X114514699Y-78879067D01*
X114494417Y-79085000D01*
X106700500Y-79085000D01*
X106700500Y-78605249D01*
X106700499Y-78605247D01*
X106688868Y-78546770D01*
X106688867Y-78546769D01*
X106644552Y-78480447D01*
X106578230Y-78436132D01*
X106578229Y-78436131D01*
X106519752Y-78424500D01*
X106519748Y-78424500D01*
X105249832Y-78424500D01*
X105182793Y-78404815D01*
X105137038Y-78352011D01*
X105127094Y-78282853D01*
X105156119Y-78219297D01*
X105162151Y-78212819D01*
X107324471Y-76050499D01*
X107699723Y-75675247D01*
X114499500Y-75675247D01*
X114499500Y-77414752D01*
X114511131Y-77473229D01*
X114511132Y-77473230D01*
X114555447Y-77539552D01*
X114621769Y-77583867D01*
X114621770Y-77583868D01*
X114680247Y-77595499D01*
X114680250Y-77595500D01*
X114680252Y-77595500D01*
X116419750Y-77595500D01*
X116419751Y-77595499D01*
X116434568Y-77592552D01*
X116478229Y-77583868D01*
X116478229Y-77583867D01*
X116478231Y-77583867D01*
X116544552Y-77539552D01*
X116588867Y-77473231D01*
X116588867Y-77473229D01*
X116588868Y-77473229D01*
X116597552Y-77429568D01*
X116600500Y-77414748D01*
X116600500Y-75675252D01*
X116600500Y-75675249D01*
X116600499Y-75675247D01*
X116588868Y-75616770D01*
X116588867Y-75616769D01*
X116544552Y-75550447D01*
X116478230Y-75506132D01*
X116478229Y-75506131D01*
X116419752Y-75494500D01*
X116419748Y-75494500D01*
X114680252Y-75494500D01*
X114680247Y-75494500D01*
X114621770Y-75506131D01*
X114621769Y-75506132D01*
X114555447Y-75550447D01*
X114511132Y-75616769D01*
X114511131Y-75616770D01*
X114499500Y-75675247D01*
X107699723Y-75675247D01*
X109715460Y-73659511D01*
X109746859Y-73605126D01*
X109755021Y-73590989D01*
X109775500Y-73514562D01*
X109775500Y-72499333D01*
X109795185Y-72432294D01*
X109847989Y-72386539D01*
X109917147Y-72376595D01*
X109934431Y-72380355D01*
X109955492Y-72386539D01*
X110003038Y-72400500D01*
X110003039Y-72400500D01*
X110146962Y-72400500D01*
X110146962Y-72400499D01*
X110276362Y-72362505D01*
X110285050Y-72359954D01*
X110285050Y-72359953D01*
X110285053Y-72359953D01*
X110406128Y-72282143D01*
X110500377Y-72173373D01*
X110522468Y-72125000D01*
X110869353Y-72125000D01*
X110889834Y-72267456D01*
X110949622Y-72398371D01*
X110949623Y-72398373D01*
X111043872Y-72507143D01*
X111164947Y-72584953D01*
X111164950Y-72584954D01*
X111164949Y-72584954D01*
X111303036Y-72625499D01*
X111303038Y-72625500D01*
X111303039Y-72625500D01*
X111446962Y-72625500D01*
X111446962Y-72625499D01*
X111554121Y-72594035D01*
X111585050Y-72584954D01*
X111585050Y-72584953D01*
X111585053Y-72584953D01*
X111706128Y-72507143D01*
X111800377Y-72398373D01*
X111860165Y-72267457D01*
X111880647Y-72125000D01*
X111860165Y-71982543D01*
X111800377Y-71851627D01*
X111706128Y-71742857D01*
X111585053Y-71665047D01*
X111585051Y-71665046D01*
X111585049Y-71665045D01*
X111585050Y-71665045D01*
X111446963Y-71624500D01*
X111446961Y-71624500D01*
X111303039Y-71624500D01*
X111303036Y-71624500D01*
X111164949Y-71665045D01*
X111043873Y-71742856D01*
X110949623Y-71851626D01*
X110949622Y-71851628D01*
X110889834Y-71982543D01*
X110869353Y-72125000D01*
X110522468Y-72125000D01*
X110560165Y-72042457D01*
X110580647Y-71900000D01*
X110560165Y-71757543D01*
X110500377Y-71626627D01*
X110500375Y-71626625D01*
X110500374Y-71626622D01*
X110405787Y-71517462D01*
X110376762Y-71453906D01*
X110375500Y-71436260D01*
X110375500Y-71139671D01*
X110355020Y-71063241D01*
X110355017Y-71063236D01*
X110315464Y-70994727D01*
X110315458Y-70994719D01*
X108548891Y-69228152D01*
X108515406Y-69166829D01*
X108520390Y-69097137D01*
X108562262Y-69041204D01*
X108601632Y-69021495D01*
X108614239Y-69017792D01*
X108614238Y-69017791D01*
X109435758Y-69017791D01*
X109435759Y-69017792D01*
X109460301Y-69025000D01*
X109589698Y-69025000D01*
X109589705Y-69024998D01*
X109614240Y-69017793D01*
X109614240Y-69017792D01*
X109614239Y-69017791D01*
X110435758Y-69017791D01*
X110435759Y-69017792D01*
X110460301Y-69025000D01*
X110589698Y-69025000D01*
X110589705Y-69024998D01*
X110614240Y-69017793D01*
X110614240Y-69017792D01*
X110525001Y-68928553D01*
X110524999Y-68928553D01*
X110435758Y-69017791D01*
X109614239Y-69017791D01*
X109525001Y-68928553D01*
X109524999Y-68928553D01*
X109435758Y-69017791D01*
X108614238Y-69017791D01*
X108151556Y-68555109D01*
X108425000Y-68555109D01*
X108425000Y-68594891D01*
X108440224Y-68631645D01*
X108468355Y-68659776D01*
X108505109Y-68675000D01*
X108544891Y-68675000D01*
X108581645Y-68659776D01*
X108609776Y-68631645D01*
X108625000Y-68594891D01*
X108625000Y-68575000D01*
X108878553Y-68575000D01*
X108878553Y-68575001D01*
X108966919Y-68663367D01*
X108985839Y-68657071D01*
X109055664Y-68654577D01*
X109064159Y-68657071D01*
X109083077Y-68663367D01*
X109171446Y-68574999D01*
X109151556Y-68555109D01*
X109425000Y-68555109D01*
X109425000Y-68594891D01*
X109440224Y-68631645D01*
X109468355Y-68659776D01*
X109505109Y-68675000D01*
X109544891Y-68675000D01*
X109581645Y-68659776D01*
X109609776Y-68631645D01*
X109625000Y-68594891D01*
X109625000Y-68575000D01*
X109878553Y-68575000D01*
X109878553Y-68575001D01*
X109966919Y-68663367D01*
X109985839Y-68657071D01*
X110055664Y-68654577D01*
X110064159Y-68657071D01*
X110083077Y-68663367D01*
X110171446Y-68574999D01*
X110151556Y-68555109D01*
X110425000Y-68555109D01*
X110425000Y-68594891D01*
X110440224Y-68631645D01*
X110468355Y-68659776D01*
X110505109Y-68675000D01*
X110544891Y-68675000D01*
X110581645Y-68659776D01*
X110609776Y-68631645D01*
X110625000Y-68594891D01*
X110625000Y-68575000D01*
X110878553Y-68575000D01*
X110878553Y-68575001D01*
X110966920Y-68663368D01*
X110979626Y-68574999D01*
X110966920Y-68486631D01*
X110878553Y-68575000D01*
X110625000Y-68575000D01*
X110625000Y-68555109D01*
X110609776Y-68518355D01*
X110581645Y-68490224D01*
X110544891Y-68475000D01*
X110505109Y-68475000D01*
X110468355Y-68490224D01*
X110440224Y-68518355D01*
X110425000Y-68555109D01*
X110151556Y-68555109D01*
X110083077Y-68486630D01*
X110064158Y-68492928D01*
X109994333Y-68495421D01*
X109985840Y-68492928D01*
X109966921Y-68486631D01*
X109878553Y-68575000D01*
X109625000Y-68575000D01*
X109625000Y-68555109D01*
X109609776Y-68518355D01*
X109581645Y-68490224D01*
X109544891Y-68475000D01*
X109505109Y-68475000D01*
X109468355Y-68490224D01*
X109440224Y-68518355D01*
X109425000Y-68555109D01*
X109151556Y-68555109D01*
X109083077Y-68486630D01*
X109064158Y-68492928D01*
X108994333Y-68495421D01*
X108985840Y-68492928D01*
X108966921Y-68486631D01*
X108878553Y-68575000D01*
X108625000Y-68575000D01*
X108625000Y-68555109D01*
X108609776Y-68518355D01*
X108581645Y-68490224D01*
X108544891Y-68475000D01*
X108505109Y-68475000D01*
X108468355Y-68490224D01*
X108440224Y-68518355D01*
X108425000Y-68555109D01*
X108151556Y-68555109D01*
X108083077Y-68486630D01*
X108081547Y-68487139D01*
X108054648Y-68546038D01*
X107995870Y-68583812D01*
X107926000Y-68583812D01*
X107873255Y-68552516D01*
X107338531Y-68017792D01*
X108435758Y-68017792D01*
X108442533Y-68044337D01*
X108442532Y-68105665D01*
X108435758Y-68132205D01*
X108524999Y-68221446D01*
X108614239Y-68132205D01*
X108607466Y-68105667D01*
X108607465Y-68044338D01*
X108614239Y-68017792D01*
X109435758Y-68017792D01*
X109442533Y-68044337D01*
X109442532Y-68105665D01*
X109435758Y-68132205D01*
X109524999Y-68221446D01*
X109614239Y-68132205D01*
X109607466Y-68105667D01*
X109607465Y-68044338D01*
X109614239Y-68017792D01*
X110435758Y-68017792D01*
X110442533Y-68044337D01*
X110442532Y-68105665D01*
X110435758Y-68132205D01*
X110524999Y-68221446D01*
X110614239Y-68132205D01*
X110607466Y-68105667D01*
X110607465Y-68044338D01*
X110614239Y-68017792D01*
X110525001Y-67928553D01*
X110524999Y-67928553D01*
X110435758Y-68017792D01*
X109614239Y-68017792D01*
X109525001Y-67928553D01*
X109524999Y-67928553D01*
X109435758Y-68017792D01*
X108614239Y-68017792D01*
X108525001Y-67928553D01*
X108524999Y-67928553D01*
X108435758Y-68017792D01*
X107338531Y-68017792D01*
X106895738Y-67574999D01*
X108070373Y-67574999D01*
X108083077Y-67663366D01*
X108171446Y-67574999D01*
X108151556Y-67555109D01*
X108425000Y-67555109D01*
X108425000Y-67594891D01*
X108440224Y-67631645D01*
X108468355Y-67659776D01*
X108505109Y-67675000D01*
X108544891Y-67675000D01*
X108581645Y-67659776D01*
X108609776Y-67631645D01*
X108625000Y-67594891D01*
X108625000Y-67575000D01*
X108878553Y-67575000D01*
X108878553Y-67575001D01*
X108966919Y-67663367D01*
X108985839Y-67657071D01*
X109055664Y-67654577D01*
X109064159Y-67657071D01*
X109083077Y-67663367D01*
X109171446Y-67574999D01*
X109151556Y-67555109D01*
X109425000Y-67555109D01*
X109425000Y-67594891D01*
X109440224Y-67631645D01*
X109468355Y-67659776D01*
X109505109Y-67675000D01*
X109544891Y-67675000D01*
X109581645Y-67659776D01*
X109609776Y-67631645D01*
X109625000Y-67594891D01*
X109625000Y-67575000D01*
X109878553Y-67575000D01*
X109878553Y-67575001D01*
X109966919Y-67663367D01*
X109985839Y-67657071D01*
X110055664Y-67654577D01*
X110064159Y-67657071D01*
X110083077Y-67663367D01*
X110171446Y-67574999D01*
X110151556Y-67555109D01*
X110425000Y-67555109D01*
X110425000Y-67594891D01*
X110440224Y-67631645D01*
X110468355Y-67659776D01*
X110505109Y-67675000D01*
X110544891Y-67675000D01*
X110581645Y-67659776D01*
X110609776Y-67631645D01*
X110625000Y-67594891D01*
X110625000Y-67575000D01*
X110878553Y-67575000D01*
X110878553Y-67575001D01*
X110966920Y-67663368D01*
X110979626Y-67574999D01*
X110966920Y-67486631D01*
X110878553Y-67575000D01*
X110625000Y-67575000D01*
X110625000Y-67555109D01*
X110609776Y-67518355D01*
X110581645Y-67490224D01*
X110544891Y-67475000D01*
X110505109Y-67475000D01*
X110468355Y-67490224D01*
X110440224Y-67518355D01*
X110425000Y-67555109D01*
X110151556Y-67555109D01*
X110083077Y-67486630D01*
X110064158Y-67492928D01*
X109994333Y-67495421D01*
X109985840Y-67492928D01*
X109966921Y-67486631D01*
X109878553Y-67575000D01*
X109625000Y-67575000D01*
X109625000Y-67555109D01*
X109609776Y-67518355D01*
X109581645Y-67490224D01*
X109544891Y-67475000D01*
X109505109Y-67475000D01*
X109468355Y-67490224D01*
X109440224Y-67518355D01*
X109425000Y-67555109D01*
X109151556Y-67555109D01*
X109083077Y-67486630D01*
X109064158Y-67492928D01*
X108994333Y-67495421D01*
X108985840Y-67492928D01*
X108966921Y-67486631D01*
X108878553Y-67575000D01*
X108625000Y-67575000D01*
X108625000Y-67555109D01*
X108609776Y-67518355D01*
X108581645Y-67490224D01*
X108544891Y-67475000D01*
X108505109Y-67475000D01*
X108468355Y-67490224D01*
X108440224Y-67518355D01*
X108425000Y-67555109D01*
X108151556Y-67555109D01*
X108083078Y-67486631D01*
X108070373Y-67574999D01*
X106895738Y-67574999D01*
X106532420Y-67211681D01*
X106498935Y-67150358D01*
X106503919Y-67080666D01*
X106545791Y-67024733D01*
X106564400Y-67017792D01*
X108435758Y-67017792D01*
X108442533Y-67044337D01*
X108442532Y-67105665D01*
X108435758Y-67132205D01*
X108524999Y-67221446D01*
X108614239Y-67132205D01*
X108607466Y-67105667D01*
X108607465Y-67044338D01*
X108614239Y-67017792D01*
X109435758Y-67017792D01*
X109442533Y-67044337D01*
X109442532Y-67105665D01*
X109435758Y-67132205D01*
X109524999Y-67221446D01*
X109614239Y-67132205D01*
X109607466Y-67105667D01*
X109607465Y-67044338D01*
X109614239Y-67017792D01*
X110435758Y-67017792D01*
X110442533Y-67044337D01*
X110442532Y-67105665D01*
X110435758Y-67132205D01*
X110524999Y-67221446D01*
X110614239Y-67132205D01*
X110607466Y-67105667D01*
X110607465Y-67044338D01*
X110614239Y-67017792D01*
X110525001Y-66928553D01*
X110524999Y-66928553D01*
X110435758Y-67017792D01*
X109614239Y-67017792D01*
X109525001Y-66928553D01*
X109524999Y-66928553D01*
X109435758Y-67017792D01*
X108614239Y-67017792D01*
X108525001Y-66928553D01*
X108524999Y-66928553D01*
X108435758Y-67017792D01*
X106564400Y-67017792D01*
X106611255Y-67000316D01*
X106620101Y-67000000D01*
X107550000Y-67000000D01*
X107550000Y-66999999D01*
X107537857Y-66574999D01*
X108070373Y-66574999D01*
X108083077Y-66663366D01*
X108171446Y-66574999D01*
X108151556Y-66555109D01*
X108425000Y-66555109D01*
X108425000Y-66594891D01*
X108440224Y-66631645D01*
X108468355Y-66659776D01*
X108505109Y-66675000D01*
X108544891Y-66675000D01*
X108581645Y-66659776D01*
X108609776Y-66631645D01*
X108625000Y-66594891D01*
X108625000Y-66575000D01*
X108878553Y-66575000D01*
X108878553Y-66575001D01*
X108966919Y-66663367D01*
X108985839Y-66657071D01*
X109055664Y-66654577D01*
X109064159Y-66657071D01*
X109083077Y-66663367D01*
X109171446Y-66574999D01*
X109151556Y-66555109D01*
X109425000Y-66555109D01*
X109425000Y-66594891D01*
X109440224Y-66631645D01*
X109468355Y-66659776D01*
X109505109Y-66675000D01*
X109544891Y-66675000D01*
X109581645Y-66659776D01*
X109609776Y-66631645D01*
X109625000Y-66594891D01*
X109625000Y-66575000D01*
X109878553Y-66575000D01*
X109878553Y-66575001D01*
X109966919Y-66663367D01*
X109985839Y-66657071D01*
X110055664Y-66654577D01*
X110064159Y-66657071D01*
X110083077Y-66663367D01*
X110171446Y-66574999D01*
X110151556Y-66555109D01*
X110425000Y-66555109D01*
X110425000Y-66594891D01*
X110440224Y-66631645D01*
X110468355Y-66659776D01*
X110505109Y-66675000D01*
X110544891Y-66675000D01*
X110581645Y-66659776D01*
X110609776Y-66631645D01*
X110625000Y-66594891D01*
X110625000Y-66575000D01*
X110878553Y-66575000D01*
X110878553Y-66575001D01*
X110966920Y-66663368D01*
X110979626Y-66574999D01*
X110966920Y-66486631D01*
X110878553Y-66575000D01*
X110625000Y-66575000D01*
X110625000Y-66555109D01*
X110609776Y-66518355D01*
X110581645Y-66490224D01*
X110544891Y-66475000D01*
X110505109Y-66475000D01*
X110468355Y-66490224D01*
X110440224Y-66518355D01*
X110425000Y-66555109D01*
X110151556Y-66555109D01*
X110083077Y-66486630D01*
X110064158Y-66492928D01*
X109994333Y-66495421D01*
X109985840Y-66492928D01*
X109966921Y-66486631D01*
X109878553Y-66575000D01*
X109625000Y-66575000D01*
X109625000Y-66555109D01*
X109609776Y-66518355D01*
X109581645Y-66490224D01*
X109544891Y-66475000D01*
X109505109Y-66475000D01*
X109468355Y-66490224D01*
X109440224Y-66518355D01*
X109425000Y-66555109D01*
X109151556Y-66555109D01*
X109083077Y-66486630D01*
X109064158Y-66492928D01*
X108994333Y-66495421D01*
X108985840Y-66492928D01*
X108966921Y-66486631D01*
X108878553Y-66575000D01*
X108625000Y-66575000D01*
X108625000Y-66555109D01*
X108609776Y-66518355D01*
X108581645Y-66490224D01*
X108544891Y-66475000D01*
X108505109Y-66475000D01*
X108468355Y-66490224D01*
X108440224Y-66518355D01*
X108425000Y-66555109D01*
X108151556Y-66555109D01*
X108083078Y-66486631D01*
X108070373Y-66574999D01*
X107537857Y-66574999D01*
X107525206Y-66132206D01*
X108435758Y-66132206D01*
X108524999Y-66221446D01*
X108614238Y-66132206D01*
X109435758Y-66132206D01*
X109524999Y-66221446D01*
X109614238Y-66132206D01*
X110435758Y-66132206D01*
X110524999Y-66221446D01*
X110614238Y-66132206D01*
X110589697Y-66125000D01*
X110460300Y-66125000D01*
X110435758Y-66132206D01*
X109614238Y-66132206D01*
X109589697Y-66125000D01*
X109460300Y-66125000D01*
X109435758Y-66132206D01*
X108614238Y-66132206D01*
X108589697Y-66125000D01*
X108460300Y-66125000D01*
X108435758Y-66132206D01*
X107525206Y-66132206D01*
X107525000Y-66125000D01*
X106649333Y-66125000D01*
X106582294Y-66105315D01*
X106536539Y-66052511D01*
X106526595Y-65983353D01*
X106555620Y-65919797D01*
X106561652Y-65913319D01*
X106924972Y-65549999D01*
X111425000Y-65549999D01*
X111425000Y-66575000D01*
X112750000Y-66550000D01*
X114872925Y-65800732D01*
X114877131Y-65799332D01*
X121025000Y-63875000D01*
X121025000Y-60425000D01*
X119025000Y-58400000D01*
X119024999Y-58400000D01*
X115524999Y-58425000D01*
X115500303Y-62302347D01*
X115480192Y-62369260D01*
X115467863Y-62385183D01*
X112635819Y-65485783D01*
X112576072Y-65522007D01*
X112546900Y-65526129D01*
X111425000Y-65549999D01*
X106924972Y-65549999D01*
X107023345Y-65451626D01*
X107515460Y-64959511D01*
X107555021Y-64890989D01*
X107575500Y-64814562D01*
X107575500Y-58061909D01*
X107555021Y-57985482D01*
X107534230Y-57949471D01*
X107515464Y-57916966D01*
X107515458Y-57916958D01*
X105373436Y-55774936D01*
X105339951Y-55713613D01*
X105338379Y-55704899D01*
X105335165Y-55682547D01*
X105335165Y-55682543D01*
X105275377Y-55551627D01*
X105181128Y-55442857D01*
X105060053Y-55365047D01*
X105060051Y-55365046D01*
X105060049Y-55365045D01*
X105060050Y-55365045D01*
X104921963Y-55324500D01*
X104921961Y-55324500D01*
X104778039Y-55324500D01*
X104778036Y-55324500D01*
X104639949Y-55365045D01*
X104518873Y-55442856D01*
X104424623Y-55551626D01*
X104424622Y-55551628D01*
X104364834Y-55682543D01*
X104344353Y-55825000D01*
X104364834Y-55967456D01*
X104402088Y-56049029D01*
X104424623Y-56098373D01*
X104518872Y-56207143D01*
X104639947Y-56284953D01*
X104639950Y-56284954D01*
X104639949Y-56284954D01*
X104731057Y-56311705D01*
X104766626Y-56322149D01*
X104778036Y-56325499D01*
X104778038Y-56325500D01*
X104778039Y-56325500D01*
X104921962Y-56325500D01*
X104968942Y-56311705D01*
X105038812Y-56311705D01*
X105091559Y-56343001D01*
X105961858Y-57213300D01*
X105995343Y-57274623D01*
X105990359Y-57344315D01*
X105948487Y-57400248D01*
X105941217Y-57405296D01*
X105843874Y-57467855D01*
X105749623Y-57576626D01*
X105749622Y-57576628D01*
X105689834Y-57707543D01*
X105669353Y-57850000D01*
X105689834Y-57992456D01*
X105721553Y-58061909D01*
X105749623Y-58123373D01*
X105843872Y-58232143D01*
X105964947Y-58309953D01*
X105964950Y-58309954D01*
X105964949Y-58309954D01*
X106103036Y-58350499D01*
X106103038Y-58350500D01*
X106103039Y-58350500D01*
X106246962Y-58350500D01*
X106246962Y-58350499D01*
X106385053Y-58309953D01*
X106506128Y-58232143D01*
X106600377Y-58123373D01*
X106611322Y-58099405D01*
X106657073Y-58046605D01*
X106724112Y-58026919D01*
X106791152Y-58046602D01*
X106811796Y-58063238D01*
X106938181Y-58189623D01*
X106971666Y-58250946D01*
X106974500Y-58277304D01*
X106974500Y-64599167D01*
X106954815Y-64666206D01*
X106938181Y-64686848D01*
X105684541Y-65940487D01*
X105684535Y-65940495D01*
X105644982Y-66009004D01*
X105644978Y-66009013D01*
X105638525Y-66033096D01*
X105602159Y-66092755D01*
X105539312Y-66123283D01*
X105518751Y-66125000D01*
X105028283Y-66125000D01*
X104961244Y-66105315D01*
X104938331Y-66086349D01*
X104084041Y-65185881D01*
X104052182Y-65123700D01*
X104050000Y-65100539D01*
X104050000Y-63125000D01*
X103265264Y-63113869D01*
X100525000Y-63075000D01*
X100524999Y-63075000D01*
X100501794Y-69595793D01*
X100500000Y-70100000D01*
X100500001Y-70100000D01*
X104099999Y-70100000D01*
X104100000Y-70100000D01*
X104075584Y-68073532D01*
X104094459Y-68006263D01*
X104107510Y-67988974D01*
X104766523Y-67258717D01*
X104963069Y-67040924D01*
X105022597Y-67004343D01*
X105055126Y-67000000D01*
X105510918Y-67000000D01*
X105577957Y-67019685D01*
X105623712Y-67072489D01*
X105630692Y-67091905D01*
X105644977Y-67145216D01*
X105644978Y-67145220D01*
X105644979Y-67145221D01*
X105661883Y-67174500D01*
X105684540Y-67213743D01*
X105684542Y-67213745D01*
X109161858Y-70691061D01*
X109195343Y-70752384D01*
X109190359Y-70822076D01*
X109148487Y-70878009D01*
X109141217Y-70883057D01*
X109043874Y-70945616D01*
X108949623Y-71054387D01*
X108949622Y-71054389D01*
X108889834Y-71185304D01*
X108869353Y-71327761D01*
X108891097Y-71478996D01*
X108889716Y-71479194D01*
X108889717Y-71539681D01*
X108851943Y-71598459D01*
X108805674Y-71623725D01*
X108664949Y-71665045D01*
X108543873Y-71742856D01*
X108449623Y-71851626D01*
X108449622Y-71851628D01*
X108389834Y-71982543D01*
X108369353Y-72125000D01*
X108389834Y-72267456D01*
X108449622Y-72398371D01*
X108449623Y-72398373D01*
X108543872Y-72507143D01*
X108543875Y-72507144D01*
X108544213Y-72507535D01*
X108573238Y-72571091D01*
X108574500Y-72588738D01*
X108574500Y-73224167D01*
X108554815Y-73291206D01*
X108538181Y-73311848D01*
X104823663Y-77026365D01*
X104762340Y-77059850D01*
X104692648Y-77054866D01*
X104636715Y-77012994D01*
X104612298Y-76947530D01*
X104613243Y-76921043D01*
X104630647Y-76800000D01*
X104610165Y-76657543D01*
X104550377Y-76526627D01*
X104456128Y-76417857D01*
X104335053Y-76340047D01*
X104335051Y-76340046D01*
X104335049Y-76340045D01*
X104335050Y-76340045D01*
X104196963Y-76299500D01*
X104196961Y-76299500D01*
X104053039Y-76299500D01*
X104053036Y-76299500D01*
X103914949Y-76340045D01*
X103793873Y-76417856D01*
X103699623Y-76526626D01*
X103699622Y-76526628D01*
X103639834Y-76657543D01*
X103619353Y-76800000D01*
X103639834Y-76942456D01*
X103678155Y-77026365D01*
X103699623Y-77073373D01*
X103793872Y-77182143D01*
X103914947Y-77259953D01*
X103914950Y-77259954D01*
X103914949Y-77259954D01*
X104053036Y-77300499D01*
X104053038Y-77300500D01*
X104053039Y-77300500D01*
X104196960Y-77300500D01*
X104196961Y-77300500D01*
X104229938Y-77290816D01*
X104299805Y-77290816D01*
X104358584Y-77328590D01*
X104387610Y-77392145D01*
X104377667Y-77461304D01*
X104352553Y-77497475D01*
X99437181Y-82412848D01*
X99375858Y-82446333D01*
X99306166Y-82441349D01*
X99250233Y-82399477D01*
X99225816Y-82334013D01*
X99225500Y-82325167D01*
X99225500Y-80880249D01*
X99225499Y-80880247D01*
X99213868Y-80821770D01*
X99213867Y-80821769D01*
X99169552Y-80755447D01*
X99103230Y-80711132D01*
X99103229Y-80711131D01*
X99044752Y-80699500D01*
X99044748Y-80699500D01*
X97505252Y-80699500D01*
X97505247Y-80699500D01*
X97446770Y-80711131D01*
X97446769Y-80711132D01*
X97380447Y-80755447D01*
X97336132Y-80821769D01*
X97336131Y-80821770D01*
X97324500Y-80880247D01*
X95695527Y-80880247D01*
X95688868Y-80846770D01*
X95688867Y-80846769D01*
X95644552Y-80780447D01*
X95578230Y-80736132D01*
X95578229Y-80736131D01*
X95519752Y-80724500D01*
X95519748Y-80724500D01*
X93980252Y-80724500D01*
X93980247Y-80724500D01*
X93921770Y-80736131D01*
X93921769Y-80736132D01*
X93855447Y-80780447D01*
X93811132Y-80846769D01*
X93811131Y-80846770D01*
X93799500Y-80905247D01*
X82552158Y-80905247D01*
X82549199Y-80479196D01*
X88900001Y-80479196D01*
X88902851Y-80509606D01*
X88947653Y-80637645D01*
X89028207Y-80746792D01*
X89137354Y-80827346D01*
X89265397Y-80872149D01*
X89295792Y-80874999D01*
X89574999Y-80874999D01*
X90075000Y-80874999D01*
X90354196Y-80874999D01*
X90384606Y-80872148D01*
X90512645Y-80827346D01*
X90621792Y-80746792D01*
X90702346Y-80637645D01*
X90747149Y-80509604D01*
X90747149Y-80509600D01*
X90750000Y-80479206D01*
X90750000Y-80425000D01*
X90075000Y-80425000D01*
X90075000Y-80874999D01*
X89574999Y-80874999D01*
X89575000Y-80874998D01*
X89575000Y-80425000D01*
X88900001Y-80425000D01*
X88900001Y-80479196D01*
X82549199Y-80479196D01*
X82544974Y-79870793D01*
X88900000Y-79870793D01*
X88900000Y-79925000D01*
X89575000Y-79925000D01*
X90075000Y-79925000D01*
X90749999Y-79925000D01*
X90749999Y-79870803D01*
X90747148Y-79840393D01*
X90702346Y-79712354D01*
X90621792Y-79603207D01*
X90512645Y-79522653D01*
X90384602Y-79477850D01*
X90354207Y-79475000D01*
X90075000Y-79475000D01*
X90075000Y-79925000D01*
X89575000Y-79925000D01*
X89575000Y-79475000D01*
X89295804Y-79475000D01*
X89265393Y-79477851D01*
X89137354Y-79522653D01*
X89028207Y-79603207D01*
X88947653Y-79712354D01*
X88902850Y-79840395D01*
X88902850Y-79840399D01*
X88900000Y-79870793D01*
X82544974Y-79870793D01*
X82540142Y-79175000D01*
X97044353Y-79175000D01*
X97064834Y-79317456D01*
X97107077Y-79409953D01*
X97124623Y-79448373D01*
X97218872Y-79557143D01*
X97339947Y-79634953D01*
X97339950Y-79634954D01*
X97339949Y-79634954D01*
X97478036Y-79675499D01*
X97478038Y-79675500D01*
X97478039Y-79675500D01*
X97621962Y-79675500D01*
X97621962Y-79675499D01*
X97760053Y-79634953D01*
X97881128Y-79557143D01*
X97975377Y-79448373D01*
X98035165Y-79317457D01*
X98055647Y-79175000D01*
X98035165Y-79032543D01*
X97997468Y-78950000D01*
X100744353Y-78950000D01*
X100764834Y-79092456D01*
X100805976Y-79182543D01*
X100824623Y-79223373D01*
X100918872Y-79332143D01*
X101039947Y-79409953D01*
X101039950Y-79409954D01*
X101039949Y-79409954D01*
X101147107Y-79441417D01*
X101170788Y-79448371D01*
X101178036Y-79450499D01*
X101178038Y-79450500D01*
X101178039Y-79450500D01*
X101321962Y-79450500D01*
X101321962Y-79450499D01*
X101460053Y-79409953D01*
X101581128Y-79332143D01*
X101675377Y-79223373D01*
X101735165Y-79092457D01*
X101755647Y-78950000D01*
X101735165Y-78807543D01*
X101675377Y-78676627D01*
X101581128Y-78567857D01*
X101460053Y-78490047D01*
X101460051Y-78490046D01*
X101460049Y-78490045D01*
X101460050Y-78490045D01*
X101321963Y-78449500D01*
X101321961Y-78449500D01*
X101178039Y-78449500D01*
X101178036Y-78449500D01*
X101039949Y-78490045D01*
X100918873Y-78567856D01*
X100824623Y-78676626D01*
X100824622Y-78676628D01*
X100764834Y-78807543D01*
X100744353Y-78950000D01*
X97997468Y-78950000D01*
X97975377Y-78901627D01*
X97881128Y-78792857D01*
X97760053Y-78715047D01*
X97760051Y-78715046D01*
X97760049Y-78715045D01*
X97760050Y-78715045D01*
X97621963Y-78674500D01*
X97621961Y-78674500D01*
X97478039Y-78674500D01*
X97478036Y-78674500D01*
X97339949Y-78715045D01*
X97218873Y-78792856D01*
X97124623Y-78901626D01*
X97124622Y-78901628D01*
X97064834Y-79032543D01*
X97044353Y-79175000D01*
X82540142Y-79175000D01*
X82531779Y-77970730D01*
X88899500Y-77970730D01*
X88899500Y-78579269D01*
X88902353Y-78609699D01*
X88902353Y-78609701D01*
X88947206Y-78737880D01*
X88947207Y-78737882D01*
X89027850Y-78847150D01*
X89137118Y-78927793D01*
X89179845Y-78942744D01*
X89265299Y-78972646D01*
X89295730Y-78975500D01*
X89295734Y-78975500D01*
X90354270Y-78975500D01*
X90384699Y-78972646D01*
X90384701Y-78972646D01*
X90469834Y-78942856D01*
X90512882Y-78927793D01*
X90622150Y-78847150D01*
X90702793Y-78737882D01*
X90725219Y-78673790D01*
X90747646Y-78609701D01*
X90747646Y-78609699D01*
X90750500Y-78579269D01*
X90750500Y-78300000D01*
X94219353Y-78300000D01*
X94239834Y-78442456D01*
X94265452Y-78498550D01*
X94299623Y-78573373D01*
X94393872Y-78682143D01*
X94514947Y-78759953D01*
X94514950Y-78759954D01*
X94514949Y-78759954D01*
X94653036Y-78800499D01*
X94653038Y-78800500D01*
X94653039Y-78800500D01*
X94796962Y-78800500D01*
X94796962Y-78800499D01*
X94935053Y-78759953D01*
X95056128Y-78682143D01*
X95150377Y-78573373D01*
X95210165Y-78442457D01*
X95230647Y-78300000D01*
X95210165Y-78157543D01*
X95150377Y-78026627D01*
X95056128Y-77917857D01*
X94989441Y-77875000D01*
X99769353Y-77875000D01*
X99789834Y-78017456D01*
X99804560Y-78049700D01*
X99849623Y-78148373D01*
X99943872Y-78257143D01*
X100064947Y-78334953D01*
X100064950Y-78334954D01*
X100064949Y-78334954D01*
X100203036Y-78375499D01*
X100203038Y-78375500D01*
X100203039Y-78375500D01*
X100346962Y-78375500D01*
X100346962Y-78375499D01*
X100454121Y-78344035D01*
X100485050Y-78334954D01*
X100485050Y-78334953D01*
X100485053Y-78334953D01*
X100606128Y-78257143D01*
X100700377Y-78148373D01*
X100760165Y-78017457D01*
X100780647Y-77875000D01*
X100760165Y-77732543D01*
X100700377Y-77601627D01*
X100606128Y-77492857D01*
X100485053Y-77415047D01*
X100485051Y-77415046D01*
X100485049Y-77415045D01*
X100485050Y-77415045D01*
X100346963Y-77374500D01*
X100346961Y-77374500D01*
X100203039Y-77374500D01*
X100203036Y-77374500D01*
X100064949Y-77415045D01*
X99943873Y-77492856D01*
X99849623Y-77601626D01*
X99849622Y-77601628D01*
X99789834Y-77732543D01*
X99769353Y-77875000D01*
X94989441Y-77875000D01*
X94935053Y-77840047D01*
X94935051Y-77840046D01*
X94935049Y-77840045D01*
X94935050Y-77840045D01*
X94796963Y-77799500D01*
X94796961Y-77799500D01*
X94653039Y-77799500D01*
X94653036Y-77799500D01*
X94514949Y-77840045D01*
X94393873Y-77917856D01*
X94299623Y-78026626D01*
X94299622Y-78026628D01*
X94239834Y-78157543D01*
X94219353Y-78300000D01*
X90750500Y-78300000D01*
X90750500Y-77970730D01*
X90747646Y-77940300D01*
X90747646Y-77940298D01*
X90702793Y-77812119D01*
X90702792Y-77812117D01*
X90622150Y-77702850D01*
X90512882Y-77622207D01*
X90512880Y-77622206D01*
X90384700Y-77577353D01*
X90354270Y-77574500D01*
X90354266Y-77574500D01*
X89295734Y-77574500D01*
X89295730Y-77574500D01*
X89265300Y-77577353D01*
X89265298Y-77577353D01*
X89137119Y-77622206D01*
X89137117Y-77622207D01*
X89027850Y-77702850D01*
X88947207Y-77812117D01*
X88947206Y-77812119D01*
X88902353Y-77940298D01*
X88902353Y-77940300D01*
X88899500Y-77970730D01*
X82531779Y-77970730D01*
X82512191Y-75150000D01*
X89144353Y-75150000D01*
X89164834Y-75292456D01*
X89224622Y-75423371D01*
X89224623Y-75423373D01*
X89318872Y-75532143D01*
X89439947Y-75609953D01*
X89439950Y-75609954D01*
X89439949Y-75609954D01*
X89578036Y-75650499D01*
X89578038Y-75650500D01*
X89578039Y-75650500D01*
X89721962Y-75650500D01*
X89721962Y-75650499D01*
X89860053Y-75609953D01*
X89875540Y-75600000D01*
X92894353Y-75600000D01*
X92914834Y-75742456D01*
X92967211Y-75857143D01*
X92974623Y-75873373D01*
X93068872Y-75982143D01*
X93189947Y-76059953D01*
X93189950Y-76059954D01*
X93189949Y-76059954D01*
X93328036Y-76100499D01*
X93328038Y-76100500D01*
X93328039Y-76100500D01*
X93471962Y-76100500D01*
X93471962Y-76100499D01*
X93610053Y-76059953D01*
X93731128Y-75982143D01*
X93825377Y-75873373D01*
X93885165Y-75742457D01*
X93905647Y-75600000D01*
X93898458Y-75550000D01*
X95194353Y-75550000D01*
X95214834Y-75692456D01*
X95229925Y-75725499D01*
X95274623Y-75823373D01*
X95368872Y-75932143D01*
X95489947Y-76009953D01*
X95489950Y-76009954D01*
X95489949Y-76009954D01*
X95628036Y-76050499D01*
X95628038Y-76050500D01*
X95628039Y-76050500D01*
X95771962Y-76050500D01*
X95771962Y-76050499D01*
X95910053Y-76009953D01*
X96031128Y-75932143D01*
X96125377Y-75823373D01*
X96185165Y-75692457D01*
X96205647Y-75550000D01*
X96185165Y-75407543D01*
X96125377Y-75276627D01*
X96031128Y-75167857D01*
X95910053Y-75090047D01*
X95910051Y-75090046D01*
X95910049Y-75090045D01*
X95910050Y-75090045D01*
X95771963Y-75049500D01*
X95771961Y-75049500D01*
X95628039Y-75049500D01*
X95628036Y-75049500D01*
X95489949Y-75090045D01*
X95368873Y-75167856D01*
X95274623Y-75276626D01*
X95274622Y-75276628D01*
X95214834Y-75407543D01*
X95194353Y-75550000D01*
X93898458Y-75550000D01*
X93885165Y-75457543D01*
X93825377Y-75326627D01*
X93731128Y-75217857D01*
X93610053Y-75140047D01*
X93610051Y-75140046D01*
X93610049Y-75140045D01*
X93610050Y-75140045D01*
X93471963Y-75099500D01*
X93471961Y-75099500D01*
X93328039Y-75099500D01*
X93328036Y-75099500D01*
X93189949Y-75140045D01*
X93068873Y-75217856D01*
X92974623Y-75326626D01*
X92974622Y-75326628D01*
X92914834Y-75457543D01*
X92894353Y-75600000D01*
X89875540Y-75600000D01*
X89981128Y-75532143D01*
X90075377Y-75423373D01*
X90135165Y-75292457D01*
X90155647Y-75150000D01*
X90135165Y-75007543D01*
X90075377Y-74876627D01*
X89981128Y-74767857D01*
X89860053Y-74690047D01*
X89860051Y-74690046D01*
X89860049Y-74690045D01*
X89860050Y-74690045D01*
X89721963Y-74649500D01*
X89721961Y-74649500D01*
X89578039Y-74649500D01*
X89578036Y-74649500D01*
X89439949Y-74690045D01*
X89318873Y-74767856D01*
X89224623Y-74876626D01*
X89224622Y-74876628D01*
X89164834Y-75007543D01*
X89144353Y-75150000D01*
X82512191Y-75150000D01*
X82506809Y-74375000D01*
X91344353Y-74375000D01*
X91364834Y-74517456D01*
X91405976Y-74607543D01*
X91424623Y-74648373D01*
X91518872Y-74757143D01*
X91639947Y-74834953D01*
X91639950Y-74834954D01*
X91639949Y-74834954D01*
X91778036Y-74875499D01*
X91778038Y-74875500D01*
X91778039Y-74875500D01*
X91921962Y-74875500D01*
X91921962Y-74875499D01*
X92060053Y-74834953D01*
X92181128Y-74757143D01*
X92275377Y-74648373D01*
X92335165Y-74517457D01*
X92355647Y-74375000D01*
X92335165Y-74232543D01*
X92275377Y-74101627D01*
X92181128Y-73992857D01*
X92060053Y-73915047D01*
X92060051Y-73915046D01*
X92060049Y-73915045D01*
X92060050Y-73915045D01*
X91921963Y-73874500D01*
X91921961Y-73874500D01*
X91778039Y-73874500D01*
X91778036Y-73874500D01*
X91639949Y-73915045D01*
X91518873Y-73992856D01*
X91424623Y-74101626D01*
X91424622Y-74101628D01*
X91364834Y-74232543D01*
X91344353Y-74375000D01*
X82506809Y-74375000D01*
X82495316Y-72719999D01*
X83136836Y-72719999D01*
X83136836Y-72720000D01*
X83157449Y-72942454D01*
X83157449Y-72942456D01*
X83157450Y-72942459D01*
X83218589Y-73157342D01*
X83218590Y-73157345D01*
X83318169Y-73357326D01*
X83318174Y-73357334D01*
X83452810Y-73535621D01*
X83617911Y-73686130D01*
X83617913Y-73686132D01*
X83807857Y-73803740D01*
X83807858Y-73803740D01*
X83807861Y-73803742D01*
X84016186Y-73884448D01*
X84235794Y-73925500D01*
X84235796Y-73925500D01*
X84459204Y-73925500D01*
X84459206Y-73925500D01*
X84678814Y-73884448D01*
X84887139Y-73803742D01*
X85077088Y-73686131D01*
X85242191Y-73535619D01*
X85376827Y-73357332D01*
X85476411Y-73157342D01*
X85537550Y-72942459D01*
X85551500Y-72791920D01*
X86867999Y-72791920D01*
X86896840Y-72936907D01*
X86896843Y-72936917D01*
X86953412Y-73073488D01*
X86953419Y-73073501D01*
X87035548Y-73196415D01*
X87035551Y-73196419D01*
X87140080Y-73300948D01*
X87140084Y-73300951D01*
X87262998Y-73383080D01*
X87263011Y-73383087D01*
X87399582Y-73439656D01*
X87399587Y-73439658D01*
X87399591Y-73439658D01*
X87399592Y-73439659D01*
X87544579Y-73468500D01*
X87544582Y-73468500D01*
X88692420Y-73468500D01*
X88789962Y-73449096D01*
X88837413Y-73439658D01*
X88973995Y-73383084D01*
X89096916Y-73300951D01*
X89201451Y-73196416D01*
X89283584Y-73073495D01*
X89340158Y-72936913D01*
X89369000Y-72791918D01*
X89369000Y-72644082D01*
X89369000Y-72644079D01*
X89340159Y-72499092D01*
X89340158Y-72499091D01*
X89340158Y-72499087D01*
X89339518Y-72497541D01*
X89283587Y-72362511D01*
X89283580Y-72362498D01*
X89201451Y-72239584D01*
X89201448Y-72239580D01*
X89096919Y-72135051D01*
X89096915Y-72135048D01*
X88974001Y-72052919D01*
X88973988Y-72052912D01*
X88837417Y-71996343D01*
X88837407Y-71996340D01*
X88692420Y-71967500D01*
X88692418Y-71967500D01*
X87544582Y-71967500D01*
X87544580Y-71967500D01*
X87399592Y-71996340D01*
X87399582Y-71996343D01*
X87263011Y-72052912D01*
X87262998Y-72052919D01*
X87140084Y-72135048D01*
X87140080Y-72135051D01*
X87035551Y-72239580D01*
X87035548Y-72239584D01*
X86953419Y-72362498D01*
X86953412Y-72362511D01*
X86896843Y-72499082D01*
X86896840Y-72499092D01*
X86868000Y-72644079D01*
X86868000Y-72644082D01*
X86868000Y-72791918D01*
X86868000Y-72791920D01*
X86867999Y-72791920D01*
X85551500Y-72791920D01*
X85558164Y-72720000D01*
X85537550Y-72497541D01*
X85476411Y-72282658D01*
X85402910Y-72135049D01*
X85376830Y-72082673D01*
X85376825Y-72082665D01*
X85242189Y-71904378D01*
X85077088Y-71753869D01*
X85077086Y-71753867D01*
X84887142Y-71636259D01*
X84887136Y-71636257D01*
X84862281Y-71626628D01*
X84678814Y-71555552D01*
X84459206Y-71514500D01*
X84235794Y-71514500D01*
X84016186Y-71555552D01*
X83905431Y-71598459D01*
X83807863Y-71636257D01*
X83807857Y-71636259D01*
X83617913Y-71753867D01*
X83617911Y-71753869D01*
X83452810Y-71904378D01*
X83318174Y-72082665D01*
X83318169Y-72082673D01*
X83218590Y-72282654D01*
X83157449Y-72497545D01*
X83136836Y-72719999D01*
X82495316Y-72719999D01*
X82480623Y-70604196D01*
X83775001Y-70604196D01*
X83777851Y-70634606D01*
X83822653Y-70762645D01*
X83903207Y-70871792D01*
X84012354Y-70952346D01*
X84140397Y-70997149D01*
X84170778Y-70999998D01*
X84170806Y-70999999D01*
X84737500Y-70999999D01*
X84804196Y-70999999D01*
X84834606Y-70997148D01*
X84962645Y-70952346D01*
X85071792Y-70871792D01*
X85152346Y-70762645D01*
X85197149Y-70634604D01*
X85197149Y-70634600D01*
X85200000Y-70604206D01*
X85200000Y-70350000D01*
X84737500Y-70350000D01*
X84737500Y-70999999D01*
X84170806Y-70999999D01*
X84237499Y-70999998D01*
X84237500Y-70999998D01*
X84237500Y-70350000D01*
X83775001Y-70350000D01*
X83775001Y-70604196D01*
X82480623Y-70604196D01*
X82473620Y-69595793D01*
X83775000Y-69595793D01*
X83775000Y-69850000D01*
X84237500Y-69850000D01*
X84737500Y-69850000D01*
X85199999Y-69850000D01*
X85199999Y-69595803D01*
X85199992Y-69595730D01*
X85599500Y-69595730D01*
X85599500Y-70604269D01*
X85602353Y-70634699D01*
X85602353Y-70634701D01*
X85647124Y-70762645D01*
X85647207Y-70762882D01*
X85727850Y-70872150D01*
X85837118Y-70952793D01*
X85879845Y-70967744D01*
X85965299Y-70997646D01*
X85995730Y-71000500D01*
X85995734Y-71000500D01*
X86629270Y-71000500D01*
X86659699Y-70997646D01*
X86659701Y-70997646D01*
X86723790Y-70975219D01*
X86787882Y-70952793D01*
X86897150Y-70872150D01*
X86977793Y-70762882D01*
X87008544Y-70675000D01*
X87022646Y-70634701D01*
X87022646Y-70634699D01*
X87025500Y-70604269D01*
X87025500Y-69595730D01*
X87022646Y-69565300D01*
X87022646Y-69565298D01*
X86984800Y-69457143D01*
X86977793Y-69437118D01*
X86897150Y-69327850D01*
X86787882Y-69247207D01*
X86787880Y-69247206D01*
X86659700Y-69202353D01*
X86629270Y-69199500D01*
X86629266Y-69199500D01*
X85995734Y-69199500D01*
X85995730Y-69199500D01*
X85965300Y-69202353D01*
X85965298Y-69202353D01*
X85837119Y-69247206D01*
X85837117Y-69247207D01*
X85727850Y-69327850D01*
X85647207Y-69437117D01*
X85647206Y-69437119D01*
X85602353Y-69565298D01*
X85602353Y-69565300D01*
X85599500Y-69595730D01*
X85199992Y-69595730D01*
X85197148Y-69565393D01*
X85152346Y-69437354D01*
X85071792Y-69328207D01*
X84962645Y-69247653D01*
X84834602Y-69202850D01*
X84804207Y-69200000D01*
X84737500Y-69200000D01*
X84737500Y-69850000D01*
X84237500Y-69850000D01*
X84237500Y-69200000D01*
X84237499Y-69199999D01*
X84170804Y-69200000D01*
X84140393Y-69202851D01*
X84012354Y-69247653D01*
X83903207Y-69328207D01*
X83822653Y-69437354D01*
X83777850Y-69565395D01*
X83777850Y-69565399D01*
X83775000Y-69595793D01*
X82473620Y-69595793D01*
X82460137Y-67654196D01*
X83775001Y-67654196D01*
X83777851Y-67684606D01*
X83822653Y-67812645D01*
X83903207Y-67921792D01*
X84012354Y-68002346D01*
X84140397Y-68047149D01*
X84170778Y-68049998D01*
X84170806Y-68049999D01*
X84737500Y-68049999D01*
X84804196Y-68049999D01*
X84834606Y-68047148D01*
X84962645Y-68002346D01*
X85071792Y-67921792D01*
X85152346Y-67812645D01*
X85197149Y-67684604D01*
X85197149Y-67684600D01*
X85200000Y-67654206D01*
X85200000Y-67400000D01*
X84737500Y-67400000D01*
X84737500Y-68049999D01*
X84170806Y-68049999D01*
X84237499Y-68049998D01*
X84237500Y-68049998D01*
X84237500Y-67400000D01*
X83775001Y-67400000D01*
X83775001Y-67654196D01*
X82460137Y-67654196D01*
X82453134Y-66645793D01*
X83775000Y-66645793D01*
X83775000Y-66900000D01*
X84237500Y-66900000D01*
X84737500Y-66900000D01*
X85199999Y-66900000D01*
X85199999Y-66645803D01*
X85199992Y-66645730D01*
X85599500Y-66645730D01*
X85599500Y-67654269D01*
X85602353Y-67684699D01*
X85602353Y-67684701D01*
X85647124Y-67812645D01*
X85647207Y-67812882D01*
X85727850Y-67922150D01*
X85837118Y-68002793D01*
X85847035Y-68006263D01*
X85965299Y-68047646D01*
X85995730Y-68050500D01*
X85995734Y-68050500D01*
X86629270Y-68050500D01*
X86659699Y-68047646D01*
X86659701Y-68047646D01*
X86724418Y-68025000D01*
X86787882Y-68002793D01*
X86897150Y-67922150D01*
X86977793Y-67812882D01*
X87000219Y-67748790D01*
X87022646Y-67684701D01*
X87022646Y-67684699D01*
X87025500Y-67654269D01*
X87025500Y-67005247D01*
X92599500Y-67005247D01*
X92599500Y-68544752D01*
X92611131Y-68603229D01*
X92611132Y-68603230D01*
X92655447Y-68669552D01*
X92721769Y-68713867D01*
X92721770Y-68713868D01*
X92780247Y-68725499D01*
X92780250Y-68725500D01*
X92780252Y-68725500D01*
X94319750Y-68725500D01*
X94319751Y-68725499D01*
X94334568Y-68722552D01*
X94378229Y-68713868D01*
X94378229Y-68713867D01*
X94378231Y-68713867D01*
X94444552Y-68669552D01*
X94488867Y-68603231D01*
X94488867Y-68603229D01*
X94488868Y-68603229D01*
X94500499Y-68544752D01*
X94500500Y-68544750D01*
X94500500Y-67005249D01*
X94500499Y-67005247D01*
X94488868Y-66946770D01*
X94488867Y-66946769D01*
X94444552Y-66880447D01*
X94378230Y-66836132D01*
X94378229Y-66836131D01*
X94319752Y-66824500D01*
X94319748Y-66824500D01*
X92780252Y-66824500D01*
X92780247Y-66824500D01*
X92721770Y-66836131D01*
X92721769Y-66836132D01*
X92655447Y-66880447D01*
X92611132Y-66946769D01*
X92611131Y-66946770D01*
X92599500Y-67005247D01*
X87025500Y-67005247D01*
X87025500Y-66645730D01*
X87022646Y-66615300D01*
X87022646Y-66615298D01*
X86978880Y-66490224D01*
X86977793Y-66487118D01*
X86897150Y-66377850D01*
X86787882Y-66297207D01*
X86787880Y-66297206D01*
X86659700Y-66252353D01*
X86629270Y-66249500D01*
X86629266Y-66249500D01*
X85995734Y-66249500D01*
X85995730Y-66249500D01*
X85965300Y-66252353D01*
X85965298Y-66252353D01*
X85837119Y-66297206D01*
X85837117Y-66297207D01*
X85727850Y-66377850D01*
X85647207Y-66487117D01*
X85647206Y-66487119D01*
X85602353Y-66615298D01*
X85602353Y-66615300D01*
X85599500Y-66645730D01*
X85199992Y-66645730D01*
X85197148Y-66615393D01*
X85152346Y-66487354D01*
X85071792Y-66378207D01*
X84962645Y-66297653D01*
X84834602Y-66252850D01*
X84804207Y-66250000D01*
X84737500Y-66250000D01*
X84737500Y-66900000D01*
X84237500Y-66900000D01*
X84237500Y-66250000D01*
X84237499Y-66249999D01*
X84170804Y-66250000D01*
X84140393Y-66252851D01*
X84012354Y-66297653D01*
X83903207Y-66378207D01*
X83822653Y-66487354D01*
X83777850Y-66615395D01*
X83777850Y-66615399D01*
X83775000Y-66645793D01*
X82453134Y-66645793D01*
X82445003Y-65475000D01*
X90969353Y-65475000D01*
X90989834Y-65617456D01*
X91038949Y-65725000D01*
X91049623Y-65748373D01*
X91143872Y-65857143D01*
X91264947Y-65934953D01*
X91264950Y-65934954D01*
X91264949Y-65934954D01*
X91403036Y-65975499D01*
X91403038Y-65975500D01*
X91403039Y-65975500D01*
X91546962Y-65975500D01*
X91546962Y-65975499D01*
X91654121Y-65944035D01*
X91685050Y-65934954D01*
X91685050Y-65934953D01*
X91685053Y-65934953D01*
X91806128Y-65857143D01*
X91900377Y-65748373D01*
X91911051Y-65725000D01*
X96344353Y-65725000D01*
X96364834Y-65867456D01*
X96388738Y-65919797D01*
X96424623Y-65998373D01*
X96424627Y-65998378D01*
X96429418Y-66005833D01*
X96426364Y-66007795D01*
X96448235Y-66055663D01*
X96449500Y-66073332D01*
X96449500Y-68572273D01*
X96449500Y-68677727D01*
X96459184Y-68713868D01*
X96476793Y-68779589D01*
X96489517Y-68801627D01*
X96529520Y-68870913D01*
X96529522Y-68870915D01*
X99134408Y-71475801D01*
X99167893Y-71537124D01*
X99162909Y-71606816D01*
X99121037Y-71662749D01*
X99113767Y-71667797D01*
X99016425Y-71730355D01*
X98922174Y-71839126D01*
X98922173Y-71839128D01*
X98862385Y-71970043D01*
X98841904Y-72112500D01*
X98862385Y-72254956D01*
X98910337Y-72359954D01*
X98922174Y-72385873D01*
X99016423Y-72494643D01*
X99137498Y-72572453D01*
X99137501Y-72572454D01*
X99137500Y-72572454D01*
X99275587Y-72612999D01*
X99275589Y-72613000D01*
X99275590Y-72613000D01*
X99419513Y-72613000D01*
X99419513Y-72612999D01*
X99557604Y-72572453D01*
X99678679Y-72494643D01*
X99731788Y-72433351D01*
X99790565Y-72395578D01*
X99860435Y-72395578D01*
X99919213Y-72433352D01*
X99948238Y-72496908D01*
X99949500Y-72514555D01*
X99949500Y-74401667D01*
X99929815Y-74468706D01*
X99929094Y-74469669D01*
X99924622Y-74476628D01*
X99864834Y-74607543D01*
X99844353Y-74750000D01*
X99864834Y-74892456D01*
X99924622Y-75023371D01*
X99924623Y-75023373D01*
X100018872Y-75132143D01*
X100139947Y-75209953D01*
X100139950Y-75209954D01*
X100139949Y-75209954D01*
X100278036Y-75250499D01*
X100278038Y-75250500D01*
X100278039Y-75250500D01*
X100421962Y-75250500D01*
X100421962Y-75250499D01*
X100508806Y-75225000D01*
X102019353Y-75225000D01*
X102039834Y-75367456D01*
X102065370Y-75423371D01*
X102099623Y-75498373D01*
X102193872Y-75607143D01*
X102314947Y-75684953D01*
X102314950Y-75684954D01*
X102314949Y-75684954D01*
X102453036Y-75725499D01*
X102453038Y-75725500D01*
X102453039Y-75725500D01*
X102596962Y-75725500D01*
X102596962Y-75725499D01*
X102735053Y-75684953D01*
X102856128Y-75607143D01*
X102950377Y-75498373D01*
X102961051Y-75475000D01*
X103644353Y-75475000D01*
X103664834Y-75617456D01*
X103714177Y-75725499D01*
X103724623Y-75748373D01*
X103818872Y-75857143D01*
X103939947Y-75934953D01*
X103939950Y-75934954D01*
X103939949Y-75934954D01*
X104078036Y-75975499D01*
X104078038Y-75975500D01*
X104078039Y-75975500D01*
X104221962Y-75975500D01*
X104221962Y-75975499D01*
X104360053Y-75934953D01*
X104481128Y-75857143D01*
X104575377Y-75748373D01*
X104635165Y-75617457D01*
X104655647Y-75475000D01*
X104635165Y-75332543D01*
X104575377Y-75201627D01*
X104481128Y-75092857D01*
X104360053Y-75015047D01*
X104360051Y-75015046D01*
X104360049Y-75015045D01*
X104360050Y-75015045D01*
X104221963Y-74974500D01*
X104221961Y-74974500D01*
X104078039Y-74974500D01*
X104078036Y-74974500D01*
X103939949Y-75015045D01*
X103818873Y-75092856D01*
X103724623Y-75201626D01*
X103724622Y-75201628D01*
X103664834Y-75332543D01*
X103644353Y-75475000D01*
X102961051Y-75475000D01*
X103010165Y-75367457D01*
X103030647Y-75225000D01*
X103010165Y-75082543D01*
X102950377Y-74951627D01*
X102856128Y-74842857D01*
X102735053Y-74765047D01*
X102735051Y-74765046D01*
X102735049Y-74765045D01*
X102735050Y-74765045D01*
X102596963Y-74724500D01*
X102596961Y-74724500D01*
X102453039Y-74724500D01*
X102453036Y-74724500D01*
X102314949Y-74765045D01*
X102193873Y-74842856D01*
X102099623Y-74951626D01*
X102099622Y-74951628D01*
X102039834Y-75082543D01*
X102019353Y-75225000D01*
X100508806Y-75225000D01*
X100560053Y-75209953D01*
X100681128Y-75132143D01*
X100775377Y-75023373D01*
X100835165Y-74892457D01*
X100855647Y-74750000D01*
X100835165Y-74607543D01*
X100775377Y-74476627D01*
X100775374Y-74476624D01*
X100770582Y-74469166D01*
X100773621Y-74467212D01*
X100751749Y-74419224D01*
X100750500Y-74401667D01*
X100750500Y-72072275D01*
X100750500Y-72072273D01*
X100723207Y-71970413D01*
X100670480Y-71879087D01*
X100595913Y-71804520D01*
X99666393Y-70875000D01*
X101694353Y-70875000D01*
X101714834Y-71017456D01*
X101735744Y-71063241D01*
X101774623Y-71148373D01*
X101868872Y-71257143D01*
X101989947Y-71334953D01*
X101989950Y-71334954D01*
X101989949Y-71334954D01*
X102128036Y-71375499D01*
X102128038Y-71375500D01*
X102128039Y-71375500D01*
X102271962Y-71375500D01*
X102271962Y-71375499D01*
X102410053Y-71334953D01*
X102531128Y-71257143D01*
X102625377Y-71148373D01*
X102685165Y-71017457D01*
X102705647Y-70875000D01*
X104869353Y-70875000D01*
X104889834Y-71017456D01*
X104910744Y-71063241D01*
X104949623Y-71148373D01*
X105043872Y-71257143D01*
X105164947Y-71334953D01*
X105164950Y-71334954D01*
X105164949Y-71334954D01*
X105303036Y-71375499D01*
X105303038Y-71375500D01*
X105303039Y-71375500D01*
X105446962Y-71375500D01*
X105446962Y-71375499D01*
X105585053Y-71334953D01*
X105706128Y-71257143D01*
X105800377Y-71148373D01*
X105860165Y-71017457D01*
X105880647Y-70875000D01*
X105860165Y-70732543D01*
X105800377Y-70601627D01*
X105706128Y-70492857D01*
X105585053Y-70415047D01*
X105585051Y-70415046D01*
X105585049Y-70415045D01*
X105585050Y-70415045D01*
X105446963Y-70374500D01*
X105446961Y-70374500D01*
X105303039Y-70374500D01*
X105303036Y-70374500D01*
X105164949Y-70415045D01*
X105043873Y-70492856D01*
X104949623Y-70601626D01*
X104949622Y-70601628D01*
X104889834Y-70732543D01*
X104869353Y-70875000D01*
X102705647Y-70875000D01*
X102685165Y-70732543D01*
X102625377Y-70601627D01*
X102531128Y-70492857D01*
X102410053Y-70415047D01*
X102410051Y-70415046D01*
X102410049Y-70415045D01*
X102410050Y-70415045D01*
X102271963Y-70374500D01*
X102271961Y-70374500D01*
X102128039Y-70374500D01*
X102128036Y-70374500D01*
X101989949Y-70415045D01*
X101868873Y-70492856D01*
X101774623Y-70601626D01*
X101774622Y-70601628D01*
X101714834Y-70732543D01*
X101694353Y-70875000D01*
X99666393Y-70875000D01*
X97866393Y-69075000D01*
X98844353Y-69075000D01*
X98864834Y-69217456D01*
X98878625Y-69247653D01*
X98924623Y-69348373D01*
X99018872Y-69457143D01*
X99139947Y-69534953D01*
X99139950Y-69534954D01*
X99139949Y-69534954D01*
X99278036Y-69575499D01*
X99278038Y-69575500D01*
X99278039Y-69575500D01*
X99421962Y-69575500D01*
X99421962Y-69575499D01*
X99560053Y-69534953D01*
X99681128Y-69457143D01*
X99775377Y-69348373D01*
X99835165Y-69217457D01*
X99855647Y-69075000D01*
X99835165Y-68932543D01*
X99775377Y-68801627D01*
X99681128Y-68692857D01*
X99560053Y-68615047D01*
X99560051Y-68615046D01*
X99560049Y-68615045D01*
X99560050Y-68615045D01*
X99421963Y-68574500D01*
X99421961Y-68574500D01*
X99278039Y-68574500D01*
X99278036Y-68574500D01*
X99139949Y-68615045D01*
X99018873Y-68692856D01*
X98924623Y-68801626D01*
X98924622Y-68801628D01*
X98864834Y-68932543D01*
X98844353Y-69075000D01*
X97866393Y-69075000D01*
X97286819Y-68495426D01*
X97253334Y-68434103D01*
X97250500Y-68407745D01*
X97250500Y-66073332D01*
X97270185Y-66006293D01*
X97270901Y-66005336D01*
X97275368Y-65998382D01*
X97275377Y-65998373D01*
X97335165Y-65867457D01*
X97355647Y-65725000D01*
X97335165Y-65582543D01*
X97275377Y-65451627D01*
X97181128Y-65342857D01*
X97060053Y-65265047D01*
X97060051Y-65265046D01*
X97060049Y-65265045D01*
X97060050Y-65265045D01*
X96921963Y-65224500D01*
X96921961Y-65224500D01*
X96778039Y-65224500D01*
X96778036Y-65224500D01*
X96639949Y-65265045D01*
X96518873Y-65342856D01*
X96424623Y-65451626D01*
X96424622Y-65451628D01*
X96364834Y-65582543D01*
X96344353Y-65725000D01*
X91911051Y-65725000D01*
X91960165Y-65617457D01*
X91980647Y-65475000D01*
X91960165Y-65332543D01*
X91900377Y-65201627D01*
X91806128Y-65092857D01*
X91685053Y-65015047D01*
X91685051Y-65015046D01*
X91685049Y-65015045D01*
X91685050Y-65015045D01*
X91546963Y-64974500D01*
X91546961Y-64974500D01*
X91403039Y-64974500D01*
X91403036Y-64974500D01*
X91264949Y-65015045D01*
X91143873Y-65092856D01*
X91049623Y-65201626D01*
X91049622Y-65201628D01*
X90989834Y-65332543D01*
X90969353Y-65475000D01*
X82445003Y-65475000D01*
X82435316Y-64079999D01*
X83136836Y-64079999D01*
X83136836Y-64080000D01*
X83157449Y-64302454D01*
X83157449Y-64302456D01*
X83157450Y-64302459D01*
X83218589Y-64517342D01*
X83218590Y-64517345D01*
X83318169Y-64717326D01*
X83318174Y-64717334D01*
X83452810Y-64895621D01*
X83617911Y-65046130D01*
X83617913Y-65046132D01*
X83807857Y-65163740D01*
X83807858Y-65163740D01*
X83807861Y-65163742D01*
X84016186Y-65244448D01*
X84235794Y-65285500D01*
X84235796Y-65285500D01*
X84459204Y-65285500D01*
X84459206Y-65285500D01*
X84678814Y-65244448D01*
X84887139Y-65163742D01*
X85077088Y-65046131D01*
X85242191Y-64895619D01*
X85376827Y-64717332D01*
X85476411Y-64517342D01*
X85537550Y-64302459D01*
X85551129Y-64155920D01*
X86867999Y-64155920D01*
X86896840Y-64300907D01*
X86896843Y-64300917D01*
X86953412Y-64437488D01*
X86953419Y-64437501D01*
X87035548Y-64560415D01*
X87035551Y-64560419D01*
X87140080Y-64664948D01*
X87140084Y-64664951D01*
X87262998Y-64747080D01*
X87263011Y-64747087D01*
X87399582Y-64803656D01*
X87399587Y-64803658D01*
X87399591Y-64803658D01*
X87399592Y-64803659D01*
X87544579Y-64832500D01*
X87544582Y-64832500D01*
X88692420Y-64832500D01*
X88789962Y-64813096D01*
X88837413Y-64803658D01*
X88973995Y-64747084D01*
X89096916Y-64664951D01*
X89201451Y-64560416D01*
X89283584Y-64437495D01*
X89340158Y-64300913D01*
X89369000Y-64155918D01*
X89369000Y-64008082D01*
X89369000Y-64008079D01*
X89340159Y-63863092D01*
X89340158Y-63863091D01*
X89340158Y-63863087D01*
X89339817Y-63862264D01*
X89283587Y-63726511D01*
X89283580Y-63726498D01*
X89201451Y-63603584D01*
X89201448Y-63603580D01*
X89096919Y-63499051D01*
X89096915Y-63499048D01*
X88974001Y-63416919D01*
X88973988Y-63416912D01*
X88837417Y-63360343D01*
X88837407Y-63360340D01*
X88692420Y-63331500D01*
X88692418Y-63331500D01*
X87544582Y-63331500D01*
X87544580Y-63331500D01*
X87399592Y-63360340D01*
X87399582Y-63360343D01*
X87263011Y-63416912D01*
X87262998Y-63416919D01*
X87140084Y-63499048D01*
X87140080Y-63499051D01*
X87035551Y-63603580D01*
X87035548Y-63603584D01*
X86953419Y-63726498D01*
X86953412Y-63726511D01*
X86896843Y-63863082D01*
X86896840Y-63863092D01*
X86868000Y-64008079D01*
X86868000Y-64008082D01*
X86868000Y-64155918D01*
X86868000Y-64155920D01*
X86867999Y-64155920D01*
X85551129Y-64155920D01*
X85558164Y-64080000D01*
X85556306Y-64059954D01*
X85545967Y-63948371D01*
X85537550Y-63857541D01*
X85476411Y-63642658D01*
X85384234Y-63457543D01*
X85376830Y-63442673D01*
X85376825Y-63442665D01*
X85242189Y-63264378D01*
X85122478Y-63155247D01*
X92024500Y-63155247D01*
X92024500Y-64194752D01*
X92036131Y-64253229D01*
X92036132Y-64253230D01*
X92080447Y-64319552D01*
X92146769Y-64363867D01*
X92146770Y-64363868D01*
X92205247Y-64375499D01*
X92205250Y-64375500D01*
X92205252Y-64375500D01*
X93244750Y-64375500D01*
X93244751Y-64375499D01*
X93259568Y-64372552D01*
X93303229Y-64363868D01*
X93303229Y-64363867D01*
X93303231Y-64363867D01*
X93369552Y-64319552D01*
X93413867Y-64253231D01*
X93413867Y-64253229D01*
X93413868Y-64253229D01*
X93425499Y-64194752D01*
X93425500Y-64194750D01*
X93425500Y-63155249D01*
X93425499Y-63155247D01*
X93413868Y-63096770D01*
X93413867Y-63096769D01*
X93369552Y-63030447D01*
X93303230Y-62986132D01*
X93303229Y-62986131D01*
X93244752Y-62974500D01*
X93244748Y-62974500D01*
X92205252Y-62974500D01*
X92205247Y-62974500D01*
X92146770Y-62986131D01*
X92146769Y-62986132D01*
X92080447Y-63030447D01*
X92036132Y-63096769D01*
X92036131Y-63096770D01*
X92024500Y-63155247D01*
X85122478Y-63155247D01*
X85077088Y-63113869D01*
X85077086Y-63113867D01*
X84887142Y-62996259D01*
X84887136Y-62996257D01*
X84862477Y-62986704D01*
X84678814Y-62915552D01*
X84459206Y-62874500D01*
X84235794Y-62874500D01*
X84016186Y-62915552D01*
X83884443Y-62966589D01*
X83807863Y-62996257D01*
X83807857Y-62996259D01*
X83617913Y-63113867D01*
X83617911Y-63113869D01*
X83452810Y-63264378D01*
X83318174Y-63442665D01*
X83318169Y-63442673D01*
X83218590Y-63642654D01*
X83218589Y-63642658D01*
X83167643Y-63821718D01*
X83157449Y-63857545D01*
X83136836Y-64079999D01*
X82435316Y-64079999D01*
X82403684Y-59525000D01*
X82994353Y-59525000D01*
X83014834Y-59667456D01*
X83053807Y-59752793D01*
X83074623Y-59798373D01*
X83168872Y-59907143D01*
X83289947Y-59984953D01*
X83289950Y-59984954D01*
X83289949Y-59984954D01*
X83428036Y-60025499D01*
X83428038Y-60025500D01*
X83428039Y-60025500D01*
X83571962Y-60025500D01*
X83571962Y-60025499D01*
X83710053Y-59984953D01*
X83831128Y-59907143D01*
X83925377Y-59798373D01*
X83956489Y-59730247D01*
X87099500Y-59730247D01*
X87099500Y-60769752D01*
X87111131Y-60828229D01*
X87111132Y-60828230D01*
X87155447Y-60894552D01*
X87221769Y-60938867D01*
X87221770Y-60938868D01*
X87280247Y-60950499D01*
X87280250Y-60950500D01*
X87280252Y-60950500D01*
X88319750Y-60950500D01*
X88319751Y-60950499D01*
X88334568Y-60947552D01*
X88378229Y-60938868D01*
X88378229Y-60938867D01*
X88378231Y-60938867D01*
X88444552Y-60894552D01*
X88488867Y-60828231D01*
X88488867Y-60828229D01*
X88488868Y-60828229D01*
X88500499Y-60769752D01*
X88500500Y-60769750D01*
X88500500Y-59730249D01*
X88500499Y-59730247D01*
X88488868Y-59671770D01*
X88488867Y-59671769D01*
X88444552Y-59605447D01*
X88378230Y-59561132D01*
X88378229Y-59561131D01*
X88319752Y-59549500D01*
X88319748Y-59549500D01*
X87280252Y-59549500D01*
X87280247Y-59549500D01*
X87221770Y-59561131D01*
X87221769Y-59561132D01*
X87155447Y-59605447D01*
X87111132Y-59671769D01*
X87111131Y-59671770D01*
X87099500Y-59730247D01*
X83956489Y-59730247D01*
X83985165Y-59667457D01*
X84005647Y-59525000D01*
X83985165Y-59382543D01*
X83925377Y-59251627D01*
X83831128Y-59142857D01*
X83710053Y-59065047D01*
X83710051Y-59065046D01*
X83710049Y-59065045D01*
X83710050Y-59065045D01*
X83571963Y-59024500D01*
X83571961Y-59024500D01*
X83428039Y-59024500D01*
X83428036Y-59024500D01*
X83289949Y-59065045D01*
X83168873Y-59142856D01*
X83074623Y-59251626D01*
X83074622Y-59251628D01*
X83014834Y-59382543D01*
X82994353Y-59525000D01*
X82403684Y-59525000D01*
X82397434Y-58625000D01*
X90544353Y-58625000D01*
X90564834Y-58767456D01*
X90613294Y-58873565D01*
X90624500Y-58925077D01*
X90624500Y-59404269D01*
X90627353Y-59434699D01*
X90627353Y-59434701D01*
X90671595Y-59561133D01*
X90672207Y-59562882D01*
X90752850Y-59672150D01*
X90862118Y-59752793D01*
X90904845Y-59767744D01*
X90990299Y-59797646D01*
X91020730Y-59800500D01*
X91020734Y-59800500D01*
X91654270Y-59800500D01*
X91684699Y-59797646D01*
X91684701Y-59797646D01*
X91748790Y-59775219D01*
X91812882Y-59752793D01*
X91922150Y-59672150D01*
X92002793Y-59562882D01*
X92033544Y-59475000D01*
X92047646Y-59434701D01*
X92047646Y-59434699D01*
X92050500Y-59404269D01*
X92050500Y-58395730D01*
X92449500Y-58395730D01*
X92449500Y-59404269D01*
X92452353Y-59434699D01*
X92452353Y-59434701D01*
X92496595Y-59561133D01*
X92497207Y-59562882D01*
X92577850Y-59672150D01*
X92687118Y-59752793D01*
X92729845Y-59767744D01*
X92815299Y-59797646D01*
X92845730Y-59800500D01*
X92845734Y-59800500D01*
X93479270Y-59800500D01*
X93509699Y-59797646D01*
X93509701Y-59797646D01*
X93573790Y-59775219D01*
X93637882Y-59752793D01*
X93747150Y-59672150D01*
X93827793Y-59562882D01*
X93858544Y-59475000D01*
X101669353Y-59475000D01*
X101689834Y-59617456D01*
X101741345Y-59730247D01*
X101749623Y-59748373D01*
X101843872Y-59857143D01*
X101964947Y-59934953D01*
X101964950Y-59934954D01*
X101964949Y-59934954D01*
X102103036Y-59975499D01*
X102103038Y-59975500D01*
X102103039Y-59975500D01*
X102246962Y-59975500D01*
X102246962Y-59975499D01*
X102385053Y-59934953D01*
X102506128Y-59857143D01*
X102600377Y-59748373D01*
X102660165Y-59617457D01*
X102680647Y-59475000D01*
X102660165Y-59332543D01*
X102600377Y-59201627D01*
X102506128Y-59092857D01*
X102385053Y-59015047D01*
X102385051Y-59015046D01*
X102385049Y-59015045D01*
X102385050Y-59015045D01*
X102246963Y-58974500D01*
X102246961Y-58974500D01*
X102103039Y-58974500D01*
X102103036Y-58974500D01*
X101964949Y-59015045D01*
X101843873Y-59092856D01*
X101749623Y-59201626D01*
X101749622Y-59201628D01*
X101689834Y-59332543D01*
X101669353Y-59475000D01*
X93858544Y-59475000D01*
X93872646Y-59434701D01*
X93872646Y-59434699D01*
X93875500Y-59404269D01*
X93875500Y-58395730D01*
X93872646Y-58365300D01*
X93872646Y-58365298D01*
X93839006Y-58269163D01*
X93827793Y-58237118D01*
X93747150Y-58127850D01*
X93637882Y-58047207D01*
X93637880Y-58047206D01*
X93509700Y-58002353D01*
X93479270Y-57999500D01*
X93479266Y-57999500D01*
X92845734Y-57999500D01*
X92845730Y-57999500D01*
X92815300Y-58002353D01*
X92815298Y-58002353D01*
X92687119Y-58047206D01*
X92687117Y-58047207D01*
X92577850Y-58127850D01*
X92497207Y-58237117D01*
X92497206Y-58237119D01*
X92452353Y-58365298D01*
X92452353Y-58365300D01*
X92449500Y-58395730D01*
X92050500Y-58395730D01*
X92047646Y-58365300D01*
X92047646Y-58365298D01*
X92014006Y-58269163D01*
X92002793Y-58237118D01*
X91922150Y-58127850D01*
X91812882Y-58047207D01*
X91812880Y-58047206D01*
X91684700Y-58002353D01*
X91654270Y-57999500D01*
X91654266Y-57999500D01*
X91020734Y-57999500D01*
X91020730Y-57999500D01*
X90990300Y-58002353D01*
X90990298Y-58002353D01*
X90862119Y-58047206D01*
X90862117Y-58047207D01*
X90752850Y-58127850D01*
X90672207Y-58237118D01*
X90645049Y-58314729D01*
X90628377Y-58343497D01*
X90629418Y-58344166D01*
X90624623Y-58351627D01*
X90564834Y-58482543D01*
X90544353Y-58625000D01*
X82397434Y-58625000D01*
X82387712Y-57225000D01*
X89619353Y-57225000D01*
X89639834Y-57367456D01*
X89699622Y-57498371D01*
X89699623Y-57498373D01*
X89793872Y-57607143D01*
X89914947Y-57684953D01*
X89914950Y-57684954D01*
X89914949Y-57684954D01*
X90053036Y-57725499D01*
X90053038Y-57725500D01*
X90053039Y-57725500D01*
X90196962Y-57725500D01*
X90196962Y-57725499D01*
X90335053Y-57684953D01*
X90456128Y-57607143D01*
X90550377Y-57498373D01*
X90610165Y-57367457D01*
X90630647Y-57225000D01*
X93594353Y-57225000D01*
X93614834Y-57367456D01*
X93674622Y-57498371D01*
X93674623Y-57498373D01*
X93768872Y-57607143D01*
X93889947Y-57684953D01*
X93889950Y-57684954D01*
X93889949Y-57684954D01*
X94028036Y-57725499D01*
X94028038Y-57725500D01*
X94028039Y-57725500D01*
X94171962Y-57725500D01*
X94171962Y-57725499D01*
X94310053Y-57684953D01*
X94431128Y-57607143D01*
X94525377Y-57498373D01*
X94585165Y-57367457D01*
X94605647Y-57225000D01*
X94585165Y-57082543D01*
X94525377Y-56951627D01*
X94431128Y-56842857D01*
X94310053Y-56765047D01*
X94310051Y-56765046D01*
X94310049Y-56765045D01*
X94310050Y-56765045D01*
X94171963Y-56724500D01*
X94171961Y-56724500D01*
X94028039Y-56724500D01*
X94028036Y-56724500D01*
X93889949Y-56765045D01*
X93768873Y-56842856D01*
X93674623Y-56951626D01*
X93674622Y-56951628D01*
X93614834Y-57082543D01*
X93594353Y-57225000D01*
X90630647Y-57225000D01*
X90610165Y-57082543D01*
X90550377Y-56951627D01*
X90456128Y-56842857D01*
X90335053Y-56765047D01*
X90335051Y-56765046D01*
X90335049Y-56765045D01*
X90335050Y-56765045D01*
X90196963Y-56724500D01*
X90196961Y-56724500D01*
X90053039Y-56724500D01*
X90053036Y-56724500D01*
X89914949Y-56765045D01*
X89793873Y-56842856D01*
X89699623Y-56951626D01*
X89699622Y-56951628D01*
X89639834Y-57082543D01*
X89619353Y-57225000D01*
X82387712Y-57225000D01*
X82366915Y-54230247D01*
X84549500Y-54230247D01*
X84549500Y-55269752D01*
X84561131Y-55328229D01*
X84561132Y-55328230D01*
X84605447Y-55394552D01*
X84671769Y-55438867D01*
X84671770Y-55438868D01*
X84730247Y-55450499D01*
X84730250Y-55450500D01*
X84730252Y-55450500D01*
X85769750Y-55450500D01*
X85769751Y-55450499D01*
X85784568Y-55447552D01*
X85828229Y-55438868D01*
X85828229Y-55438867D01*
X85828231Y-55438867D01*
X85855374Y-55420730D01*
X89699500Y-55420730D01*
X89699500Y-56054269D01*
X89702353Y-56084699D01*
X89702353Y-56084701D01*
X89747206Y-56212880D01*
X89747207Y-56212882D01*
X89827850Y-56322150D01*
X89937118Y-56402793D01*
X89979845Y-56417744D01*
X90065299Y-56447646D01*
X90095730Y-56450500D01*
X90095734Y-56450500D01*
X91104270Y-56450500D01*
X91134699Y-56447646D01*
X91134701Y-56447646D01*
X91198790Y-56425219D01*
X91262882Y-56402793D01*
X91372150Y-56322150D01*
X91452793Y-56212882D01*
X91497646Y-56084699D01*
X91497646Y-56084698D01*
X91497647Y-56084696D01*
X91499258Y-56077322D01*
X91500299Y-56077549D01*
X91507908Y-56049035D01*
X91545165Y-55967457D01*
X91565647Y-55825000D01*
X91545165Y-55682543D01*
X91511704Y-55609275D01*
X91500500Y-55557766D01*
X91500500Y-55420730D01*
X91497646Y-55390300D01*
X91497646Y-55390298D01*
X91455464Y-55269752D01*
X91452793Y-55262118D01*
X91372150Y-55152850D01*
X91262882Y-55072207D01*
X91262880Y-55072206D01*
X91134700Y-55027353D01*
X91104270Y-55024500D01*
X91104266Y-55024500D01*
X90095734Y-55024500D01*
X90095730Y-55024500D01*
X90065300Y-55027353D01*
X90065298Y-55027353D01*
X89937119Y-55072206D01*
X89937117Y-55072207D01*
X89827850Y-55152850D01*
X89747207Y-55262117D01*
X89747206Y-55262119D01*
X89702353Y-55390298D01*
X89702353Y-55390300D01*
X89699500Y-55420730D01*
X85855374Y-55420730D01*
X85894552Y-55394552D01*
X85938867Y-55328231D01*
X85938867Y-55328229D01*
X85938868Y-55328229D01*
X85950499Y-55269752D01*
X85950500Y-55269750D01*
X85950500Y-54800000D01*
X101044353Y-54800000D01*
X101064834Y-54942456D01*
X101107077Y-55034953D01*
X101124623Y-55073373D01*
X101218872Y-55182143D01*
X101339947Y-55259953D01*
X101339950Y-55259954D01*
X101339949Y-55259954D01*
X101447107Y-55291417D01*
X101476336Y-55300000D01*
X101478036Y-55300499D01*
X101478038Y-55300500D01*
X101478039Y-55300500D01*
X101621962Y-55300500D01*
X101621962Y-55300499D01*
X101729121Y-55269035D01*
X101760050Y-55259954D01*
X101760050Y-55259953D01*
X101760053Y-55259953D01*
X101881128Y-55182143D01*
X101975377Y-55073373D01*
X102035165Y-54942457D01*
X102055647Y-54800000D01*
X102035165Y-54657543D01*
X101975377Y-54526627D01*
X101881128Y-54417857D01*
X101760053Y-54340047D01*
X101760051Y-54340046D01*
X101760049Y-54340045D01*
X101760050Y-54340045D01*
X101621963Y-54299500D01*
X101621961Y-54299500D01*
X101478039Y-54299500D01*
X101478036Y-54299500D01*
X101339949Y-54340045D01*
X101218873Y-54417856D01*
X101124623Y-54526626D01*
X101124622Y-54526628D01*
X101064834Y-54657543D01*
X101044353Y-54800000D01*
X85950500Y-54800000D01*
X85950500Y-54230249D01*
X85950499Y-54230247D01*
X85938868Y-54171770D01*
X85938867Y-54171769D01*
X85894552Y-54105447D01*
X85828230Y-54061132D01*
X85828229Y-54061131D01*
X85769752Y-54049500D01*
X85769748Y-54049500D01*
X84730252Y-54049500D01*
X84730247Y-54049500D01*
X84671770Y-54061131D01*
X84671769Y-54061132D01*
X84605447Y-54105447D01*
X84561132Y-54171769D01*
X84561131Y-54171770D01*
X84549500Y-54230247D01*
X82366915Y-54230247D01*
X82343192Y-50814209D01*
X82733665Y-50814209D01*
X82733665Y-50814218D01*
X82753830Y-51083315D01*
X82813878Y-51346402D01*
X82813880Y-51346409D01*
X82908282Y-51586940D01*
X82912471Y-51597612D01*
X83047399Y-51831316D01*
X83164560Y-51978231D01*
X83215656Y-52042303D01*
X83397087Y-52210645D01*
X83413473Y-52225849D01*
X83636440Y-52377865D01*
X83879573Y-52494952D01*
X84137442Y-52574494D01*
X84137443Y-52574494D01*
X84137446Y-52574495D01*
X84404277Y-52614713D01*
X84404282Y-52614713D01*
X84404285Y-52614714D01*
X84404286Y-52614714D01*
X84674142Y-52614714D01*
X84674143Y-52614714D01*
X84674150Y-52614713D01*
X84940981Y-52574495D01*
X84940982Y-52574494D01*
X84940986Y-52574494D01*
X85198855Y-52494952D01*
X85441989Y-52377865D01*
X85664955Y-52225849D01*
X85862775Y-52042299D01*
X86031029Y-51831316D01*
X86165957Y-51597612D01*
X86264548Y-51346409D01*
X86324597Y-51083317D01*
X86327094Y-51050000D01*
X86979417Y-51050000D01*
X86999699Y-51255932D01*
X87012854Y-51299298D01*
X87059768Y-51453954D01*
X87157315Y-51636450D01*
X87184645Y-51669752D01*
X87288589Y-51796410D01*
X87360693Y-51855583D01*
X87448550Y-51927685D01*
X87631046Y-52025232D01*
X87829066Y-52085300D01*
X87829065Y-52085300D01*
X87847529Y-52087118D01*
X88035000Y-52105583D01*
X88240934Y-52085300D01*
X88438954Y-52025232D01*
X88621450Y-51927685D01*
X88781410Y-51796410D01*
X88912685Y-51636450D01*
X89010232Y-51453954D01*
X89070300Y-51255934D01*
X89090583Y-51050000D01*
X89519417Y-51050000D01*
X89539699Y-51255932D01*
X89552854Y-51299298D01*
X89599768Y-51453954D01*
X89697315Y-51636450D01*
X89724645Y-51669752D01*
X89828589Y-51796410D01*
X89900693Y-51855583D01*
X89988550Y-51927685D01*
X90133955Y-52005406D01*
X90183798Y-52054367D01*
X90199500Y-52114763D01*
X90199500Y-53076853D01*
X90179815Y-53143892D01*
X90127011Y-53189647D01*
X90087079Y-53200311D01*
X90065300Y-53202353D01*
X90065298Y-53202353D01*
X89937119Y-53247206D01*
X89937117Y-53247207D01*
X89827850Y-53327850D01*
X89747207Y-53437117D01*
X89747206Y-53437119D01*
X89702353Y-53565298D01*
X89702353Y-53565300D01*
X89699500Y-53595730D01*
X89699500Y-54229269D01*
X89702353Y-54259699D01*
X89702353Y-54259701D01*
X89747206Y-54387880D01*
X89747207Y-54387882D01*
X89827850Y-54497150D01*
X89937118Y-54577793D01*
X89979845Y-54592744D01*
X90065299Y-54622646D01*
X90095730Y-54625500D01*
X90095734Y-54625500D01*
X91104270Y-54625500D01*
X91134699Y-54622646D01*
X91134701Y-54622646D01*
X91213767Y-54594979D01*
X91262882Y-54577793D01*
X91372150Y-54497150D01*
X91452793Y-54387882D01*
X91475219Y-54323790D01*
X91492292Y-54275000D01*
X92644353Y-54275000D01*
X92664834Y-54417456D01*
X92701230Y-54497150D01*
X92724623Y-54548373D01*
X92818872Y-54657143D01*
X92939947Y-54734953D01*
X92939950Y-54734954D01*
X92939949Y-54734954D01*
X93047107Y-54766417D01*
X93066626Y-54772149D01*
X93078036Y-54775499D01*
X93078038Y-54775500D01*
X93078039Y-54775500D01*
X93221962Y-54775500D01*
X93221962Y-54775499D01*
X93360053Y-54734953D01*
X93481128Y-54657143D01*
X93575377Y-54548373D01*
X93635165Y-54417457D01*
X93655647Y-54275000D01*
X93635165Y-54132543D01*
X93575377Y-54001627D01*
X93481128Y-53892857D01*
X93360053Y-53815047D01*
X93360051Y-53815046D01*
X93360049Y-53815045D01*
X93360050Y-53815045D01*
X93221963Y-53774500D01*
X93221961Y-53774500D01*
X93078039Y-53774500D01*
X93078036Y-53774500D01*
X92939949Y-53815045D01*
X92818873Y-53892856D01*
X92724623Y-54001626D01*
X92724622Y-54001628D01*
X92664834Y-54132543D01*
X92644353Y-54275000D01*
X91492292Y-54275000D01*
X91497646Y-54259701D01*
X91497646Y-54259699D01*
X91500500Y-54229269D01*
X91500500Y-53595730D01*
X91497646Y-53565300D01*
X91497646Y-53565298D01*
X91452793Y-53437119D01*
X91452792Y-53437117D01*
X91372150Y-53327850D01*
X91262882Y-53247207D01*
X91262880Y-53247206D01*
X91134700Y-53202353D01*
X91112921Y-53200311D01*
X91048013Y-53174453D01*
X91007388Y-53117607D01*
X91000500Y-53076853D01*
X91000500Y-53000000D01*
X100444353Y-53000000D01*
X100464834Y-53142456D01*
X100492189Y-53202353D01*
X100524623Y-53273373D01*
X100618872Y-53382143D01*
X100739947Y-53459953D01*
X100739950Y-53459954D01*
X100739949Y-53459954D01*
X100878036Y-53500499D01*
X100878038Y-53500500D01*
X100878039Y-53500500D01*
X101021962Y-53500500D01*
X101021962Y-53500499D01*
X101141843Y-53465300D01*
X101160050Y-53459954D01*
X101160050Y-53459953D01*
X101160053Y-53459953D01*
X101281128Y-53382143D01*
X101375377Y-53273373D01*
X101387206Y-53247470D01*
X101432960Y-53194668D01*
X101500000Y-53174983D01*
X101567039Y-53194667D01*
X101612793Y-53247470D01*
X101624623Y-53273373D01*
X101718872Y-53382143D01*
X101839947Y-53459953D01*
X101839950Y-53459954D01*
X101839949Y-53459954D01*
X101978036Y-53500499D01*
X101978038Y-53500500D01*
X101978039Y-53500500D01*
X102121962Y-53500500D01*
X102121962Y-53500499D01*
X102241843Y-53465300D01*
X102260050Y-53459954D01*
X102260050Y-53459953D01*
X102260053Y-53459953D01*
X102381128Y-53382143D01*
X102475377Y-53273373D01*
X102535165Y-53142457D01*
X102555647Y-53000000D01*
X102535165Y-52857543D01*
X102475377Y-52726627D01*
X102381128Y-52617857D01*
X102260053Y-52540047D01*
X102260051Y-52540046D01*
X102260049Y-52540045D01*
X102260050Y-52540045D01*
X102121963Y-52499500D01*
X102121961Y-52499500D01*
X101978039Y-52499500D01*
X101978036Y-52499500D01*
X101839949Y-52540045D01*
X101718873Y-52617856D01*
X101624623Y-52726626D01*
X101624622Y-52726628D01*
X101612794Y-52752528D01*
X101567039Y-52805332D01*
X101499999Y-52825016D01*
X101432960Y-52805331D01*
X101387206Y-52752528D01*
X101375377Y-52726628D01*
X101375376Y-52726626D01*
X101328591Y-52672633D01*
X101281128Y-52617857D01*
X101160053Y-52540047D01*
X101160051Y-52540046D01*
X101160049Y-52540045D01*
X101160050Y-52540045D01*
X101021963Y-52499500D01*
X101021961Y-52499500D01*
X100878039Y-52499500D01*
X100878036Y-52499500D01*
X100739949Y-52540045D01*
X100618873Y-52617856D01*
X100524623Y-52726626D01*
X100524622Y-52726628D01*
X100464834Y-52857543D01*
X100444353Y-53000000D01*
X91000500Y-53000000D01*
X91000500Y-52088037D01*
X91020185Y-52020998D01*
X91066046Y-51978679D01*
X91161450Y-51927685D01*
X91321410Y-51796410D01*
X91452685Y-51636450D01*
X91550232Y-51453954D01*
X91610300Y-51255934D01*
X91630583Y-51050000D01*
X91610300Y-50844066D01*
X91550232Y-50646046D01*
X91452685Y-50463550D01*
X91397284Y-50396043D01*
X91321410Y-50303589D01*
X91171121Y-50180252D01*
X91171115Y-50180247D01*
X92064500Y-50180247D01*
X92064500Y-51919752D01*
X92076131Y-51978229D01*
X92076132Y-51978230D01*
X92120447Y-52044552D01*
X92186769Y-52088867D01*
X92186770Y-52088868D01*
X92245247Y-52100499D01*
X92245250Y-52100500D01*
X92245252Y-52100500D01*
X93984750Y-52100500D01*
X93984751Y-52100499D01*
X93999568Y-52097552D01*
X94043229Y-52088868D01*
X94043229Y-52088867D01*
X94043231Y-52088867D01*
X94109552Y-52044552D01*
X94153867Y-51978231D01*
X94153867Y-51978229D01*
X94153868Y-51978229D01*
X94165499Y-51919752D01*
X94165500Y-51919750D01*
X94165500Y-50893475D01*
X96499500Y-50893475D01*
X96499500Y-51856517D01*
X96507569Y-51907461D01*
X96514354Y-51950304D01*
X96571950Y-52063342D01*
X96571952Y-52063344D01*
X96571954Y-52063347D01*
X96661652Y-52153045D01*
X96661654Y-52153046D01*
X96661658Y-52153050D01*
X96774694Y-52210645D01*
X96774698Y-52210647D01*
X96868475Y-52225499D01*
X96868481Y-52225500D01*
X97331518Y-52225499D01*
X97425304Y-52210646D01*
X97538342Y-52153050D01*
X97628050Y-52063342D01*
X97656745Y-52007024D01*
X97704717Y-51956231D01*
X97772537Y-51939435D01*
X97838673Y-51961972D01*
X97865600Y-51987830D01*
X97869879Y-51993406D01*
X97981589Y-52105116D01*
X97981595Y-52105120D01*
X98099999Y-52173482D01*
X98100000Y-52173482D01*
X98600000Y-52173482D01*
X98718404Y-52105120D01*
X98718410Y-52105116D01*
X98830116Y-51993410D01*
X98830118Y-51993407D01*
X98909110Y-51856591D01*
X98949999Y-51703990D01*
X98950000Y-51703989D01*
X98950000Y-51625000D01*
X98600000Y-51625000D01*
X98600000Y-52173482D01*
X98100000Y-52173482D01*
X98100000Y-51424728D01*
X98138060Y-51516614D01*
X98208386Y-51586940D01*
X98300272Y-51625000D01*
X98399728Y-51625000D01*
X98491614Y-51586940D01*
X98561940Y-51516614D01*
X98600000Y-51424728D01*
X98600000Y-51325272D01*
X98561940Y-51233386D01*
X98491614Y-51163060D01*
X98399728Y-51125000D01*
X98600000Y-51125000D01*
X98950000Y-51125000D01*
X98950000Y-51046011D01*
X98949999Y-51046009D01*
X98909110Y-50893408D01*
X98855180Y-50800000D01*
X101129417Y-50800000D01*
X101149699Y-51005932D01*
X101158402Y-51034622D01*
X101209768Y-51203954D01*
X101307315Y-51386450D01*
X101307317Y-51386452D01*
X101438589Y-51546410D01*
X101531077Y-51622312D01*
X101598550Y-51677685D01*
X101781046Y-51775232D01*
X101979066Y-51835300D01*
X101979065Y-51835300D01*
X101997529Y-51837118D01*
X102185000Y-51855583D01*
X102390934Y-51835300D01*
X102588954Y-51775232D01*
X102603191Y-51767621D01*
X102671592Y-51753379D01*
X102736837Y-51778377D01*
X102749327Y-51789298D01*
X103851229Y-52891200D01*
X103884714Y-52952523D01*
X103879730Y-53022215D01*
X103837858Y-53078148D01*
X103798484Y-53097858D01*
X103739948Y-53115046D01*
X103618873Y-53192856D01*
X103524623Y-53301626D01*
X103524622Y-53301628D01*
X103464834Y-53432543D01*
X103444353Y-53575000D01*
X103464834Y-53717456D01*
X103478953Y-53748371D01*
X103524623Y-53848373D01*
X103618872Y-53957143D01*
X103739947Y-54034953D01*
X103739950Y-54034954D01*
X103739949Y-54034954D01*
X103829109Y-54061133D01*
X103874633Y-54074500D01*
X103878036Y-54075499D01*
X103878038Y-54075500D01*
X103878039Y-54075500D01*
X104021962Y-54075500D01*
X104021962Y-54075499D01*
X104160053Y-54034953D01*
X104281128Y-53957143D01*
X104375377Y-53848373D01*
X104435165Y-53717457D01*
X104435165Y-53717451D01*
X104436943Y-53713560D01*
X104482698Y-53660756D01*
X104549738Y-53641071D01*
X104616777Y-53660755D01*
X104637419Y-53677390D01*
X106475489Y-55515460D01*
X106544012Y-55555022D01*
X106620438Y-55575500D01*
X107484167Y-55575500D01*
X107551206Y-55595185D01*
X107571848Y-55611819D01*
X109038181Y-57078152D01*
X109071666Y-57139475D01*
X109074500Y-57165833D01*
X109074500Y-63211260D01*
X109054815Y-63278299D01*
X109044213Y-63292462D01*
X108949625Y-63401622D01*
X108949622Y-63401628D01*
X108889834Y-63532543D01*
X108869353Y-63675000D01*
X108889834Y-63817456D01*
X108910676Y-63863092D01*
X108949623Y-63948373D01*
X109043872Y-64057143D01*
X109164947Y-64134953D01*
X109164950Y-64134954D01*
X109164949Y-64134954D01*
X109303036Y-64175499D01*
X109303038Y-64175500D01*
X109303039Y-64175500D01*
X109446962Y-64175500D01*
X109446962Y-64175499D01*
X109585053Y-64134953D01*
X109706128Y-64057143D01*
X109800377Y-63948373D01*
X109837004Y-63868171D01*
X109882756Y-63815371D01*
X109949795Y-63795686D01*
X110016833Y-63815369D01*
X110016836Y-63815371D01*
X110026713Y-63821719D01*
X110164801Y-63862264D01*
X110164803Y-63862265D01*
X110164804Y-63862265D01*
X110308727Y-63862265D01*
X110308727Y-63862264D01*
X110446818Y-63821718D01*
X110567893Y-63743908D01*
X110662142Y-63635138D01*
X110678189Y-63600000D01*
X111119353Y-63600000D01*
X111139834Y-63742456D01*
X111194550Y-63862264D01*
X111199623Y-63873373D01*
X111293872Y-63982143D01*
X111414947Y-64059953D01*
X111414950Y-64059954D01*
X111414949Y-64059954D01*
X111553036Y-64100499D01*
X111553038Y-64100500D01*
X111553039Y-64100500D01*
X111696962Y-64100500D01*
X111696962Y-64100499D01*
X111835053Y-64059953D01*
X111956128Y-63982143D01*
X112050377Y-63873373D01*
X112110165Y-63742457D01*
X112130647Y-63600000D01*
X112110165Y-63457543D01*
X112050377Y-63326627D01*
X112050375Y-63326625D01*
X112050374Y-63326622D01*
X111955787Y-63217462D01*
X111926762Y-63153906D01*
X111925500Y-63136260D01*
X111925500Y-58000832D01*
X111945185Y-57933793D01*
X111961814Y-57913156D01*
X113524969Y-56350000D01*
X115444353Y-56350000D01*
X115464834Y-56492456D01*
X115524622Y-56623371D01*
X115524623Y-56623373D01*
X115618872Y-56732143D01*
X115739947Y-56809953D01*
X115739950Y-56809954D01*
X115739949Y-56809954D01*
X115878036Y-56850499D01*
X115878038Y-56850500D01*
X115878039Y-56850500D01*
X116021962Y-56850500D01*
X116021962Y-56850499D01*
X116160053Y-56809953D01*
X116281128Y-56732143D01*
X116375377Y-56623373D01*
X116435165Y-56492457D01*
X116455647Y-56350000D01*
X116435165Y-56207543D01*
X116375377Y-56076627D01*
X116281128Y-55967857D01*
X116160053Y-55890047D01*
X116160051Y-55890046D01*
X116160049Y-55890045D01*
X116160050Y-55890045D01*
X116021963Y-55849500D01*
X116021961Y-55849500D01*
X115878039Y-55849500D01*
X115878036Y-55849500D01*
X115739949Y-55890045D01*
X115618873Y-55967856D01*
X115524623Y-56076626D01*
X115524622Y-56076628D01*
X115464834Y-56207543D01*
X115444353Y-56350000D01*
X113524969Y-56350000D01*
X114038151Y-55836818D01*
X114099474Y-55803334D01*
X114125832Y-55800500D01*
X114221962Y-55800500D01*
X114221962Y-55800499D01*
X114360053Y-55759953D01*
X114481128Y-55682143D01*
X114575377Y-55573373D01*
X114635165Y-55442457D01*
X114655647Y-55300000D01*
X114635165Y-55157543D01*
X114575377Y-55026627D01*
X114481128Y-54917857D01*
X114360053Y-54840047D01*
X114360051Y-54840046D01*
X114360049Y-54840045D01*
X114360050Y-54840045D01*
X114221963Y-54799500D01*
X114221961Y-54799500D01*
X114078039Y-54799500D01*
X114078036Y-54799500D01*
X113939949Y-54840045D01*
X113818873Y-54917856D01*
X113724623Y-55026626D01*
X113724622Y-55026628D01*
X113664834Y-55157543D01*
X113644353Y-55300000D01*
X113644353Y-55300001D01*
X113645661Y-55309103D01*
X113635713Y-55378261D01*
X113610603Y-55414424D01*
X111440489Y-57584540D01*
X111384541Y-57640487D01*
X111384535Y-57640495D01*
X111344982Y-57709004D01*
X111344979Y-57709009D01*
X111324500Y-57785439D01*
X111324500Y-63136260D01*
X111304815Y-63203299D01*
X111294213Y-63217462D01*
X111199625Y-63326622D01*
X111199622Y-63326628D01*
X111139834Y-63457543D01*
X111119353Y-63600000D01*
X110678189Y-63600000D01*
X110721930Y-63504222D01*
X110742412Y-63361765D01*
X110721930Y-63219308D01*
X110662142Y-63088392D01*
X110662140Y-63088390D01*
X110662139Y-63088387D01*
X110567894Y-62979622D01*
X110567893Y-62979621D01*
X110557457Y-62972914D01*
X110511704Y-62920109D01*
X110500500Y-62868601D01*
X110500500Y-57209753D01*
X110500500Y-57209752D01*
X110480021Y-57133325D01*
X110469136Y-57114471D01*
X110440464Y-57064809D01*
X110440458Y-57064801D01*
X110337995Y-56962338D01*
X110304510Y-56901015D01*
X110309494Y-56831323D01*
X110337995Y-56786976D01*
X110917828Y-56207143D01*
X111677960Y-55447011D01*
X111710304Y-55390989D01*
X111717521Y-55378489D01*
X111738000Y-55302062D01*
X111738000Y-55001969D01*
X111757685Y-54934930D01*
X111810489Y-54889175D01*
X111821025Y-54884934D01*
X111912882Y-54852793D01*
X112022150Y-54772150D01*
X112102793Y-54662882D01*
X112133544Y-54575000D01*
X119019353Y-54575000D01*
X119039834Y-54717456D01*
X119099622Y-54848371D01*
X119099623Y-54848373D01*
X119193872Y-54957143D01*
X119314947Y-55034953D01*
X119314950Y-55034954D01*
X119314949Y-55034954D01*
X119422107Y-55066417D01*
X119445788Y-55073371D01*
X119453036Y-55075499D01*
X119453038Y-55075500D01*
X119453039Y-55075500D01*
X119596962Y-55075500D01*
X119596962Y-55075499D01*
X119735053Y-55034953D01*
X119856128Y-54957143D01*
X119950377Y-54848373D01*
X120010165Y-54717457D01*
X120030647Y-54575000D01*
X120010165Y-54432543D01*
X119950377Y-54301627D01*
X119856128Y-54192857D01*
X119735053Y-54115047D01*
X119735051Y-54115046D01*
X119735049Y-54115045D01*
X119735050Y-54115045D01*
X119596963Y-54074500D01*
X119596961Y-54074500D01*
X119453039Y-54074500D01*
X119453036Y-54074500D01*
X119314949Y-54115045D01*
X119193873Y-54192856D01*
X119099623Y-54301626D01*
X119099622Y-54301628D01*
X119039834Y-54432543D01*
X119019353Y-54575000D01*
X112133544Y-54575000D01*
X112133719Y-54574500D01*
X112147646Y-54534701D01*
X112147646Y-54534699D01*
X112150500Y-54504269D01*
X112150500Y-53495730D01*
X112147646Y-53465300D01*
X112147646Y-53465298D01*
X112102793Y-53337119D01*
X112102792Y-53337117D01*
X112022150Y-53227850D01*
X111912882Y-53147207D01*
X111912880Y-53147206D01*
X111784700Y-53102353D01*
X111754270Y-53099500D01*
X111754266Y-53099500D01*
X111120734Y-53099500D01*
X111120730Y-53099500D01*
X111090300Y-53102353D01*
X111090298Y-53102353D01*
X110962119Y-53147206D01*
X110962117Y-53147207D01*
X110852850Y-53227850D01*
X110772207Y-53337117D01*
X110772206Y-53337119D01*
X110727353Y-53465298D01*
X110727353Y-53465300D01*
X110724500Y-53495730D01*
X110724500Y-54504269D01*
X110727353Y-54534699D01*
X110727353Y-54534701D01*
X110772206Y-54662880D01*
X110772207Y-54662882D01*
X110852850Y-54772150D01*
X110962118Y-54852793D01*
X111053957Y-54884929D01*
X111110731Y-54925649D01*
X111136478Y-54990602D01*
X111137000Y-55001969D01*
X111137000Y-55086667D01*
X111117315Y-55153706D01*
X111100681Y-55174348D01*
X109913024Y-56362005D01*
X109851701Y-56395490D01*
X109782009Y-56390506D01*
X109737662Y-56362005D01*
X108010198Y-54634541D01*
X108010190Y-54634535D01*
X107955654Y-54603049D01*
X107955650Y-54603048D01*
X107941675Y-54594979D01*
X107865248Y-54574500D01*
X107865246Y-54574500D01*
X107015048Y-54574500D01*
X106948009Y-54554815D01*
X106927367Y-54538181D01*
X105864186Y-53475000D01*
X106794353Y-53475000D01*
X106814834Y-53617456D01*
X106860504Y-53717457D01*
X106874623Y-53748373D01*
X106968872Y-53857143D01*
X107089947Y-53934953D01*
X107089950Y-53934954D01*
X107089949Y-53934954D01*
X107228036Y-53975499D01*
X107228038Y-53975500D01*
X107228039Y-53975500D01*
X107371962Y-53975500D01*
X107371962Y-53975499D01*
X107510053Y-53934953D01*
X107631128Y-53857143D01*
X107725377Y-53748373D01*
X107785165Y-53617457D01*
X107802667Y-53495730D01*
X108899500Y-53495730D01*
X108899500Y-54504269D01*
X108902353Y-54534699D01*
X108902353Y-54534701D01*
X108947206Y-54662880D01*
X108947207Y-54662882D01*
X109027850Y-54772150D01*
X109137118Y-54852793D01*
X109179845Y-54867744D01*
X109265299Y-54897646D01*
X109295730Y-54900500D01*
X109295734Y-54900500D01*
X109929270Y-54900500D01*
X109959699Y-54897646D01*
X109959701Y-54897646D01*
X110023790Y-54875219D01*
X110087882Y-54852793D01*
X110197150Y-54772150D01*
X110277793Y-54662882D01*
X110308719Y-54574500D01*
X110322646Y-54534701D01*
X110322646Y-54534699D01*
X110325500Y-54504269D01*
X110325500Y-53495730D01*
X110322646Y-53465300D01*
X110322646Y-53465298D01*
X110277793Y-53337119D01*
X110277792Y-53337117D01*
X110197150Y-53227850D01*
X110087882Y-53147207D01*
X110087880Y-53147206D01*
X109959700Y-53102353D01*
X109929270Y-53099500D01*
X109929266Y-53099500D01*
X109295734Y-53099500D01*
X109295730Y-53099500D01*
X109265300Y-53102353D01*
X109265298Y-53102353D01*
X109137119Y-53147206D01*
X109137117Y-53147207D01*
X109027850Y-53227850D01*
X108947207Y-53337117D01*
X108947206Y-53337119D01*
X108902353Y-53465298D01*
X108902353Y-53465300D01*
X108899500Y-53495730D01*
X107802667Y-53495730D01*
X107805647Y-53475000D01*
X107785165Y-53332543D01*
X107725377Y-53201627D01*
X107631128Y-53092857D01*
X107510053Y-53015047D01*
X107510051Y-53015046D01*
X107510049Y-53015045D01*
X107510050Y-53015045D01*
X107371963Y-52974500D01*
X107371961Y-52974500D01*
X107228039Y-52974500D01*
X107228036Y-52974500D01*
X107089949Y-53015045D01*
X106968873Y-53092856D01*
X106874623Y-53201626D01*
X106874622Y-53201628D01*
X106814834Y-53332543D01*
X106794353Y-53475000D01*
X105864186Y-53475000D01*
X105061819Y-52672633D01*
X105028334Y-52611310D01*
X105025500Y-52584952D01*
X105025500Y-51974500D01*
X105045185Y-51907461D01*
X105097989Y-51861706D01*
X105149500Y-51850500D01*
X105594750Y-51850500D01*
X105594751Y-51850499D01*
X105609568Y-51847552D01*
X105653229Y-51838868D01*
X105653229Y-51838867D01*
X105653231Y-51838867D01*
X105719552Y-51794552D01*
X105763867Y-51728231D01*
X105763867Y-51728229D01*
X105763868Y-51728229D01*
X105775499Y-51669752D01*
X105775500Y-51669750D01*
X105775500Y-49930249D01*
X105775499Y-49930247D01*
X105770527Y-49905247D01*
X107324500Y-49905247D01*
X107324500Y-51644752D01*
X107336131Y-51703229D01*
X107336132Y-51703230D01*
X107380447Y-51769552D01*
X107446769Y-51813867D01*
X107446770Y-51813868D01*
X107505247Y-51825499D01*
X107505250Y-51825500D01*
X107505252Y-51825500D01*
X109244750Y-51825500D01*
X109244751Y-51825499D01*
X109259568Y-51822552D01*
X109303229Y-51813868D01*
X109303229Y-51813867D01*
X109303231Y-51813867D01*
X109369552Y-51769552D01*
X109413867Y-51703231D01*
X109413867Y-51703229D01*
X109413868Y-51703229D01*
X109423889Y-51652848D01*
X109425500Y-51644748D01*
X109425500Y-50525000D01*
X109893590Y-50525000D01*
X110481988Y-50525000D01*
X110449075Y-50582007D01*
X110415000Y-50709174D01*
X110415000Y-50840826D01*
X110449075Y-50967993D01*
X110481988Y-51025000D01*
X109893590Y-51025000D01*
X109940233Y-51178766D01*
X110037728Y-51361166D01*
X110037732Y-51361173D01*
X110168944Y-51521055D01*
X110328826Y-51652267D01*
X110328833Y-51652271D01*
X110511233Y-51749766D01*
X110665000Y-51796410D01*
X110665000Y-51208012D01*
X110722007Y-51240925D01*
X110849174Y-51275000D01*
X110980826Y-51275000D01*
X111107993Y-51240925D01*
X111165000Y-51208012D01*
X111165000Y-51796410D01*
X111318766Y-51749766D01*
X111501166Y-51652271D01*
X111501173Y-51652267D01*
X111661055Y-51521055D01*
X111792267Y-51361173D01*
X111792271Y-51361166D01*
X111889766Y-51178766D01*
X111936410Y-51025000D01*
X111348012Y-51025000D01*
X111380925Y-50967993D01*
X111415000Y-50840826D01*
X111415000Y-50814209D01*
X117733665Y-50814209D01*
X117733665Y-50814218D01*
X117753830Y-51083315D01*
X117813878Y-51346402D01*
X117813880Y-51346409D01*
X117908282Y-51586940D01*
X117912471Y-51597612D01*
X118047399Y-51831316D01*
X118164560Y-51978231D01*
X118215656Y-52042303D01*
X118397087Y-52210645D01*
X118413473Y-52225849D01*
X118636440Y-52377865D01*
X118879573Y-52494952D01*
X119137442Y-52574494D01*
X119137443Y-52574494D01*
X119137446Y-52574495D01*
X119404277Y-52614713D01*
X119404282Y-52614713D01*
X119404285Y-52614714D01*
X119404286Y-52614714D01*
X119674142Y-52614714D01*
X119674143Y-52614714D01*
X119674150Y-52614713D01*
X119940981Y-52574495D01*
X119940982Y-52574494D01*
X119940986Y-52574494D01*
X120198855Y-52494952D01*
X120441989Y-52377865D01*
X120664955Y-52225849D01*
X120862775Y-52042299D01*
X121031029Y-51831316D01*
X121165957Y-51597612D01*
X121264548Y-51346409D01*
X121324597Y-51083317D01*
X121338823Y-50893481D01*
X121344763Y-50814218D01*
X121344763Y-50814209D01*
X121324597Y-50545112D01*
X121323283Y-50539354D01*
X121264548Y-50282019D01*
X121165957Y-50030816D01*
X121031029Y-49797112D01*
X120862775Y-49586129D01*
X120862774Y-49586128D01*
X120862771Y-49586124D01*
X120664955Y-49402579D01*
X120643995Y-49388289D01*
X120441989Y-49250563D01*
X120441983Y-49250560D01*
X120441982Y-49250559D01*
X120441981Y-49250558D01*
X120198857Y-49133477D01*
X120198859Y-49133477D01*
X119940987Y-49053934D01*
X119940981Y-49053932D01*
X119674150Y-49013714D01*
X119674143Y-49013714D01*
X119404285Y-49013714D01*
X119404277Y-49013714D01*
X119137446Y-49053932D01*
X119137440Y-49053934D01*
X118879572Y-49133476D01*
X118636444Y-49250560D01*
X118413472Y-49402579D01*
X118215656Y-49586124D01*
X118047399Y-49797112D01*
X117912472Y-50030813D01*
X117912470Y-50030817D01*
X117813880Y-50282018D01*
X117813878Y-50282025D01*
X117753830Y-50545112D01*
X117733665Y-50814209D01*
X111415000Y-50814209D01*
X111415000Y-50709174D01*
X111380925Y-50582007D01*
X111348012Y-50525000D01*
X111936410Y-50525000D01*
X111889766Y-50371233D01*
X111792271Y-50188833D01*
X111792267Y-50188826D01*
X111661055Y-50028944D01*
X111501173Y-49897732D01*
X111501166Y-49897728D01*
X111318763Y-49800232D01*
X111165000Y-49753587D01*
X111165000Y-50341988D01*
X111107993Y-50309075D01*
X110980826Y-50275000D01*
X110849174Y-50275000D01*
X110722007Y-50309075D01*
X110665000Y-50341988D01*
X110665000Y-49753587D01*
X110511236Y-49800232D01*
X110328833Y-49897728D01*
X110328826Y-49897732D01*
X110168944Y-50028944D01*
X110037732Y-50188826D01*
X110037728Y-50188833D01*
X109940233Y-50371233D01*
X109893590Y-50525000D01*
X109425500Y-50525000D01*
X109425500Y-49905252D01*
X109425500Y-49905249D01*
X109425499Y-49905247D01*
X109413868Y-49846770D01*
X109413867Y-49846769D01*
X109369552Y-49780447D01*
X109303230Y-49736132D01*
X109303229Y-49736131D01*
X109244752Y-49724500D01*
X109244748Y-49724500D01*
X107505252Y-49724500D01*
X107505247Y-49724500D01*
X107446770Y-49736131D01*
X107446769Y-49736132D01*
X107380447Y-49780447D01*
X107336132Y-49846769D01*
X107336131Y-49846770D01*
X107324500Y-49905247D01*
X105770527Y-49905247D01*
X105763868Y-49871770D01*
X105763867Y-49871769D01*
X105719552Y-49805447D01*
X105653230Y-49761132D01*
X105653229Y-49761131D01*
X105594752Y-49749500D01*
X105594748Y-49749500D01*
X103855252Y-49749500D01*
X103855247Y-49749500D01*
X103796770Y-49761131D01*
X103796769Y-49761132D01*
X103730447Y-49805447D01*
X103686132Y-49871769D01*
X103686131Y-49871770D01*
X103674500Y-49930247D01*
X103674500Y-51565167D01*
X103654815Y-51632206D01*
X103602011Y-51677961D01*
X103532853Y-51687905D01*
X103469297Y-51658880D01*
X103462819Y-51652848D01*
X103174298Y-51364327D01*
X103140813Y-51303004D01*
X103145797Y-51233312D01*
X103152618Y-51218197D01*
X103160232Y-51203954D01*
X103220300Y-51005934D01*
X103240583Y-50800000D01*
X103220300Y-50594066D01*
X103160232Y-50396046D01*
X103062685Y-50213550D01*
X102987363Y-50121769D01*
X102931410Y-50053589D01*
X102781121Y-49930252D01*
X102771450Y-49922315D01*
X102588954Y-49824768D01*
X102390934Y-49764700D01*
X102390932Y-49764699D01*
X102390934Y-49764699D01*
X102185000Y-49744417D01*
X101979067Y-49764699D01*
X101781043Y-49824769D01*
X101693114Y-49871769D01*
X101598550Y-49922315D01*
X101598548Y-49922316D01*
X101598547Y-49922317D01*
X101438589Y-50053589D01*
X101307317Y-50213547D01*
X101209769Y-50396043D01*
X101149699Y-50594067D01*
X101129417Y-50800000D01*
X98855180Y-50800000D01*
X98830118Y-50756592D01*
X98830116Y-50756589D01*
X98718410Y-50644883D01*
X98718407Y-50644881D01*
X98600000Y-50576517D01*
X98600000Y-51125000D01*
X98399728Y-51125000D01*
X98300272Y-51125000D01*
X98208386Y-51163060D01*
X98138060Y-51233386D01*
X98100000Y-51325272D01*
X98100000Y-50576517D01*
X97981592Y-50644881D01*
X97981589Y-50644883D01*
X97869877Y-50756595D01*
X97865597Y-50762173D01*
X97809165Y-50803371D01*
X97739419Y-50807519D01*
X97678502Y-50773302D01*
X97656744Y-50742974D01*
X97628050Y-50686658D01*
X97628047Y-50686655D01*
X97628045Y-50686652D01*
X97538347Y-50596954D01*
X97538344Y-50596952D01*
X97538342Y-50596950D01*
X97436603Y-50545111D01*
X97425301Y-50539352D01*
X97331524Y-50524500D01*
X96868482Y-50524500D01*
X96787519Y-50537323D01*
X96774696Y-50539354D01*
X96661658Y-50596950D01*
X96661657Y-50596951D01*
X96661652Y-50596954D01*
X96571954Y-50686652D01*
X96571951Y-50686657D01*
X96571950Y-50686658D01*
X96552751Y-50724337D01*
X96514352Y-50799698D01*
X96499500Y-50893475D01*
X94165500Y-50893475D01*
X94165500Y-50180249D01*
X94165499Y-50180247D01*
X94153868Y-50121770D01*
X94153867Y-50121769D01*
X94109552Y-50055447D01*
X94043230Y-50011132D01*
X94043229Y-50011131D01*
X93984752Y-49999500D01*
X93984748Y-49999500D01*
X92245252Y-49999500D01*
X92245247Y-49999500D01*
X92186770Y-50011131D01*
X92186769Y-50011132D01*
X92120447Y-50055447D01*
X92076132Y-50121769D01*
X92076131Y-50121770D01*
X92064500Y-50180247D01*
X91171115Y-50180247D01*
X91161450Y-50172315D01*
X90978954Y-50074768D01*
X90780934Y-50014700D01*
X90780932Y-50014699D01*
X90780934Y-50014699D01*
X90575000Y-49994417D01*
X90369067Y-50014699D01*
X90171043Y-50074769D01*
X90083114Y-50121769D01*
X89988550Y-50172315D01*
X89988548Y-50172316D01*
X89988547Y-50172317D01*
X89828589Y-50303589D01*
X89697317Y-50463547D01*
X89697315Y-50463550D01*
X89664736Y-50524500D01*
X89599769Y-50646043D01*
X89539699Y-50844067D01*
X89519417Y-51050000D01*
X89090583Y-51050000D01*
X89070300Y-50844066D01*
X89010232Y-50646046D01*
X88912685Y-50463550D01*
X88857284Y-50396043D01*
X88781410Y-50303589D01*
X88631121Y-50180252D01*
X88621450Y-50172315D01*
X88438954Y-50074768D01*
X88240934Y-50014700D01*
X88240932Y-50014699D01*
X88240934Y-50014699D01*
X88035000Y-49994417D01*
X87829067Y-50014699D01*
X87631043Y-50074769D01*
X87543114Y-50121769D01*
X87448550Y-50172315D01*
X87448548Y-50172316D01*
X87448547Y-50172317D01*
X87288589Y-50303589D01*
X87157317Y-50463547D01*
X87157315Y-50463550D01*
X87124736Y-50524500D01*
X87059769Y-50646043D01*
X86999699Y-50844067D01*
X86979417Y-51050000D01*
X86327094Y-51050000D01*
X86338823Y-50893481D01*
X86344763Y-50814218D01*
X86344763Y-50814209D01*
X86324597Y-50545112D01*
X86323283Y-50539354D01*
X86264548Y-50282019D01*
X86165957Y-50030816D01*
X86031029Y-49797112D01*
X85862775Y-49586129D01*
X85862774Y-49586128D01*
X85862771Y-49586124D01*
X85664955Y-49402579D01*
X85643995Y-49388289D01*
X85441989Y-49250563D01*
X85441983Y-49250560D01*
X85441982Y-49250559D01*
X85441981Y-49250558D01*
X85198857Y-49133477D01*
X85198859Y-49133477D01*
X84940987Y-49053934D01*
X84940981Y-49053932D01*
X84674150Y-49013714D01*
X84674143Y-49013714D01*
X84404285Y-49013714D01*
X84404277Y-49013714D01*
X84137446Y-49053932D01*
X84137440Y-49053934D01*
X83879572Y-49133476D01*
X83636444Y-49250560D01*
X83413472Y-49402579D01*
X83215656Y-49586124D01*
X83047399Y-49797112D01*
X82912472Y-50030813D01*
X82912470Y-50030817D01*
X82813880Y-50282018D01*
X82813878Y-50282025D01*
X82753830Y-50545112D01*
X82733665Y-50814209D01*
X82343192Y-50814209D01*
X82339753Y-50318959D01*
X82340065Y-50309291D01*
X82356379Y-50081181D01*
X82358894Y-50063691D01*
X82406668Y-49844069D01*
X82411651Y-49827100D01*
X82412521Y-49824769D01*
X82490193Y-49616517D01*
X82497536Y-49600438D01*
X82605260Y-49403155D01*
X82614810Y-49388297D01*
X82749503Y-49208366D01*
X82761077Y-49195009D01*
X82920009Y-49036077D01*
X82933366Y-49024503D01*
X83113302Y-48889806D01*
X83128155Y-48880260D01*
X83325438Y-48772536D01*
X83341517Y-48765193D01*
X83552103Y-48686649D01*
X83569069Y-48681668D01*
X83788689Y-48633894D01*
X83806184Y-48631379D01*
X84034794Y-48615029D01*
X84043636Y-48614714D01*
X84086806Y-48614715D01*
X84086809Y-48614714D01*
X87930050Y-48614714D01*
X87997089Y-48634399D01*
G37*
%TD.AperFunction*%
%TD*%
M02*
