%TF.GenerationSoftware,KiCad,Pcbnew,8.0.3*%
%TF.CreationDate,2024-11-24T21:53:37-06:00*%
%TF.ProjectId,wearable_som,77656172-6162-46c6-955f-736f6d2e6b69,rev?*%
%TF.SameCoordinates,Original*%
%TF.FileFunction,Copper,L1,Top*%
%TF.FilePolarity,Positive*%
%FSLAX46Y46*%
G04 Gerber Fmt 4.6, Leading zero omitted, Abs format (unit mm)*
G04 Created by KiCad (PCBNEW 8.0.3) date 2024-11-24 21:53:37*
%MOMM*%
%LPD*%
G01*
G04 APERTURE LIST*
G04 Aperture macros list*
%AMRoundRect*
0 Rectangle with rounded corners*
0 $1 Rounding radius*
0 $2 $3 $4 $5 $6 $7 $8 $9 X,Y pos of 4 corners*
0 Add a 4 corners polygon primitive as box body*
4,1,4,$2,$3,$4,$5,$6,$7,$8,$9,$2,$3,0*
0 Add four circle primitives for the rounded corners*
1,1,$1+$1,$2,$3*
1,1,$1+$1,$4,$5*
1,1,$1+$1,$6,$7*
1,1,$1+$1,$8,$9*
0 Add four rect primitives between the rounded corners*
20,1,$1+$1,$2,$3,$4,$5,0*
20,1,$1+$1,$4,$5,$6,$7,0*
20,1,$1+$1,$6,$7,$8,$9,0*
20,1,$1+$1,$8,$9,$2,$3,0*%
G04 Aperture macros list end*
%TA.AperFunction,SMDPad,CuDef*%
%ADD10RoundRect,0.243750X0.243750X0.456250X-0.243750X0.456250X-0.243750X-0.456250X0.243750X-0.456250X0*%
%TD*%
%TA.AperFunction,SMDPad,CuDef*%
%ADD11R,0.279400X0.711200*%
%TD*%
%TA.AperFunction,SMDPad,CuDef*%
%ADD12R,0.457200X0.254000*%
%TD*%
%TA.AperFunction,ComponentPad*%
%ADD13R,1.000000X1.000000*%
%TD*%
%TA.AperFunction,SMDPad,CuDef*%
%ADD14RoundRect,0.250000X0.475000X-0.250000X0.475000X0.250000X-0.475000X0.250000X-0.475000X-0.250000X0*%
%TD*%
%TA.AperFunction,SMDPad,CuDef*%
%ADD15RoundRect,0.250000X-0.475000X0.250000X-0.475000X-0.250000X0.475000X-0.250000X0.475000X0.250000X0*%
%TD*%
%TA.AperFunction,SMDPad,CuDef*%
%ADD16RoundRect,0.250000X-0.262500X-0.450000X0.262500X-0.450000X0.262500X0.450000X-0.262500X0.450000X0*%
%TD*%
%TA.AperFunction,SMDPad,CuDef*%
%ADD17RoundRect,0.250000X-0.250000X-0.475000X0.250000X-0.475000X0.250000X0.475000X-0.250000X0.475000X0*%
%TD*%
%TA.AperFunction,ComponentPad*%
%ADD18R,1.700000X1.700000*%
%TD*%
%TA.AperFunction,ComponentPad*%
%ADD19O,1.700000X1.700000*%
%TD*%
%TA.AperFunction,SMDPad,CuDef*%
%ADD20RoundRect,0.218750X-0.218750X-0.381250X0.218750X-0.381250X0.218750X0.381250X-0.218750X0.381250X0*%
%TD*%
%TA.AperFunction,ComponentPad*%
%ADD21O,1.800000X1.000000*%
%TD*%
%TA.AperFunction,ComponentPad*%
%ADD22O,2.100000X1.000000*%
%TD*%
%TA.AperFunction,SMDPad,CuDef*%
%ADD23R,1.150000X0.300000*%
%TD*%
%TA.AperFunction,SMDPad,CuDef*%
%ADD24R,1.150000X0.600000*%
%TD*%
%TA.AperFunction,SMDPad,CuDef*%
%ADD25RoundRect,0.062500X-0.337500X-0.062500X0.337500X-0.062500X0.337500X0.062500X-0.337500X0.062500X0*%
%TD*%
%TA.AperFunction,HeatsinkPad*%
%ADD26R,1.700000X1.400000*%
%TD*%
%TA.AperFunction,SMDPad,CuDef*%
%ADD27RoundRect,0.250000X0.250000X0.550000X-0.250000X0.550000X-0.250000X-0.550000X0.250000X-0.550000X0*%
%TD*%
%TA.AperFunction,SMDPad,CuDef*%
%ADD28R,0.475000X0.250000*%
%TD*%
%TA.AperFunction,SMDPad,CuDef*%
%ADD29R,0.250000X0.475000*%
%TD*%
%TA.AperFunction,SMDPad,CuDef*%
%ADD30RoundRect,0.150000X-0.512500X-0.150000X0.512500X-0.150000X0.512500X0.150000X-0.512500X0.150000X0*%
%TD*%
%TA.AperFunction,SMDPad,CuDef*%
%ADD31R,0.650000X1.100000*%
%TD*%
%TA.AperFunction,SMDPad,CuDef*%
%ADD32R,1.000000X2.750000*%
%TD*%
%TA.AperFunction,SMDPad,CuDef*%
%ADD33RoundRect,0.250000X0.250000X0.475000X-0.250000X0.475000X-0.250000X-0.475000X0.250000X-0.475000X0*%
%TD*%
%TA.AperFunction,ComponentPad*%
%ADD34RoundRect,0.650000X0.650000X0.650000X-0.650000X0.650000X-0.650000X-0.650000X0.650000X-0.650000X0*%
%TD*%
%TA.AperFunction,ComponentPad*%
%ADD35C,2.600000*%
%TD*%
%TA.AperFunction,SMDPad,CuDef*%
%ADD36R,0.950000X0.350000*%
%TD*%
%TA.AperFunction,SMDPad,CuDef*%
%ADD37R,0.350000X0.950000*%
%TD*%
%TA.AperFunction,ComponentPad*%
%ADD38RoundRect,0.250000X-0.625000X0.350000X-0.625000X-0.350000X0.625000X-0.350000X0.625000X0.350000X0*%
%TD*%
%TA.AperFunction,ComponentPad*%
%ADD39O,1.750000X1.200000*%
%TD*%
%TA.AperFunction,SMDPad,CuDef*%
%ADD40R,2.750000X1.000000*%
%TD*%
%TA.AperFunction,SMDPad,CuDef*%
%ADD41RoundRect,0.243750X0.456250X-0.243750X0.456250X0.243750X-0.456250X0.243750X-0.456250X-0.243750X0*%
%TD*%
%TA.AperFunction,SMDPad,CuDef*%
%ADD42RoundRect,0.062500X-0.400000X-0.062500X0.400000X-0.062500X0.400000X0.062500X-0.400000X0.062500X0*%
%TD*%
%TA.AperFunction,SMDPad,CuDef*%
%ADD43RoundRect,0.062500X-0.062500X-0.400000X0.062500X-0.400000X0.062500X0.400000X-0.062500X0.400000X0*%
%TD*%
%TA.AperFunction,HeatsinkPad*%
%ADD44R,6.400000X6.400000*%
%TD*%
%TA.AperFunction,SMDPad,CuDef*%
%ADD45RoundRect,0.250000X-0.450000X0.262500X-0.450000X-0.262500X0.450000X-0.262500X0.450000X0.262500X0*%
%TD*%
%TA.AperFunction,SMDPad,CuDef*%
%ADD46R,0.863600X1.600200*%
%TD*%
%TA.AperFunction,SMDPad,CuDef*%
%ADD47R,1.200000X0.600000*%
%TD*%
%TA.AperFunction,SMDPad,CuDef*%
%ADD48R,0.800000X1.500000*%
%TD*%
%TA.AperFunction,SMDPad,CuDef*%
%ADD49R,0.900000X0.800000*%
%TD*%
%TA.AperFunction,ViaPad*%
%ADD50C,0.600000*%
%TD*%
%TA.AperFunction,ViaPad*%
%ADD51C,0.500000*%
%TD*%
%TA.AperFunction,Conductor*%
%ADD52C,0.150000*%
%TD*%
%TA.AperFunction,Conductor*%
%ADD53C,0.500000*%
%TD*%
%TA.AperFunction,Conductor*%
%ADD54C,0.300000*%
%TD*%
%TA.AperFunction,Conductor*%
%ADD55C,0.200000*%
%TD*%
G04 APERTURE END LIST*
D10*
%TO.P,D2,1,K*%
%TO.N,GND*%
X132312500Y-127025000D03*
%TO.P,D2,2,A*%
%TO.N,Net-(D2-A)*%
X130437500Y-127025000D03*
%TD*%
D11*
%TO.P,U4,1,IN*%
%TO.N,Net-(U4-IN)*%
X122684600Y-143975000D03*
D12*
%TO.P,U4,2,GND*%
%TO.N,GND*%
X122075000Y-144203600D03*
D11*
%TO.P,U4,3,OUT*%
%TO.N,Net-(U4-OUT)*%
X121465400Y-143975000D03*
D12*
%TO.P,U4,4,GND*%
%TO.N,GND*%
X122075000Y-143746400D03*
%TD*%
D13*
%TO.P,TP1,1,1*%
%TO.N,/VBUS*%
X107550000Y-124800000D03*
%TD*%
D14*
%TO.P,C10,1*%
%TO.N,/VBUS*%
X104175000Y-124375000D03*
%TO.P,C10,2*%
%TO.N,GND*%
X104175000Y-122475000D03*
%TD*%
D15*
%TO.P,C2,1*%
%TO.N,GND*%
X109000000Y-117850000D03*
%TO.P,C2,2*%
%TO.N,/RCC_OSC32_OUT*%
X109000000Y-119750000D03*
%TD*%
D16*
%TO.P,R4,1*%
%TO.N,/LED0*%
X127037500Y-127025000D03*
%TO.P,R4,2*%
%TO.N,Net-(D2-A)*%
X128862500Y-127025000D03*
%TD*%
D17*
%TO.P,C5,1*%
%TO.N,/RF1*%
X121125000Y-137775000D03*
%TO.P,C5,2*%
%TO.N,GND*%
X123025000Y-137775000D03*
%TD*%
D14*
%TO.P,C7,1*%
%TO.N,+3.3V*%
X127800000Y-118025000D03*
%TO.P,C7,2*%
%TO.N,GND*%
X127800000Y-116125000D03*
%TD*%
D18*
%TO.P,J1,1,Pin_1*%
%TO.N,/SWDIO*%
X131325000Y-123545000D03*
D19*
%TO.P,J1,2,Pin_2*%
%TO.N,/SWCLK*%
X131325000Y-121005000D03*
%TO.P,J1,3,Pin_3*%
%TO.N,+3.3V*%
X131325000Y-118465000D03*
%TO.P,J1,4,Pin_4*%
%TO.N,GND*%
X131325000Y-115925000D03*
%TD*%
D20*
%TO.P,FB1,1*%
%TO.N,+3.3V*%
X106312500Y-137375000D03*
%TO.P,FB1,2*%
%TO.N,+3.3VA*%
X108437500Y-137375000D03*
%TD*%
D16*
%TO.P,R5,1*%
%TO.N,Net-(U1-PH3)*%
X104112500Y-118887500D03*
%TO.P,R5,2*%
%TO.N,GND*%
X105937500Y-118887500D03*
%TD*%
D18*
%TO.P,R10,1*%
%TO.N,/ADC1_IN1*%
X111110000Y-140875000D03*
D19*
%TO.P,R10,2*%
%TO.N,GND*%
X113650000Y-140875000D03*
%TD*%
D21*
%TO.P,J2,SH4,SHELL_GND*%
%TO.N,GND*%
X95670000Y-132835000D03*
%TO.P,J2,SH3,SHELL_GND*%
X95670000Y-124195000D03*
D22*
%TO.P,J2,SH2,SHELL_GND*%
X99850000Y-132835000D03*
%TO.P,J2,SH1,SHELL_GND*%
X99850000Y-124195000D03*
D23*
%TO.P,J2,B8,SBU2*%
%TO.N,unconnected-(J2-SBU2-PadB8)*%
X100425000Y-126765000D03*
%TO.P,J2,B7,DN2*%
%TO.N,/DN*%
X100425000Y-127765000D03*
%TO.P,J2,B6,DP2*%
%TO.N,/DP*%
X100425000Y-129265000D03*
%TO.P,J2,B5,CC2*%
%TO.N,Net-(J2-CC2)*%
X100425000Y-130265000D03*
D24*
%TO.P,J2,B4_A9,VBUS*%
%TO.N,/VBUS*%
X100425000Y-130915000D03*
%TO.P,J2,B1_A12,GND*%
%TO.N,GND*%
X100425000Y-131715000D03*
D23*
%TO.P,J2,A8,SBU1*%
%TO.N,unconnected-(J2-SBU1-PadA8)*%
X100425000Y-129765000D03*
%TO.P,J2,A7,DN1*%
%TO.N,/DN*%
X100425000Y-128765000D03*
%TO.P,J2,A6,DP1*%
%TO.N,/DP*%
X100425000Y-128265000D03*
%TO.P,J2,A5,CC1*%
%TO.N,/CC1*%
X100425000Y-127265000D03*
D24*
%TO.P,J2,A4_B9,VBUS*%
%TO.N,/VBUS*%
X100425000Y-126115000D03*
%TO.P,J2,A1_B12,GND*%
%TO.N,GND*%
X100425000Y-125315000D03*
%TD*%
D25*
%TO.P,U3,1,V_{DD}*%
%TO.N,/VBUS*%
X106700000Y-133275000D03*
%TO.P,U3,2,V_{DD}*%
X106700000Y-133775000D03*
%TO.P,U3,3,V_{BAT}*%
%TO.N,/VBAT+*%
X106700000Y-134275000D03*
%TO.P,U3,4,V_{BAT}*%
X106700000Y-134775000D03*
%TO.P,U3,5,STAT*%
%TO.N,/STAT*%
X109600000Y-134775000D03*
%TO.P,U3,6,V_{SS}*%
%TO.N,GND*%
X109600000Y-134275000D03*
%TO.P,U3,7,NC*%
%TO.N,unconnected-(U3-NC-Pad7)*%
X109600000Y-133775000D03*
%TO.P,U3,8,PROG*%
%TO.N,Net-(U3-PROG)*%
X109600000Y-133275000D03*
D26*
%TO.P,U3,9*%
%TO.N,N/C*%
X108150000Y-134025000D03*
%TD*%
D27*
%TO.P,SW2,1,C*%
%TO.N,Net-(D1-K)*%
X104100000Y-143975000D03*
%TO.P,SW2,2,B*%
%TO.N,Net-(IC1-EN)*%
X102350000Y-146275000D03*
%TO.P,SW2,3,A*%
%TO.N,GND*%
X100600000Y-143975000D03*
%TD*%
D28*
%TO.P,U2,1,SDO*%
%TO.N,/SPI1_MISO*%
X112512500Y-128987500D03*
%TO.P,U2,2,ASDX*%
%TO.N,unconnected-(U2-ASDX-Pad2)*%
X112512500Y-128487500D03*
%TO.P,U2,3,ASCX*%
%TO.N,unconnected-(U2-ASCX-Pad3)*%
X112512500Y-127987500D03*
%TO.P,U2,4,INT1*%
%TO.N,/INT1*%
X112512500Y-127487500D03*
D29*
%TO.P,U2,5,VDDIO*%
%TO.N,+3.3V*%
X111850000Y-127325000D03*
%TO.P,U2,6,GNDIO*%
%TO.N,GND*%
X111350000Y-127325000D03*
%TO.P,U2,7,GND*%
X110850000Y-127325000D03*
D28*
%TO.P,U2,8,VDD*%
%TO.N,+3.3V*%
X110187500Y-127487500D03*
%TO.P,U2,9,INT2*%
%TO.N,/INT2*%
X110187500Y-127987500D03*
%TO.P,U2,10,OSCB*%
%TO.N,unconnected-(U2-OSCB-Pad10)*%
X110187500Y-128487500D03*
%TO.P,U2,11,OSDO*%
%TO.N,unconnected-(U2-OSDO-Pad11)*%
X110187500Y-128987500D03*
D29*
%TO.P,U2,12,CSB*%
%TO.N,/SPI1_NSS*%
X110850000Y-129150000D03*
%TO.P,U2,13,SCX*%
%TO.N,/SPI1_SCK*%
X111350000Y-129150000D03*
%TO.P,U2,14,SDX*%
%TO.N,/SPI1_MOSI*%
X111850000Y-129150000D03*
%TD*%
D30*
%TO.P,U6,1,I/O1*%
%TO.N,/DN*%
X105375000Y-127650000D03*
%TO.P,U6,2,GND*%
%TO.N,GND*%
X105375000Y-128600000D03*
%TO.P,U6,3,I/O2*%
%TO.N,/DP*%
X105375000Y-129550000D03*
%TO.P,U6,4,I/O2*%
%TO.N,/USB_DP*%
X107650000Y-129550000D03*
%TO.P,U6,5,VBUS*%
%TO.N,/VBUS*%
X107650000Y-128600000D03*
%TO.P,U6,6,I/O1*%
%TO.N,/USB_DN*%
X107650000Y-127650000D03*
%TD*%
D31*
%TO.P,Q1,1,D*%
%TO.N,/VBAT+*%
X102890000Y-134525000D03*
%TO.P,Q1,2,G*%
%TO.N,/VBUS*%
X104810000Y-134525000D03*
%TO.P,Q1,3,S*%
%TO.N,Net-(D1-K)*%
X103850000Y-132425000D03*
%TD*%
D32*
%TO.P,SW3,1,1*%
%TO.N,Net-(U1-PH3)*%
X100500000Y-114800000D03*
X100500000Y-120550000D03*
%TO.P,SW3,2,2*%
%TO.N,+3.3V*%
X96500000Y-114800000D03*
X96500000Y-120550000D03*
%TD*%
D15*
%TO.P,C1,1*%
%TO.N,GND*%
X114925000Y-117900000D03*
%TO.P,C1,2*%
%TO.N,/RCC_OSC32_IN*%
X114925000Y-119800000D03*
%TD*%
D17*
%TO.P,C4,1*%
%TO.N,Net-(D1-K)*%
X106400000Y-144325000D03*
%TO.P,C4,2*%
%TO.N,GND*%
X108300000Y-144325000D03*
%TD*%
D33*
%TO.P,C6,1*%
%TO.N,Net-(U4-IN)*%
X123175000Y-141525000D03*
%TO.P,C6,2*%
%TO.N,GND*%
X121275000Y-141525000D03*
%TD*%
D34*
%TO.P,M1,1,+*%
%TO.N,Net-(IC2-OUTP)*%
X121515000Y-110600000D03*
D35*
%TO.P,M1,2,-*%
%TO.N,Net-(IC2-OUTN)*%
X116435000Y-110600000D03*
%TD*%
D15*
%TO.P,C9,1*%
%TO.N,+3.3V*%
X130200000Y-129650000D03*
%TO.P,C9,2*%
%TO.N,GND*%
X130200000Y-131550000D03*
%TD*%
D36*
%TO.P,IC2,1,GPI_2*%
%TO.N,unconnected-(IC2-GPI_2-Pad1)*%
X120625000Y-118625000D03*
%TO.P,IC2,2,GPI_1*%
%TO.N,unconnected-(IC2-GPI_1-Pad2)*%
X120625000Y-117975000D03*
%TO.P,IC2,3,GPI_0/_PWM*%
%TO.N,unconnected-(IC2-GPI_0{slash}_PWM-Pad3)*%
X120625000Y-117325000D03*
D37*
%TO.P,IC2,4,VDD*%
%TO.N,+3.3V*%
X119875000Y-116575000D03*
%TO.P,IC2,5,OUTP*%
%TO.N,Net-(IC2-OUTP)*%
X119225000Y-116575000D03*
%TO.P,IC2,6,GND_1*%
%TO.N,GND*%
X118575000Y-116575000D03*
D36*
%TO.P,IC2,7,GND_2*%
X117825000Y-117325000D03*
%TO.P,IC2,8,OUTN*%
%TO.N,Net-(IC2-OUTN)*%
X117825000Y-117975000D03*
%TO.P,IC2,9,VDDIO*%
%TO.N,+3.3V*%
X117825000Y-118625000D03*
D37*
%TO.P,IC2,10,SDA*%
%TO.N,/ICS1_SDA*%
X118575000Y-119375000D03*
%TO.P,IC2,11,SCL*%
%TO.N,/ICS1_SCL*%
X119225000Y-119375000D03*
%TO.P,IC2,12,NIRQ*%
%TO.N,/NIRQ*%
X119875000Y-119375000D03*
%TD*%
D15*
%TO.P,C11,1*%
%TO.N,+3.3VA*%
X108025000Y-139475000D03*
%TO.P,C11,2*%
%TO.N,GND*%
X108025000Y-141375000D03*
%TD*%
D38*
%TO.P,BT1,1,+*%
%TO.N,/VBAT+*%
X97275000Y-138450000D03*
D39*
%TO.P,BT1,2,-*%
%TO.N,GND*%
X97275000Y-140450000D03*
%TD*%
D20*
%TO.P,L1,1,1*%
%TO.N,/RF1*%
X121062500Y-139650000D03*
%TO.P,L1,2,2*%
%TO.N,Net-(U4-IN)*%
X123187500Y-139650000D03*
%TD*%
D40*
%TO.P,SW1,1,1*%
%TO.N,/NRST*%
X111925000Y-114750000D03*
X106175000Y-114750000D03*
%TO.P,SW1,2,2*%
%TO.N,GND*%
X111925000Y-110750000D03*
X106175000Y-110750000D03*
%TD*%
D41*
%TO.P,D3,1,K*%
%TO.N,GND*%
X117350000Y-140025000D03*
%TO.P,D3,2,A*%
%TO.N,Net-(D3-A)*%
X117350000Y-138150000D03*
%TD*%
D16*
%TO.P,R7,1*%
%TO.N,+3.3VA*%
X110487500Y-137425000D03*
%TO.P,R7,2*%
%TO.N,/ADC1_IN1*%
X112312500Y-137425000D03*
%TD*%
D42*
%TO.P,U1,1,VBAT*%
%TO.N,+3.3V*%
X116312500Y-124600000D03*
%TO.P,U1,2,PC13*%
%TO.N,unconnected-(U1-PC13-Pad2)*%
X116312499Y-125000000D03*
%TO.P,U1,3,PC14*%
%TO.N,/RCC_OSC32_IN*%
X116312500Y-125400000D03*
%TO.P,U1,4,PC15*%
%TO.N,/RCC_OSC32_OUT*%
X116312500Y-125800000D03*
%TO.P,U1,5,PH3*%
%TO.N,Net-(U1-PH3)*%
X116312500Y-126200000D03*
%TO.P,U1,6,PB8*%
%TO.N,/ICS1_SCL*%
X116312500Y-126599999D03*
%TO.P,U1,7,PB9*%
%TO.N,/ICS1_SDA*%
X116312500Y-127000000D03*
%TO.P,U1,8,NRST*%
%TO.N,/NRST*%
X116312500Y-127400000D03*
%TO.P,U1,9,PC0*%
%TO.N,/ADC1_IN1*%
X116312499Y-127800000D03*
%TO.P,U1,10,PC1*%
%TO.N,/INT1*%
X116312500Y-128200000D03*
%TO.P,U1,11,PC2*%
%TO.N,/INT2*%
X116312500Y-128600000D03*
%TO.P,U1,12,PC3*%
%TO.N,unconnected-(U1-PC3-Pad12)*%
X116312500Y-129000001D03*
%TO.P,U1,13,VREF+*%
%TO.N,+3.3V*%
X116312500Y-129400000D03*
%TO.P,U1,14,VDDA*%
%TO.N,+3.3VA*%
X116312500Y-129800000D03*
%TO.P,U1,15,PA0*%
%TO.N,unconnected-(U1-PA0-Pad15)*%
X116312500Y-130200000D03*
%TO.P,U1,16,PA1*%
%TO.N,/SPI1_SCK*%
X116312499Y-130600000D03*
%TO.P,U1,17,PA2*%
%TO.N,unconnected-(U1-PA2-Pad17)*%
X116312500Y-131000000D03*
D43*
%TO.P,U1,18,PA3*%
%TO.N,unconnected-(U1-PA3-Pad18)*%
X117000000Y-131687500D03*
%TO.P,U1,19,PA4*%
%TO.N,/SPI1_NSS*%
X117400000Y-131687501D03*
%TO.P,U1,20,PA5*%
%TO.N,unconnected-(U1-PA5-Pad20)*%
X117800000Y-131687500D03*
%TO.P,U1,21,PA6*%
%TO.N,/SPI1_MISO*%
X118200000Y-131687500D03*
%TO.P,U1,22,PA7*%
%TO.N,/SPI1_MOSI*%
X118600000Y-131687500D03*
%TO.P,U1,23,PA8*%
%TO.N,/LED1*%
X118999999Y-131687500D03*
%TO.P,U1,24,PA9*%
%TO.N,unconnected-(U1-PA9-Pad24)*%
X119400000Y-131687500D03*
%TO.P,U1,25,PC4*%
%TO.N,unconnected-(U1-PC4-Pad25)*%
X119800000Y-131687500D03*
%TO.P,U1,26,PC5*%
%TO.N,unconnected-(U1-PC5-Pad26)*%
X120200000Y-131687501D03*
%TO.P,U1,27,PB2*%
%TO.N,/NIRQ*%
X120600000Y-131687500D03*
%TO.P,U1,28,PB10*%
%TO.N,unconnected-(U1-PB10-Pad28)*%
X121000000Y-131687500D03*
%TO.P,U1,29,PB11*%
%TO.N,unconnected-(U1-PB11-Pad29)*%
X121400001Y-131687500D03*
%TO.P,U1,30,VDD*%
%TO.N,+3.3V*%
X121800000Y-131687500D03*
%TO.P,U1,31,RF1*%
%TO.N,/RF1*%
X122200000Y-131687500D03*
%TO.P,U1,32,VSSRF*%
%TO.N,GND*%
X122600000Y-131687500D03*
%TO.P,U1,33,VDDRF*%
%TO.N,+3.3V*%
X123000000Y-131687501D03*
%TO.P,U1,34,OSC_OUT*%
%TO.N,/OSC_OUT*%
X123400000Y-131687500D03*
D42*
%TO.P,U1,35,OSC_IN*%
%TO.N,/OSC_IN*%
X124087500Y-131000000D03*
%TO.P,U1,36,AT0*%
%TO.N,unconnected-(U1-AT0-Pad36)*%
X124087501Y-130600000D03*
%TO.P,U1,37,AT1*%
%TO.N,unconnected-(U1-AT1-Pad37)*%
X124087500Y-130200000D03*
%TO.P,U1,38,PB0*%
%TO.N,unconnected-(U1-PB0-Pad38)*%
X124087500Y-129800000D03*
%TO.P,U1,39,PB1*%
%TO.N,unconnected-(U1-PB1-Pad39)*%
X124087500Y-129400000D03*
%TO.P,U1,40,PE4*%
%TO.N,unconnected-(U1-PE4-Pad40)*%
X124087500Y-129000001D03*
%TO.P,U1,41,VFBSMPS*%
%TO.N,unconnected-(U1-VFBSMPS-Pad41)*%
X124087500Y-128600000D03*
%TO.P,U1,42,VSSSMPS*%
%TO.N,GND*%
X124087500Y-128200000D03*
%TO.P,U1,43,VLXSMPS*%
%TO.N,unconnected-(U1-VLXSMPS-Pad43)*%
X124087501Y-127800000D03*
%TO.P,U1,44,VDDSMPS*%
%TO.N,+3.3V*%
X124087500Y-127400000D03*
%TO.P,U1,45,VDD*%
X124087500Y-127000000D03*
%TO.P,U1,46,PB12*%
%TO.N,unconnected-(U1-PB12-Pad46)*%
X124087500Y-126599999D03*
%TO.P,U1,47,PB13*%
%TO.N,/STAT*%
X124087500Y-126200000D03*
%TO.P,U1,48,PB14*%
%TO.N,unconnected-(U1-PB14-Pad48)*%
X124087500Y-125800000D03*
%TO.P,U1,49,PB15*%
%TO.N,unconnected-(U1-PB15-Pad49)*%
X124087500Y-125400000D03*
%TO.P,U1,50,PC6*%
%TO.N,unconnected-(U1-PC6-Pad50)*%
X124087501Y-125000000D03*
%TO.P,U1,51,PA10*%
%TO.N,/LED0*%
X124087500Y-124600000D03*
D43*
%TO.P,U1,52,PA11*%
%TO.N,/USB_DN*%
X123400000Y-123912500D03*
%TO.P,U1,53,PA12*%
%TO.N,/USB_DP*%
X123000000Y-123912499D03*
%TO.P,U1,54,PA13*%
%TO.N,/SWDIO*%
X122600000Y-123912500D03*
%TO.P,U1,55,VDDUSB*%
%TO.N,+3.3V*%
X122200000Y-123912500D03*
%TO.P,U1,56,PA14*%
%TO.N,/SWCLK*%
X121800000Y-123912500D03*
%TO.P,U1,57,PA15*%
%TO.N,unconnected-(U1-PA15-Pad57)*%
X121400001Y-123912500D03*
%TO.P,U1,58,PC10*%
%TO.N,unconnected-(U1-PC10-Pad58)*%
X121000000Y-123912500D03*
%TO.P,U1,59,PC11*%
%TO.N,unconnected-(U1-PC11-Pad59)*%
X120600000Y-123912500D03*
%TO.P,U1,60,PC12*%
%TO.N,unconnected-(U1-PC12-Pad60)*%
X120200000Y-123912499D03*
%TO.P,U1,61,PD0*%
%TO.N,unconnected-(U1-PD0-Pad61)*%
X119800000Y-123912500D03*
%TO.P,U1,62,PD1*%
%TO.N,unconnected-(U1-PD1-Pad62)*%
X119400000Y-123912500D03*
%TO.P,U1,63,PB3*%
%TO.N,unconnected-(U1-PB3-Pad63)*%
X118999999Y-123912500D03*
%TO.P,U1,64,PB4*%
%TO.N,unconnected-(U1-PB4-Pad64)*%
X118600000Y-123912500D03*
%TO.P,U1,65,PB5*%
%TO.N,unconnected-(U1-PB5-Pad65)*%
X118200000Y-123912500D03*
%TO.P,U1,66,PB6*%
%TO.N,unconnected-(U1-PB6-Pad66)*%
X117800000Y-123912500D03*
%TO.P,U1,67,PB7*%
%TO.N,unconnected-(U1-PB7-Pad67)*%
X117400000Y-123912499D03*
%TO.P,U1,68,VDD*%
%TO.N,+3.3V*%
X117000000Y-123912500D03*
D44*
%TO.P,U1,69,VSS*%
%TO.N,GND*%
X120200000Y-127800000D03*
%TD*%
D45*
%TO.P,R6,1*%
%TO.N,/LED1*%
X117350000Y-134725000D03*
%TO.P,R6,2*%
%TO.N,Net-(D3-A)*%
X117350000Y-136550000D03*
%TD*%
D46*
%TO.P,U5,1,1*%
%TO.N,Net-(U4-OUT)*%
X121526199Y-146950000D03*
%TO.P,U5,2,2*%
%TO.N,unconnected-(U5-Pad2)*%
X124573801Y-146950000D03*
%TD*%
D47*
%TO.P,IC1,1,IN*%
%TO.N,Net-(IC1-EN)*%
X102125000Y-137375000D03*
%TO.P,IC1,2,GND*%
%TO.N,GND*%
X102125000Y-138325000D03*
%TO.P,IC1,3,EN*%
%TO.N,Net-(IC1-EN)*%
X102125000Y-139275000D03*
%TO.P,IC1,4,NC*%
%TO.N,unconnected-(IC1-NC-Pad4)*%
X104625000Y-139275000D03*
%TO.P,IC1,5,OUT*%
%TO.N,+3.3V*%
X104625000Y-137375000D03*
%TD*%
D14*
%TO.P,C3,1*%
%TO.N,/NRST*%
X103375000Y-114025000D03*
%TO.P,C3,2*%
%TO.N,GND*%
X103375000Y-112125000D03*
%TD*%
D16*
%TO.P,R9,1*%
%TO.N,+3.3V*%
X108712500Y-121975000D03*
%TO.P,R9,2*%
%TO.N,/ICS1_SDA*%
X110537500Y-121975000D03*
%TD*%
D48*
%TO.P,Y2,1,1*%
%TO.N,/RCC_OSC32_IN*%
X112675000Y-119775000D03*
%TO.P,Y2,2,2*%
%TO.N,/RCC_OSC32_OUT*%
X111175000Y-119775000D03*
%TD*%
D13*
%TO.P,TP2,1,1*%
%TO.N,/VBAT+*%
X100100000Y-134675000D03*
%TD*%
%TO.P,TP3,1,1*%
%TO.N,Net-(D1-K)*%
X100775000Y-141350000D03*
%TD*%
D49*
%TO.P,Y1,1,1*%
%TO.N,/OSC_IN*%
X125425000Y-134350000D03*
%TO.P,Y1,2,2*%
%TO.N,GND*%
X126825000Y-134350000D03*
%TO.P,Y1,3,3*%
X126825000Y-133250000D03*
%TO.P,Y1,4,4*%
%TO.N,/OSC_OUT*%
X125425000Y-133250000D03*
%TD*%
D50*
%TO.N,/OSC_IN*%
X125425000Y-134350000D03*
X124375000Y-131875000D03*
%TO.N,GND*%
X105925000Y-118900000D03*
X107800000Y-131575000D03*
X108300000Y-144350000D03*
D51*
X122675000Y-128375000D03*
D50*
X117675000Y-116375000D03*
X117325000Y-140075000D03*
X111075000Y-126775000D03*
D51*
X118100000Y-127725000D03*
D50*
X114925000Y-116075000D03*
X103375000Y-112125000D03*
X100600000Y-143975000D03*
X105375000Y-128600000D03*
D51*
X121800000Y-127250000D03*
D50*
X132312500Y-127025000D03*
X95050000Y-130550000D03*
X110528133Y-134250000D03*
D51*
X122200000Y-125950000D03*
X120200000Y-127775000D03*
D50*
X95075000Y-126900000D03*
X111975000Y-110750000D03*
D51*
X120175000Y-129425000D03*
X118100000Y-125850000D03*
D50*
X116400000Y-142100000D03*
D51*
X122300000Y-129575000D03*
X118025000Y-129600000D03*
D50*
X101950000Y-138325000D03*
X130225000Y-131600000D03*
X104175000Y-122500000D03*
X106175000Y-110750000D03*
X106475000Y-139300000D03*
X108025000Y-141375000D03*
D51*
X122575000Y-130350000D03*
X117850000Y-130400000D03*
D50*
X125825000Y-131875000D03*
D51*
X120150000Y-125900000D03*
D50*
%TO.N,/NRST*%
X106175000Y-114750000D03*
X110088679Y-125325000D03*
%TO.N,Net-(D1-K)*%
X102650000Y-131750000D03*
X102575000Y-132700000D03*
X103875000Y-132425000D03*
X104100000Y-141975000D03*
%TO.N,+3.3V*%
X125625000Y-127800000D03*
D51*
X115300000Y-129175000D03*
D50*
X110125000Y-127250000D03*
D51*
X96500000Y-114800000D03*
D50*
X113975000Y-123825000D03*
D51*
X121400000Y-133050000D03*
D50*
X120725000Y-116400000D03*
D51*
X121100000Y-122675000D03*
D50*
X125000000Y-119600000D03*
X106275000Y-137375000D03*
D51*
X108725000Y-121975000D03*
D50*
X117625000Y-119475000D03*
D51*
X96500000Y-120525000D03*
X123075000Y-132575000D03*
D50*
X130200000Y-129650000D03*
%TO.N,/VBUS*%
X103850000Y-134637000D03*
%TO.N,/ICS1_SCL*%
X118433378Y-121275000D03*
X113131216Y-126070131D03*
%TO.N,/NIRQ*%
X119850000Y-121275000D03*
X120025000Y-133950000D03*
%TO.N,/ICS1_SDA*%
X117997755Y-120604004D03*
X110525000Y-122000000D03*
X111425000Y-125325000D03*
D51*
%TO.N,/SWCLK*%
X119725000Y-122700000D03*
D50*
X120500000Y-120750000D03*
D51*
%TO.N,/SWDIO*%
X122525000Y-122741315D03*
D50*
X121325000Y-121275000D03*
%TO.N,Net-(U3-PROG)*%
X109637500Y-131575000D03*
%TO.N,Net-(U1-PH3)*%
X110725000Y-124750000D03*
X106800000Y-121525000D03*
%TO.N,/ADC1_IN1*%
X112312500Y-137425000D03*
X113694087Y-127980913D03*
%TO.N,/STAT*%
X111400000Y-134800000D03*
X125547518Y-126277482D03*
%TO.N,/SPI1_MOSI*%
X111925000Y-131675000D03*
X111925000Y-130025000D03*
%TO.N,/INT2*%
X113163275Y-129290560D03*
X109125000Y-128575000D03*
%TO.N,+3.3VA*%
X114087116Y-130225000D03*
X110487500Y-137425000D03*
%TO.N,/SPI1_MISO*%
X113175000Y-131625000D03*
X112725003Y-130025000D03*
%TO.N,/CC1*%
X96900000Y-126875000D03*
%TO.N,Net-(J2-CC2)*%
X96875000Y-130550000D03*
%TO.N,/RCC_OSC32_IN*%
X112500000Y-123325000D03*
X112675000Y-119775000D03*
%TO.N,/RCC_OSC32_OUT*%
X111175000Y-119775000D03*
X111721966Y-123511182D03*
%TD*%
D52*
%TO.N,/OSC_IN*%
X124087500Y-131000000D02*
X124087500Y-131587500D01*
X124087500Y-131587500D02*
X124375000Y-131875000D01*
%TO.N,GND*%
X123025000Y-137775000D02*
X122600000Y-137350000D01*
X126825000Y-134350000D02*
X126825000Y-133250000D01*
X123025000Y-137775000D02*
X123050000Y-137750000D01*
D53*
X109050000Y-117900000D02*
X109000000Y-117850000D01*
X109000000Y-117850000D02*
X106975000Y-117850000D01*
X108300000Y-144350000D02*
X108325000Y-144350000D01*
D52*
X126825000Y-133250000D02*
X125825000Y-132250000D01*
X124087500Y-128200000D02*
X122850000Y-128200000D01*
X111350000Y-127325000D02*
X110850000Y-127325000D01*
X122600000Y-130375000D02*
X122575000Y-130350000D01*
X111075000Y-126775000D02*
X111075000Y-127100000D01*
D53*
X121275000Y-141525000D02*
X122075000Y-142325000D01*
D52*
X110503133Y-134275000D02*
X110528133Y-134250000D01*
D53*
X122075000Y-142325000D02*
X122075000Y-143746400D01*
D52*
X122600000Y-137350000D02*
X122600000Y-131687500D01*
D53*
X121275000Y-141525000D02*
X116975000Y-141525000D01*
D52*
X122850000Y-128200000D02*
X122675000Y-128375000D01*
X120600000Y-128200000D02*
X120200000Y-127800000D01*
X127800000Y-116400000D02*
X127850000Y-116400000D01*
X109600000Y-134275000D02*
X110503133Y-134275000D01*
X122600000Y-131687500D02*
X122600000Y-130375000D01*
X120200000Y-127775000D02*
X120175000Y-127775000D01*
X122675000Y-128375000D02*
X122500000Y-128200000D01*
X127800000Y-116125000D02*
X131125000Y-116125000D01*
D54*
X100425000Y-124770000D02*
X99850000Y-124195000D01*
X100425000Y-131715000D02*
X100425000Y-132260000D01*
D52*
X122500000Y-128200000D02*
X120600000Y-128200000D01*
D53*
X108025000Y-144050000D02*
X108300000Y-144325000D01*
X114925000Y-117900000D02*
X114925000Y-116075000D01*
D54*
X117825000Y-117325000D02*
X118225000Y-116925000D01*
D53*
X108025000Y-141375000D02*
X108025000Y-144050000D01*
X122075000Y-144203600D02*
X122075000Y-143746400D01*
X108300000Y-144325000D02*
X108300000Y-144350000D01*
D52*
X125825000Y-132250000D02*
X125825000Y-131875000D01*
D54*
X100425000Y-132260000D02*
X99850000Y-132835000D01*
D52*
X120200000Y-127800000D02*
X120200000Y-127775000D01*
D54*
X118225000Y-116925000D02*
X117675000Y-116375000D01*
D52*
X111350000Y-127050000D02*
X111075000Y-126775000D01*
D53*
X114925000Y-117900000D02*
X109050000Y-117900000D01*
D52*
X111075000Y-127100000D02*
X110850000Y-127325000D01*
X127850000Y-116400000D02*
X128325000Y-115925000D01*
D53*
X106975000Y-117850000D02*
X105925000Y-118900000D01*
D52*
X121475000Y-130200000D02*
X121600000Y-130075000D01*
D54*
X100425000Y-125315000D02*
X100425000Y-124770000D01*
D53*
X105925000Y-118900000D02*
X105937500Y-118887500D01*
D52*
X103375000Y-112125000D02*
X104800000Y-112125000D01*
X120175000Y-127775000D02*
X120200000Y-127800000D01*
X131125000Y-116125000D02*
X131325000Y-115925000D01*
X104800000Y-112125000D02*
X106175000Y-110750000D01*
X111350000Y-127325000D02*
X111350000Y-127050000D01*
D53*
X108325000Y-144350000D02*
X108300000Y-144325000D01*
X116975000Y-141525000D02*
X116400000Y-142100000D01*
D54*
X118225000Y-116925000D02*
X118575000Y-116575000D01*
D52*
%TO.N,/OSC_OUT*%
X123400000Y-131687500D02*
X124962500Y-133250000D01*
X124962500Y-133250000D02*
X125425000Y-133250000D01*
%TO.N,/NRST*%
X113230026Y-127013173D02*
X113616853Y-127400000D01*
D53*
X111925000Y-114750000D02*
X106175000Y-114750000D01*
D52*
X110663679Y-125900000D02*
X111652937Y-125900000D01*
X103375000Y-114025000D02*
X105450000Y-114025000D01*
X110088679Y-125325000D02*
X110663679Y-125900000D01*
X112766110Y-127013173D02*
X113230026Y-127013173D01*
X111652937Y-125900000D02*
X112766110Y-127013173D01*
X105450000Y-114025000D02*
X106175000Y-114750000D01*
X113616853Y-127400000D02*
X116312500Y-127400000D01*
D54*
%TO.N,Net-(D1-K)*%
X103850000Y-132425000D02*
X103325000Y-132425000D01*
X103325000Y-132425000D02*
X102650000Y-131750000D01*
X106050000Y-143975000D02*
X106400000Y-144325000D01*
X104100000Y-143975000D02*
X104100000Y-141975000D01*
X104100000Y-143975000D02*
X106050000Y-143975000D01*
X104150000Y-141925000D02*
X104100000Y-141975000D01*
D52*
%TO.N,/RF1*%
X121100000Y-137750000D02*
X121125000Y-137775000D01*
D53*
X121125000Y-139587500D02*
X121062500Y-139650000D01*
D52*
X122200000Y-133975000D02*
X121100000Y-135075000D01*
X121075000Y-137725000D02*
X121125000Y-137775000D01*
X122200000Y-131687500D02*
X122200000Y-133975000D01*
X121100000Y-135075000D02*
X121100000Y-137750000D01*
D53*
X121125000Y-137775000D02*
X121125000Y-139587500D01*
D54*
%TO.N,Net-(U4-IN)*%
X123175000Y-143484600D02*
X122684600Y-143975000D01*
X123175000Y-141525000D02*
X123175000Y-143484600D01*
D53*
X123187500Y-141512500D02*
X123175000Y-141525000D01*
X123187500Y-139650000D02*
X123187500Y-141512500D01*
D52*
%TO.N,+3.3V*%
X124087500Y-127000000D02*
X124087500Y-127400000D01*
X117825000Y-119275000D02*
X117625000Y-119475000D01*
D53*
X106312500Y-137375000D02*
X106275000Y-137375000D01*
D52*
X116312500Y-124600000D02*
X115537500Y-123825000D01*
X115300000Y-129175000D02*
X115525000Y-129400000D01*
X121457585Y-122675000D02*
X121100000Y-122675000D01*
X110125000Y-127250000D02*
X110125000Y-126982537D01*
X117825000Y-118625000D02*
X117825000Y-119275000D01*
X110125000Y-126982537D02*
X110857537Y-126250000D01*
X122200000Y-123912500D02*
X122200000Y-123417415D01*
X125625000Y-127800000D02*
X125225000Y-127400000D01*
X124825000Y-127000000D02*
X124087500Y-127000000D01*
X119875000Y-116575000D02*
X120550000Y-116575000D01*
X130885000Y-118025000D02*
X131325000Y-118465000D01*
X116312500Y-124600000D02*
X117000000Y-123912500D01*
X110125000Y-127250000D02*
X110125000Y-127425000D01*
X125225000Y-127400000D02*
X124087500Y-127400000D01*
X121800000Y-132650000D02*
X121400000Y-133050000D01*
X115525000Y-129400000D02*
X116312500Y-129400000D01*
X125625000Y-127800000D02*
X124825000Y-127000000D01*
X123000000Y-131687501D02*
X123000000Y-132500000D01*
X110125000Y-127425000D02*
X110187500Y-127487500D01*
X111507963Y-126250000D02*
X111850000Y-126592037D01*
X110857537Y-126250000D02*
X111507963Y-126250000D01*
X127800000Y-118025000D02*
X130885000Y-118025000D01*
D53*
X106275000Y-137375000D02*
X104625000Y-137375000D01*
D52*
X123000000Y-132500000D02*
X123075000Y-132575000D01*
X115537500Y-123825000D02*
X113975000Y-123825000D01*
X122200000Y-123417415D02*
X121457585Y-122675000D01*
X120550000Y-116575000D02*
X120725000Y-116400000D01*
X121800000Y-131687500D02*
X121800000Y-132650000D01*
X111850000Y-126592037D02*
X111850000Y-127325000D01*
D54*
%TO.N,/VBUS*%
X104835000Y-133775000D02*
X104810000Y-133750000D01*
D53*
X104810000Y-134525000D02*
X103962000Y-134525000D01*
X104810000Y-133300000D02*
X104810000Y-131610000D01*
D54*
X106637500Y-129661262D02*
X106637500Y-129188738D01*
D53*
X100425000Y-126115000D02*
X105213762Y-126115000D01*
D54*
X100425000Y-130915000D02*
X102635000Y-130915000D01*
X106387500Y-127999999D02*
X106987501Y-128600000D01*
X104835000Y-133275000D02*
X104810000Y-133300000D01*
D53*
X104810000Y-134525000D02*
X104810000Y-133750000D01*
D54*
X106637500Y-129188738D02*
X107226238Y-128600000D01*
X103350000Y-130200000D02*
X106098762Y-130200000D01*
X106700000Y-133275000D02*
X104835000Y-133275000D01*
D53*
X104175000Y-125076238D02*
X105213762Y-126115000D01*
D54*
X102635000Y-130915000D02*
X103350000Y-130200000D01*
D53*
X107550000Y-124800000D02*
X106528762Y-124800000D01*
D54*
X107226238Y-128600000D02*
X107650000Y-128600000D01*
X106098762Y-130200000D02*
X106637500Y-129661262D01*
D53*
X104810000Y-133750000D02*
X104810000Y-133300000D01*
D54*
X105213762Y-126115000D02*
X106387500Y-127288738D01*
D53*
X104175000Y-124375000D02*
X104175000Y-125076238D01*
X104810000Y-131610000D02*
X103400000Y-130200000D01*
X103962000Y-134525000D02*
X103850000Y-134637000D01*
D54*
X106700000Y-133775000D02*
X104835000Y-133775000D01*
X106387500Y-127288738D02*
X106387500Y-127999999D01*
D53*
X103400000Y-130200000D02*
X103350000Y-130200000D01*
D54*
X106987501Y-128600000D02*
X107650000Y-128600000D01*
D53*
X106528762Y-124800000D02*
X105213762Y-126115000D01*
%TO.N,Net-(D2-A)*%
X128862500Y-127025000D02*
X130437500Y-127025000D01*
D55*
%TO.N,Net-(IC1-EN)*%
X101750000Y-137375000D02*
X102125000Y-137375000D01*
X102350000Y-139500000D02*
X102125000Y-139275000D01*
X102125000Y-139275000D02*
X101575000Y-139275000D01*
X101225000Y-137900000D02*
X101750000Y-137375000D01*
X102350000Y-146275000D02*
X102350000Y-139500000D01*
X101225000Y-138925000D02*
X101225000Y-137900000D01*
X101575000Y-139275000D02*
X101225000Y-138925000D01*
D52*
%TO.N,/ICS1_SCL*%
X119225000Y-120450000D02*
X119225000Y-119375000D01*
X113806800Y-126599999D02*
X116312500Y-126599999D01*
X113276932Y-126070131D02*
X113806800Y-126599999D01*
X113131216Y-126070131D02*
X113276932Y-126070131D01*
X119200000Y-120475000D02*
X119225000Y-120450000D01*
X119200000Y-120550000D02*
X119200000Y-120475000D01*
X118475000Y-121275000D02*
X119200000Y-120550000D01*
X118433378Y-121275000D02*
X118475000Y-121275000D01*
%TO.N,/NIRQ*%
X119850000Y-121275000D02*
X119875000Y-121250000D01*
X120025000Y-133950000D02*
X120600000Y-133375000D01*
X120600000Y-133375000D02*
X120600000Y-131687500D01*
X119875000Y-121250000D02*
X119875000Y-119375000D01*
D54*
%TO.N,Net-(IC2-OUTP)*%
X121515000Y-110600000D02*
X119225000Y-112890000D01*
X119225000Y-112890000D02*
X119225000Y-116575000D01*
D52*
%TO.N,/ICS1_SDA*%
X113711827Y-127000000D02*
X116312500Y-127000000D01*
X117997755Y-119952245D02*
X118575000Y-119375000D01*
X111425000Y-125325000D02*
X111825000Y-125325000D01*
X112556216Y-126308304D02*
X112911085Y-126663173D01*
X112556216Y-126056216D02*
X112556216Y-126308304D01*
X112911085Y-126663173D02*
X113375000Y-126663173D01*
X113375000Y-126663173D02*
X113711827Y-127000000D01*
X117997755Y-120604004D02*
X117997755Y-119952245D01*
X111825000Y-125325000D02*
X112556216Y-126056216D01*
D54*
%TO.N,Net-(IC2-OUTN)*%
X117825000Y-117975000D02*
X117125000Y-117975000D01*
X117125000Y-117975000D02*
X116435000Y-117285000D01*
X116435000Y-117285000D02*
X116435000Y-110600000D01*
D52*
%TO.N,/SWCLK*%
X122505000Y-121005000D02*
X131325000Y-121005000D01*
X121800000Y-123441679D02*
X121800000Y-123912500D01*
X122200000Y-120700000D02*
X122505000Y-121005000D01*
X119725000Y-122700000D02*
X120249999Y-123224999D01*
X120249999Y-123224999D02*
X121583320Y-123224999D01*
X120500000Y-120750000D02*
X120550000Y-120700000D01*
X121583320Y-123224999D02*
X121800000Y-123441679D01*
X120550000Y-120700000D02*
X122200000Y-120700000D01*
%TO.N,/SWDIO*%
X129135000Y-121355000D02*
X121405000Y-121355000D01*
X122600000Y-123441680D02*
X122600000Y-123912500D01*
X121405000Y-121355000D02*
X121325000Y-121275000D01*
X122525000Y-123366680D02*
X122600000Y-123441680D01*
X131325000Y-123545000D02*
X129135000Y-121355000D01*
X122525000Y-122741315D02*
X122525000Y-123366680D01*
D54*
%TO.N,/VBAT+*%
X105550000Y-135425000D02*
X103718761Y-135425000D01*
X103718761Y-135425000D02*
X102890000Y-134596239D01*
X106700000Y-134275000D02*
X105550000Y-135425000D01*
X102890000Y-134596239D02*
X102890000Y-134525000D01*
X102890000Y-134525000D02*
X100250000Y-134525000D01*
D53*
X98965000Y-138450000D02*
X102890000Y-134525000D01*
X97275000Y-138450000D02*
X98965000Y-138450000D01*
D54*
X100250000Y-134525000D02*
X100100000Y-134675000D01*
D52*
%TO.N,Net-(U3-PROG)*%
X109600000Y-131612500D02*
X109637500Y-131575000D01*
X109600000Y-133275000D02*
X109600000Y-131612500D01*
%TO.N,/LED0*%
X124087500Y-124600000D02*
X126400000Y-124600000D01*
X127037500Y-125237500D02*
X127037500Y-127025000D01*
X126400000Y-124600000D02*
X127037500Y-125237500D01*
D53*
%TO.N,Net-(U1-PH3)*%
X102450000Y-120550000D02*
X104112500Y-118887500D01*
X100500000Y-114800000D02*
X104112500Y-118412500D01*
X100500000Y-120550000D02*
X102450000Y-120550000D01*
D52*
X104162500Y-118887500D02*
X104112500Y-118887500D01*
D53*
X104112500Y-118412500D02*
X104112500Y-118887500D01*
D52*
X106800000Y-121525000D02*
X104162500Y-118887500D01*
X112624258Y-124750000D02*
X114074258Y-126200000D01*
X114074258Y-126200000D02*
X116312500Y-126200000D01*
X110725000Y-124750000D02*
X112624258Y-124750000D01*
%TO.N,/ADC1_IN1*%
X113875000Y-127800000D02*
X113694087Y-127980913D01*
X116312499Y-127800000D02*
X113875000Y-127800000D01*
D53*
X112312500Y-139672500D02*
X111110000Y-140875000D01*
X112312500Y-137425000D02*
X112312500Y-139672500D01*
D52*
%TO.N,/STAT*%
X125470036Y-126200000D02*
X124087500Y-126200000D01*
X125547518Y-126277482D02*
X125470036Y-126200000D01*
X109600000Y-134775000D02*
X111375000Y-134775000D01*
X111375000Y-134775000D02*
X111400000Y-134800000D01*
%TO.N,/SPI1_MOSI*%
X111925000Y-131675000D02*
X112450000Y-131675000D01*
X114025000Y-133250000D02*
X117608319Y-133250000D01*
X118600000Y-132258319D02*
X118600000Y-131687500D01*
X111850000Y-129150000D02*
X111850000Y-129950000D01*
X117608319Y-133250000D02*
X118600000Y-132258319D01*
X112450000Y-131675000D02*
X114025000Y-133250000D01*
X111850000Y-129150000D02*
X111900000Y-129200000D01*
X111850000Y-129950000D02*
X111925000Y-130025000D01*
%TO.N,/INT2*%
X113621877Y-129290560D02*
X114312437Y-128600000D01*
X114312437Y-128600000D02*
X116312500Y-128600000D01*
X113163275Y-129290560D02*
X113621877Y-129290560D01*
X109712500Y-127987500D02*
X110187500Y-127987500D01*
X109125000Y-128575000D02*
X109712500Y-127987500D01*
D53*
%TO.N,+3.3VA*%
X110487500Y-137425000D02*
X108487500Y-137425000D01*
X108487500Y-137425000D02*
X108437500Y-137375000D01*
D52*
X114512116Y-129800000D02*
X116312500Y-129800000D01*
X114087116Y-130225000D02*
X114512116Y-129800000D01*
D53*
X108437500Y-137375000D02*
X108437500Y-139062500D01*
X108437500Y-139062500D02*
X108025000Y-139475000D01*
D52*
%TO.N,/INT1*%
X113813173Y-128675000D02*
X113575000Y-128675000D01*
X113025000Y-128125000D02*
X113025000Y-127587500D01*
X112925000Y-127487500D02*
X112512500Y-127487500D01*
X116312500Y-128200000D02*
X114288173Y-128200000D01*
X114288173Y-128200000D02*
X113813173Y-128675000D01*
X113025000Y-127587500D02*
X112925000Y-127487500D01*
X113575000Y-128675000D02*
X113025000Y-128125000D01*
%TO.N,/SPI1_SCK*%
X111350000Y-130400000D02*
X111700000Y-130750000D01*
X114570234Y-130600000D02*
X116312499Y-130600000D01*
X114420234Y-130750000D02*
X114570234Y-130600000D01*
X111350000Y-129150000D02*
X111350000Y-130400000D01*
X111700000Y-130750000D02*
X114420234Y-130750000D01*
%TO.N,/SPI1_NSS*%
X117400000Y-132158320D02*
X117133320Y-132425000D01*
X110850000Y-129150000D02*
X110850000Y-130394975D01*
X113400000Y-131050000D02*
X111505025Y-131050000D01*
X117133320Y-132425000D02*
X114775000Y-132425000D01*
X117400000Y-131687501D02*
X117400000Y-132158320D01*
X114775000Y-132425000D02*
X113400000Y-131050000D01*
X111505025Y-131050000D02*
X110850000Y-130394975D01*
%TO.N,/SPI1_MISO*%
X114450000Y-132900000D02*
X117458320Y-132900000D01*
X117458320Y-132900000D02*
X118200000Y-132158320D01*
X112575000Y-129874997D02*
X112575000Y-129050000D01*
X118200000Y-132158320D02*
X118200000Y-131687500D01*
X112575000Y-129050000D02*
X112512500Y-128987500D01*
X112725003Y-130025000D02*
X112575000Y-129874997D01*
X113175000Y-131625000D02*
X114450000Y-132900000D01*
D53*
%TO.N,Net-(D3-A)*%
X117350000Y-136550000D02*
X117350000Y-138150000D01*
D54*
%TO.N,Net-(U4-OUT)*%
X121465400Y-143975000D02*
X121465400Y-146889201D01*
X121465400Y-146889201D02*
X121526199Y-146950000D01*
D52*
%TO.N,/CC1*%
X97290000Y-127265000D02*
X96900000Y-126875000D01*
X100425000Y-127265000D02*
X97290000Y-127265000D01*
D55*
%TO.N,/DN*%
X104381249Y-127650000D02*
X105375000Y-127650000D01*
X103400000Y-128375000D02*
X103656249Y-128375000D01*
X100425000Y-128765000D02*
X101287501Y-128765000D01*
X103306800Y-128375000D02*
X103400000Y-128375000D01*
X101287501Y-128765000D02*
X101312501Y-128790000D01*
X103656249Y-128375000D02*
X104381249Y-127650000D01*
X101312501Y-128790000D02*
X102891800Y-128790000D01*
X100425000Y-127765000D02*
X102790000Y-127765000D01*
X102891800Y-128790000D02*
X103306800Y-128375000D01*
X102790000Y-127765000D02*
X103400000Y-128375000D01*
D52*
%TO.N,Net-(J2-CC2)*%
X97160000Y-130265000D02*
X96875000Y-130550000D01*
X100425000Y-130265000D02*
X97160000Y-130265000D01*
D55*
%TO.N,/DP*%
X103493200Y-128825000D02*
X103656249Y-128825000D01*
X104381249Y-129550000D02*
X105375000Y-129550000D01*
X101312501Y-129240000D02*
X103078200Y-129240000D01*
X99700000Y-128265000D02*
X99600000Y-128365000D01*
X101287501Y-129265000D02*
X101312501Y-129240000D01*
X99600000Y-128365000D02*
X99600000Y-129165000D01*
X103078200Y-129240000D02*
X103493200Y-128825000D01*
X99600000Y-129165000D02*
X99700000Y-129265000D01*
X100425000Y-128265000D02*
X99700000Y-128265000D01*
X100425000Y-129265000D02*
X101287501Y-129265000D01*
X99700000Y-129265000D02*
X100425000Y-129265000D01*
X103656249Y-128825000D02*
X104381249Y-129550000D01*
D52*
%TO.N,/LED1*%
X118999999Y-133075001D02*
X118999999Y-131687500D01*
X117350000Y-134725000D02*
X118999999Y-133075001D01*
%TO.N,/RCC_OSC32_IN*%
X112500000Y-123325000D02*
X114575000Y-125400000D01*
X114575000Y-125400000D02*
X116312500Y-125400000D01*
D53*
X112700000Y-119800000D02*
X112675000Y-119775000D01*
X114925000Y-119800000D02*
X112700000Y-119800000D01*
D52*
%TO.N,/RCC_OSC32_OUT*%
X114480026Y-125800000D02*
X116312500Y-125800000D01*
X111721966Y-123511182D02*
X112110784Y-123900000D01*
D53*
X111150000Y-119750000D02*
X111175000Y-119775000D01*
D52*
X112110784Y-123900000D02*
X112580026Y-123900000D01*
D53*
X109000000Y-119750000D02*
X111150000Y-119750000D01*
D52*
X112580026Y-123900000D02*
X114480026Y-125800000D01*
%TO.N,/USB_DN*%
X107650000Y-127650000D02*
X107650000Y-126275000D01*
X107650000Y-126275000D02*
X112075000Y-121850000D01*
X112075000Y-121850000D02*
X122875000Y-121850000D01*
X122875000Y-121850000D02*
X123400000Y-122375000D01*
X123400000Y-122375000D02*
X123400000Y-123912500D01*
%TO.N,/USB_DP*%
X123000000Y-122399264D02*
X123000000Y-123912499D01*
X107967696Y-129550000D02*
X108587500Y-128930196D01*
X112269974Y-122150000D02*
X122750736Y-122150000D01*
X122750736Y-122150000D02*
X123000000Y-122399264D01*
X108587500Y-125832474D02*
X112269974Y-122150000D01*
X108587500Y-128930196D02*
X108587500Y-125832474D01*
X107650000Y-129550000D02*
X107967696Y-129550000D01*
%TD*%
M02*
