%TF.GenerationSoftware,KiCad,Pcbnew,8.0.3*%
%TF.CreationDate,2024-11-24T21:53:37-06:00*%
%TF.ProjectId,wearable_som,77656172-6162-46c6-955f-736f6d2e6b69,rev?*%
%TF.SameCoordinates,Original*%
%TF.FileFunction,Paste,Top*%
%TF.FilePolarity,Positive*%
%FSLAX46Y46*%
G04 Gerber Fmt 4.6, Leading zero omitted, Abs format (unit mm)*
G04 Created by KiCad (PCBNEW 8.0.3) date 2024-11-24 21:53:37*
%MOMM*%
%LPD*%
G01*
G04 APERTURE LIST*
G04 Aperture macros list*
%AMRoundRect*
0 Rectangle with rounded corners*
0 $1 Rounding radius*
0 $2 $3 $4 $5 $6 $7 $8 $9 X,Y pos of 4 corners*
0 Add a 4 corners polygon primitive as box body*
4,1,4,$2,$3,$4,$5,$6,$7,$8,$9,$2,$3,0*
0 Add four circle primitives for the rounded corners*
1,1,$1+$1,$2,$3*
1,1,$1+$1,$4,$5*
1,1,$1+$1,$6,$7*
1,1,$1+$1,$8,$9*
0 Add four rect primitives between the rounded corners*
20,1,$1+$1,$2,$3,$4,$5,0*
20,1,$1+$1,$4,$5,$6,$7,0*
20,1,$1+$1,$6,$7,$8,$9,0*
20,1,$1+$1,$8,$9,$2,$3,0*%
G04 Aperture macros list end*
%ADD10RoundRect,0.243750X0.243750X0.456250X-0.243750X0.456250X-0.243750X-0.456250X0.243750X-0.456250X0*%
%ADD11R,0.279400X0.711200*%
%ADD12R,0.457200X0.254000*%
%ADD13RoundRect,0.250000X0.475000X-0.250000X0.475000X0.250000X-0.475000X0.250000X-0.475000X-0.250000X0*%
%ADD14RoundRect,0.250000X-0.475000X0.250000X-0.475000X-0.250000X0.475000X-0.250000X0.475000X0.250000X0*%
%ADD15RoundRect,0.250000X-0.262500X-0.450000X0.262500X-0.450000X0.262500X0.450000X-0.262500X0.450000X0*%
%ADD16RoundRect,0.250000X-0.250000X-0.475000X0.250000X-0.475000X0.250000X0.475000X-0.250000X0.475000X0*%
%ADD17RoundRect,0.218750X-0.218750X-0.381250X0.218750X-0.381250X0.218750X0.381250X-0.218750X0.381250X0*%
%ADD18R,1.150000X0.300000*%
%ADD19R,1.150000X0.600000*%
%ADD20RoundRect,0.140000X-0.205000X-0.140000X0.205000X-0.140000X0.205000X0.140000X-0.205000X0.140000X0*%
%ADD21RoundRect,0.062500X-0.337500X-0.062500X0.337500X-0.062500X0.337500X0.062500X-0.337500X0.062500X0*%
%ADD22RoundRect,0.250000X0.250000X0.550000X-0.250000X0.550000X-0.250000X-0.550000X0.250000X-0.550000X0*%
%ADD23R,0.475000X0.250000*%
%ADD24R,0.250000X0.475000*%
%ADD25RoundRect,0.150000X-0.512500X-0.150000X0.512500X-0.150000X0.512500X0.150000X-0.512500X0.150000X0*%
%ADD26R,0.650000X1.100000*%
%ADD27R,1.000000X2.750000*%
%ADD28RoundRect,0.250000X0.250000X0.475000X-0.250000X0.475000X-0.250000X-0.475000X0.250000X-0.475000X0*%
%ADD29R,0.950000X0.350000*%
%ADD30R,0.350000X0.950000*%
%ADD31R,2.750000X1.000000*%
%ADD32RoundRect,0.243750X0.456250X-0.243750X0.456250X0.243750X-0.456250X0.243750X-0.456250X-0.243750X0*%
%ADD33RoundRect,0.249999X-0.395001X-0.395001X0.395001X-0.395001X0.395001X0.395001X-0.395001X0.395001X0*%
%ADD34RoundRect,0.062500X-0.400000X-0.062500X0.400000X-0.062500X0.400000X0.062500X-0.400000X0.062500X0*%
%ADD35RoundRect,0.062500X-0.062500X-0.400000X0.062500X-0.400000X0.062500X0.400000X-0.062500X0.400000X0*%
%ADD36RoundRect,0.250000X-0.450000X0.262500X-0.450000X-0.262500X0.450000X-0.262500X0.450000X0.262500X0*%
%ADD37R,0.863600X1.600200*%
%ADD38R,1.200000X0.600000*%
%ADD39R,0.800000X1.500000*%
%ADD40R,0.900000X0.800000*%
G04 APERTURE END LIST*
D10*
%TO.C,D2*%
X132312500Y-127025000D03*
X130437500Y-127025000D03*
%TD*%
D11*
%TO.C,U4*%
X122684600Y-143975000D03*
D12*
X122075000Y-144203600D03*
D11*
X121465400Y-143975000D03*
D12*
X122075000Y-143746400D03*
%TD*%
D13*
%TO.C,C10*%
X104175000Y-124375000D03*
X104175000Y-122475000D03*
%TD*%
D14*
%TO.C,C2*%
X109000000Y-117850000D03*
X109000000Y-119750000D03*
%TD*%
D15*
%TO.C,R4*%
X127037500Y-127025000D03*
X128862500Y-127025000D03*
%TD*%
D16*
%TO.C,C5*%
X121125000Y-137775000D03*
X123025000Y-137775000D03*
%TD*%
D13*
%TO.C,C7*%
X127800000Y-118025000D03*
X127800000Y-116125000D03*
%TD*%
D17*
%TO.C,FB1*%
X106312500Y-137375000D03*
X108437500Y-137375000D03*
%TD*%
D15*
%TO.C,R5*%
X104112500Y-118887500D03*
X105937500Y-118887500D03*
%TD*%
D18*
%TO.C,J2*%
X100425000Y-126765000D03*
X100425000Y-127765000D03*
X100425000Y-129265000D03*
X100425000Y-130265000D03*
D19*
X100425000Y-130915000D03*
X100425000Y-131715000D03*
D18*
X100425000Y-129765000D03*
X100425000Y-128765000D03*
X100425000Y-128265000D03*
X100425000Y-127265000D03*
D19*
X100425000Y-126115000D03*
X100425000Y-125315000D03*
%TD*%
D20*
%TO.C,U3*%
X107725000Y-133675000D03*
X107725000Y-134375000D03*
X108575000Y-133675000D03*
X108575000Y-134375000D03*
D21*
X106700000Y-133275000D03*
X106700000Y-133775000D03*
X106700000Y-134275000D03*
X106700000Y-134775000D03*
X109600000Y-134775000D03*
X109600000Y-134275000D03*
X109600000Y-133775000D03*
X109600000Y-133275000D03*
%TD*%
D22*
%TO.C,SW2*%
X104100000Y-143975000D03*
X102350000Y-146275000D03*
X100600000Y-143975000D03*
%TD*%
D23*
%TO.C,U2*%
X112512500Y-128987500D03*
X112512500Y-128487500D03*
X112512500Y-127987500D03*
X112512500Y-127487500D03*
D24*
X111850000Y-127325000D03*
X111350000Y-127325000D03*
X110850000Y-127325000D03*
D23*
X110187500Y-127487500D03*
X110187500Y-127987500D03*
X110187500Y-128487500D03*
X110187500Y-128987500D03*
D24*
X110850000Y-129150000D03*
X111350000Y-129150000D03*
X111850000Y-129150000D03*
%TD*%
D25*
%TO.C,U6*%
X105375000Y-127650000D03*
X105375000Y-128600000D03*
X105375000Y-129550000D03*
X107650000Y-129550000D03*
X107650000Y-128600000D03*
X107650000Y-127650000D03*
%TD*%
D26*
%TO.C,Q1*%
X102890000Y-134525000D03*
X104810000Y-134525000D03*
X103850000Y-132425000D03*
%TD*%
D27*
%TO.C,SW3*%
X100500000Y-114800000D03*
X100500000Y-120550000D03*
X96500000Y-114800000D03*
X96500000Y-120550000D03*
%TD*%
D14*
%TO.C,C1*%
X114925000Y-117900000D03*
X114925000Y-119800000D03*
%TD*%
D16*
%TO.C,C4*%
X106400000Y-144325000D03*
X108300000Y-144325000D03*
%TD*%
D28*
%TO.C,C6*%
X123175000Y-141525000D03*
X121275000Y-141525000D03*
%TD*%
D14*
%TO.C,C9*%
X130200000Y-129650000D03*
X130200000Y-131550000D03*
%TD*%
D29*
%TO.C,IC2*%
X120625000Y-118625000D03*
X120625000Y-117975000D03*
X120625000Y-117325000D03*
D30*
X119875000Y-116575000D03*
X119225000Y-116575000D03*
X118575000Y-116575000D03*
D29*
X117825000Y-117325000D03*
X117825000Y-117975000D03*
X117825000Y-118625000D03*
D30*
X118575000Y-119375000D03*
X119225000Y-119375000D03*
X119875000Y-119375000D03*
%TD*%
D14*
%TO.C,C11*%
X108025000Y-139475000D03*
X108025000Y-141375000D03*
%TD*%
D17*
%TO.C,L1*%
X121062500Y-139650000D03*
X123187500Y-139650000D03*
%TD*%
D31*
%TO.C,SW1*%
X111925000Y-114750000D03*
X106175000Y-114750000D03*
X111925000Y-110750000D03*
X106175000Y-110750000D03*
%TD*%
D32*
%TO.C,D3*%
X117350000Y-140025000D03*
X117350000Y-138150000D03*
%TD*%
D15*
%TO.C,R7*%
X110487500Y-137425000D03*
X112312500Y-137425000D03*
%TD*%
D33*
%TO.C,U1*%
X117800000Y-125400000D03*
X117800000Y-127000000D03*
X117800000Y-128600000D03*
X117800000Y-130200000D03*
X119400000Y-125400000D03*
X119400000Y-127000000D03*
X119400000Y-128600000D03*
X119400000Y-130200000D03*
X121000000Y-125400000D03*
X121000000Y-127000000D03*
X121000000Y-128600000D03*
X121000000Y-130200000D03*
X122600000Y-125400000D03*
X122600000Y-127000000D03*
X122600000Y-128600000D03*
X122600000Y-130200000D03*
D34*
X116312500Y-124600000D03*
X116312499Y-125000000D03*
X116312500Y-125400000D03*
X116312500Y-125800000D03*
X116312500Y-126200000D03*
X116312500Y-126599999D03*
X116312500Y-127000000D03*
X116312500Y-127400000D03*
X116312499Y-127800000D03*
X116312500Y-128200000D03*
X116312500Y-128600000D03*
X116312500Y-129000001D03*
X116312500Y-129400000D03*
X116312500Y-129800000D03*
X116312500Y-130200000D03*
X116312499Y-130600000D03*
X116312500Y-131000000D03*
D35*
X117000000Y-131687500D03*
X117400000Y-131687501D03*
X117800000Y-131687500D03*
X118200000Y-131687500D03*
X118600000Y-131687500D03*
X118999999Y-131687500D03*
X119400000Y-131687500D03*
X119800000Y-131687500D03*
X120200000Y-131687501D03*
X120600000Y-131687500D03*
X121000000Y-131687500D03*
X121400001Y-131687500D03*
X121800000Y-131687500D03*
X122200000Y-131687500D03*
X122600000Y-131687500D03*
X123000000Y-131687501D03*
X123400000Y-131687500D03*
D34*
X124087500Y-131000000D03*
X124087501Y-130600000D03*
X124087500Y-130200000D03*
X124087500Y-129800000D03*
X124087500Y-129400000D03*
X124087500Y-129000001D03*
X124087500Y-128600000D03*
X124087500Y-128200000D03*
X124087501Y-127800000D03*
X124087500Y-127400000D03*
X124087500Y-127000000D03*
X124087500Y-126599999D03*
X124087500Y-126200000D03*
X124087500Y-125800000D03*
X124087500Y-125400000D03*
X124087501Y-125000000D03*
X124087500Y-124600000D03*
D35*
X123400000Y-123912500D03*
X123000000Y-123912499D03*
X122600000Y-123912500D03*
X122200000Y-123912500D03*
X121800000Y-123912500D03*
X121400001Y-123912500D03*
X121000000Y-123912500D03*
X120600000Y-123912500D03*
X120200000Y-123912499D03*
X119800000Y-123912500D03*
X119400000Y-123912500D03*
X118999999Y-123912500D03*
X118600000Y-123912500D03*
X118200000Y-123912500D03*
X117800000Y-123912500D03*
X117400000Y-123912499D03*
X117000000Y-123912500D03*
%TD*%
D36*
%TO.C,R6*%
X117350000Y-134725000D03*
X117350000Y-136550000D03*
%TD*%
D37*
%TO.C,U5*%
X121526199Y-146950000D03*
X124573801Y-146950000D03*
%TD*%
D38*
%TO.C,IC1*%
X102125000Y-137375000D03*
X102125000Y-138325000D03*
X102125000Y-139275000D03*
X104625000Y-139275000D03*
X104625000Y-137375000D03*
%TD*%
D13*
%TO.C,C3*%
X103375000Y-114025000D03*
X103375000Y-112125000D03*
%TD*%
D15*
%TO.C,R9*%
X108712500Y-121975000D03*
X110537500Y-121975000D03*
%TD*%
D39*
%TO.C,Y2*%
X112675000Y-119775000D03*
X111175000Y-119775000D03*
%TD*%
D40*
%TO.C,Y1*%
X125425000Y-134350000D03*
X126825000Y-134350000D03*
X126825000Y-133250000D03*
X125425000Y-133250000D03*
%TD*%
M02*
