%TF.GenerationSoftware,KiCad,Pcbnew,8.0.3*%
%TF.CreationDate,2024-12-07T22:28:51-06:00*%
%TF.ProjectId,wearable_som,77656172-6162-46c6-955f-736f6d2e6b69,rev?*%
%TF.SameCoordinates,Original*%
%TF.FileFunction,Copper,L3,Inr*%
%TF.FilePolarity,Positive*%
%FSLAX46Y46*%
G04 Gerber Fmt 4.6, Leading zero omitted, Abs format (unit mm)*
G04 Created by KiCad (PCBNEW 8.0.3) date 2024-12-07 22:28:51*
%MOMM*%
%LPD*%
G01*
G04 APERTURE LIST*
G04 Aperture macros list*
%AMRoundRect*
0 Rectangle with rounded corners*
0 $1 Rounding radius*
0 $2 $3 $4 $5 $6 $7 $8 $9 X,Y pos of 4 corners*
0 Add a 4 corners polygon primitive as box body*
4,1,4,$2,$3,$4,$5,$6,$7,$8,$9,$2,$3,0*
0 Add four circle primitives for the rounded corners*
1,1,$1+$1,$2,$3*
1,1,$1+$1,$4,$5*
1,1,$1+$1,$6,$7*
1,1,$1+$1,$8,$9*
0 Add four rect primitives between the rounded corners*
20,1,$1+$1,$2,$3,$4,$5,0*
20,1,$1+$1,$4,$5,$6,$7,0*
20,1,$1+$1,$6,$7,$8,$9,0*
20,1,$1+$1,$8,$9,$2,$3,0*%
G04 Aperture macros list end*
%TA.AperFunction,ComponentPad*%
%ADD10R,1.000000X1.000000*%
%TD*%
%TA.AperFunction,ComponentPad*%
%ADD11R,1.700000X1.700000*%
%TD*%
%TA.AperFunction,ComponentPad*%
%ADD12O,1.700000X1.700000*%
%TD*%
%TA.AperFunction,ComponentPad*%
%ADD13O,2.100000X1.000000*%
%TD*%
%TA.AperFunction,ComponentPad*%
%ADD14O,1.800000X1.000000*%
%TD*%
%TA.AperFunction,ComponentPad*%
%ADD15RoundRect,0.650000X0.650000X0.650000X-0.650000X0.650000X-0.650000X-0.650000X0.650000X-0.650000X0*%
%TD*%
%TA.AperFunction,ComponentPad*%
%ADD16C,2.600000*%
%TD*%
%TA.AperFunction,ComponentPad*%
%ADD17RoundRect,0.250000X-0.625000X0.350000X-0.625000X-0.350000X0.625000X-0.350000X0.625000X0.350000X0*%
%TD*%
%TA.AperFunction,ComponentPad*%
%ADD18O,1.750000X1.200000*%
%TD*%
%TA.AperFunction,ViaPad*%
%ADD19C,0.600000*%
%TD*%
%TA.AperFunction,ViaPad*%
%ADD20C,0.500000*%
%TD*%
%TA.AperFunction,Conductor*%
%ADD21C,0.300000*%
%TD*%
%TA.AperFunction,Conductor*%
%ADD22C,0.150000*%
%TD*%
G04 APERTURE END LIST*
D10*
%TO.N,/VBUS*%
%TO.C,TP1*%
X107550000Y-124800000D03*
%TD*%
D11*
%TO.N,/SWDIO*%
%TO.C,J1*%
X131325000Y-123545000D03*
D12*
%TO.N,/SWCLK*%
X131325000Y-121005000D03*
%TO.N,+3.3V*%
X131325000Y-118465000D03*
%TO.N,GND*%
X131325000Y-115925000D03*
%TD*%
D11*
%TO.N,/ADC1_IN1*%
%TO.C,R10*%
X111110000Y-140875000D03*
D12*
%TO.N,GND*%
X113650000Y-140875000D03*
%TD*%
D13*
%TO.N,GND*%
%TO.C,J2*%
X99850000Y-124195000D03*
X99850000Y-132835000D03*
D14*
X95670000Y-124195000D03*
X95670000Y-132835000D03*
%TD*%
D15*
%TO.N,Net-(IC2-OUTP)*%
%TO.C,M1*%
X121515000Y-110600000D03*
D16*
%TO.N,Net-(IC2-OUTN)*%
X116435000Y-110600000D03*
%TD*%
D17*
%TO.N,/VBAT+*%
%TO.C,BT1*%
X97275000Y-138450000D03*
D18*
%TO.N,GND*%
X97275000Y-140450000D03*
%TD*%
D10*
%TO.N,/VBAT+*%
%TO.C,TP2*%
X100100000Y-134675000D03*
%TD*%
%TO.N,Net-(D1-K)*%
%TO.C,TP3*%
X100775000Y-141350000D03*
%TD*%
D11*
%TO.N,/USART1_TX*%
%TO.C,J3*%
X126675000Y-110495000D03*
D12*
%TO.N,/USART1_RX*%
X126675000Y-113035000D03*
%TO.N,GND*%
X126675000Y-115575000D03*
%TD*%
D19*
%TO.N,/OSC_IN*%
X125425000Y-134350000D03*
X124375000Y-131875000D03*
%TO.N,GND*%
X105925000Y-118900000D03*
X107800000Y-131575000D03*
X108300000Y-144350000D03*
D20*
X122675000Y-128375000D03*
D19*
X117675000Y-116375000D03*
X117325000Y-140075000D03*
X111075000Y-126775000D03*
D20*
X118100000Y-127725000D03*
D19*
X114925000Y-116075000D03*
X103375000Y-112125000D03*
X100600000Y-143975000D03*
X105375000Y-128600000D03*
D20*
X121800000Y-127250000D03*
D19*
X132312500Y-127025000D03*
X95050000Y-130550000D03*
X110528133Y-134250000D03*
D20*
X122200000Y-125950000D03*
X120200000Y-127775000D03*
D19*
X95075000Y-126900000D03*
X111975000Y-110750000D03*
D20*
X120175000Y-129425000D03*
X118100000Y-125850000D03*
D19*
X116400000Y-142100000D03*
D20*
X122300000Y-129575000D03*
X118025000Y-129600000D03*
D19*
X101950000Y-138325000D03*
X130225000Y-131600000D03*
X104175000Y-122500000D03*
X106175000Y-110750000D03*
X106475000Y-139300000D03*
D20*
X128425000Y-118175000D03*
D19*
X108025000Y-141375000D03*
D20*
X122575000Y-130350000D03*
X117850000Y-130400000D03*
D19*
X125825000Y-131875000D03*
D20*
X120150000Y-125900000D03*
D19*
%TO.N,/NRST*%
X106175000Y-114750000D03*
X110088679Y-125325000D03*
%TO.N,Net-(D1-K)*%
X102650000Y-131750000D03*
X102575000Y-132700000D03*
X103875000Y-132425000D03*
X104100000Y-141975000D03*
%TO.N,+3.3V*%
X125150000Y-127175000D03*
D20*
X115300000Y-129175000D03*
D19*
X109925000Y-126800000D03*
D20*
X96500000Y-114800000D03*
D19*
X113975000Y-123825000D03*
D20*
X121400000Y-133050000D03*
D19*
X120725000Y-116400000D03*
D20*
X121100000Y-122675000D03*
X128425000Y-120075000D03*
D19*
X125000000Y-119600000D03*
X106275000Y-137375000D03*
D20*
X108725000Y-121975000D03*
D19*
X117625000Y-119475000D03*
D20*
X96500000Y-120525000D03*
X123075000Y-132575000D03*
D19*
X130200000Y-129650000D03*
%TO.N,/VBUS*%
X103850000Y-134637000D03*
D20*
%TO.N,/ICS1_SCL*%
X123175000Y-119525000D03*
D19*
X118433378Y-121275000D03*
X113131216Y-126070131D03*
%TO.N,/NIRQ*%
X119850000Y-121275000D03*
X120025000Y-133950000D03*
%TO.N,/ICS1_SDA*%
X117997755Y-120604004D03*
X110525000Y-122000000D03*
X111425000Y-125325000D03*
D20*
%TO.N,/SWCLK*%
X119725000Y-122700000D03*
D19*
X120500000Y-120750000D03*
D20*
%TO.N,/SWDIO*%
X122525000Y-122741315D03*
D19*
X121325000Y-121275000D03*
%TO.N,Net-(U3-PROG)*%
X109637500Y-131575000D03*
%TO.N,Net-(U1-PH3)*%
X110725000Y-124750000D03*
X106800000Y-121525000D03*
%TO.N,/ADC1_IN1*%
X112312500Y-137425000D03*
X113694087Y-127980913D03*
%TO.N,/STAT*%
X111400000Y-134800000D03*
X125175000Y-125700000D03*
%TO.N,/SPI1_MOSI*%
X111925000Y-131675000D03*
X111925000Y-130025000D03*
D20*
%TO.N,/USART1_RX*%
X125675000Y-124200000D03*
%TO.N,/USART1_TX*%
X119775000Y-132825000D03*
D19*
%TO.N,/INT2*%
X113163275Y-129290560D03*
X109125000Y-128575000D03*
%TO.N,+3.3VA*%
X114087116Y-130225000D03*
X110487500Y-137425000D03*
%TO.N,/SPI1_MISO*%
X113175000Y-131625000D03*
X112725003Y-130025000D03*
%TO.N,/CC1*%
X96900000Y-126875000D03*
%TO.N,Net-(J2-CC2)*%
X96875000Y-130550000D03*
%TO.N,/RCC_OSC32_IN*%
X112500000Y-123325000D03*
X112675000Y-119775000D03*
%TO.N,/RCC_OSC32_OUT*%
X111175000Y-119775000D03*
X111721966Y-123511182D03*
%TD*%
D21*
%TO.N,GND*%
X99850000Y-132835000D02*
X95670000Y-132835000D01*
X99850000Y-124195000D02*
X95670000Y-124195000D01*
D22*
%TO.N,+3.3VA*%
X114087116Y-130225000D02*
X114100000Y-130237884D01*
D21*
X114087116Y-133825384D02*
X114087116Y-130225000D01*
X110487500Y-137425000D02*
X114087116Y-133825384D01*
%TD*%
%TA.AperFunction,Conductor*%
%TO.N,GND*%
G36*
X115262822Y-109020185D02*
G01*
X115308577Y-109072989D01*
X115318521Y-109142147D01*
X115289496Y-109205703D01*
X115280130Y-109215392D01*
X115271106Y-109223766D01*
X115111442Y-109371910D01*
X114943185Y-109582898D01*
X114808258Y-109816599D01*
X114808256Y-109816603D01*
X114709666Y-110067804D01*
X114709664Y-110067811D01*
X114649616Y-110330898D01*
X114629451Y-110599995D01*
X114629451Y-110600004D01*
X114649616Y-110869101D01*
X114709664Y-111132188D01*
X114709666Y-111132195D01*
X114808256Y-111383396D01*
X114808258Y-111383400D01*
X114813727Y-111392872D01*
X114943185Y-111617102D01*
X115014680Y-111706753D01*
X115111442Y-111828089D01*
X115283945Y-111988147D01*
X115309259Y-112011635D01*
X115532226Y-112163651D01*
X115775359Y-112280738D01*
X116033228Y-112360280D01*
X116033229Y-112360280D01*
X116033232Y-112360281D01*
X116300063Y-112400499D01*
X116300068Y-112400499D01*
X116300071Y-112400500D01*
X116300072Y-112400500D01*
X116569928Y-112400500D01*
X116569929Y-112400500D01*
X116569936Y-112400499D01*
X116836767Y-112360281D01*
X116836768Y-112360280D01*
X116836772Y-112360280D01*
X117094641Y-112280738D01*
X117337775Y-112163651D01*
X117560741Y-112011635D01*
X117723125Y-111860965D01*
X117758557Y-111828089D01*
X117758557Y-111828087D01*
X117758561Y-111828085D01*
X117926815Y-111617102D01*
X118061743Y-111383398D01*
X118160334Y-111132195D01*
X118220383Y-110869103D01*
X118240549Y-110600000D01*
X118228181Y-110434962D01*
X118220383Y-110330898D01*
X118220383Y-110330897D01*
X118160334Y-110067805D01*
X118061743Y-109816602D01*
X117926815Y-109582898D01*
X117758561Y-109371915D01*
X117758560Y-109371914D01*
X117758557Y-109371910D01*
X117648739Y-109270015D01*
X117589875Y-109215397D01*
X117554121Y-109155371D01*
X117556496Y-109085541D01*
X117596246Y-109028081D01*
X117660752Y-109001233D01*
X117674217Y-109000500D01*
X119888084Y-109000500D01*
X119955123Y-109020185D01*
X120000878Y-109072989D01*
X120010822Y-109142147D01*
X119981797Y-109205703D01*
X119976279Y-109211628D01*
X119976088Y-109211858D01*
X119866447Y-109371915D01*
X119855591Y-109387763D01*
X119849009Y-109402671D01*
X119769467Y-109582817D01*
X119769465Y-109582823D01*
X119720652Y-109790359D01*
X119720650Y-109790375D01*
X119714500Y-109878984D01*
X119714500Y-111321015D01*
X119720650Y-111409624D01*
X119720652Y-111409640D01*
X119769465Y-111617176D01*
X119769467Y-111617182D01*
X119769468Y-111617185D01*
X119855591Y-111812237D01*
X119878376Y-111845499D01*
X119976088Y-111988141D01*
X119976093Y-111988147D01*
X120126852Y-112138906D01*
X120126858Y-112138911D01*
X120302763Y-112259409D01*
X120497815Y-112345532D01*
X120497821Y-112345533D01*
X120497823Y-112345534D01*
X120705359Y-112394347D01*
X120705364Y-112394347D01*
X120705370Y-112394349D01*
X120754602Y-112397766D01*
X120793984Y-112400500D01*
X120793988Y-112400500D01*
X122236016Y-112400500D01*
X122271459Y-112398039D01*
X122324630Y-112394349D01*
X122324636Y-112394347D01*
X122324640Y-112394347D01*
X122480468Y-112357695D01*
X122532185Y-112345532D01*
X122727237Y-112259409D01*
X122903142Y-112138911D01*
X123053911Y-111988142D01*
X123174409Y-111812237D01*
X123260532Y-111617185D01*
X123309349Y-111409630D01*
X123315500Y-111321012D01*
X123315500Y-109878988D01*
X123309349Y-109790370D01*
X123309347Y-109790364D01*
X123309347Y-109790359D01*
X123260534Y-109582823D01*
X123260532Y-109582817D01*
X123260532Y-109582815D01*
X123174409Y-109387763D01*
X123053911Y-109211858D01*
X123050249Y-109207448D01*
X123051213Y-109206647D01*
X123020750Y-109150858D01*
X123025734Y-109081166D01*
X123067606Y-109025233D01*
X123133070Y-109000816D01*
X123141916Y-109000500D01*
X125478218Y-109000500D01*
X125545257Y-109020185D01*
X125591012Y-109072989D01*
X125600956Y-109142147D01*
X125571931Y-109205703D01*
X125552529Y-109223766D01*
X125467455Y-109287452D01*
X125467452Y-109287455D01*
X125381206Y-109402664D01*
X125381202Y-109402671D01*
X125330908Y-109537517D01*
X125324501Y-109597116D01*
X125324501Y-109597123D01*
X125324500Y-109597135D01*
X125324500Y-111392870D01*
X125324501Y-111392876D01*
X125330908Y-111452483D01*
X125381202Y-111587328D01*
X125381206Y-111587335D01*
X125467452Y-111702544D01*
X125467455Y-111702547D01*
X125582664Y-111788793D01*
X125582671Y-111788797D01*
X125714081Y-111837810D01*
X125770015Y-111879681D01*
X125794432Y-111945145D01*
X125779580Y-112013418D01*
X125758430Y-112041673D01*
X125636503Y-112163600D01*
X125500965Y-112357169D01*
X125500964Y-112357171D01*
X125401098Y-112571335D01*
X125401094Y-112571344D01*
X125339938Y-112799586D01*
X125339936Y-112799596D01*
X125319341Y-113034999D01*
X125319341Y-113035000D01*
X125339936Y-113270403D01*
X125339938Y-113270413D01*
X125401094Y-113498655D01*
X125401096Y-113498659D01*
X125401097Y-113498663D01*
X125500965Y-113712830D01*
X125500967Y-113712834D01*
X125636501Y-113906395D01*
X125636506Y-113906402D01*
X125803597Y-114073493D01*
X125803603Y-114073498D01*
X125989594Y-114203730D01*
X126033219Y-114258307D01*
X126040413Y-114327805D01*
X126008890Y-114390160D01*
X125989595Y-114406880D01*
X125803922Y-114536890D01*
X125803920Y-114536891D01*
X125636891Y-114703920D01*
X125636886Y-114703926D01*
X125501400Y-114897420D01*
X125501399Y-114897422D01*
X125401570Y-115111507D01*
X125401567Y-115111513D01*
X125344364Y-115324999D01*
X125344364Y-115325000D01*
X126241988Y-115325000D01*
X126209075Y-115382007D01*
X126175000Y-115509174D01*
X126175000Y-115640826D01*
X126209075Y-115767993D01*
X126241988Y-115825000D01*
X125344364Y-115825000D01*
X125401567Y-116038486D01*
X125401570Y-116038492D01*
X125501399Y-116252578D01*
X125636894Y-116446082D01*
X125803917Y-116613105D01*
X125997421Y-116748600D01*
X126211507Y-116848429D01*
X126211516Y-116848433D01*
X126425000Y-116905634D01*
X126425000Y-116008012D01*
X126482007Y-116040925D01*
X126609174Y-116075000D01*
X126740826Y-116075000D01*
X126867993Y-116040925D01*
X126925000Y-116008012D01*
X126925000Y-116905633D01*
X127138483Y-116848433D01*
X127138492Y-116848429D01*
X127352578Y-116748600D01*
X127546082Y-116613105D01*
X127713105Y-116446082D01*
X127848600Y-116252578D01*
X127948429Y-116038492D01*
X127948432Y-116038486D01*
X128005636Y-115825000D01*
X127108012Y-115825000D01*
X127140925Y-115767993D01*
X127175000Y-115640826D01*
X127175000Y-115509174D01*
X127140925Y-115382007D01*
X127108012Y-115325000D01*
X128005636Y-115325000D01*
X128005635Y-115324999D01*
X127948432Y-115111513D01*
X127948429Y-115111507D01*
X127848600Y-114897422D01*
X127848599Y-114897420D01*
X127713113Y-114703926D01*
X127713108Y-114703920D01*
X127546078Y-114536890D01*
X127360405Y-114406879D01*
X127316780Y-114352302D01*
X127309588Y-114282804D01*
X127341110Y-114220449D01*
X127360406Y-114203730D01*
X127479722Y-114120184D01*
X127546401Y-114073495D01*
X127713495Y-113906401D01*
X127849035Y-113712830D01*
X127948903Y-113498663D01*
X128010063Y-113270408D01*
X128030659Y-113035000D01*
X128010063Y-112799592D01*
X127948903Y-112571337D01*
X127849035Y-112357171D01*
X127840885Y-112345532D01*
X127713496Y-112163600D01*
X127688802Y-112138906D01*
X127591567Y-112041671D01*
X127558084Y-111980351D01*
X127563068Y-111910659D01*
X127604939Y-111854725D01*
X127635915Y-111837810D01*
X127767331Y-111788796D01*
X127882546Y-111702546D01*
X127968796Y-111587331D01*
X128019091Y-111452483D01*
X128025500Y-111392873D01*
X128025499Y-109597128D01*
X128019091Y-109537517D01*
X127999225Y-109484254D01*
X127968797Y-109402671D01*
X127968793Y-109402664D01*
X127882547Y-109287455D01*
X127882544Y-109287452D01*
X127797471Y-109223766D01*
X127755600Y-109167832D01*
X127750616Y-109098141D01*
X127784102Y-109036818D01*
X127845425Y-109003334D01*
X127871782Y-109000500D01*
X130251744Y-109000500D01*
X130318783Y-109020185D01*
X130364538Y-109072989D01*
X130374482Y-109142147D01*
X130345457Y-109205703D01*
X130311171Y-109233332D01*
X130165690Y-109312770D01*
X130165682Y-109312775D01*
X129936612Y-109484254D01*
X129936594Y-109484270D01*
X129734270Y-109686594D01*
X129734254Y-109686612D01*
X129562775Y-109915682D01*
X129562770Y-109915690D01*
X129425635Y-110166833D01*
X129325628Y-110434962D01*
X129264804Y-110714566D01*
X129244390Y-110999998D01*
X129244390Y-111000001D01*
X129264804Y-111285433D01*
X129325628Y-111565037D01*
X129325630Y-111565043D01*
X129325631Y-111565046D01*
X129378485Y-111706753D01*
X129425635Y-111833166D01*
X129562770Y-112084309D01*
X129562775Y-112084317D01*
X129734254Y-112313387D01*
X129734270Y-112313405D01*
X129936594Y-112515729D01*
X129936612Y-112515745D01*
X130165682Y-112687224D01*
X130165690Y-112687229D01*
X130416833Y-112824364D01*
X130416832Y-112824364D01*
X130416836Y-112824365D01*
X130416839Y-112824367D01*
X130684954Y-112924369D01*
X130684960Y-112924370D01*
X130684962Y-112924371D01*
X130964566Y-112985195D01*
X130964568Y-112985195D01*
X130964572Y-112985196D01*
X131218220Y-113003337D01*
X131249999Y-113005610D01*
X131250000Y-113005610D01*
X131250001Y-113005610D01*
X131278595Y-113003564D01*
X131535428Y-112985196D01*
X131815046Y-112924369D01*
X132083161Y-112824367D01*
X132334315Y-112687226D01*
X132563395Y-112515739D01*
X132765739Y-112313395D01*
X132937226Y-112084315D01*
X133026925Y-111920043D01*
X133076330Y-111870638D01*
X133144603Y-111855786D01*
X133210067Y-111880203D01*
X133251939Y-111936136D01*
X133259754Y-111978609D01*
X133488942Y-144981554D01*
X133469723Y-145048728D01*
X133417238Y-145094849D01*
X133348151Y-145105272D01*
X133284395Y-145076690D01*
X133256113Y-145041842D01*
X133244946Y-145021392D01*
X133187226Y-144915685D01*
X133187224Y-144915682D01*
X133015745Y-144686612D01*
X133015729Y-144686594D01*
X132813405Y-144484270D01*
X132813387Y-144484254D01*
X132584317Y-144312775D01*
X132584309Y-144312770D01*
X132333166Y-144175635D01*
X132333167Y-144175635D01*
X132225915Y-144135632D01*
X132065046Y-144075631D01*
X132065043Y-144075630D01*
X132065037Y-144075628D01*
X131785433Y-144014804D01*
X131500001Y-143994390D01*
X131499999Y-143994390D01*
X131214566Y-144014804D01*
X130934962Y-144075628D01*
X130666833Y-144175635D01*
X130415690Y-144312770D01*
X130415682Y-144312775D01*
X130186612Y-144484254D01*
X130186594Y-144484270D01*
X129984270Y-144686594D01*
X129984254Y-144686612D01*
X129812775Y-144915682D01*
X129812770Y-144915690D01*
X129675635Y-145166833D01*
X129575628Y-145434962D01*
X129514804Y-145714566D01*
X129494390Y-145999998D01*
X129494390Y-146000001D01*
X129514804Y-146285433D01*
X129575628Y-146565037D01*
X129575630Y-146565043D01*
X129575631Y-146565046D01*
X129628485Y-146706753D01*
X129675635Y-146833166D01*
X129812770Y-147084309D01*
X129812775Y-147084317D01*
X129984254Y-147313387D01*
X129984270Y-147313405D01*
X130186594Y-147515729D01*
X130186612Y-147515745D01*
X130415682Y-147687224D01*
X130415690Y-147687229D01*
X130561171Y-147766668D01*
X130610576Y-147816073D01*
X130625428Y-147884346D01*
X130601011Y-147949811D01*
X130545077Y-147991682D01*
X130501744Y-147999500D01*
X127892140Y-147999500D01*
X127825101Y-147979815D01*
X127779346Y-147927011D01*
X127768150Y-147877050D01*
X127767491Y-147824367D01*
X127575000Y-132425000D01*
X125199182Y-132425000D01*
X125132143Y-132405315D01*
X125086388Y-132352511D01*
X125076444Y-132283353D01*
X125094188Y-132235028D01*
X125100788Y-132224523D01*
X125100789Y-132224522D01*
X125160368Y-132054255D01*
X125160369Y-132054249D01*
X125180565Y-131875003D01*
X125180565Y-131874996D01*
X125160369Y-131695750D01*
X125160368Y-131695745D01*
X125140733Y-131639631D01*
X125100789Y-131525478D01*
X125082106Y-131495745D01*
X125004815Y-131372737D01*
X124877262Y-131245184D01*
X124724523Y-131149211D01*
X124554254Y-131089631D01*
X124554249Y-131089630D01*
X124375004Y-131069435D01*
X124374996Y-131069435D01*
X124195750Y-131089630D01*
X124195745Y-131089631D01*
X124025476Y-131149211D01*
X123872737Y-131245184D01*
X123745184Y-131372737D01*
X123649211Y-131525476D01*
X123589631Y-131695745D01*
X123589630Y-131695749D01*
X123578330Y-131796042D01*
X123551263Y-131860456D01*
X123493668Y-131900011D01*
X123423831Y-131902148D01*
X123409276Y-131896803D01*
X123409262Y-131896844D01*
X123402691Y-131894544D01*
X123402690Y-131894544D01*
X123346845Y-131875003D01*
X123243056Y-131838685D01*
X123075003Y-131819751D01*
X123074997Y-131819751D01*
X122906943Y-131838685D01*
X122747305Y-131894545D01*
X122747302Y-131894547D01*
X122604115Y-131984518D01*
X122604109Y-131984523D01*
X122484523Y-132104109D01*
X122484518Y-132104115D01*
X122394547Y-132247302D01*
X122394545Y-132247305D01*
X122338685Y-132406943D01*
X122319751Y-132574997D01*
X122319751Y-132575003D01*
X122334658Y-132707312D01*
X122322603Y-132776134D01*
X122275254Y-132827513D01*
X122207644Y-132845137D01*
X122141238Y-132823410D01*
X122097120Y-132769231D01*
X122094396Y-132762149D01*
X122086925Y-132740799D01*
X122080456Y-132722310D01*
X122080455Y-132722307D01*
X122080452Y-132722302D01*
X121990481Y-132579115D01*
X121990476Y-132579109D01*
X121870890Y-132459523D01*
X121870884Y-132459518D01*
X121727697Y-132369547D01*
X121727694Y-132369545D01*
X121568056Y-132313685D01*
X121400003Y-132294751D01*
X121399997Y-132294751D01*
X121231943Y-132313685D01*
X121072305Y-132369545D01*
X121072302Y-132369547D01*
X120929115Y-132459518D01*
X120929109Y-132459523D01*
X120809523Y-132579109D01*
X120809521Y-132579112D01*
X120737012Y-132694508D01*
X120684677Y-132740799D01*
X120615624Y-132751446D01*
X120551775Y-132723071D01*
X120513404Y-132664680D01*
X120511444Y-132657315D01*
X120484079Y-132579110D01*
X120455456Y-132497310D01*
X120455455Y-132497309D01*
X120455454Y-132497305D01*
X120455452Y-132497302D01*
X120365481Y-132354115D01*
X120365476Y-132354109D01*
X120245890Y-132234523D01*
X120245884Y-132234518D01*
X120102697Y-132144547D01*
X120102694Y-132144545D01*
X119943056Y-132088685D01*
X119775003Y-132069751D01*
X119774997Y-132069751D01*
X119606943Y-132088685D01*
X119447305Y-132144545D01*
X119447302Y-132144547D01*
X119304115Y-132234518D01*
X119304109Y-132234523D01*
X119184523Y-132354109D01*
X119184518Y-132354115D01*
X119094547Y-132497302D01*
X119094545Y-132497305D01*
X119038685Y-132656943D01*
X119019751Y-132824997D01*
X119019751Y-132825002D01*
X119038685Y-132993056D01*
X119094545Y-133152694D01*
X119094547Y-133152697D01*
X119184518Y-133295884D01*
X119184523Y-133295890D01*
X119302565Y-133413932D01*
X119336050Y-133475255D01*
X119331066Y-133544947D01*
X119319879Y-133567582D01*
X119299211Y-133600476D01*
X119299210Y-133600478D01*
X119239633Y-133770737D01*
X119239630Y-133770750D01*
X119219435Y-133949996D01*
X119219435Y-133950003D01*
X119239630Y-134129249D01*
X119239631Y-134129254D01*
X119299211Y-134299523D01*
X119395184Y-134452262D01*
X119485119Y-134542197D01*
X119518604Y-134603520D01*
X119520836Y-134642085D01*
X118595699Y-143994390D01*
X118212915Y-147863993D01*
X118210569Y-147887707D01*
X118184380Y-147952483D01*
X118127329Y-147992817D01*
X118087171Y-147999500D01*
X97498256Y-147999500D01*
X97431217Y-147979815D01*
X97385462Y-147927011D01*
X97375518Y-147857853D01*
X97404543Y-147794297D01*
X97438829Y-147766668D01*
X97516982Y-147723992D01*
X97584315Y-147687226D01*
X97813395Y-147515739D01*
X98015739Y-147313395D01*
X98187226Y-147084315D01*
X98324367Y-146833161D01*
X98424369Y-146565046D01*
X98485196Y-146285428D01*
X98505610Y-146000000D01*
X98485196Y-145714572D01*
X98424369Y-145434954D01*
X98324367Y-145166839D01*
X98312013Y-145144215D01*
X98187229Y-144915690D01*
X98187224Y-144915682D01*
X98015745Y-144686612D01*
X98015729Y-144686594D01*
X97813405Y-144484270D01*
X97813387Y-144484254D01*
X97584317Y-144312775D01*
X97584309Y-144312770D01*
X97333166Y-144175635D01*
X97333167Y-144175635D01*
X97225915Y-144135632D01*
X97065046Y-144075631D01*
X97065043Y-144075630D01*
X97065037Y-144075628D01*
X96785433Y-144014804D01*
X96500001Y-143994390D01*
X96499999Y-143994390D01*
X96214566Y-144014804D01*
X95934962Y-144075628D01*
X95666833Y-144175635D01*
X95415690Y-144312770D01*
X95415682Y-144312775D01*
X95186612Y-144484254D01*
X95186594Y-144484270D01*
X94984270Y-144686594D01*
X94984254Y-144686612D01*
X94812775Y-144915682D01*
X94812770Y-144915690D01*
X94723073Y-145079958D01*
X94673668Y-145129363D01*
X94605395Y-145144215D01*
X94539930Y-145119798D01*
X94498059Y-145063864D01*
X94490244Y-145021392D01*
X94468553Y-141897883D01*
X94441831Y-138049983D01*
X95899500Y-138049983D01*
X95899500Y-138850001D01*
X95899501Y-138850019D01*
X95910000Y-138952796D01*
X95910001Y-138952799D01*
X95965185Y-139119331D01*
X95965186Y-139119334D01*
X96057288Y-139268656D01*
X96181344Y-139392712D01*
X96245981Y-139432580D01*
X96292705Y-139484526D01*
X96303928Y-139553489D01*
X96276085Y-139617571D01*
X96268566Y-139625799D01*
X96160964Y-139733401D01*
X96059195Y-139873475D01*
X95980591Y-140027744D01*
X95927085Y-140192415D01*
X95925884Y-140199999D01*
X95925885Y-140200000D01*
X96994670Y-140200000D01*
X96974925Y-140219745D01*
X96925556Y-140305255D01*
X96900000Y-140400630D01*
X96900000Y-140499370D01*
X96925556Y-140594745D01*
X96974925Y-140680255D01*
X96994670Y-140700000D01*
X95925885Y-140700000D01*
X95927085Y-140707584D01*
X95980591Y-140872255D01*
X96059195Y-141026524D01*
X96160967Y-141166602D01*
X96283397Y-141289032D01*
X96423475Y-141390804D01*
X96577742Y-141469408D01*
X96742415Y-141522914D01*
X96913429Y-141550000D01*
X97025000Y-141550000D01*
X97025000Y-140730330D01*
X97044745Y-140750075D01*
X97130255Y-140799444D01*
X97225630Y-140825000D01*
X97324370Y-140825000D01*
X97419745Y-140799444D01*
X97505255Y-140750075D01*
X97525000Y-140730330D01*
X97525000Y-141550000D01*
X97636571Y-141550000D01*
X97807584Y-141522914D01*
X97972257Y-141469408D01*
X98126524Y-141390804D01*
X98266602Y-141289032D01*
X98389032Y-141166602D01*
X98490804Y-141026524D01*
X98569408Y-140872255D01*
X98592192Y-140802135D01*
X99774500Y-140802135D01*
X99774500Y-141897870D01*
X99774501Y-141897876D01*
X99780908Y-141957483D01*
X99831202Y-142092328D01*
X99831206Y-142092335D01*
X99917452Y-142207544D01*
X99917455Y-142207547D01*
X100032664Y-142293793D01*
X100032671Y-142293797D01*
X100167517Y-142344091D01*
X100167516Y-142344091D01*
X100174444Y-142344835D01*
X100227127Y-142350500D01*
X101322872Y-142350499D01*
X101382483Y-142344091D01*
X101517331Y-142293796D01*
X101632546Y-142207546D01*
X101718796Y-142092331D01*
X101762559Y-141974996D01*
X103294435Y-141974996D01*
X103294435Y-141975003D01*
X103314630Y-142154249D01*
X103314631Y-142154254D01*
X103374211Y-142324523D01*
X103390533Y-142350499D01*
X103470184Y-142477262D01*
X103597738Y-142604816D01*
X103750478Y-142700789D01*
X103920745Y-142760368D01*
X103920750Y-142760369D01*
X104099996Y-142780565D01*
X104100000Y-142780565D01*
X104100004Y-142780565D01*
X104279249Y-142760369D01*
X104279252Y-142760368D01*
X104279255Y-142760368D01*
X104449522Y-142700789D01*
X104602262Y-142604816D01*
X104729816Y-142477262D01*
X104825789Y-142324522D01*
X104885368Y-142154255D01*
X104886024Y-142148433D01*
X104905565Y-141975003D01*
X104905565Y-141974996D01*
X104885369Y-141795750D01*
X104885368Y-141795745D01*
X104825788Y-141625476D01*
X104729815Y-141472737D01*
X104602262Y-141345184D01*
X104449523Y-141249211D01*
X104279254Y-141189631D01*
X104279249Y-141189630D01*
X104100004Y-141169435D01*
X104099996Y-141169435D01*
X103920750Y-141189630D01*
X103920745Y-141189631D01*
X103750476Y-141249211D01*
X103597737Y-141345184D01*
X103470184Y-141472737D01*
X103374211Y-141625476D01*
X103314631Y-141795745D01*
X103314630Y-141795750D01*
X103294435Y-141974996D01*
X101762559Y-141974996D01*
X101769091Y-141957483D01*
X101775500Y-141897873D01*
X101775499Y-140802128D01*
X101769091Y-140742517D01*
X101753233Y-140700000D01*
X101718797Y-140607671D01*
X101718793Y-140607664D01*
X101632547Y-140492455D01*
X101632544Y-140492452D01*
X101517335Y-140406206D01*
X101517328Y-140406202D01*
X101382482Y-140355908D01*
X101382483Y-140355908D01*
X101322883Y-140349501D01*
X101322881Y-140349500D01*
X101322873Y-140349500D01*
X101322864Y-140349500D01*
X100227129Y-140349500D01*
X100227123Y-140349501D01*
X100167516Y-140355908D01*
X100032671Y-140406202D01*
X100032664Y-140406206D01*
X99917455Y-140492452D01*
X99917452Y-140492455D01*
X99831206Y-140607664D01*
X99831202Y-140607671D01*
X99780908Y-140742517D01*
X99780096Y-140750075D01*
X99774501Y-140802123D01*
X99774500Y-140802135D01*
X98592192Y-140802135D01*
X98622914Y-140707584D01*
X98624115Y-140700000D01*
X97555330Y-140700000D01*
X97575075Y-140680255D01*
X97624444Y-140594745D01*
X97650000Y-140499370D01*
X97650000Y-140400630D01*
X97624444Y-140305255D01*
X97575075Y-140219745D01*
X97555330Y-140200000D01*
X98624115Y-140200000D01*
X98624115Y-140199999D01*
X98622914Y-140192415D01*
X98569408Y-140027744D01*
X98543621Y-139977135D01*
X109759500Y-139977135D01*
X109759500Y-141772870D01*
X109759501Y-141772876D01*
X109765908Y-141832483D01*
X109816202Y-141967328D01*
X109816206Y-141967335D01*
X109902452Y-142082544D01*
X109902455Y-142082547D01*
X110017664Y-142168793D01*
X110017671Y-142168797D01*
X110152517Y-142219091D01*
X110152516Y-142219091D01*
X110159444Y-142219835D01*
X110212127Y-142225500D01*
X112007872Y-142225499D01*
X112067483Y-142219091D01*
X112202331Y-142168796D01*
X112317546Y-142082546D01*
X112403796Y-141967331D01*
X112407470Y-141957482D01*
X112429702Y-141897873D01*
X112453002Y-141835401D01*
X112494872Y-141779468D01*
X112560337Y-141755050D01*
X112628610Y-141769901D01*
X112656865Y-141791053D01*
X112778917Y-141913105D01*
X112972421Y-142048600D01*
X113186507Y-142148429D01*
X113186516Y-142148433D01*
X113400000Y-142205634D01*
X113400000Y-141308012D01*
X113457007Y-141340925D01*
X113584174Y-141375000D01*
X113715826Y-141375000D01*
X113842993Y-141340925D01*
X113900000Y-141308012D01*
X113900000Y-142205633D01*
X114113483Y-142148433D01*
X114113492Y-142148429D01*
X114327578Y-142048600D01*
X114521082Y-141913105D01*
X114688105Y-141746082D01*
X114823600Y-141552578D01*
X114923429Y-141338492D01*
X114923432Y-141338486D01*
X114980636Y-141125000D01*
X114083012Y-141125000D01*
X114115925Y-141067993D01*
X114150000Y-140940826D01*
X114150000Y-140809174D01*
X114115925Y-140682007D01*
X114083012Y-140625000D01*
X114980636Y-140625000D01*
X114980635Y-140624999D01*
X114923432Y-140411513D01*
X114923429Y-140411507D01*
X114823600Y-140197422D01*
X114823599Y-140197420D01*
X114688113Y-140003926D01*
X114688108Y-140003920D01*
X114521082Y-139836894D01*
X114327578Y-139701399D01*
X114113492Y-139601570D01*
X114113486Y-139601567D01*
X113900000Y-139544364D01*
X113900000Y-140441988D01*
X113842993Y-140409075D01*
X113715826Y-140375000D01*
X113584174Y-140375000D01*
X113457007Y-140409075D01*
X113400000Y-140441988D01*
X113400000Y-139544364D01*
X113399999Y-139544364D01*
X113186513Y-139601567D01*
X113186507Y-139601570D01*
X112972422Y-139701399D01*
X112972420Y-139701400D01*
X112778926Y-139836886D01*
X112656865Y-139958947D01*
X112595542Y-139992431D01*
X112525850Y-139987447D01*
X112469917Y-139945575D01*
X112453002Y-139914598D01*
X112403797Y-139782671D01*
X112403793Y-139782664D01*
X112317547Y-139667455D01*
X112317544Y-139667452D01*
X112202335Y-139581206D01*
X112202328Y-139581202D01*
X112067482Y-139530908D01*
X112067483Y-139530908D01*
X112007883Y-139524501D01*
X112007881Y-139524500D01*
X112007873Y-139524500D01*
X112007864Y-139524500D01*
X110212129Y-139524500D01*
X110212123Y-139524501D01*
X110152516Y-139530908D01*
X110017671Y-139581202D01*
X110017664Y-139581206D01*
X109902455Y-139667452D01*
X109902452Y-139667455D01*
X109816206Y-139782664D01*
X109816202Y-139782671D01*
X109765908Y-139917517D01*
X109759501Y-139977116D01*
X109759500Y-139977135D01*
X98543621Y-139977135D01*
X98490804Y-139873475D01*
X98389032Y-139733397D01*
X98281434Y-139625799D01*
X98247949Y-139564476D01*
X98252933Y-139494784D01*
X98294805Y-139438851D01*
X98303995Y-139432594D01*
X98368656Y-139392712D01*
X98492712Y-139268656D01*
X98584814Y-139119334D01*
X98639999Y-138952797D01*
X98650500Y-138850009D01*
X98650499Y-138049992D01*
X98639999Y-137947203D01*
X98584814Y-137780666D01*
X98492712Y-137631344D01*
X98368656Y-137507288D01*
X98219334Y-137415186D01*
X98098049Y-137374996D01*
X105469435Y-137374996D01*
X105469435Y-137375003D01*
X105489630Y-137554249D01*
X105489631Y-137554254D01*
X105549211Y-137724523D01*
X105591607Y-137791995D01*
X105645184Y-137877262D01*
X105772738Y-138004816D01*
X105925478Y-138100789D01*
X106068367Y-138150788D01*
X106095745Y-138160368D01*
X106095750Y-138160369D01*
X106274996Y-138180565D01*
X106275000Y-138180565D01*
X106275004Y-138180565D01*
X106454249Y-138160369D01*
X106454252Y-138160368D01*
X106454255Y-138160368D01*
X106624522Y-138100789D01*
X106777262Y-138004816D01*
X106904816Y-137877262D01*
X107000789Y-137724522D01*
X107060368Y-137554255D01*
X107074931Y-137425003D01*
X107074932Y-137424996D01*
X109681935Y-137424996D01*
X109681935Y-137425003D01*
X109702130Y-137604249D01*
X109702131Y-137604254D01*
X109761711Y-137774523D01*
X109826267Y-137877262D01*
X109857684Y-137927262D01*
X109985238Y-138054816D01*
X110137978Y-138150789D01*
X110223073Y-138180565D01*
X110308245Y-138210368D01*
X110308250Y-138210369D01*
X110487496Y-138230565D01*
X110487500Y-138230565D01*
X110487504Y-138230565D01*
X110666749Y-138210369D01*
X110666752Y-138210368D01*
X110666755Y-138210368D01*
X110837022Y-138150789D01*
X110989762Y-138054816D01*
X111117316Y-137927262D01*
X111202345Y-137791936D01*
X111205013Y-137787874D01*
X111206171Y-137786181D01*
X111206183Y-137786167D01*
X111208028Y-137783009D01*
X111210047Y-137779678D01*
X111213289Y-137774522D01*
X111213290Y-137774518D01*
X111213821Y-137773674D01*
X111217200Y-137767322D01*
X111296703Y-137631344D01*
X111311336Y-137606316D01*
X111362165Y-137558380D01*
X111430844Y-137545533D01*
X111495565Y-137571856D01*
X111535422Y-137627950D01*
X111586709Y-137774519D01*
X111594028Y-137786167D01*
X111682684Y-137927262D01*
X111810238Y-138054816D01*
X111962978Y-138150789D01*
X112048073Y-138180565D01*
X112133245Y-138210368D01*
X112133250Y-138210369D01*
X112312496Y-138230565D01*
X112312500Y-138230565D01*
X112312504Y-138230565D01*
X112491749Y-138210369D01*
X112491752Y-138210368D01*
X112491755Y-138210368D01*
X112662022Y-138150789D01*
X112814762Y-138054816D01*
X112942316Y-137927262D01*
X113038289Y-137774522D01*
X113097868Y-137604255D01*
X113097869Y-137604249D01*
X113118065Y-137425003D01*
X113118065Y-137424996D01*
X113097869Y-137245750D01*
X113097868Y-137245745D01*
X113038288Y-137075476D01*
X112942315Y-136922737D01*
X112814762Y-136795184D01*
X112662023Y-136699211D01*
X112491754Y-136639631D01*
X112491750Y-136639630D01*
X112478954Y-136638189D01*
X112414540Y-136611122D01*
X112374985Y-136553527D01*
X112372848Y-136483690D01*
X112405157Y-136427288D01*
X113402630Y-135429816D01*
X114592393Y-134240053D01*
X114663581Y-134133511D01*
X114688144Y-134074211D01*
X114712617Y-134015128D01*
X114737616Y-133889453D01*
X114737616Y-130925199D01*
X114741667Y-130893762D01*
X114748231Y-130868719D01*
X114850685Y-130477801D01*
X114855138Y-130459416D01*
X114855138Y-130459414D01*
X114856318Y-130454543D01*
X114856437Y-130454571D01*
X114860443Y-130438663D01*
X114861596Y-130435368D01*
X114872484Y-130404255D01*
X114875692Y-130375789D01*
X114892681Y-130225003D01*
X114892681Y-130224996D01*
X114872485Y-130045750D01*
X114872482Y-130045737D01*
X114867725Y-130032142D01*
X114864163Y-129962363D01*
X114898891Y-129901736D01*
X114960884Y-129869508D01*
X115025720Y-129874144D01*
X115029530Y-129875478D01*
X115131943Y-129911314D01*
X115299997Y-129930249D01*
X115300000Y-129930249D01*
X115300003Y-129930249D01*
X115468056Y-129911314D01*
X115468059Y-129911313D01*
X115627690Y-129855456D01*
X115627692Y-129855454D01*
X115627694Y-129855454D01*
X115627697Y-129855452D01*
X115770884Y-129765481D01*
X115770885Y-129765480D01*
X115770890Y-129765477D01*
X115886371Y-129649996D01*
X129394435Y-129649996D01*
X129394435Y-129650003D01*
X129414630Y-129829249D01*
X129414631Y-129829254D01*
X129474211Y-129999523D01*
X129504507Y-130047738D01*
X129570184Y-130152262D01*
X129697738Y-130279816D01*
X129788080Y-130336582D01*
X129848461Y-130374522D01*
X129850478Y-130375789D01*
X130020745Y-130435368D01*
X130020750Y-130435369D01*
X130199996Y-130455565D01*
X130200000Y-130455565D01*
X130200004Y-130455565D01*
X130379249Y-130435369D01*
X130379252Y-130435368D01*
X130379255Y-130435368D01*
X130549522Y-130375789D01*
X130702262Y-130279816D01*
X130829816Y-130152262D01*
X130925789Y-129999522D01*
X130985368Y-129829255D01*
X130985369Y-129829249D01*
X131005565Y-129650003D01*
X131005565Y-129649996D01*
X130985369Y-129470750D01*
X130985368Y-129470745D01*
X130967141Y-129418655D01*
X130925789Y-129300478D01*
X130922620Y-129295435D01*
X130874866Y-129219435D01*
X130829816Y-129147738D01*
X130702262Y-129020184D01*
X130681186Y-129006941D01*
X130549523Y-128924211D01*
X130379254Y-128864631D01*
X130379249Y-128864630D01*
X130200004Y-128844435D01*
X130199996Y-128844435D01*
X130020750Y-128864630D01*
X130020745Y-128864631D01*
X129850476Y-128924211D01*
X129697737Y-129020184D01*
X129570184Y-129147737D01*
X129474211Y-129300476D01*
X129414631Y-129470745D01*
X129414630Y-129470750D01*
X129394435Y-129649996D01*
X115886371Y-129649996D01*
X115890477Y-129645890D01*
X115980452Y-129502697D01*
X115980454Y-129502694D01*
X115980454Y-129502692D01*
X115980456Y-129502690D01*
X116036313Y-129343059D01*
X116036313Y-129343058D01*
X116036314Y-129343056D01*
X116055249Y-129175002D01*
X116055249Y-129174997D01*
X116036314Y-129006943D01*
X115980454Y-128847305D01*
X115980452Y-128847302D01*
X115890481Y-128704115D01*
X115890476Y-128704109D01*
X115770890Y-128584523D01*
X115770884Y-128584518D01*
X115627697Y-128494547D01*
X115627694Y-128494545D01*
X115468056Y-128438685D01*
X115300003Y-128419751D01*
X115299997Y-128419751D01*
X115131943Y-128438685D01*
X114972305Y-128494545D01*
X114972302Y-128494547D01*
X114829115Y-128584518D01*
X114829109Y-128584523D01*
X114709523Y-128704109D01*
X114709518Y-128704115D01*
X114619547Y-128847302D01*
X114619545Y-128847305D01*
X114563685Y-129006943D01*
X114544751Y-129174997D01*
X114544751Y-129175002D01*
X114564466Y-129349979D01*
X114563048Y-129350138D01*
X114559243Y-129412098D01*
X114517936Y-129468450D01*
X114452721Y-129493524D01*
X114401677Y-129486977D01*
X114266373Y-129439632D01*
X114266365Y-129439630D01*
X114080197Y-129418655D01*
X114080516Y-129415816D01*
X114025801Y-129399750D01*
X113980046Y-129346946D01*
X113968840Y-129295435D01*
X113968840Y-129290557D01*
X113948644Y-129111310D01*
X113948643Y-129111305D01*
X113889063Y-128941036D01*
X113878941Y-128924927D01*
X113859941Y-128857691D01*
X113880309Y-128790855D01*
X113933576Y-128745641D01*
X113942975Y-128741915D01*
X114043609Y-128706702D01*
X114196349Y-128610729D01*
X114323903Y-128483175D01*
X114419876Y-128330435D01*
X114479455Y-128160168D01*
X114499652Y-127980913D01*
X114497337Y-127960369D01*
X114479456Y-127801663D01*
X114479455Y-127801658D01*
X114419875Y-127631389D01*
X114352726Y-127524522D01*
X114323903Y-127478651D01*
X114196349Y-127351097D01*
X114118629Y-127302262D01*
X114043610Y-127255124D01*
X113873341Y-127195544D01*
X113873336Y-127195543D01*
X113694091Y-127175348D01*
X113694083Y-127175348D01*
X113514837Y-127195543D01*
X113514832Y-127195544D01*
X113344563Y-127255124D01*
X113191824Y-127351097D01*
X113064271Y-127478650D01*
X112968298Y-127631389D01*
X112908718Y-127801658D01*
X112908717Y-127801663D01*
X112888522Y-127980909D01*
X112888522Y-127980916D01*
X112908717Y-128160162D01*
X112908718Y-128160167D01*
X112968299Y-128330438D01*
X112978420Y-128346546D01*
X112997420Y-128413783D01*
X112977052Y-128480618D01*
X112923783Y-128525831D01*
X112914381Y-128529558D01*
X112813755Y-128564769D01*
X112661012Y-128660744D01*
X112533459Y-128788297D01*
X112437486Y-128941036D01*
X112377906Y-129111305D01*
X112377906Y-129111308D01*
X112371025Y-129172375D01*
X112343958Y-129236788D01*
X112286363Y-129276343D01*
X112216526Y-129278480D01*
X112206850Y-129275531D01*
X112104262Y-129239633D01*
X112104249Y-129239630D01*
X111925004Y-129219435D01*
X111924996Y-129219435D01*
X111745750Y-129239630D01*
X111745745Y-129239631D01*
X111575476Y-129299211D01*
X111422737Y-129395184D01*
X111295184Y-129522737D01*
X111199211Y-129675476D01*
X111139631Y-129845745D01*
X111139630Y-129845750D01*
X111119435Y-130024996D01*
X111119435Y-130025003D01*
X111139630Y-130204249D01*
X111139631Y-130204254D01*
X111199211Y-130374523D01*
X111264113Y-130477813D01*
X111295184Y-130527262D01*
X111422738Y-130654816D01*
X111506878Y-130707684D01*
X111566274Y-130745006D01*
X111612565Y-130797341D01*
X111623213Y-130866395D01*
X111594838Y-130930243D01*
X111566274Y-130954994D01*
X111422737Y-131045184D01*
X111295184Y-131172737D01*
X111199211Y-131325476D01*
X111139631Y-131495745D01*
X111139630Y-131495750D01*
X111119435Y-131674996D01*
X111119435Y-131675003D01*
X111139630Y-131854249D01*
X111139631Y-131854254D01*
X111199211Y-132024523D01*
X111274628Y-132144547D01*
X111295184Y-132177262D01*
X111422738Y-132304816D01*
X111495409Y-132350478D01*
X111525753Y-132369545D01*
X111575478Y-132400789D01*
X111660573Y-132430565D01*
X111745745Y-132460368D01*
X111745750Y-132460369D01*
X111924996Y-132480565D01*
X111925000Y-132480565D01*
X111925004Y-132480565D01*
X112104249Y-132460369D01*
X112104252Y-132460368D01*
X112104255Y-132460368D01*
X112274522Y-132400789D01*
X112427262Y-132304816D01*
X112487319Y-132244759D01*
X112548642Y-132211274D01*
X112618334Y-132216258D01*
X112662681Y-132244759D01*
X112672738Y-132254816D01*
X112763080Y-132311582D01*
X112824979Y-132350476D01*
X112825478Y-132350789D01*
X112968367Y-132400788D01*
X112995745Y-132410368D01*
X112995750Y-132410369D01*
X113174996Y-132430565D01*
X113175000Y-132430565D01*
X113175003Y-132430565D01*
X113298732Y-132416624D01*
X113367554Y-132428678D01*
X113418934Y-132476027D01*
X113436616Y-132539844D01*
X113436616Y-133504575D01*
X113416931Y-133571614D01*
X113400297Y-133592256D01*
X112373239Y-134619313D01*
X112311916Y-134652798D01*
X112242224Y-134647814D01*
X112186291Y-134605942D01*
X112168516Y-134572586D01*
X112125789Y-134450478D01*
X112125788Y-134450476D01*
X112029816Y-134297738D01*
X111902262Y-134170184D01*
X111845850Y-134134738D01*
X111749523Y-134074211D01*
X111579254Y-134014631D01*
X111579249Y-134014630D01*
X111400004Y-133994435D01*
X111399996Y-133994435D01*
X111220750Y-134014630D01*
X111220745Y-134014631D01*
X111050476Y-134074211D01*
X110897737Y-134170184D01*
X110770184Y-134297737D01*
X110674211Y-134450476D01*
X110614631Y-134620745D01*
X110614630Y-134620750D01*
X110594435Y-134799996D01*
X110594435Y-134800003D01*
X110614630Y-134979249D01*
X110614631Y-134979254D01*
X110674211Y-135149523D01*
X110747911Y-135266815D01*
X110770184Y-135302262D01*
X110897738Y-135429816D01*
X111050478Y-135525789D01*
X111172587Y-135568516D01*
X111229362Y-135609238D01*
X111255110Y-135674190D01*
X111241654Y-135742752D01*
X111219313Y-135773239D01*
X110522643Y-136469909D01*
X110497549Y-136489274D01*
X110145143Y-136695317D01*
X110138813Y-136698685D01*
X110132846Y-136702434D01*
X110129503Y-136704461D01*
X110126325Y-136706319D01*
X110110217Y-136716145D01*
X110108432Y-136717443D01*
X110101515Y-136722121D01*
X109985239Y-136795182D01*
X109857684Y-136922737D01*
X109761711Y-137075476D01*
X109702131Y-137245745D01*
X109702130Y-137245750D01*
X109681935Y-137424996D01*
X107074932Y-137424996D01*
X107080565Y-137375003D01*
X107080565Y-137374996D01*
X107060369Y-137195750D01*
X107060368Y-137195745D01*
X107000788Y-137025476D01*
X106904815Y-136872737D01*
X106777262Y-136745184D01*
X106624523Y-136649211D01*
X106454254Y-136589631D01*
X106454249Y-136589630D01*
X106275004Y-136569435D01*
X106274996Y-136569435D01*
X106095750Y-136589630D01*
X106095745Y-136589631D01*
X105925476Y-136649211D01*
X105772737Y-136745184D01*
X105645184Y-136872737D01*
X105549211Y-137025476D01*
X105489631Y-137195745D01*
X105489630Y-137195750D01*
X105469435Y-137374996D01*
X98098049Y-137374996D01*
X98052797Y-137360001D01*
X98052795Y-137360000D01*
X97950010Y-137349500D01*
X96599998Y-137349500D01*
X96599981Y-137349501D01*
X96497203Y-137360000D01*
X96497200Y-137360001D01*
X96330668Y-137415185D01*
X96330663Y-137415187D01*
X96181342Y-137507289D01*
X96057289Y-137631342D01*
X95965187Y-137780663D01*
X95965185Y-137780668D01*
X95961432Y-137791995D01*
X95910001Y-137947203D01*
X95910001Y-137947204D01*
X95910000Y-137947204D01*
X95899500Y-138049983D01*
X94441831Y-138049983D01*
X94411560Y-133690990D01*
X94430778Y-133623820D01*
X94483262Y-133577699D01*
X94552350Y-133567276D01*
X94616106Y-133595858D01*
X94623237Y-133602452D01*
X94632533Y-133611748D01*
X94632537Y-133611751D01*
X94796315Y-133721185D01*
X94796328Y-133721192D01*
X94978306Y-133796569D01*
X94978318Y-133796572D01*
X95171504Y-133834999D01*
X95171508Y-133835000D01*
X95420000Y-133835000D01*
X95420000Y-133135000D01*
X95920000Y-133135000D01*
X95920000Y-133835000D01*
X96168492Y-133835000D01*
X96168495Y-133834999D01*
X96361681Y-133796572D01*
X96361693Y-133796569D01*
X96543671Y-133721192D01*
X96543684Y-133721185D01*
X96707462Y-133611751D01*
X96707466Y-133611748D01*
X96846748Y-133472466D01*
X96846751Y-133472462D01*
X96956185Y-133308684D01*
X96956192Y-133308671D01*
X97031569Y-133126692D01*
X97031569Y-133126690D01*
X97039862Y-133085000D01*
X96236988Y-133085000D01*
X96254205Y-133075060D01*
X96310060Y-133019205D01*
X96349556Y-132950796D01*
X96370000Y-132874496D01*
X96370000Y-132795504D01*
X96349556Y-132719204D01*
X96310060Y-132650795D01*
X96254205Y-132594940D01*
X96236988Y-132585000D01*
X97039862Y-132585000D01*
X98330138Y-132585000D01*
X99133012Y-132585000D01*
X99115795Y-132594940D01*
X99059940Y-132650795D01*
X99020444Y-132719204D01*
X99000000Y-132795504D01*
X99000000Y-132874496D01*
X99020444Y-132950796D01*
X99059940Y-133019205D01*
X99115795Y-133075060D01*
X99133012Y-133085000D01*
X98330138Y-133085000D01*
X98338430Y-133126690D01*
X98338430Y-133126692D01*
X98413807Y-133308671D01*
X98413814Y-133308684D01*
X98523248Y-133472462D01*
X98523251Y-133472466D01*
X98662533Y-133611748D01*
X98662537Y-133611751D01*
X98826315Y-133721185D01*
X98826328Y-133721192D01*
X99008306Y-133796569D01*
X99008318Y-133796572D01*
X99050333Y-133804930D01*
X99112244Y-133837314D01*
X99146818Y-133898030D01*
X99143079Y-133967799D01*
X99142324Y-133969879D01*
X99105909Y-134067514D01*
X99105908Y-134067516D01*
X99099501Y-134127116D01*
X99099501Y-134127123D01*
X99099500Y-134127135D01*
X99099500Y-135222870D01*
X99099501Y-135222876D01*
X99105908Y-135282483D01*
X99156202Y-135417328D01*
X99156206Y-135417335D01*
X99242452Y-135532544D01*
X99242455Y-135532547D01*
X99357664Y-135618793D01*
X99357671Y-135618797D01*
X99492517Y-135669091D01*
X99492516Y-135669091D01*
X99499444Y-135669835D01*
X99552127Y-135675500D01*
X100647872Y-135675499D01*
X100707483Y-135669091D01*
X100842331Y-135618796D01*
X100957546Y-135532546D01*
X101043796Y-135417331D01*
X101094091Y-135282483D01*
X101100500Y-135222873D01*
X101100499Y-134636996D01*
X103044435Y-134636996D01*
X103044435Y-134637003D01*
X103064630Y-134816249D01*
X103064631Y-134816254D01*
X103124211Y-134986523D01*
X103220184Y-135139262D01*
X103347738Y-135266816D01*
X103500478Y-135362789D01*
X103656342Y-135417328D01*
X103670745Y-135422368D01*
X103670750Y-135422369D01*
X103849996Y-135442565D01*
X103850000Y-135442565D01*
X103850004Y-135442565D01*
X104029249Y-135422369D01*
X104029252Y-135422368D01*
X104029255Y-135422368D01*
X104199522Y-135362789D01*
X104352262Y-135266816D01*
X104479816Y-135139262D01*
X104575789Y-134986522D01*
X104635368Y-134816255D01*
X104637199Y-134800003D01*
X104655565Y-134637003D01*
X104655565Y-134636996D01*
X104635369Y-134457750D01*
X104635368Y-134457745D01*
X104632824Y-134450476D01*
X104575789Y-134287478D01*
X104479816Y-134134738D01*
X104352262Y-134007184D01*
X104331972Y-133994435D01*
X104199523Y-133911211D01*
X104029254Y-133851631D01*
X104029249Y-133851630D01*
X103850004Y-133831435D01*
X103849996Y-133831435D01*
X103670750Y-133851630D01*
X103670745Y-133851631D01*
X103500476Y-133911211D01*
X103347737Y-134007184D01*
X103220184Y-134134737D01*
X103124211Y-134287476D01*
X103064631Y-134457745D01*
X103064630Y-134457750D01*
X103044435Y-134636996D01*
X101100499Y-134636996D01*
X101100499Y-134127128D01*
X101094091Y-134067517D01*
X101074551Y-134015128D01*
X101043797Y-133932671D01*
X101043793Y-133932664D01*
X100959948Y-133820662D01*
X100935530Y-133755198D01*
X100950381Y-133686925D01*
X100990324Y-133643249D01*
X101037458Y-133611754D01*
X101037466Y-133611748D01*
X101176748Y-133472466D01*
X101176751Y-133472462D01*
X101286185Y-133308684D01*
X101286192Y-133308671D01*
X101361569Y-133126692D01*
X101361569Y-133126690D01*
X101369862Y-133085000D01*
X100566988Y-133085000D01*
X100584205Y-133075060D01*
X100640060Y-133019205D01*
X100679556Y-132950796D01*
X100700000Y-132874496D01*
X100700000Y-132795504D01*
X100679556Y-132719204D01*
X100668466Y-132699996D01*
X101769435Y-132699996D01*
X101769435Y-132700003D01*
X101789630Y-132879249D01*
X101789631Y-132879254D01*
X101849211Y-133049523D01*
X101912841Y-133150789D01*
X101945184Y-133202262D01*
X102072738Y-133329816D01*
X102148929Y-133377690D01*
X102209066Y-133415477D01*
X102225478Y-133425789D01*
X102288205Y-133447738D01*
X102395745Y-133485368D01*
X102395750Y-133485369D01*
X102574996Y-133505565D01*
X102575000Y-133505565D01*
X102575004Y-133505565D01*
X102754249Y-133485369D01*
X102754252Y-133485368D01*
X102754255Y-133485368D01*
X102924522Y-133425789D01*
X103077262Y-133329816D01*
X103204816Y-133202262D01*
X103252798Y-133125899D01*
X103305131Y-133079608D01*
X103374184Y-133068959D01*
X103423762Y-133086876D01*
X103525478Y-133150789D01*
X103695745Y-133210368D01*
X103695750Y-133210369D01*
X103874996Y-133230565D01*
X103875000Y-133230565D01*
X103875004Y-133230565D01*
X104054249Y-133210369D01*
X104054252Y-133210368D01*
X104054255Y-133210368D01*
X104224522Y-133150789D01*
X104377262Y-133054816D01*
X104504816Y-132927262D01*
X104600789Y-132774522D01*
X104660368Y-132604255D01*
X104662538Y-132585000D01*
X104680565Y-132425000D01*
X104680565Y-132424996D01*
X104660369Y-132245750D01*
X104660368Y-132245745D01*
X104656441Y-132234523D01*
X104600789Y-132075478D01*
X104597190Y-132069751D01*
X104541110Y-131980500D01*
X104504816Y-131922738D01*
X104377262Y-131795184D01*
X104329866Y-131765403D01*
X104224523Y-131699211D01*
X104054254Y-131639631D01*
X104054249Y-131639630D01*
X103875004Y-131619435D01*
X103874996Y-131619435D01*
X103695750Y-131639630D01*
X103695742Y-131639632D01*
X103599476Y-131673317D01*
X103529697Y-131676878D01*
X103469070Y-131642149D01*
X103436843Y-131580155D01*
X103436048Y-131574996D01*
X108831935Y-131574996D01*
X108831935Y-131575003D01*
X108852130Y-131754249D01*
X108852131Y-131754254D01*
X108911711Y-131924523D01*
X109006562Y-132075476D01*
X109007684Y-132077262D01*
X109135238Y-132204816D01*
X109225580Y-132261582D01*
X109278368Y-132294751D01*
X109287978Y-132300789D01*
X109429975Y-132350476D01*
X109458245Y-132360368D01*
X109458250Y-132360369D01*
X109637496Y-132380565D01*
X109637500Y-132380565D01*
X109637504Y-132380565D01*
X109816749Y-132360369D01*
X109816752Y-132360368D01*
X109816755Y-132360368D01*
X109987022Y-132300789D01*
X110139762Y-132204816D01*
X110267316Y-132077262D01*
X110363289Y-131924522D01*
X110422868Y-131754255D01*
X110423347Y-131750003D01*
X110443065Y-131575003D01*
X110443065Y-131574996D01*
X110422869Y-131395750D01*
X110422868Y-131395745D01*
X110363289Y-131225478D01*
X110336513Y-131182865D01*
X110277931Y-131089632D01*
X110267316Y-131072738D01*
X110139762Y-130945184D01*
X110067093Y-130899523D01*
X109987023Y-130849211D01*
X109816754Y-130789631D01*
X109816749Y-130789630D01*
X109637504Y-130769435D01*
X109637496Y-130769435D01*
X109458250Y-130789630D01*
X109458245Y-130789631D01*
X109287976Y-130849211D01*
X109135237Y-130945184D01*
X109007684Y-131072737D01*
X108911711Y-131225476D01*
X108852131Y-131395745D01*
X108852130Y-131395750D01*
X108831935Y-131574996D01*
X103436048Y-131574996D01*
X103435442Y-131571068D01*
X103435368Y-131570745D01*
X103403883Y-131480766D01*
X103375789Y-131400478D01*
X103279816Y-131247738D01*
X103152262Y-131120184D01*
X103103639Y-131089632D01*
X102999523Y-131024211D01*
X102829254Y-130964631D01*
X102829249Y-130964630D01*
X102650004Y-130944435D01*
X102649996Y-130944435D01*
X102470750Y-130964630D01*
X102470745Y-130964631D01*
X102300476Y-131024211D01*
X102147737Y-131120184D01*
X102020184Y-131247737D01*
X101924211Y-131400476D01*
X101864631Y-131570745D01*
X101864630Y-131570750D01*
X101844435Y-131749996D01*
X101844435Y-131750003D01*
X101864630Y-131929249D01*
X101864633Y-131929262D01*
X101924209Y-132099518D01*
X101927233Y-132105798D01*
X101926079Y-132106353D01*
X101943101Y-132166580D01*
X101924101Y-132231291D01*
X101849211Y-132350476D01*
X101789631Y-132520745D01*
X101789630Y-132520750D01*
X101769435Y-132699996D01*
X100668466Y-132699996D01*
X100640060Y-132650795D01*
X100584205Y-132594940D01*
X100566988Y-132585000D01*
X101369862Y-132585000D01*
X101361569Y-132543309D01*
X101361569Y-132543307D01*
X101286192Y-132361328D01*
X101286185Y-132361315D01*
X101176751Y-132197537D01*
X101176748Y-132197533D01*
X101037466Y-132058251D01*
X101037462Y-132058248D01*
X100873684Y-131948814D01*
X100873671Y-131948807D01*
X100691693Y-131873430D01*
X100691681Y-131873427D01*
X100498495Y-131835000D01*
X99981045Y-131835000D01*
X99914006Y-131815315D01*
X99868251Y-131762511D01*
X99858307Y-131693353D01*
X99873658Y-131649000D01*
X99886279Y-131627138D01*
X99886281Y-131627135D01*
X99925500Y-131480766D01*
X99925500Y-131329234D01*
X99886281Y-131182865D01*
X99810515Y-131051635D01*
X99703365Y-130944485D01*
X99625487Y-130899522D01*
X99572136Y-130868719D01*
X99498950Y-130849109D01*
X99425766Y-130829500D01*
X99274234Y-130829500D01*
X99127863Y-130868719D01*
X98996635Y-130944485D01*
X98996632Y-130944487D01*
X98889487Y-131051632D01*
X98889485Y-131051635D01*
X98813719Y-131182863D01*
X98788820Y-131275789D01*
X98774500Y-131329234D01*
X98774500Y-131480766D01*
X98794109Y-131553950D01*
X98813719Y-131627136D01*
X98840382Y-131673317D01*
X98889485Y-131758365D01*
X98889486Y-131758366D01*
X98893549Y-131765403D01*
X98891346Y-131766674D01*
X98911959Y-131819983D01*
X98897923Y-131888428D01*
X98849112Y-131938420D01*
X98835845Y-131944866D01*
X98826324Y-131948809D01*
X98826315Y-131948814D01*
X98662537Y-132058248D01*
X98662533Y-132058251D01*
X98523251Y-132197533D01*
X98523248Y-132197537D01*
X98413814Y-132361315D01*
X98413807Y-132361328D01*
X98338430Y-132543307D01*
X98338430Y-132543309D01*
X98330138Y-132585000D01*
X97039862Y-132585000D01*
X97031569Y-132543309D01*
X97031569Y-132543307D01*
X96956192Y-132361328D01*
X96956185Y-132361315D01*
X96846751Y-132197537D01*
X96846748Y-132197533D01*
X96707466Y-132058251D01*
X96707462Y-132058248D01*
X96543684Y-131948814D01*
X96543671Y-131948807D01*
X96361693Y-131873430D01*
X96361681Y-131873427D01*
X96168495Y-131835000D01*
X95920000Y-131835000D01*
X95920000Y-132535000D01*
X95420000Y-132535000D01*
X95420000Y-131835000D01*
X95171504Y-131835000D01*
X94978318Y-131873427D01*
X94978306Y-131873430D01*
X94796328Y-131948807D01*
X94796315Y-131948814D01*
X94632537Y-132058248D01*
X94611441Y-132079344D01*
X94550117Y-132112828D01*
X94480425Y-132107842D01*
X94424492Y-132065969D01*
X94400077Y-132000505D01*
X94399765Y-131992556D01*
X94389747Y-130549996D01*
X96069435Y-130549996D01*
X96069435Y-130550003D01*
X96089630Y-130729249D01*
X96089631Y-130729254D01*
X96149211Y-130899523D01*
X96190122Y-130964632D01*
X96245184Y-131052262D01*
X96372738Y-131179816D01*
X96445409Y-131225478D01*
X96480833Y-131247737D01*
X96525478Y-131275789D01*
X96667475Y-131325476D01*
X96695745Y-131335368D01*
X96695750Y-131335369D01*
X96874996Y-131355565D01*
X96875000Y-131355565D01*
X96875004Y-131355565D01*
X97054249Y-131335369D01*
X97054252Y-131335368D01*
X97054255Y-131335368D01*
X97224522Y-131275789D01*
X97377262Y-131179816D01*
X97504816Y-131052262D01*
X97600789Y-130899522D01*
X97660368Y-130729255D01*
X97661516Y-130719070D01*
X97680565Y-130550003D01*
X97680565Y-130549996D01*
X97660369Y-130370750D01*
X97660368Y-130370745D01*
X97600789Y-130200478D01*
X97504816Y-130047738D01*
X97377262Y-129920184D01*
X97224523Y-129824211D01*
X97054254Y-129764631D01*
X97054249Y-129764630D01*
X96875004Y-129744435D01*
X96874996Y-129744435D01*
X96695750Y-129764630D01*
X96695745Y-129764631D01*
X96525476Y-129824211D01*
X96372737Y-129920184D01*
X96245184Y-130047737D01*
X96149211Y-130200476D01*
X96089631Y-130370745D01*
X96089630Y-130370750D01*
X96069435Y-130549996D01*
X94389747Y-130549996D01*
X94376032Y-128574996D01*
X108319435Y-128574996D01*
X108319435Y-128575003D01*
X108339630Y-128754249D01*
X108339631Y-128754254D01*
X108399211Y-128924523D01*
X108459319Y-129020184D01*
X108495184Y-129077262D01*
X108622738Y-129204816D01*
X108678149Y-129239633D01*
X108774979Y-129300476D01*
X108775478Y-129300789D01*
X108896270Y-129343056D01*
X108945745Y-129360368D01*
X108945750Y-129360369D01*
X109124996Y-129380565D01*
X109125000Y-129380565D01*
X109125004Y-129380565D01*
X109304249Y-129360369D01*
X109304252Y-129360368D01*
X109304255Y-129360368D01*
X109474522Y-129300789D01*
X109627262Y-129204816D01*
X109754816Y-129077262D01*
X109850789Y-128924522D01*
X109910368Y-128754255D01*
X109915726Y-128706702D01*
X109930565Y-128575003D01*
X109930565Y-128574996D01*
X109910369Y-128395750D01*
X109910368Y-128395745D01*
X109850789Y-128225478D01*
X109754816Y-128072738D01*
X109627262Y-127945184D01*
X109556608Y-127900789D01*
X109474523Y-127849211D01*
X109304254Y-127789631D01*
X109304249Y-127789630D01*
X109125004Y-127769435D01*
X109124996Y-127769435D01*
X108945750Y-127789630D01*
X108945745Y-127789631D01*
X108775476Y-127849211D01*
X108622737Y-127945184D01*
X108495184Y-128072737D01*
X108399211Y-128225476D01*
X108339631Y-128395745D01*
X108339630Y-128395750D01*
X108319435Y-128574996D01*
X94376032Y-128574996D01*
X94364226Y-126874996D01*
X96094435Y-126874996D01*
X96094435Y-126875003D01*
X96114630Y-127054249D01*
X96114631Y-127054254D01*
X96174211Y-127224523D01*
X96223058Y-127302262D01*
X96270184Y-127377262D01*
X96397738Y-127504816D01*
X96488080Y-127561582D01*
X96525935Y-127585368D01*
X96550478Y-127600789D01*
X96720745Y-127660368D01*
X96720750Y-127660369D01*
X96899996Y-127680565D01*
X96900000Y-127680565D01*
X96900004Y-127680565D01*
X97079249Y-127660369D01*
X97079252Y-127660368D01*
X97079255Y-127660368D01*
X97249522Y-127600789D01*
X97402262Y-127504816D01*
X97529816Y-127377262D01*
X97625789Y-127224522D01*
X97685368Y-127054255D01*
X97691960Y-126995750D01*
X97705565Y-126875003D01*
X97705565Y-126874996D01*
X97697115Y-126799996D01*
X109119435Y-126799996D01*
X109119435Y-126800003D01*
X109139630Y-126979249D01*
X109139631Y-126979254D01*
X109199211Y-127149523D01*
X109246337Y-127224523D01*
X109295184Y-127302262D01*
X109422738Y-127429816D01*
X109500457Y-127478650D01*
X109573461Y-127524522D01*
X109575478Y-127525789D01*
X109745745Y-127585368D01*
X109745750Y-127585369D01*
X109924996Y-127605565D01*
X109925000Y-127605565D01*
X109925004Y-127605565D01*
X110104249Y-127585369D01*
X110104252Y-127585368D01*
X110104255Y-127585368D01*
X110274522Y-127525789D01*
X110427262Y-127429816D01*
X110554816Y-127302262D01*
X110634783Y-127174996D01*
X124344435Y-127174996D01*
X124344435Y-127175003D01*
X124364630Y-127354249D01*
X124364631Y-127354254D01*
X124424211Y-127524523D01*
X124491360Y-127631389D01*
X124520184Y-127677262D01*
X124647738Y-127804816D01*
X124800478Y-127900789D01*
X124927352Y-127945184D01*
X124970745Y-127960368D01*
X124970750Y-127960369D01*
X125149996Y-127980565D01*
X125150000Y-127980565D01*
X125150004Y-127980565D01*
X125329249Y-127960369D01*
X125329252Y-127960368D01*
X125329255Y-127960368D01*
X125499522Y-127900789D01*
X125652262Y-127804816D01*
X125779816Y-127677262D01*
X125875789Y-127524522D01*
X125935368Y-127354255D01*
X125941226Y-127302262D01*
X125955565Y-127175003D01*
X125955565Y-127174996D01*
X125935369Y-126995750D01*
X125935368Y-126995745D01*
X125893361Y-126875696D01*
X125875789Y-126825478D01*
X125857216Y-126795920D01*
X125836582Y-126763080D01*
X125779816Y-126672738D01*
X125652262Y-126545184D01*
X125652260Y-126545182D01*
X125648864Y-126542474D01*
X125608723Y-126485286D01*
X125605873Y-126415475D01*
X125641218Y-126355205D01*
X125660197Y-126340538D01*
X125677262Y-126329816D01*
X125804816Y-126202262D01*
X125900789Y-126049522D01*
X125960368Y-125879255D01*
X125960369Y-125879249D01*
X125980565Y-125700003D01*
X125980565Y-125699996D01*
X125960369Y-125520750D01*
X125960368Y-125520745D01*
X125920736Y-125407483D01*
X125900789Y-125350478D01*
X125899158Y-125347883D01*
X125835815Y-125247073D01*
X125804816Y-125197738D01*
X125755808Y-125148730D01*
X125722323Y-125087407D01*
X125727307Y-125017715D01*
X125769179Y-124961782D01*
X125829607Y-124937828D01*
X125843059Y-124936313D01*
X126002690Y-124880456D01*
X126002692Y-124880454D01*
X126002694Y-124880454D01*
X126002697Y-124880452D01*
X126145884Y-124790481D01*
X126145885Y-124790480D01*
X126145890Y-124790477D01*
X126265477Y-124670890D01*
X126266863Y-124668684D01*
X126355452Y-124527697D01*
X126355454Y-124527694D01*
X126355454Y-124527692D01*
X126355456Y-124527690D01*
X126411313Y-124368059D01*
X126411313Y-124368058D01*
X126411314Y-124368056D01*
X126430249Y-124200002D01*
X126430249Y-124199997D01*
X126411314Y-124031943D01*
X126366302Y-123903307D01*
X126355456Y-123872310D01*
X126355455Y-123872309D01*
X126355454Y-123872305D01*
X126355452Y-123872302D01*
X126265481Y-123729115D01*
X126265476Y-123729109D01*
X126145890Y-123609523D01*
X126145884Y-123609518D01*
X126002697Y-123519547D01*
X126002694Y-123519545D01*
X125843056Y-123463685D01*
X125675003Y-123444751D01*
X125674997Y-123444751D01*
X125506943Y-123463685D01*
X125347305Y-123519545D01*
X125347302Y-123519547D01*
X125204115Y-123609518D01*
X125204109Y-123609523D01*
X125084523Y-123729109D01*
X125084518Y-123729115D01*
X124994547Y-123872302D01*
X124994545Y-123872305D01*
X124938685Y-124031943D01*
X124919751Y-124199997D01*
X124919751Y-124200002D01*
X124938685Y-124368056D01*
X124994545Y-124527694D01*
X124994547Y-124527697D01*
X125084518Y-124670884D01*
X125084523Y-124670890D01*
X125112520Y-124698887D01*
X125146005Y-124760210D01*
X125141021Y-124829902D01*
X125099149Y-124885835D01*
X125038725Y-124909788D01*
X124995748Y-124914631D01*
X124995745Y-124914631D01*
X124825476Y-124974211D01*
X124672737Y-125070184D01*
X124545184Y-125197737D01*
X124449211Y-125350476D01*
X124389631Y-125520745D01*
X124389630Y-125520750D01*
X124369435Y-125699996D01*
X124369435Y-125700003D01*
X124389630Y-125879249D01*
X124389631Y-125879254D01*
X124449211Y-126049523D01*
X124545184Y-126202262D01*
X124672737Y-126329815D01*
X124676134Y-126332524D01*
X124716275Y-126389711D01*
X124719127Y-126459523D01*
X124683782Y-126519793D01*
X124664797Y-126534464D01*
X124647742Y-126545180D01*
X124647737Y-126545184D01*
X124520184Y-126672737D01*
X124424211Y-126825476D01*
X124364631Y-126995745D01*
X124364630Y-126995750D01*
X124344435Y-127174996D01*
X110634783Y-127174996D01*
X110650789Y-127149522D01*
X110710368Y-126979255D01*
X110710369Y-126979249D01*
X110730565Y-126800003D01*
X110730565Y-126799996D01*
X110710369Y-126620750D01*
X110710368Y-126620745D01*
X110680177Y-126534464D01*
X110650789Y-126450478D01*
X110554816Y-126297738D01*
X110468108Y-126211030D01*
X110434623Y-126149707D01*
X110439607Y-126080015D01*
X110481479Y-126024082D01*
X110489803Y-126018365D01*
X110590941Y-125954816D01*
X110669161Y-125876595D01*
X110730480Y-125843113D01*
X110800172Y-125848097D01*
X110844520Y-125876598D01*
X110922738Y-125954816D01*
X111013080Y-126011582D01*
X111073461Y-126049522D01*
X111075478Y-126050789D01*
X111186479Y-126089630D01*
X111245745Y-126110368D01*
X111245750Y-126110369D01*
X111424996Y-126130565D01*
X111425000Y-126130565D01*
X111425004Y-126130565D01*
X111604249Y-126110369D01*
X111604252Y-126110368D01*
X111604255Y-126110368D01*
X111719257Y-126070127D01*
X112325651Y-126070127D01*
X112325651Y-126070134D01*
X112345846Y-126249380D01*
X112345847Y-126249385D01*
X112405427Y-126419654D01*
X112482601Y-126542474D01*
X112501400Y-126572393D01*
X112628954Y-126699947D01*
X112781694Y-126795920D01*
X112866166Y-126825478D01*
X112951961Y-126855499D01*
X112951966Y-126855500D01*
X113131212Y-126875696D01*
X113131216Y-126875696D01*
X113131220Y-126875696D01*
X113310465Y-126855500D01*
X113310468Y-126855499D01*
X113310471Y-126855499D01*
X113480738Y-126795920D01*
X113633478Y-126699947D01*
X113761032Y-126572393D01*
X113857005Y-126419653D01*
X113916584Y-126249386D01*
X113916585Y-126249380D01*
X113936781Y-126070134D01*
X113936781Y-126070127D01*
X113916585Y-125890881D01*
X113916584Y-125890876D01*
X113857004Y-125720607D01*
X113761031Y-125567868D01*
X113633478Y-125440315D01*
X113480739Y-125344342D01*
X113310470Y-125284762D01*
X113310465Y-125284761D01*
X113131220Y-125264566D01*
X113131212Y-125264566D01*
X112951966Y-125284761D01*
X112951961Y-125284762D01*
X112781692Y-125344342D01*
X112628953Y-125440315D01*
X112501400Y-125567868D01*
X112405427Y-125720607D01*
X112345847Y-125890876D01*
X112345846Y-125890881D01*
X112325651Y-126070127D01*
X111719257Y-126070127D01*
X111774522Y-126050789D01*
X111927262Y-125954816D01*
X112054816Y-125827262D01*
X112150789Y-125674522D01*
X112210368Y-125504255D01*
X112210369Y-125504249D01*
X112230565Y-125325003D01*
X112230565Y-125324996D01*
X112210369Y-125145750D01*
X112210368Y-125145745D01*
X112150788Y-124975476D01*
X112096508Y-124889091D01*
X112054816Y-124822738D01*
X111927262Y-124695184D01*
X111774521Y-124599210D01*
X111647640Y-124554813D01*
X111590864Y-124514091D01*
X111565116Y-124449138D01*
X111578572Y-124380577D01*
X111626959Y-124330174D01*
X111694915Y-124313932D01*
X111702464Y-124314549D01*
X111721966Y-124316747D01*
X111721966Y-124316746D01*
X111721967Y-124316747D01*
X111721970Y-124316747D01*
X111901215Y-124296551D01*
X111901218Y-124296550D01*
X111901221Y-124296550D01*
X112071488Y-124236971D01*
X112224228Y-124140998D01*
X112224229Y-124140997D01*
X112229672Y-124136657D01*
X112232741Y-124140506D01*
X112255475Y-124120808D01*
X112320869Y-124110382D01*
X112356519Y-124114398D01*
X112499997Y-124130565D01*
X112500000Y-124130565D01*
X112500004Y-124130565D01*
X112679249Y-124110369D01*
X112679252Y-124110368D01*
X112679255Y-124110368D01*
X112849522Y-124050789D01*
X113002262Y-123954816D01*
X113002262Y-123954815D01*
X113008158Y-123951111D01*
X113009523Y-123953284D01*
X113063251Y-123931335D01*
X113131949Y-123944075D01*
X113182854Y-123991934D01*
X113192947Y-124013733D01*
X113249209Y-124174519D01*
X113325886Y-124296550D01*
X113345184Y-124327262D01*
X113472738Y-124454816D01*
X113548598Y-124502482D01*
X113613032Y-124542969D01*
X113625478Y-124550789D01*
X113763857Y-124599210D01*
X113795745Y-124610368D01*
X113795750Y-124610369D01*
X113974996Y-124630565D01*
X113975000Y-124630565D01*
X113975004Y-124630565D01*
X114154249Y-124610369D01*
X114154252Y-124610368D01*
X114154255Y-124610368D01*
X114324522Y-124550789D01*
X114477262Y-124454816D01*
X114604816Y-124327262D01*
X114700789Y-124174522D01*
X114760368Y-124004255D01*
X114760369Y-124004249D01*
X114780565Y-123825003D01*
X114780565Y-123824996D01*
X114760369Y-123645750D01*
X114760368Y-123645745D01*
X114716209Y-123519547D01*
X114700789Y-123475478D01*
X114604816Y-123322738D01*
X114477262Y-123195184D01*
X114438603Y-123170893D01*
X114324523Y-123099211D01*
X114154254Y-123039631D01*
X114154249Y-123039630D01*
X113975004Y-123019435D01*
X113974996Y-123019435D01*
X113795750Y-123039630D01*
X113795745Y-123039631D01*
X113625476Y-123099211D01*
X113466842Y-123198889D01*
X113465483Y-123196727D01*
X113411672Y-123218671D01*
X113342981Y-123205889D01*
X113292106Y-123157999D01*
X113282051Y-123136266D01*
X113225789Y-122975478D01*
X113129816Y-122822738D01*
X113002262Y-122695184D01*
X112849523Y-122599211D01*
X112679254Y-122539631D01*
X112679249Y-122539630D01*
X112500004Y-122519435D01*
X112499996Y-122519435D01*
X112320750Y-122539630D01*
X112320745Y-122539631D01*
X112150476Y-122599211D01*
X111997738Y-122695184D01*
X111992295Y-122699525D01*
X111970436Y-122713487D01*
X111970434Y-122713488D01*
X111901669Y-122725863D01*
X111901097Y-122725799D01*
X111721970Y-122705617D01*
X111721962Y-122705617D01*
X111542716Y-122725812D01*
X111542711Y-122725813D01*
X111372442Y-122785393D01*
X111219703Y-122881366D01*
X111092150Y-123008919D01*
X110996177Y-123161658D01*
X110936597Y-123331927D01*
X110936596Y-123331932D01*
X110916401Y-123511178D01*
X110916401Y-123511185D01*
X110936596Y-123690431D01*
X110936597Y-123690436D01*
X110972629Y-123793408D01*
X110976190Y-123863187D01*
X110941461Y-123923815D01*
X110879468Y-123956042D01*
X110841704Y-123957583D01*
X110725004Y-123944435D01*
X110724996Y-123944435D01*
X110545750Y-123964630D01*
X110545745Y-123964631D01*
X110375476Y-124024211D01*
X110222737Y-124120184D01*
X110095184Y-124247737D01*
X109999212Y-124400475D01*
X109999211Y-124400476D01*
X109975974Y-124466883D01*
X109935251Y-124523659D01*
X109899887Y-124542969D01*
X109739157Y-124599210D01*
X109586416Y-124695184D01*
X109458863Y-124822737D01*
X109362890Y-124975476D01*
X109303310Y-125145745D01*
X109303309Y-125145750D01*
X109283114Y-125324996D01*
X109283114Y-125325003D01*
X109303309Y-125504249D01*
X109303310Y-125504254D01*
X109362890Y-125674523D01*
X109458863Y-125827262D01*
X109545570Y-125913969D01*
X109579055Y-125975292D01*
X109574071Y-126044984D01*
X109532199Y-126100917D01*
X109523861Y-126106644D01*
X109422737Y-126170184D01*
X109295184Y-126297737D01*
X109199211Y-126450476D01*
X109139631Y-126620745D01*
X109139630Y-126620750D01*
X109119435Y-126799996D01*
X97697115Y-126799996D01*
X97685369Y-126695750D01*
X97685368Y-126695745D01*
X97625789Y-126525478D01*
X97529816Y-126372738D01*
X97402262Y-126245184D01*
X97249523Y-126149211D01*
X97079254Y-126089631D01*
X97079249Y-126089630D01*
X96900004Y-126069435D01*
X96899996Y-126069435D01*
X96720750Y-126089630D01*
X96720745Y-126089631D01*
X96550476Y-126149211D01*
X96397737Y-126245184D01*
X96270184Y-126372737D01*
X96174211Y-126525476D01*
X96114631Y-126695745D01*
X96114630Y-126695750D01*
X96094435Y-126874996D01*
X94364226Y-126874996D01*
X94351140Y-124990569D01*
X94370358Y-124923400D01*
X94422842Y-124877279D01*
X94491930Y-124866856D01*
X94555686Y-124895438D01*
X94562817Y-124902032D01*
X94632533Y-124971748D01*
X94632537Y-124971751D01*
X94796315Y-125081185D01*
X94796328Y-125081192D01*
X94978306Y-125156569D01*
X94978318Y-125156572D01*
X95171504Y-125194999D01*
X95171508Y-125195000D01*
X95420000Y-125195000D01*
X95420000Y-124495000D01*
X95920000Y-124495000D01*
X95920000Y-125195000D01*
X96168492Y-125195000D01*
X96168495Y-125194999D01*
X96361681Y-125156572D01*
X96361693Y-125156569D01*
X96543671Y-125081192D01*
X96543684Y-125081185D01*
X96707462Y-124971751D01*
X96707466Y-124971748D01*
X96846748Y-124832466D01*
X96846751Y-124832462D01*
X96956185Y-124668684D01*
X96956192Y-124668671D01*
X97031569Y-124486692D01*
X97031569Y-124486690D01*
X97039862Y-124445000D01*
X96236988Y-124445000D01*
X96254205Y-124435060D01*
X96310060Y-124379205D01*
X96349556Y-124310796D01*
X96370000Y-124234496D01*
X96370000Y-124155504D01*
X96349556Y-124079204D01*
X96310060Y-124010795D01*
X96254205Y-123954940D01*
X96236988Y-123945000D01*
X97039862Y-123945000D01*
X98330138Y-123945000D01*
X99133012Y-123945000D01*
X99115795Y-123954940D01*
X99059940Y-124010795D01*
X99020444Y-124079204D01*
X99000000Y-124155504D01*
X99000000Y-124234496D01*
X99020444Y-124310796D01*
X99059940Y-124379205D01*
X99115795Y-124435060D01*
X99133012Y-124445000D01*
X98330138Y-124445000D01*
X98338430Y-124486690D01*
X98338430Y-124486692D01*
X98413807Y-124668671D01*
X98413814Y-124668684D01*
X98523248Y-124832462D01*
X98523251Y-124832466D01*
X98662533Y-124971748D01*
X98662537Y-124971751D01*
X98826315Y-125081185D01*
X98826328Y-125081192D01*
X98835838Y-125085131D01*
X98890243Y-125128970D01*
X98912310Y-125195264D01*
X98895033Y-125262963D01*
X98891350Y-125268405D01*
X98813719Y-125402863D01*
X98782132Y-125520750D01*
X98774500Y-125549234D01*
X98774500Y-125700766D01*
X98779817Y-125720609D01*
X98813719Y-125847136D01*
X98838973Y-125890876D01*
X98889485Y-125978365D01*
X98996635Y-126085515D01*
X99127865Y-126161281D01*
X99274234Y-126200500D01*
X99274236Y-126200500D01*
X99425764Y-126200500D01*
X99425766Y-126200500D01*
X99572135Y-126161281D01*
X99703365Y-126085515D01*
X99810515Y-125978365D01*
X99886281Y-125847135D01*
X99925500Y-125700766D01*
X99925500Y-125549234D01*
X99886281Y-125402865D01*
X99886279Y-125402861D01*
X99873658Y-125381000D01*
X99857185Y-125313099D01*
X99880038Y-125247073D01*
X99934959Y-125203882D01*
X99981045Y-125195000D01*
X100498492Y-125195000D01*
X100498495Y-125194999D01*
X100691681Y-125156572D01*
X100691693Y-125156569D01*
X100873671Y-125081192D01*
X100873684Y-125081185D01*
X101037462Y-124971751D01*
X101037466Y-124971748D01*
X101176748Y-124832466D01*
X101176751Y-124832462D01*
X101286185Y-124668684D01*
X101286192Y-124668671D01*
X101361569Y-124486692D01*
X101361569Y-124486690D01*
X101369862Y-124445000D01*
X100566988Y-124445000D01*
X100584205Y-124435060D01*
X100640060Y-124379205D01*
X100679556Y-124310796D01*
X100695274Y-124252135D01*
X106549500Y-124252135D01*
X106549500Y-125347870D01*
X106549501Y-125347876D01*
X106555908Y-125407483D01*
X106606202Y-125542328D01*
X106606206Y-125542335D01*
X106692452Y-125657544D01*
X106692455Y-125657547D01*
X106807664Y-125743793D01*
X106807671Y-125743797D01*
X106942517Y-125794091D01*
X106942516Y-125794091D01*
X106949444Y-125794835D01*
X107002127Y-125800500D01*
X108097872Y-125800499D01*
X108157483Y-125794091D01*
X108292331Y-125743796D01*
X108407546Y-125657546D01*
X108493796Y-125542331D01*
X108544091Y-125407483D01*
X108550500Y-125347873D01*
X108550499Y-124252128D01*
X108544091Y-124192517D01*
X108542766Y-124188965D01*
X108493797Y-124057671D01*
X108493793Y-124057664D01*
X108407547Y-123942455D01*
X108407544Y-123942452D01*
X108292335Y-123856206D01*
X108292328Y-123856202D01*
X108157482Y-123805908D01*
X108157483Y-123805908D01*
X108097883Y-123799501D01*
X108097881Y-123799500D01*
X108097873Y-123799500D01*
X108097864Y-123799500D01*
X107002129Y-123799500D01*
X107002123Y-123799501D01*
X106942516Y-123805908D01*
X106807671Y-123856202D01*
X106807664Y-123856206D01*
X106692455Y-123942452D01*
X106692452Y-123942455D01*
X106606206Y-124057664D01*
X106606202Y-124057671D01*
X106555908Y-124192517D01*
X106549972Y-124247737D01*
X106549501Y-124252123D01*
X106549500Y-124252135D01*
X100695274Y-124252135D01*
X100700000Y-124234496D01*
X100700000Y-124155504D01*
X100679556Y-124079204D01*
X100640060Y-124010795D01*
X100584205Y-123954940D01*
X100566988Y-123945000D01*
X101369862Y-123945000D01*
X101361569Y-123903309D01*
X101361569Y-123903307D01*
X101286192Y-123721328D01*
X101286185Y-123721315D01*
X101176751Y-123557537D01*
X101176748Y-123557533D01*
X101037466Y-123418251D01*
X101037462Y-123418248D01*
X100873684Y-123308814D01*
X100873671Y-123308807D01*
X100691693Y-123233430D01*
X100691681Y-123233427D01*
X100498495Y-123195000D01*
X100100000Y-123195000D01*
X100100000Y-123895000D01*
X99600000Y-123895000D01*
X99600000Y-123195000D01*
X99201504Y-123195000D01*
X99008318Y-123233427D01*
X99008306Y-123233430D01*
X98826328Y-123308807D01*
X98826315Y-123308814D01*
X98662537Y-123418248D01*
X98662533Y-123418251D01*
X98523251Y-123557533D01*
X98523248Y-123557537D01*
X98413814Y-123721315D01*
X98413807Y-123721328D01*
X98338430Y-123903307D01*
X98338430Y-123903309D01*
X98330138Y-123945000D01*
X97039862Y-123945000D01*
X97031569Y-123903309D01*
X97031569Y-123903307D01*
X96956192Y-123721328D01*
X96956185Y-123721315D01*
X96846751Y-123557537D01*
X96846748Y-123557533D01*
X96707466Y-123418251D01*
X96707462Y-123418248D01*
X96543684Y-123308814D01*
X96543671Y-123308807D01*
X96361693Y-123233430D01*
X96361681Y-123233427D01*
X96168495Y-123195000D01*
X95920000Y-123195000D01*
X95920000Y-123895000D01*
X95420000Y-123895000D01*
X95420000Y-123195000D01*
X95171504Y-123195000D01*
X94978318Y-123233427D01*
X94978306Y-123233430D01*
X94796328Y-123308807D01*
X94796315Y-123308814D01*
X94632537Y-123418248D01*
X94551856Y-123498929D01*
X94490532Y-123532413D01*
X94420841Y-123527429D01*
X94364907Y-123485557D01*
X94340491Y-123420092D01*
X94340178Y-123412130D01*
X94327073Y-121524996D01*
X105994435Y-121524996D01*
X105994435Y-121525003D01*
X106014630Y-121704249D01*
X106014631Y-121704254D01*
X106074211Y-121874523D01*
X106146999Y-121990363D01*
X106170184Y-122027262D01*
X106297738Y-122154816D01*
X106380750Y-122206976D01*
X106415974Y-122229109D01*
X106450478Y-122250789D01*
X106598803Y-122302690D01*
X106620745Y-122310368D01*
X106620750Y-122310369D01*
X106799996Y-122330565D01*
X106800000Y-122330565D01*
X106800004Y-122330565D01*
X106979249Y-122310369D01*
X106979252Y-122310368D01*
X106979255Y-122310368D01*
X107149522Y-122250789D01*
X107302262Y-122154816D01*
X107429816Y-122027262D01*
X107462656Y-121974997D01*
X107969751Y-121974997D01*
X107969751Y-121975002D01*
X107988685Y-122143056D01*
X108044545Y-122302694D01*
X108044547Y-122302697D01*
X108134518Y-122445884D01*
X108134523Y-122445890D01*
X108254109Y-122565476D01*
X108254115Y-122565481D01*
X108397302Y-122655452D01*
X108397305Y-122655454D01*
X108397309Y-122655455D01*
X108397310Y-122655456D01*
X108469913Y-122680860D01*
X108556943Y-122711314D01*
X108724997Y-122730249D01*
X108725000Y-122730249D01*
X108725003Y-122730249D01*
X108893056Y-122711314D01*
X108925384Y-122700002D01*
X109052690Y-122655456D01*
X109052692Y-122655454D01*
X109052694Y-122655454D01*
X109052697Y-122655452D01*
X109195884Y-122565481D01*
X109195885Y-122565480D01*
X109195890Y-122565477D01*
X109315477Y-122445890D01*
X109335756Y-122413617D01*
X109405452Y-122302697D01*
X109405454Y-122302694D01*
X109405454Y-122302692D01*
X109405456Y-122302690D01*
X109461313Y-122143059D01*
X109461313Y-122143057D01*
X109461314Y-122143055D01*
X109475213Y-122019694D01*
X109487560Y-121990307D01*
X109709762Y-121990307D01*
X109720573Y-122012182D01*
X109721653Y-122019693D01*
X109739630Y-122179250D01*
X109739631Y-122179254D01*
X109799211Y-122349523D01*
X109864024Y-122452671D01*
X109895184Y-122502262D01*
X110022738Y-122629816D01*
X110063541Y-122655454D01*
X110152439Y-122711313D01*
X110175478Y-122725789D01*
X110224356Y-122742892D01*
X110345745Y-122785368D01*
X110345750Y-122785369D01*
X110524996Y-122805565D01*
X110525000Y-122805565D01*
X110525004Y-122805565D01*
X110704249Y-122785369D01*
X110704252Y-122785368D01*
X110704255Y-122785368D01*
X110874522Y-122725789D01*
X111027262Y-122629816D01*
X111154816Y-122502262D01*
X111250789Y-122349522D01*
X111310368Y-122179255D01*
X111313570Y-122150838D01*
X111330565Y-122000003D01*
X111330565Y-121999996D01*
X111310369Y-121820750D01*
X111310368Y-121820745D01*
X111286650Y-121752963D01*
X111250789Y-121650478D01*
X111248798Y-121647310D01*
X111211582Y-121588080D01*
X111154816Y-121497738D01*
X111027262Y-121370184D01*
X110906887Y-121294547D01*
X110874523Y-121274211D01*
X110704254Y-121214631D01*
X110704249Y-121214630D01*
X110525004Y-121194435D01*
X110524996Y-121194435D01*
X110345750Y-121214630D01*
X110345745Y-121214631D01*
X110175476Y-121274211D01*
X110022737Y-121370184D01*
X109895184Y-121497737D01*
X109799211Y-121650476D01*
X109739631Y-121820745D01*
X109739630Y-121820749D01*
X109724470Y-121955306D01*
X109709762Y-121990307D01*
X109487560Y-121990307D01*
X109489920Y-121984691D01*
X109479110Y-121962816D01*
X109478030Y-121955305D01*
X109461314Y-121806944D01*
X109450928Y-121777262D01*
X109405456Y-121647310D01*
X109405455Y-121647309D01*
X109405454Y-121647305D01*
X109405452Y-121647302D01*
X109315481Y-121504115D01*
X109315476Y-121504109D01*
X109195890Y-121384523D01*
X109195884Y-121384518D01*
X109052697Y-121294547D01*
X109052694Y-121294545D01*
X108893056Y-121238685D01*
X108725003Y-121219751D01*
X108724997Y-121219751D01*
X108556943Y-121238685D01*
X108397305Y-121294545D01*
X108397302Y-121294547D01*
X108254115Y-121384518D01*
X108254109Y-121384523D01*
X108134523Y-121504109D01*
X108134518Y-121504115D01*
X108044547Y-121647302D01*
X108044545Y-121647305D01*
X107988685Y-121806943D01*
X107969751Y-121974997D01*
X107462656Y-121974997D01*
X107525789Y-121874522D01*
X107585368Y-121704255D01*
X107591427Y-121650478D01*
X107605565Y-121525003D01*
X107605565Y-121524996D01*
X107585369Y-121345750D01*
X107585368Y-121345745D01*
X107541281Y-121219751D01*
X107525789Y-121175478D01*
X107429816Y-121022738D01*
X107302262Y-120895184D01*
X107149523Y-120799211D01*
X106979254Y-120739631D01*
X106979249Y-120739630D01*
X106800004Y-120719435D01*
X106799996Y-120719435D01*
X106620750Y-120739630D01*
X106620745Y-120739631D01*
X106450476Y-120799211D01*
X106297737Y-120895184D01*
X106170184Y-121022737D01*
X106074211Y-121175476D01*
X106014631Y-121345745D01*
X106014630Y-121345750D01*
X105994435Y-121524996D01*
X94327073Y-121524996D01*
X94320129Y-120524997D01*
X95744751Y-120524997D01*
X95744751Y-120525002D01*
X95763685Y-120693056D01*
X95819545Y-120852694D01*
X95819547Y-120852697D01*
X95909518Y-120995884D01*
X95909523Y-120995890D01*
X96029109Y-121115476D01*
X96029115Y-121115481D01*
X96172302Y-121205452D01*
X96172305Y-121205454D01*
X96172309Y-121205455D01*
X96172310Y-121205456D01*
X96198528Y-121214630D01*
X96331943Y-121261314D01*
X96499997Y-121280249D01*
X96500000Y-121280249D01*
X96500003Y-121280249D01*
X96668056Y-121261314D01*
X96668059Y-121261313D01*
X96827690Y-121205456D01*
X96827692Y-121205454D01*
X96827694Y-121205454D01*
X96827697Y-121205452D01*
X96970884Y-121115481D01*
X96970885Y-121115480D01*
X96970890Y-121115477D01*
X97090477Y-120995890D01*
X97134720Y-120925478D01*
X97180452Y-120852697D01*
X97180454Y-120852694D01*
X97180454Y-120852692D01*
X97180456Y-120852690D01*
X97236313Y-120693059D01*
X97236313Y-120693058D01*
X97236314Y-120693056D01*
X97255249Y-120525002D01*
X97255249Y-120524997D01*
X97236314Y-120356943D01*
X97200461Y-120254482D01*
X97180456Y-120197310D01*
X97180455Y-120197309D01*
X97180454Y-120197305D01*
X97180452Y-120197302D01*
X97090481Y-120054115D01*
X97090476Y-120054109D01*
X96970890Y-119934523D01*
X96970884Y-119934518D01*
X96827697Y-119844547D01*
X96827694Y-119844545D01*
X96668056Y-119788685D01*
X96500003Y-119769751D01*
X96499997Y-119769751D01*
X96331943Y-119788685D01*
X96172305Y-119844545D01*
X96172302Y-119844547D01*
X96029115Y-119934518D01*
X96029109Y-119934523D01*
X95909523Y-120054109D01*
X95909518Y-120054115D01*
X95819547Y-120197302D01*
X95819545Y-120197305D01*
X95763685Y-120356943D01*
X95744751Y-120524997D01*
X94320129Y-120524997D01*
X94294435Y-116824999D01*
X107825000Y-116824999D01*
X107825000Y-120850000D01*
X116025000Y-120775000D01*
X116028798Y-120469244D01*
X116041149Y-119474996D01*
X116819435Y-119474996D01*
X116819435Y-119475003D01*
X116839630Y-119654249D01*
X116839631Y-119654254D01*
X116899211Y-119824523D01*
X116961062Y-119922957D01*
X116995184Y-119977262D01*
X117122738Y-120104816D01*
X117147196Y-120120184D01*
X117204270Y-120156046D01*
X117250561Y-120208381D01*
X117261209Y-120277435D01*
X117255340Y-120301994D01*
X117212387Y-120424746D01*
X117212385Y-120424754D01*
X117192190Y-120604000D01*
X117192190Y-120604007D01*
X117212385Y-120783253D01*
X117212386Y-120783258D01*
X117271966Y-120953527D01*
X117361328Y-121095745D01*
X117367939Y-121106266D01*
X117495493Y-121233820D01*
X117582338Y-121288388D01*
X117628629Y-121340723D01*
X117639586Y-121379498D01*
X117648008Y-121454249D01*
X117707588Y-121624521D01*
X117771785Y-121726690D01*
X117803562Y-121777262D01*
X117931116Y-121904816D01*
X118004800Y-121951115D01*
X118079934Y-121998325D01*
X118083856Y-122000789D01*
X118197338Y-122040498D01*
X118254123Y-122060368D01*
X118254128Y-122060369D01*
X118433374Y-122080565D01*
X118433378Y-122080565D01*
X118433382Y-122080565D01*
X118612627Y-122060369D01*
X118612630Y-122060368D01*
X118612633Y-122060368D01*
X118782900Y-122000789D01*
X118935640Y-121904816D01*
X119054008Y-121786448D01*
X119115331Y-121752963D01*
X119185023Y-121757947D01*
X119229370Y-121786448D01*
X119327375Y-121884453D01*
X119360860Y-121945776D01*
X119355876Y-122015468D01*
X119314004Y-122071401D01*
X119305667Y-122077127D01*
X119254111Y-122109521D01*
X119134523Y-122229109D01*
X119134518Y-122229115D01*
X119044547Y-122372302D01*
X119044545Y-122372305D01*
X118988685Y-122531943D01*
X118969751Y-122699997D01*
X118969751Y-122700002D01*
X118988685Y-122868056D01*
X119044545Y-123027694D01*
X119044547Y-123027697D01*
X119134518Y-123170884D01*
X119134523Y-123170890D01*
X119254109Y-123290476D01*
X119254115Y-123290481D01*
X119397302Y-123380452D01*
X119397305Y-123380454D01*
X119397309Y-123380455D01*
X119397310Y-123380456D01*
X119450515Y-123399073D01*
X119556943Y-123436314D01*
X119724997Y-123455249D01*
X119725000Y-123455249D01*
X119725003Y-123455249D01*
X119893056Y-123436314D01*
X119910389Y-123430249D01*
X120052690Y-123380456D01*
X120052692Y-123380454D01*
X120052694Y-123380454D01*
X120052697Y-123380452D01*
X120195884Y-123290481D01*
X120195885Y-123290480D01*
X120195890Y-123290477D01*
X120315477Y-123170890D01*
X120317271Y-123168033D01*
X120318912Y-123166582D01*
X120319820Y-123165444D01*
X120320019Y-123165602D01*
X120369598Y-123121740D01*
X120438650Y-123111085D01*
X120502502Y-123139453D01*
X120509950Y-123146317D01*
X120629109Y-123265476D01*
X120629115Y-123265481D01*
X120772302Y-123355452D01*
X120772305Y-123355454D01*
X120772309Y-123355455D01*
X120772310Y-123355456D01*
X120843745Y-123380452D01*
X120931943Y-123411314D01*
X121099997Y-123430249D01*
X121100000Y-123430249D01*
X121100003Y-123430249D01*
X121268056Y-123411314D01*
X121303039Y-123399073D01*
X121427690Y-123355456D01*
X121427692Y-123355454D01*
X121427694Y-123355454D01*
X121427697Y-123355452D01*
X121570884Y-123265481D01*
X121570885Y-123265480D01*
X121570890Y-123265477D01*
X121690477Y-123145890D01*
X121690485Y-123145876D01*
X121694701Y-123140591D01*
X121751887Y-123100447D01*
X121821699Y-123097593D01*
X121881971Y-123132935D01*
X121896646Y-123151925D01*
X121934521Y-123212203D01*
X122054109Y-123331791D01*
X122054115Y-123331796D01*
X122197302Y-123421767D01*
X122197305Y-123421769D01*
X122197309Y-123421770D01*
X122197310Y-123421771D01*
X122221539Y-123430249D01*
X122356943Y-123477629D01*
X122524997Y-123496564D01*
X122525000Y-123496564D01*
X122525003Y-123496564D01*
X122693056Y-123477629D01*
X122732900Y-123463687D01*
X122852690Y-123421771D01*
X122852692Y-123421769D01*
X122852694Y-123421769D01*
X122852697Y-123421767D01*
X122995884Y-123331796D01*
X122995885Y-123331795D01*
X122995890Y-123331792D01*
X123115477Y-123212205D01*
X123153354Y-123151925D01*
X123205452Y-123069012D01*
X123205454Y-123069009D01*
X123205454Y-123069007D01*
X123205456Y-123069005D01*
X123261313Y-122909374D01*
X123261313Y-122909373D01*
X123261314Y-122909371D01*
X123280249Y-122741317D01*
X123280249Y-122741312D01*
X123261314Y-122573258D01*
X123205454Y-122413620D01*
X123205452Y-122413617D01*
X123115481Y-122270430D01*
X123115476Y-122270424D01*
X122995890Y-122150838D01*
X122995884Y-122150833D01*
X122852697Y-122060862D01*
X122852694Y-122060860D01*
X122693056Y-122005000D01*
X122525003Y-121986066D01*
X122524997Y-121986066D01*
X122356943Y-122005000D01*
X122197305Y-122060860D01*
X122197302Y-122060862D01*
X122054115Y-122150833D01*
X122054109Y-122150838D01*
X121934524Y-122270423D01*
X121930290Y-122275733D01*
X121873100Y-122315871D01*
X121803288Y-122318718D01*
X121743020Y-122283370D01*
X121728352Y-122264388D01*
X121720069Y-122251206D01*
X121690477Y-122204110D01*
X121669405Y-122183038D01*
X121635920Y-122121715D01*
X121640904Y-122052023D01*
X121682776Y-121996090D01*
X121691104Y-121990369D01*
X121827262Y-121904816D01*
X121954816Y-121777262D01*
X122050789Y-121624522D01*
X122110368Y-121454255D01*
X122118225Y-121384523D01*
X122130565Y-121275003D01*
X122130565Y-121274996D01*
X122110369Y-121095750D01*
X122110368Y-121095745D01*
X122078615Y-121005000D01*
X122050789Y-120925478D01*
X122033310Y-120897661D01*
X122003363Y-120850000D01*
X121954816Y-120772738D01*
X121827262Y-120645184D01*
X121827259Y-120645182D01*
X121674523Y-120549211D01*
X121504254Y-120489631D01*
X121504250Y-120489630D01*
X121323311Y-120469244D01*
X121258897Y-120442178D01*
X121230261Y-120405892D01*
X121229494Y-120406375D01*
X121216295Y-120385369D01*
X121129816Y-120247738D01*
X121002262Y-120120184D01*
X120977804Y-120104816D01*
X120849523Y-120024211D01*
X120679254Y-119964631D01*
X120679249Y-119964630D01*
X120500004Y-119944435D01*
X120499996Y-119944435D01*
X120320750Y-119964630D01*
X120320745Y-119964631D01*
X120150476Y-120024211D01*
X119997737Y-120120184D01*
X119870184Y-120247737D01*
X119774212Y-120400475D01*
X119774211Y-120400478D01*
X119772148Y-120406375D01*
X119771713Y-120407617D01*
X119730988Y-120464391D01*
X119677151Y-120486374D01*
X119677541Y-120488080D01*
X119670753Y-120489629D01*
X119500478Y-120549210D01*
X119347737Y-120645184D01*
X119229370Y-120763552D01*
X119168047Y-120797037D01*
X119098355Y-120792053D01*
X119054008Y-120763552D01*
X118935638Y-120645182D01*
X118848792Y-120590613D01*
X118802502Y-120538279D01*
X118791545Y-120499507D01*
X118783123Y-120424749D01*
X118723544Y-120254482D01*
X118719306Y-120247738D01*
X118639159Y-120120184D01*
X118627571Y-120101742D01*
X118500017Y-119974188D01*
X118418482Y-119922956D01*
X118372192Y-119870622D01*
X118361544Y-119801569D01*
X118367411Y-119777017D01*
X118410368Y-119654255D01*
X118412715Y-119633425D01*
X118424932Y-119524997D01*
X122419751Y-119524997D01*
X122419751Y-119525002D01*
X122438685Y-119693056D01*
X122494545Y-119852694D01*
X122494547Y-119852697D01*
X122584518Y-119995884D01*
X122584523Y-119995890D01*
X122704109Y-120115476D01*
X122704115Y-120115481D01*
X122847302Y-120205452D01*
X122847305Y-120205454D01*
X122847309Y-120205455D01*
X122847310Y-120205456D01*
X122916924Y-120229815D01*
X123006943Y-120261314D01*
X123174997Y-120280249D01*
X123175000Y-120280249D01*
X123175003Y-120280249D01*
X123343056Y-120261314D01*
X123362581Y-120254482D01*
X123502690Y-120205456D01*
X123502692Y-120205454D01*
X123502694Y-120205454D01*
X123502697Y-120205452D01*
X123645884Y-120115481D01*
X123645885Y-120115480D01*
X123645890Y-120115477D01*
X123765477Y-119995890D01*
X123777182Y-119977262D01*
X123855452Y-119852697D01*
X123855454Y-119852694D01*
X123855454Y-119852692D01*
X123855456Y-119852690D01*
X123911313Y-119693059D01*
X123911313Y-119693058D01*
X123911314Y-119693056D01*
X123921799Y-119599996D01*
X124194435Y-119599996D01*
X124194435Y-119600003D01*
X124214630Y-119779249D01*
X124214631Y-119779254D01*
X124274211Y-119949523D01*
X124291641Y-119977262D01*
X124370184Y-120102262D01*
X124497738Y-120229816D01*
X124536994Y-120254482D01*
X124612608Y-120301994D01*
X124650478Y-120325789D01*
X124739511Y-120356943D01*
X124820745Y-120385368D01*
X124820750Y-120385369D01*
X124999996Y-120405565D01*
X125000000Y-120405565D01*
X125000004Y-120405565D01*
X125179249Y-120385369D01*
X125179252Y-120385368D01*
X125179255Y-120385368D01*
X125349522Y-120325789D01*
X125502262Y-120229816D01*
X125629816Y-120102262D01*
X125646948Y-120074997D01*
X127669751Y-120074997D01*
X127669751Y-120075002D01*
X127688685Y-120243056D01*
X127744545Y-120402694D01*
X127744547Y-120402697D01*
X127834518Y-120545884D01*
X127834523Y-120545890D01*
X127954109Y-120665476D01*
X127954115Y-120665481D01*
X128097302Y-120755452D01*
X128097305Y-120755454D01*
X128097309Y-120755455D01*
X128097310Y-120755456D01*
X128153158Y-120774998D01*
X128256943Y-120811314D01*
X128424997Y-120830249D01*
X128425000Y-120830249D01*
X128425003Y-120830249D01*
X128593056Y-120811314D01*
X128593059Y-120811313D01*
X128752690Y-120755456D01*
X128752692Y-120755454D01*
X128752694Y-120755454D01*
X128752697Y-120755452D01*
X128895884Y-120665481D01*
X128895885Y-120665480D01*
X128895890Y-120665477D01*
X129015477Y-120545890D01*
X129015481Y-120545884D01*
X129105452Y-120402697D01*
X129105454Y-120402694D01*
X129105454Y-120402692D01*
X129105456Y-120402690D01*
X129161313Y-120243059D01*
X129161313Y-120243058D01*
X129161314Y-120243056D01*
X129180249Y-120075002D01*
X129180249Y-120074997D01*
X129161314Y-119906943D01*
X129116634Y-119779255D01*
X129105456Y-119747310D01*
X129105455Y-119747309D01*
X129105454Y-119747305D01*
X129105452Y-119747302D01*
X129015481Y-119604115D01*
X129015476Y-119604109D01*
X128895890Y-119484523D01*
X128895884Y-119484518D01*
X128752697Y-119394547D01*
X128752694Y-119394545D01*
X128593056Y-119338685D01*
X128425003Y-119319751D01*
X128424997Y-119319751D01*
X128256943Y-119338685D01*
X128097305Y-119394545D01*
X128097302Y-119394547D01*
X127954115Y-119484518D01*
X127954109Y-119484523D01*
X127834523Y-119604109D01*
X127834518Y-119604115D01*
X127744547Y-119747302D01*
X127744545Y-119747305D01*
X127688685Y-119906943D01*
X127669751Y-120074997D01*
X125646948Y-120074997D01*
X125725789Y-119949522D01*
X125785368Y-119779255D01*
X125785369Y-119779249D01*
X125805565Y-119600003D01*
X125805565Y-119599996D01*
X125785369Y-119420750D01*
X125785368Y-119420745D01*
X125755853Y-119336395D01*
X125725789Y-119250478D01*
X125629816Y-119097738D01*
X125502262Y-118970184D01*
X125445500Y-118934518D01*
X125349523Y-118874211D01*
X125179254Y-118814631D01*
X125179249Y-118814630D01*
X125000004Y-118794435D01*
X124999996Y-118794435D01*
X124820750Y-118814630D01*
X124820745Y-118814631D01*
X124650476Y-118874211D01*
X124497737Y-118970184D01*
X124370184Y-119097737D01*
X124274211Y-119250476D01*
X124214631Y-119420745D01*
X124214630Y-119420750D01*
X124194435Y-119599996D01*
X123921799Y-119599996D01*
X123930249Y-119525002D01*
X123930249Y-119524997D01*
X123911314Y-119356943D01*
X123855454Y-119197305D01*
X123855452Y-119197302D01*
X123765481Y-119054115D01*
X123765476Y-119054109D01*
X123645890Y-118934523D01*
X123645884Y-118934518D01*
X123502697Y-118844547D01*
X123502694Y-118844545D01*
X123343056Y-118788685D01*
X123175003Y-118769751D01*
X123174997Y-118769751D01*
X123006943Y-118788685D01*
X122847305Y-118844545D01*
X122847302Y-118844547D01*
X122704115Y-118934518D01*
X122704109Y-118934523D01*
X122584523Y-119054109D01*
X122584518Y-119054115D01*
X122494547Y-119197302D01*
X122494545Y-119197305D01*
X122438685Y-119356943D01*
X122419751Y-119524997D01*
X118424932Y-119524997D01*
X118430565Y-119475003D01*
X118430565Y-119474996D01*
X118410369Y-119295750D01*
X118410368Y-119295745D01*
X118356862Y-119142834D01*
X118350789Y-119125478D01*
X118254816Y-118972738D01*
X118127262Y-118845184D01*
X118078639Y-118814632D01*
X117974523Y-118749211D01*
X117804254Y-118689631D01*
X117804249Y-118689630D01*
X117625004Y-118669435D01*
X117624996Y-118669435D01*
X117445750Y-118689630D01*
X117445745Y-118689631D01*
X117275476Y-118749211D01*
X117122737Y-118845184D01*
X116995184Y-118972737D01*
X116899211Y-119125476D01*
X116839631Y-119295745D01*
X116839630Y-119295750D01*
X116819435Y-119474996D01*
X116041149Y-119474996D01*
X116053696Y-118464999D01*
X129969341Y-118464999D01*
X129969341Y-118465000D01*
X129989936Y-118700403D01*
X129989938Y-118700413D01*
X130051094Y-118928655D01*
X130051096Y-118928659D01*
X130051097Y-118928663D01*
X130129938Y-119097737D01*
X130150965Y-119142830D01*
X130150967Y-119142834D01*
X130286501Y-119336395D01*
X130286506Y-119336402D01*
X130453597Y-119503493D01*
X130453603Y-119503498D01*
X130639158Y-119633425D01*
X130682783Y-119688002D01*
X130689977Y-119757500D01*
X130658454Y-119819855D01*
X130639158Y-119836575D01*
X130453597Y-119966505D01*
X130286505Y-120133597D01*
X130150965Y-120327169D01*
X130150964Y-120327171D01*
X130051098Y-120541335D01*
X130051094Y-120541344D01*
X129989938Y-120769586D01*
X129989936Y-120769596D01*
X129969341Y-121004999D01*
X129969341Y-121005000D01*
X129989936Y-121240403D01*
X129989938Y-121240413D01*
X130051094Y-121468655D01*
X130051096Y-121468659D01*
X130051097Y-121468663D01*
X130123776Y-121624523D01*
X130150965Y-121682830D01*
X130150967Y-121682834D01*
X130247534Y-121820745D01*
X130286501Y-121876396D01*
X130286506Y-121876402D01*
X130408430Y-121998326D01*
X130441915Y-122059649D01*
X130436931Y-122129341D01*
X130395059Y-122185274D01*
X130364083Y-122202189D01*
X130232669Y-122251203D01*
X130232664Y-122251206D01*
X130117455Y-122337452D01*
X130117452Y-122337455D01*
X130031206Y-122452664D01*
X130031202Y-122452671D01*
X129980908Y-122587517D01*
X129976361Y-122629815D01*
X129974501Y-122647123D01*
X129974500Y-122647135D01*
X129974500Y-124442870D01*
X129974501Y-124442876D01*
X129980908Y-124502483D01*
X130031202Y-124637328D01*
X130031206Y-124637335D01*
X130117452Y-124752544D01*
X130117455Y-124752547D01*
X130232664Y-124838793D01*
X130232671Y-124838797D01*
X130367517Y-124889091D01*
X130367516Y-124889091D01*
X130374444Y-124889835D01*
X130427127Y-124895500D01*
X132222872Y-124895499D01*
X132282483Y-124889091D01*
X132417331Y-124838796D01*
X132532546Y-124752546D01*
X132618796Y-124637331D01*
X132669091Y-124502483D01*
X132675500Y-124442873D01*
X132675499Y-122647128D01*
X132669091Y-122587517D01*
X132660870Y-122565476D01*
X132618797Y-122452671D01*
X132618793Y-122452664D01*
X132532547Y-122337455D01*
X132532544Y-122337452D01*
X132417335Y-122251206D01*
X132417328Y-122251202D01*
X132285917Y-122202189D01*
X132229983Y-122160318D01*
X132205566Y-122094853D01*
X132220418Y-122026580D01*
X132241563Y-121998332D01*
X132363495Y-121876401D01*
X132499035Y-121682830D01*
X132598903Y-121468663D01*
X132660063Y-121240408D01*
X132680659Y-121005000D01*
X132679861Y-120995884D01*
X132676156Y-120953527D01*
X132660063Y-120769592D01*
X132598903Y-120541337D01*
X132499035Y-120327171D01*
X132498068Y-120325789D01*
X132363494Y-120133597D01*
X132196402Y-119966506D01*
X132196396Y-119966501D01*
X132010842Y-119836575D01*
X131967217Y-119781998D01*
X131960023Y-119712500D01*
X131991546Y-119650145D01*
X132010842Y-119633425D01*
X132058583Y-119599996D01*
X132196401Y-119503495D01*
X132363495Y-119336401D01*
X132499035Y-119142830D01*
X132598903Y-118928663D01*
X132660063Y-118700408D01*
X132680659Y-118465000D01*
X132660063Y-118229592D01*
X132598903Y-118001337D01*
X132499035Y-117787171D01*
X132363495Y-117593599D01*
X132363494Y-117593597D01*
X132196402Y-117426506D01*
X132196401Y-117426505D01*
X132010405Y-117296269D01*
X131966781Y-117241692D01*
X131959588Y-117172193D01*
X131991110Y-117109839D01*
X132010405Y-117093119D01*
X132196082Y-116963105D01*
X132363105Y-116796082D01*
X132498600Y-116602578D01*
X132598429Y-116388492D01*
X132598432Y-116388486D01*
X132655636Y-116175000D01*
X131758012Y-116175000D01*
X131790925Y-116117993D01*
X131825000Y-115990826D01*
X131825000Y-115859174D01*
X131790925Y-115732007D01*
X131758012Y-115675000D01*
X132655636Y-115675000D01*
X132655635Y-115674999D01*
X132598432Y-115461513D01*
X132598429Y-115461507D01*
X132498600Y-115247422D01*
X132498599Y-115247420D01*
X132363113Y-115053926D01*
X132363108Y-115053920D01*
X132196082Y-114886894D01*
X132002578Y-114751399D01*
X131788492Y-114651570D01*
X131788486Y-114651567D01*
X131575000Y-114594364D01*
X131575000Y-115491988D01*
X131517993Y-115459075D01*
X131390826Y-115425000D01*
X131259174Y-115425000D01*
X131132007Y-115459075D01*
X131075000Y-115491988D01*
X131075000Y-114594364D01*
X131074999Y-114594364D01*
X130861513Y-114651567D01*
X130861507Y-114651570D01*
X130647422Y-114751399D01*
X130647420Y-114751400D01*
X130453926Y-114886886D01*
X130453920Y-114886891D01*
X130286891Y-115053920D01*
X130286886Y-115053926D01*
X130151400Y-115247420D01*
X130151399Y-115247422D01*
X130051570Y-115461507D01*
X130051567Y-115461513D01*
X129994364Y-115674999D01*
X129994364Y-115675000D01*
X130891988Y-115675000D01*
X130859075Y-115732007D01*
X130825000Y-115859174D01*
X130825000Y-115990826D01*
X130859075Y-116117993D01*
X130891988Y-116175000D01*
X129994364Y-116175000D01*
X130051567Y-116388486D01*
X130051570Y-116388492D01*
X130151399Y-116602578D01*
X130286894Y-116796082D01*
X130453917Y-116963105D01*
X130639595Y-117093119D01*
X130683219Y-117147696D01*
X130690412Y-117217195D01*
X130658890Y-117279549D01*
X130639595Y-117296269D01*
X130453594Y-117426508D01*
X130286505Y-117593597D01*
X130150965Y-117787169D01*
X130150964Y-117787171D01*
X130051098Y-118001335D01*
X130051094Y-118001344D01*
X129989938Y-118229586D01*
X129989936Y-118229596D01*
X129969341Y-118464999D01*
X116053696Y-118464999D01*
X116075000Y-116750034D01*
X116075000Y-116724999D01*
X107825000Y-116824999D01*
X94294435Y-116824999D01*
X94291483Y-116399996D01*
X119919435Y-116399996D01*
X119919435Y-116400003D01*
X119939630Y-116579249D01*
X119939631Y-116579254D01*
X119999211Y-116749523D01*
X120046636Y-116824999D01*
X120095184Y-116902262D01*
X120222738Y-117029816D01*
X120375478Y-117125789D01*
X120438085Y-117147696D01*
X120545745Y-117185368D01*
X120545750Y-117185369D01*
X120724996Y-117205565D01*
X120725000Y-117205565D01*
X120725004Y-117205565D01*
X120904249Y-117185369D01*
X120904252Y-117185368D01*
X120904255Y-117185368D01*
X121074522Y-117125789D01*
X121227262Y-117029816D01*
X121354816Y-116902262D01*
X121450789Y-116749522D01*
X121510368Y-116579255D01*
X121525373Y-116446082D01*
X121530565Y-116400003D01*
X121530565Y-116399996D01*
X121510369Y-116220750D01*
X121510368Y-116220745D01*
X121494361Y-116175000D01*
X121450789Y-116050478D01*
X121444786Y-116040925D01*
X121354815Y-115897737D01*
X121227262Y-115770184D01*
X121074523Y-115674211D01*
X120904254Y-115614631D01*
X120904249Y-115614630D01*
X120725004Y-115594435D01*
X120724996Y-115594435D01*
X120545750Y-115614630D01*
X120545745Y-115614631D01*
X120375476Y-115674211D01*
X120222737Y-115770184D01*
X120095184Y-115897737D01*
X119999211Y-116050476D01*
X119939631Y-116220745D01*
X119939630Y-116220750D01*
X119919435Y-116399996D01*
X94291483Y-116399996D01*
X94280372Y-114799997D01*
X95744751Y-114799997D01*
X95744751Y-114800002D01*
X95763685Y-114968056D01*
X95819545Y-115127694D01*
X95819547Y-115127697D01*
X95909518Y-115270884D01*
X95909523Y-115270890D01*
X96029109Y-115390476D01*
X96029115Y-115390481D01*
X96172302Y-115480452D01*
X96172305Y-115480454D01*
X96172309Y-115480455D01*
X96172310Y-115480456D01*
X96244913Y-115505860D01*
X96331943Y-115536314D01*
X96499997Y-115555249D01*
X96500000Y-115555249D01*
X96500003Y-115555249D01*
X96668056Y-115536314D01*
X96670760Y-115535368D01*
X96827690Y-115480456D01*
X96827692Y-115480454D01*
X96827694Y-115480454D01*
X96827697Y-115480452D01*
X96970884Y-115390481D01*
X96970885Y-115390480D01*
X96970890Y-115390477D01*
X97090477Y-115270890D01*
X97090481Y-115270884D01*
X97180452Y-115127697D01*
X97180454Y-115127694D01*
X97180454Y-115127692D01*
X97180456Y-115127690D01*
X97236313Y-114968059D01*
X97236313Y-114968058D01*
X97236314Y-114968056D01*
X97255249Y-114800002D01*
X97255249Y-114799997D01*
X97249615Y-114749996D01*
X105369435Y-114749996D01*
X105369435Y-114750003D01*
X105389630Y-114929249D01*
X105389631Y-114929254D01*
X105449211Y-115099523D01*
X105542142Y-115247420D01*
X105545184Y-115252262D01*
X105672738Y-115379816D01*
X105825478Y-115475789D01*
X105838816Y-115480456D01*
X105995745Y-115535368D01*
X105995750Y-115535369D01*
X106174996Y-115555565D01*
X106175000Y-115555565D01*
X106175004Y-115555565D01*
X106354249Y-115535369D01*
X106354252Y-115535368D01*
X106354255Y-115535368D01*
X106524522Y-115475789D01*
X106677262Y-115379816D01*
X106804816Y-115252262D01*
X106900789Y-115099522D01*
X106960368Y-114929255D01*
X106965141Y-114886894D01*
X106980565Y-114750003D01*
X106980565Y-114749996D01*
X106960369Y-114570750D01*
X106960368Y-114570745D01*
X106900788Y-114400476D01*
X106855125Y-114327805D01*
X106804816Y-114247738D01*
X106677262Y-114120184D01*
X106587348Y-114063687D01*
X106524523Y-114024211D01*
X106354254Y-113964631D01*
X106354249Y-113964630D01*
X106175004Y-113944435D01*
X106174996Y-113944435D01*
X105995750Y-113964630D01*
X105995745Y-113964631D01*
X105825476Y-114024211D01*
X105672737Y-114120184D01*
X105545184Y-114247737D01*
X105449211Y-114400476D01*
X105389631Y-114570745D01*
X105389630Y-114570750D01*
X105369435Y-114749996D01*
X97249615Y-114749996D01*
X97236314Y-114631943D01*
X97180454Y-114472305D01*
X97180452Y-114472302D01*
X97090481Y-114329115D01*
X97090476Y-114329109D01*
X96970890Y-114209523D01*
X96970884Y-114209518D01*
X96827697Y-114119547D01*
X96827694Y-114119545D01*
X96668056Y-114063685D01*
X96500003Y-114044751D01*
X96499997Y-114044751D01*
X96331943Y-114063685D01*
X96172305Y-114119545D01*
X96172302Y-114119547D01*
X96029115Y-114209518D01*
X96029109Y-114209523D01*
X95909523Y-114329109D01*
X95909518Y-114329115D01*
X95819547Y-114472302D01*
X95819545Y-114472305D01*
X95763685Y-114631943D01*
X95744751Y-114799997D01*
X94280372Y-114799997D01*
X94274167Y-113906395D01*
X94261056Y-112018443D01*
X94280275Y-111951269D01*
X94332760Y-111905148D01*
X94401847Y-111894725D01*
X94465603Y-111923307D01*
X94493885Y-111958155D01*
X94562770Y-112084309D01*
X94562775Y-112084317D01*
X94734254Y-112313387D01*
X94734270Y-112313405D01*
X94936594Y-112515729D01*
X94936612Y-112515745D01*
X95165682Y-112687224D01*
X95165690Y-112687229D01*
X95416833Y-112824364D01*
X95416832Y-112824364D01*
X95416836Y-112824365D01*
X95416839Y-112824367D01*
X95684954Y-112924369D01*
X95684960Y-112924370D01*
X95684962Y-112924371D01*
X95964566Y-112985195D01*
X95964568Y-112985195D01*
X95964572Y-112985196D01*
X96218220Y-113003337D01*
X96249999Y-113005610D01*
X96250000Y-113005610D01*
X96250001Y-113005610D01*
X96278595Y-113003564D01*
X96535428Y-112985196D01*
X96815046Y-112924369D01*
X97083161Y-112824367D01*
X97334315Y-112687226D01*
X97563395Y-112515739D01*
X97765739Y-112313395D01*
X97937226Y-112084315D01*
X98074367Y-111833161D01*
X98174369Y-111565046D01*
X98211823Y-111392872D01*
X98235195Y-111285433D01*
X98235195Y-111285432D01*
X98235196Y-111285428D01*
X98255610Y-111000000D01*
X98235196Y-110714572D01*
X98210273Y-110600004D01*
X98174371Y-110434962D01*
X98174370Y-110434960D01*
X98174369Y-110434954D01*
X98074367Y-110166839D01*
X98020293Y-110067811D01*
X97937229Y-109915690D01*
X97937224Y-109915682D01*
X97765745Y-109686612D01*
X97765729Y-109686594D01*
X97563405Y-109484270D01*
X97563387Y-109484254D01*
X97334317Y-109312775D01*
X97334309Y-109312770D01*
X97188829Y-109233332D01*
X97139424Y-109183927D01*
X97124572Y-109115654D01*
X97148989Y-109050189D01*
X97204923Y-109008318D01*
X97248256Y-109000500D01*
X115195783Y-109000500D01*
X115262822Y-109020185D01*
G37*
%TD.AperFunction*%
%TD*%
%TA.AperFunction,Conductor*%
%TO.N,+3.3VA*%
G36*
X114328613Y-130324902D02*
G01*
X114354893Y-130335883D01*
X114361205Y-130342235D01*
X114361700Y-130349645D01*
X114239405Y-130816266D01*
X114233992Y-130823400D01*
X114228087Y-130825000D01*
X113946145Y-130825000D01*
X113937872Y-130821573D01*
X113934827Y-130816266D01*
X113812531Y-130349645D01*
X113813749Y-130340774D01*
X113819337Y-130335883D01*
X114082606Y-130225883D01*
X114091560Y-130225857D01*
X114328613Y-130324902D01*
G37*
%TD.AperFunction*%
%TD*%
%TA.AperFunction,Conductor*%
%TO.N,+3.3VA*%
G36*
X110812081Y-136901053D02*
G01*
X111011446Y-137100418D01*
X111014873Y-137108691D01*
X111013273Y-137114596D01*
X110769798Y-137531023D01*
X110762664Y-137536436D01*
X110755254Y-137535941D01*
X110491315Y-137427563D01*
X110484963Y-137421251D01*
X110484936Y-137421184D01*
X110376558Y-137157245D01*
X110376585Y-137148290D01*
X110381474Y-137142702D01*
X110797906Y-136899225D01*
X110806774Y-136898008D01*
X110812081Y-136901053D01*
G37*
%TD.AperFunction*%
%TD*%
M02*
