%TF.GenerationSoftware,KiCad,Pcbnew,8.0.3*%
%TF.CreationDate,2024-12-07T22:28:51-06:00*%
%TF.ProjectId,wearable_som,77656172-6162-46c6-955f-736f6d2e6b69,rev?*%
%TF.SameCoordinates,Original*%
%TF.FileFunction,Copper,L4,Bot*%
%TF.FilePolarity,Positive*%
%FSLAX46Y46*%
G04 Gerber Fmt 4.6, Leading zero omitted, Abs format (unit mm)*
G04 Created by KiCad (PCBNEW 8.0.3) date 2024-12-07 22:28:51*
%MOMM*%
%LPD*%
G01*
G04 APERTURE LIST*
G04 Aperture macros list*
%AMRoundRect*
0 Rectangle with rounded corners*
0 $1 Rounding radius*
0 $2 $3 $4 $5 $6 $7 $8 $9 X,Y pos of 4 corners*
0 Add a 4 corners polygon primitive as box body*
4,1,4,$2,$3,$4,$5,$6,$7,$8,$9,$2,$3,0*
0 Add four circle primitives for the rounded corners*
1,1,$1+$1,$2,$3*
1,1,$1+$1,$4,$5*
1,1,$1+$1,$6,$7*
1,1,$1+$1,$8,$9*
0 Add four rect primitives between the rounded corners*
20,1,$1+$1,$2,$3,$4,$5,0*
20,1,$1+$1,$4,$5,$6,$7,0*
20,1,$1+$1,$6,$7,$8,$9,0*
20,1,$1+$1,$8,$9,$2,$3,0*%
G04 Aperture macros list end*
%TA.AperFunction,ComponentPad*%
%ADD10R,1.000000X1.000000*%
%TD*%
%TA.AperFunction,ComponentPad*%
%ADD11R,1.700000X1.700000*%
%TD*%
%TA.AperFunction,ComponentPad*%
%ADD12O,1.700000X1.700000*%
%TD*%
%TA.AperFunction,ComponentPad*%
%ADD13O,2.100000X1.000000*%
%TD*%
%TA.AperFunction,ComponentPad*%
%ADD14O,1.800000X1.000000*%
%TD*%
%TA.AperFunction,ComponentPad*%
%ADD15RoundRect,0.650000X0.650000X0.650000X-0.650000X0.650000X-0.650000X-0.650000X0.650000X-0.650000X0*%
%TD*%
%TA.AperFunction,ComponentPad*%
%ADD16C,2.600000*%
%TD*%
%TA.AperFunction,ComponentPad*%
%ADD17RoundRect,0.250000X-0.625000X0.350000X-0.625000X-0.350000X0.625000X-0.350000X0.625000X0.350000X0*%
%TD*%
%TA.AperFunction,ComponentPad*%
%ADD18O,1.750000X1.200000*%
%TD*%
%TA.AperFunction,SMDPad,CuDef*%
%ADD19RoundRect,0.250000X-0.475000X0.250000X-0.475000X-0.250000X0.475000X-0.250000X0.475000X0.250000X0*%
%TD*%
%TA.AperFunction,SMDPad,CuDef*%
%ADD20RoundRect,0.250000X0.262500X0.450000X-0.262500X0.450000X-0.262500X-0.450000X0.262500X-0.450000X0*%
%TD*%
%TA.AperFunction,SMDPad,CuDef*%
%ADD21R,0.500000X1.075000*%
%TD*%
%TA.AperFunction,ViaPad*%
%ADD22C,0.600000*%
%TD*%
%TA.AperFunction,ViaPad*%
%ADD23C,0.500000*%
%TD*%
%TA.AperFunction,Conductor*%
%ADD24C,0.150000*%
%TD*%
%TA.AperFunction,Conductor*%
%ADD25C,0.300000*%
%TD*%
G04 APERTURE END LIST*
D10*
%TO.P,TP1,1,1*%
%TO.N,/VBUS*%
X107550000Y-124800000D03*
%TD*%
D11*
%TO.P,J1,1,Pin_1*%
%TO.N,/SWDIO*%
X131325000Y-123545000D03*
D12*
%TO.P,J1,2,Pin_2*%
%TO.N,/SWCLK*%
X131325000Y-121005000D03*
%TO.P,J1,3,Pin_3*%
%TO.N,+3.3V*%
X131325000Y-118465000D03*
%TO.P,J1,4,Pin_4*%
%TO.N,GND*%
X131325000Y-115925000D03*
%TD*%
D11*
%TO.P,R10,1*%
%TO.N,/ADC1_IN1*%
X111110000Y-140875000D03*
D12*
%TO.P,R10,2*%
%TO.N,GND*%
X113650000Y-140875000D03*
%TD*%
D13*
%TO.P,J2,SH1,SHELL_GND*%
%TO.N,GND*%
X99850000Y-124195000D03*
%TO.P,J2,SH2,SHELL_GND*%
X99850000Y-132835000D03*
D14*
%TO.P,J2,SH3,SHELL_GND*%
X95670000Y-124195000D03*
%TO.P,J2,SH4,SHELL_GND*%
X95670000Y-132835000D03*
%TD*%
D15*
%TO.P,M1,1,+*%
%TO.N,Net-(IC2-OUTP)*%
X121515000Y-110600000D03*
D16*
%TO.P,M1,2,-*%
%TO.N,Net-(IC2-OUTN)*%
X116435000Y-110600000D03*
%TD*%
D17*
%TO.P,BT1,1,+*%
%TO.N,/VBAT+*%
X97275000Y-138450000D03*
D18*
%TO.P,BT1,2,-*%
%TO.N,GND*%
X97275000Y-140450000D03*
%TD*%
D10*
%TO.P,TP2,1,1*%
%TO.N,/VBAT+*%
X100100000Y-134675000D03*
%TD*%
%TO.P,TP3,1,1*%
%TO.N,Net-(D1-K)*%
X100775000Y-141350000D03*
%TD*%
D11*
%TO.P,J3,1,Pin_1*%
%TO.N,/USART1_TX*%
X126675000Y-110495000D03*
D12*
%TO.P,J3,2,Pin_2*%
%TO.N,/USART1_RX*%
X126675000Y-113035000D03*
%TO.P,J3,3,Pin_3*%
%TO.N,GND*%
X126675000Y-115575000D03*
%TD*%
D19*
%TO.P,C8,1*%
%TO.N,+3.3V*%
X106475000Y-137400000D03*
%TO.P,C8,2*%
%TO.N,GND*%
X106475000Y-139300000D03*
%TD*%
D20*
%TO.P,R1,1*%
%TO.N,/CC1*%
X96900000Y-126875000D03*
%TO.P,R1,2*%
%TO.N,GND*%
X95075000Y-126875000D03*
%TD*%
%TO.P,R2,1*%
%TO.N,Net-(J2-CC2)*%
X96875000Y-130550000D03*
%TO.P,R2,2*%
%TO.N,GND*%
X95050000Y-130550000D03*
%TD*%
%TO.P,R3,1*%
%TO.N,Net-(U3-PROG)*%
X109637500Y-131575000D03*
%TO.P,R3,2*%
%TO.N,GND*%
X107812500Y-131575000D03*
%TD*%
D21*
%TO.P,D1,1,K*%
%TO.N,Net-(D1-K)*%
X103850000Y-132313000D03*
%TO.P,D1,2,A*%
%TO.N,/VBUS*%
X103850000Y-134637000D03*
%TD*%
D22*
%TO.N,/OSC_IN*%
X125425000Y-134350000D03*
X124375000Y-131875000D03*
%TO.N,GND*%
X105925000Y-118900000D03*
X107800000Y-131575000D03*
X108300000Y-144350000D03*
D23*
X122675000Y-128375000D03*
D22*
X117675000Y-116375000D03*
X117325000Y-140075000D03*
X111075000Y-126775000D03*
D23*
X118100000Y-127725000D03*
D22*
X114925000Y-116075000D03*
X103375000Y-112125000D03*
X100600000Y-143975000D03*
X105375000Y-128600000D03*
D23*
X121800000Y-127250000D03*
D22*
X132312500Y-127025000D03*
X95050000Y-130550000D03*
X110528133Y-134250000D03*
D23*
X122200000Y-125950000D03*
X120200000Y-127775000D03*
D22*
X95075000Y-126900000D03*
X111975000Y-110750000D03*
D23*
X120175000Y-129425000D03*
X118100000Y-125850000D03*
D22*
X116400000Y-142100000D03*
D23*
X122300000Y-129575000D03*
X118025000Y-129600000D03*
D22*
X101950000Y-138325000D03*
X130225000Y-131600000D03*
X104175000Y-122500000D03*
X106175000Y-110750000D03*
X106475000Y-139300000D03*
D23*
X128425000Y-118175000D03*
D22*
X108025000Y-141375000D03*
D23*
X122575000Y-130350000D03*
X117850000Y-130400000D03*
D22*
X125825000Y-131875000D03*
D23*
X120150000Y-125900000D03*
D22*
%TO.N,/NRST*%
X106175000Y-114750000D03*
X110088679Y-125325000D03*
%TO.N,Net-(D1-K)*%
X102650000Y-131750000D03*
X102575000Y-132700000D03*
X103875000Y-132425000D03*
X104100000Y-141975000D03*
%TO.N,+3.3V*%
X125150000Y-127175000D03*
D23*
X115300000Y-129175000D03*
D22*
X109925000Y-126800000D03*
D23*
X96500000Y-114800000D03*
D22*
X113975000Y-123825000D03*
D23*
X121400000Y-133050000D03*
D22*
X120725000Y-116400000D03*
D23*
X121100000Y-122675000D03*
X128425000Y-120075000D03*
D22*
X125000000Y-119600000D03*
X106275000Y-137375000D03*
D23*
X108725000Y-121975000D03*
D22*
X117625000Y-119475000D03*
D23*
X96500000Y-120525000D03*
X123075000Y-132575000D03*
D22*
X130200000Y-129650000D03*
%TO.N,/VBUS*%
X103850000Y-134637000D03*
D23*
%TO.N,/ICS1_SCL*%
X123175000Y-119525000D03*
D22*
X118433378Y-121275000D03*
X113131216Y-126070131D03*
%TO.N,/NIRQ*%
X119850000Y-121275000D03*
X120025000Y-133950000D03*
%TO.N,/ICS1_SDA*%
X117997755Y-120604004D03*
X110525000Y-122000000D03*
X111425000Y-125325000D03*
D23*
%TO.N,/SWCLK*%
X119725000Y-122700000D03*
D22*
X120500000Y-120750000D03*
D23*
%TO.N,/SWDIO*%
X122525000Y-122741315D03*
D22*
X121325000Y-121275000D03*
%TO.N,Net-(U3-PROG)*%
X109637500Y-131575000D03*
%TO.N,Net-(U1-PH3)*%
X110725000Y-124750000D03*
X106800000Y-121525000D03*
%TO.N,/ADC1_IN1*%
X112312500Y-137425000D03*
X113694087Y-127980913D03*
%TO.N,/STAT*%
X111400000Y-134800000D03*
X125175000Y-125700000D03*
%TO.N,/SPI1_MOSI*%
X111925000Y-131675000D03*
X111925000Y-130025000D03*
D23*
%TO.N,/USART1_RX*%
X125675000Y-124200000D03*
%TO.N,/USART1_TX*%
X119775000Y-132825000D03*
D22*
%TO.N,/INT2*%
X113163275Y-129290560D03*
X109125000Y-128575000D03*
%TO.N,+3.3VA*%
X114087116Y-130225000D03*
X110487500Y-137425000D03*
%TO.N,/SPI1_MISO*%
X113175000Y-131625000D03*
X112725003Y-130025000D03*
%TO.N,/CC1*%
X96900000Y-126875000D03*
%TO.N,Net-(J2-CC2)*%
X96875000Y-130550000D03*
%TO.N,/RCC_OSC32_IN*%
X112500000Y-123325000D03*
X112675000Y-119775000D03*
%TO.N,/RCC_OSC32_OUT*%
X111175000Y-119775000D03*
X111721966Y-123511182D03*
%TD*%
D24*
%TO.N,/OSC_IN*%
X124375000Y-133300000D02*
X125425000Y-134350000D01*
X124375000Y-131875000D02*
X124375000Y-133300000D01*
%TO.N,/NRST*%
X105400000Y-117200000D02*
X106150000Y-116450000D01*
X110088679Y-125325000D02*
X109625000Y-125325000D01*
X106150000Y-116450000D02*
X106150000Y-114775000D01*
X105400000Y-121100000D02*
X105400000Y-117200000D01*
X106150000Y-114775000D02*
X106175000Y-114750000D01*
X109625000Y-125325000D02*
X105400000Y-121100000D01*
D25*
%TO.N,Net-(D1-K)*%
X104100000Y-141975000D02*
X102575000Y-140450000D01*
X101675000Y-141350000D02*
X100775000Y-141350000D01*
X102575000Y-140450000D02*
X102575000Y-132700000D01*
X102575000Y-140450000D02*
X101675000Y-141350000D01*
X102650000Y-132625000D02*
X102575000Y-132700000D01*
X102650000Y-131750000D02*
X102650000Y-132625000D01*
D24*
%TO.N,/ICS1_SCL*%
X117926347Y-121275000D02*
X113131216Y-126070131D01*
X120786827Y-119525000D02*
X119036827Y-121275000D01*
X120786827Y-119525000D02*
X123175000Y-119525000D01*
X119036827Y-121275000D02*
X118433378Y-121275000D01*
X118433378Y-121275000D02*
X117926347Y-121275000D01*
%TO.N,/NIRQ*%
X120025000Y-133950000D02*
X118875000Y-132800000D01*
X118875000Y-122250000D02*
X119850000Y-121275000D01*
X118875000Y-132800000D02*
X118875000Y-122250000D01*
%TO.N,/ICS1_SDA*%
X117997755Y-120604004D02*
X117997755Y-120651635D01*
X110525000Y-122000000D02*
X110525000Y-123736827D01*
X110525000Y-123736827D02*
X111425000Y-124636827D01*
X111425000Y-124636827D02*
X111425000Y-125325000D01*
X117997755Y-120651635D02*
X113324390Y-125325000D01*
X113324390Y-125325000D02*
X111425000Y-125325000D01*
%TO.N,/SWCLK*%
X120500000Y-121625000D02*
X120500000Y-121550000D01*
X119725000Y-122700000D02*
X120500000Y-121925000D01*
X120500000Y-121550000D02*
X120500000Y-120750000D01*
X120500000Y-121925000D02*
X120500000Y-121550000D01*
%TO.N,/SWDIO*%
X122525000Y-122741315D02*
X121325000Y-121541315D01*
X121325000Y-121541315D02*
X121325000Y-121275000D01*
%TO.N,Net-(U1-PH3)*%
X110725000Y-124750000D02*
X110000000Y-124750000D01*
X106800000Y-121550000D02*
X106800000Y-121525000D01*
X110000000Y-124750000D02*
X106800000Y-121550000D01*
%TO.N,/ADC1_IN1*%
X113900000Y-131536827D02*
X113900000Y-135837500D01*
X113475000Y-131111827D02*
X113900000Y-131536827D01*
X113475000Y-129907537D02*
X113475000Y-131111827D01*
X113900000Y-135837500D02*
X112312500Y-137425000D01*
X113688275Y-129694262D02*
X113475000Y-129907537D01*
X113688275Y-128959392D02*
X113688275Y-129694262D01*
X113694087Y-128953580D02*
X113688275Y-128959392D01*
X113694087Y-127980913D02*
X113694087Y-128953580D01*
%TO.N,/SPI1_MOSI*%
X111925000Y-131675000D02*
X111925000Y-130025000D01*
%TO.N,/USART1_RX*%
X127750000Y-114110000D02*
X127750000Y-122125000D01*
X127750000Y-122125000D02*
X125675000Y-124200000D01*
X126675000Y-113035000D02*
X127750000Y-114110000D01*
%TO.N,/USART1_TX*%
X128900000Y-112720000D02*
X126675000Y-110495000D01*
X128900000Y-124696752D02*
X128900000Y-112720000D01*
X120771752Y-132825000D02*
X128900000Y-124696752D01*
X119775000Y-132825000D02*
X120771752Y-132825000D01*
%TO.N,/SPI1_MISO*%
X112725003Y-130025000D02*
X112725003Y-131175003D01*
X112725003Y-131175003D02*
X113175000Y-131625000D01*
%TO.N,/RCC_OSC32_IN*%
X112400000Y-123225000D02*
X112400000Y-120050000D01*
X112500000Y-123325000D02*
X112400000Y-123225000D01*
X112400000Y-120050000D02*
X112675000Y-119775000D01*
%TO.N,/RCC_OSC32_OUT*%
X111675000Y-120275000D02*
X111175000Y-119775000D01*
X111675000Y-123464216D02*
X111675000Y-120275000D01*
X111721966Y-123511182D02*
X111675000Y-123464216D01*
%TD*%
%TA.AperFunction,Conductor*%
%TO.N,/OSC_IN*%
G36*
X125060977Y-133875671D02*
G01*
X125528998Y-134068386D01*
X125535342Y-134074704D01*
X125535365Y-134083648D01*
X125427563Y-134346184D01*
X125421251Y-134352536D01*
X125421184Y-134352563D01*
X125158648Y-134460365D01*
X125149693Y-134460338D01*
X125143386Y-134453998D01*
X124950672Y-133985979D01*
X124950691Y-133977026D01*
X124953215Y-133973256D01*
X125048254Y-133878217D01*
X125056526Y-133874791D01*
X125060977Y-133875671D01*
G37*
%TD.AperFunction*%
%TD*%
%TA.AperFunction,Conductor*%
%TO.N,/OSC_IN*%
G36*
X124641380Y-131985299D02*
G01*
X124647691Y-131991650D01*
X124647668Y-132000594D01*
X124453000Y-132467800D01*
X124446655Y-132474119D01*
X124442200Y-132475000D01*
X124307800Y-132475000D01*
X124299527Y-132471573D01*
X124297000Y-132467800D01*
X124102331Y-132000594D01*
X124102312Y-131991639D01*
X124108617Y-131985300D01*
X124370490Y-131875883D01*
X124379444Y-131875857D01*
X124641380Y-131985299D01*
G37*
%TD.AperFunction*%
%TD*%
%TA.AperFunction,Conductor*%
%TO.N,/NRST*%
G36*
X109972524Y-125051880D02*
G01*
X109978023Y-125057817D01*
X110087514Y-125321204D01*
X110087525Y-125330159D01*
X110087506Y-125330206D01*
X109979256Y-125589281D01*
X109972904Y-125595593D01*
X109963949Y-125595566D01*
X109962131Y-125594610D01*
X109673728Y-125409099D01*
X109487778Y-125289490D01*
X109482674Y-125282133D01*
X109484268Y-125273322D01*
X109485830Y-125271383D01*
X109579658Y-125177555D01*
X109584303Y-125174706D01*
X109963596Y-125051183D01*
X109972524Y-125051880D01*
G37*
%TD.AperFunction*%
%TD*%
%TA.AperFunction,Conductor*%
%TO.N,/NRST*%
G36*
X106440859Y-114860081D02*
G01*
X106447171Y-114866433D01*
X106447144Y-114875388D01*
X106446924Y-114875880D01*
X106228168Y-115338330D01*
X106221533Y-115344343D01*
X106217592Y-115345027D01*
X106083155Y-115345027D01*
X106074882Y-115341600D01*
X106072178Y-115337377D01*
X106031596Y-115227377D01*
X105901717Y-114875325D01*
X105902069Y-114866379D01*
X105908181Y-114860482D01*
X106170490Y-114750883D01*
X106179444Y-114750857D01*
X106440859Y-114860081D01*
G37*
%TD.AperFunction*%
%TD*%
%TA.AperFunction,Conductor*%
%TO.N,Net-(D1-K)*%
G36*
X103789592Y-141449225D02*
G01*
X104206023Y-141692701D01*
X104211436Y-141699835D01*
X104210941Y-141707245D01*
X104102563Y-141971184D01*
X104096251Y-141977536D01*
X104096184Y-141977563D01*
X103832245Y-142085941D01*
X103823290Y-142085914D01*
X103817701Y-142081023D01*
X103574225Y-141664593D01*
X103573008Y-141655725D01*
X103576051Y-141650420D01*
X103775419Y-141451052D01*
X103783691Y-141447626D01*
X103789592Y-141449225D01*
G37*
%TD.AperFunction*%
%TD*%
%TA.AperFunction,Conductor*%
%TO.N,Net-(D1-K)*%
G36*
X102816497Y-132799902D02*
G01*
X102842777Y-132810883D01*
X102849089Y-132817235D01*
X102849584Y-132824645D01*
X102727289Y-133291266D01*
X102721876Y-133298400D01*
X102715971Y-133300000D01*
X102434029Y-133300000D01*
X102425756Y-133296573D01*
X102422711Y-133291266D01*
X102300415Y-132824645D01*
X102301633Y-132815774D01*
X102307221Y-132810883D01*
X102570490Y-132700883D01*
X102579444Y-132700857D01*
X102816497Y-132799902D01*
G37*
%TD.AperFunction*%
%TD*%
%TA.AperFunction,Conductor*%
%TO.N,Net-(D1-K)*%
G36*
X102891497Y-131849902D02*
G01*
X102917777Y-131860883D01*
X102924089Y-131867235D01*
X102924584Y-131874645D01*
X102802289Y-132341266D01*
X102796876Y-132348400D01*
X102790971Y-132350000D01*
X102509029Y-132350000D01*
X102500756Y-132346573D01*
X102497711Y-132341266D01*
X102375415Y-131874645D01*
X102376633Y-131865774D01*
X102382221Y-131860883D01*
X102645490Y-131750883D01*
X102654444Y-131750857D01*
X102891497Y-131849902D01*
G37*
%TD.AperFunction*%
%TD*%
%TA.AperFunction,Conductor*%
%TO.N,Net-(D1-K)*%
G36*
X102797977Y-132118345D02*
G01*
X102801309Y-132125130D01*
X102873315Y-132686856D01*
X102870968Y-132695498D01*
X102863198Y-132699949D01*
X102861749Y-132700044D01*
X102577367Y-132700992D01*
X102572817Y-132700088D01*
X102572606Y-132700000D01*
X102541039Y-132686810D01*
X102308742Y-132589751D01*
X102302430Y-132583399D01*
X102302456Y-132574445D01*
X102496957Y-132121997D01*
X102503373Y-132115750D01*
X102507706Y-132114918D01*
X102789704Y-132114918D01*
X102797977Y-132118345D01*
G37*
%TD.AperFunction*%
%TD*%
%TA.AperFunction,Conductor*%
%TO.N,/ICS1_SCL*%
G36*
X113504189Y-125595822D02*
G01*
X113507962Y-125598349D01*
X113602997Y-125693384D01*
X113606424Y-125701657D01*
X113605543Y-125706112D01*
X113412830Y-126174128D01*
X113406511Y-126180473D01*
X113397567Y-126180496D01*
X113135031Y-126072694D01*
X113128679Y-126066382D01*
X113128652Y-126066315D01*
X113099439Y-125995172D01*
X113020850Y-125803777D01*
X113020877Y-125794824D01*
X113027216Y-125788517D01*
X113495236Y-125595803D01*
X113504189Y-125595822D01*
G37*
%TD.AperFunction*%
%TD*%
%TA.AperFunction,Conductor*%
%TO.N,/ICS1_SCL*%
G36*
X123077668Y-119298343D02*
G01*
X123083720Y-119304522D01*
X123174109Y-119520483D01*
X123174142Y-119529437D01*
X123174109Y-119529517D01*
X123083720Y-119745477D01*
X123077364Y-119751786D01*
X123068716Y-119751876D01*
X122682489Y-119602888D01*
X122676004Y-119596713D01*
X122675000Y-119591972D01*
X122675000Y-119458027D01*
X122678427Y-119449754D01*
X122682489Y-119447111D01*
X123068718Y-119298123D01*
X123077668Y-119298343D01*
G37*
%TD.AperFunction*%
%TD*%
%TA.AperFunction,Conductor*%
%TO.N,/ICS1_SCL*%
G36*
X118558971Y-121002330D02*
G01*
X119026178Y-121197000D01*
X119032497Y-121203345D01*
X119033378Y-121207800D01*
X119033378Y-121342199D01*
X119029951Y-121350472D01*
X119026178Y-121352999D01*
X118558972Y-121547668D01*
X118550017Y-121547687D01*
X118543677Y-121541380D01*
X118434261Y-121279509D01*
X118434235Y-121270556D01*
X118434240Y-121270542D01*
X118543678Y-121008617D01*
X118550028Y-121002308D01*
X118558971Y-121002330D01*
G37*
%TD.AperFunction*%
%TD*%
%TA.AperFunction,Conductor*%
%TO.N,/ICS1_SCL*%
G36*
X118323042Y-121008752D02*
G01*
X118323661Y-121010014D01*
X118432205Y-121269793D01*
X118432232Y-121278748D01*
X118432213Y-121278795D01*
X118322970Y-121541585D01*
X118316630Y-121547909D01*
X118307904Y-121547990D01*
X117915920Y-121394663D01*
X117911909Y-121392040D01*
X117818442Y-121298573D01*
X117815015Y-121290300D01*
X117818442Y-121282027D01*
X117820939Y-121280124D01*
X118307093Y-121004347D01*
X118315979Y-121003247D01*
X118323042Y-121008752D01*
G37*
%TD.AperFunction*%
%TD*%
%TA.AperFunction,Conductor*%
%TO.N,/NIRQ*%
G36*
X119660977Y-133475671D02*
G01*
X120128998Y-133668386D01*
X120135342Y-133674704D01*
X120135365Y-133683648D01*
X120027563Y-133946184D01*
X120021251Y-133952536D01*
X120021184Y-133952563D01*
X119758648Y-134060365D01*
X119749693Y-134060338D01*
X119743386Y-134053998D01*
X119550672Y-133585979D01*
X119550691Y-133577026D01*
X119553215Y-133573256D01*
X119648254Y-133478217D01*
X119656526Y-133474791D01*
X119660977Y-133475671D01*
G37*
%TD.AperFunction*%
%TD*%
%TA.AperFunction,Conductor*%
%TO.N,/NIRQ*%
G36*
X119775041Y-121243223D02*
G01*
X119846184Y-121272436D01*
X119852536Y-121278748D01*
X119852563Y-121278815D01*
X119960365Y-121541351D01*
X119960338Y-121550306D01*
X119953997Y-121556614D01*
X119485981Y-121749327D01*
X119477026Y-121749308D01*
X119473253Y-121746781D01*
X119378218Y-121651746D01*
X119374791Y-121643473D01*
X119375671Y-121639022D01*
X119568386Y-121171000D01*
X119574704Y-121164657D01*
X119583646Y-121164634D01*
X119775041Y-121243223D01*
G37*
%TD.AperFunction*%
%TD*%
%TA.AperFunction,Conductor*%
%TO.N,/ICS1_SDA*%
G36*
X110791380Y-122110299D02*
G01*
X110797691Y-122116650D01*
X110797668Y-122125594D01*
X110603000Y-122592800D01*
X110596655Y-122599119D01*
X110592200Y-122600000D01*
X110457800Y-122600000D01*
X110449527Y-122596573D01*
X110447000Y-122592800D01*
X110252331Y-122125594D01*
X110252312Y-122116639D01*
X110258617Y-122110300D01*
X110520490Y-122000883D01*
X110529444Y-122000857D01*
X110791380Y-122110299D01*
G37*
%TD.AperFunction*%
%TD*%
%TA.AperFunction,Conductor*%
%TO.N,/ICS1_SDA*%
G36*
X111500473Y-124728427D02*
G01*
X111503000Y-124732200D01*
X111697668Y-125199405D01*
X111697687Y-125208360D01*
X111691379Y-125214701D01*
X111429511Y-125324115D01*
X111420556Y-125324142D01*
X111420489Y-125324115D01*
X111291868Y-125270374D01*
X111158619Y-125214700D01*
X111152308Y-125208349D01*
X111152330Y-125199406D01*
X111347000Y-124732199D01*
X111353345Y-124725881D01*
X111357800Y-124725000D01*
X111492200Y-124725000D01*
X111500473Y-124728427D01*
G37*
%TD.AperFunction*%
%TD*%
%TA.AperFunction,Conductor*%
%TO.N,/ICS1_SDA*%
G36*
X117732108Y-120493928D02*
G01*
X117993939Y-120601440D01*
X118000291Y-120607752D01*
X118000318Y-120607819D01*
X118108363Y-120870947D01*
X118108336Y-120879902D01*
X118102596Y-120885942D01*
X117662548Y-121096799D01*
X117653606Y-121097284D01*
X117649219Y-121094521D01*
X117554156Y-120999458D01*
X117550729Y-120991185D01*
X117551350Y-120987426D01*
X117716586Y-120500987D01*
X117722491Y-120494257D01*
X117731427Y-120493673D01*
X117732108Y-120493928D01*
G37*
%TD.AperFunction*%
%TD*%
%TA.AperFunction,Conductor*%
%TO.N,/ICS1_SDA*%
G36*
X111550593Y-125052330D02*
G01*
X112017800Y-125247000D01*
X112024119Y-125253345D01*
X112025000Y-125257800D01*
X112025000Y-125392199D01*
X112021573Y-125400472D01*
X112017800Y-125402999D01*
X111550594Y-125597668D01*
X111541639Y-125597687D01*
X111535299Y-125591380D01*
X111425883Y-125329509D01*
X111425857Y-125320556D01*
X111425862Y-125320542D01*
X111535300Y-125058617D01*
X111541650Y-125052308D01*
X111550593Y-125052330D01*
G37*
%TD.AperFunction*%
%TD*%
%TA.AperFunction,Conductor*%
%TO.N,/SWCLK*%
G36*
X120031195Y-122299089D02*
G01*
X120125910Y-122393804D01*
X120129337Y-122402077D01*
X120128333Y-122406818D01*
X119960579Y-122785272D01*
X119954094Y-122791447D01*
X119945446Y-122791357D01*
X119728824Y-122702564D01*
X119722468Y-122696255D01*
X119722435Y-122696175D01*
X119633642Y-122479553D01*
X119633675Y-122470599D01*
X119639725Y-122464421D01*
X120018183Y-122296665D01*
X120027133Y-122296446D01*
X120031195Y-122299089D01*
G37*
%TD.AperFunction*%
%TD*%
%TA.AperFunction,Conductor*%
%TO.N,/SWCLK*%
G36*
X120766380Y-120860299D02*
G01*
X120772691Y-120866650D01*
X120772668Y-120875594D01*
X120578000Y-121342800D01*
X120571655Y-121349119D01*
X120567200Y-121350000D01*
X120432800Y-121350000D01*
X120424527Y-121346573D01*
X120422000Y-121342800D01*
X120227331Y-120875594D01*
X120227312Y-120866639D01*
X120233617Y-120860300D01*
X120495490Y-120750883D01*
X120504444Y-120750857D01*
X120766380Y-120860299D01*
G37*
%TD.AperFunction*%
%TD*%
%TA.AperFunction,Conductor*%
%TO.N,/SWDIO*%
G36*
X122231815Y-122337980D02*
G01*
X122610272Y-122505735D01*
X122616447Y-122512220D01*
X122616357Y-122520868D01*
X122527564Y-122737490D01*
X122521255Y-122743846D01*
X122521175Y-122743879D01*
X122304553Y-122832672D01*
X122295599Y-122832639D01*
X122289420Y-122826587D01*
X122121665Y-122448131D01*
X122121446Y-122439181D01*
X122124087Y-122435121D01*
X122218805Y-122340403D01*
X122227077Y-122336977D01*
X122231815Y-122337980D01*
G37*
%TD.AperFunction*%
%TD*%
%TA.AperFunction,Conductor*%
%TO.N,/SWDIO*%
G36*
X121613152Y-121274972D02*
G01*
X121621417Y-121278418D01*
X121624824Y-121286700D01*
X121624823Y-121286846D01*
X121618331Y-121723766D01*
X121614905Y-121731865D01*
X121519913Y-121826857D01*
X121511640Y-121830284D01*
X121503960Y-121827411D01*
X121122298Y-121495336D01*
X121118306Y-121487320D01*
X121121151Y-121478829D01*
X121121661Y-121478279D01*
X121320851Y-121277757D01*
X121329111Y-121274304D01*
X121613152Y-121274972D01*
G37*
%TD.AperFunction*%
%TD*%
%TA.AperFunction,Conductor*%
%TO.N,Net-(U1-PH3)*%
G36*
X110614701Y-124483620D02*
G01*
X110724115Y-124745489D01*
X110724142Y-124754444D01*
X110724115Y-124754511D01*
X110614701Y-125016379D01*
X110608349Y-125022691D01*
X110599405Y-125022668D01*
X110132200Y-124827999D01*
X110125881Y-124821654D01*
X110125000Y-124817199D01*
X110125000Y-124682800D01*
X110128427Y-124674527D01*
X110132200Y-124672000D01*
X110599406Y-124477330D01*
X110608360Y-124477312D01*
X110614701Y-124483620D01*
G37*
%TD.AperFunction*%
%TD*%
%TA.AperFunction,Conductor*%
%TO.N,Net-(U1-PH3)*%
G36*
X107074939Y-121414812D02*
G01*
X107081251Y-121421164D01*
X107081389Y-121421517D01*
X107259681Y-121899198D01*
X107259364Y-121908147D01*
X107256993Y-121911562D01*
X107161935Y-122006620D01*
X107153662Y-122010047D01*
X107148895Y-122009032D01*
X106695563Y-121806789D01*
X106689404Y-121800289D01*
X106689506Y-121791662D01*
X106797436Y-121528814D01*
X106803746Y-121522464D01*
X107065985Y-121414785D01*
X107074939Y-121414812D01*
G37*
%TD.AperFunction*%
%TD*%
%TA.AperFunction,Conductor*%
%TO.N,/ADC1_IN1*%
G36*
X112685473Y-136950691D02*
G01*
X112689246Y-136953218D01*
X112784281Y-137048253D01*
X112787708Y-137056526D01*
X112786827Y-137060981D01*
X112594114Y-137528997D01*
X112587795Y-137535342D01*
X112578851Y-137535365D01*
X112316315Y-137427563D01*
X112309963Y-137421251D01*
X112309936Y-137421184D01*
X112280723Y-137350041D01*
X112202134Y-137158646D01*
X112202161Y-137149693D01*
X112208500Y-137143386D01*
X112676520Y-136950672D01*
X112685473Y-136950691D01*
G37*
%TD.AperFunction*%
%TD*%
%TA.AperFunction,Conductor*%
%TO.N,/ADC1_IN1*%
G36*
X113960467Y-128091212D02*
G01*
X113966778Y-128097563D01*
X113966755Y-128106507D01*
X113772087Y-128573713D01*
X113765742Y-128580032D01*
X113761287Y-128580913D01*
X113626887Y-128580913D01*
X113618614Y-128577486D01*
X113616087Y-128573713D01*
X113421418Y-128106507D01*
X113421399Y-128097552D01*
X113427704Y-128091213D01*
X113689577Y-127981796D01*
X113698531Y-127981770D01*
X113960467Y-128091212D01*
G37*
%TD.AperFunction*%
%TD*%
%TA.AperFunction,Conductor*%
%TO.N,/SPI1_MOSI*%
G36*
X112000473Y-131078427D02*
G01*
X112003000Y-131082200D01*
X112197668Y-131549405D01*
X112197687Y-131558360D01*
X112191379Y-131564701D01*
X111929511Y-131674115D01*
X111920556Y-131674142D01*
X111920489Y-131674115D01*
X111791868Y-131620374D01*
X111658619Y-131564700D01*
X111652308Y-131558349D01*
X111652330Y-131549406D01*
X111847000Y-131082199D01*
X111853345Y-131075881D01*
X111857800Y-131075000D01*
X111992200Y-131075000D01*
X112000473Y-131078427D01*
G37*
%TD.AperFunction*%
%TD*%
%TA.AperFunction,Conductor*%
%TO.N,/SPI1_MOSI*%
G36*
X112191380Y-130135299D02*
G01*
X112197691Y-130141650D01*
X112197668Y-130150594D01*
X112003000Y-130617800D01*
X111996655Y-130624119D01*
X111992200Y-130625000D01*
X111857800Y-130625000D01*
X111849527Y-130621573D01*
X111847000Y-130617800D01*
X111652331Y-130150594D01*
X111652312Y-130141639D01*
X111658617Y-130135300D01*
X111920490Y-130025883D01*
X111929444Y-130025857D01*
X112191380Y-130135299D01*
G37*
%TD.AperFunction*%
%TD*%
%TA.AperFunction,Conductor*%
%TO.N,/USART1_RX*%
G36*
X125981195Y-123799089D02*
G01*
X126075910Y-123893804D01*
X126079337Y-123902077D01*
X126078333Y-123906818D01*
X125910579Y-124285272D01*
X125904094Y-124291447D01*
X125895446Y-124291357D01*
X125678824Y-124202564D01*
X125672468Y-124196255D01*
X125672435Y-124196175D01*
X125583642Y-123979553D01*
X125583675Y-123970599D01*
X125589725Y-123964421D01*
X125968183Y-123796665D01*
X125977133Y-123796446D01*
X125981195Y-123799089D01*
G37*
%TD.AperFunction*%
%TD*%
%TA.AperFunction,Conductor*%
%TO.N,/USART1_TX*%
G36*
X120267511Y-132747111D02*
G01*
X120273996Y-132753286D01*
X120275000Y-132758027D01*
X120275000Y-132891972D01*
X120271573Y-132900245D01*
X120267511Y-132902888D01*
X119881283Y-133051876D01*
X119872331Y-133051656D01*
X119866279Y-133045477D01*
X119775889Y-132829515D01*
X119775857Y-132820563D01*
X119866280Y-132604520D01*
X119872635Y-132598213D01*
X119881281Y-132598123D01*
X120267511Y-132747111D01*
G37*
%TD.AperFunction*%
%TD*%
%TA.AperFunction,Conductor*%
%TO.N,/SPI1_MISO*%
G36*
X112991383Y-130135299D02*
G01*
X112997694Y-130141650D01*
X112997671Y-130150594D01*
X112803003Y-130617800D01*
X112796658Y-130624119D01*
X112792203Y-130625000D01*
X112657803Y-130625000D01*
X112649530Y-130621573D01*
X112647003Y-130617800D01*
X112452334Y-130150594D01*
X112452315Y-130141639D01*
X112458620Y-130135300D01*
X112720493Y-130025883D01*
X112729447Y-130025857D01*
X112991383Y-130135299D01*
G37*
%TD.AperFunction*%
%TD*%
%TA.AperFunction,Conductor*%
%TO.N,/SPI1_MISO*%
G36*
X112810977Y-131150671D02*
G01*
X113278998Y-131343386D01*
X113285342Y-131349704D01*
X113285365Y-131358648D01*
X113177563Y-131621184D01*
X113171251Y-131627536D01*
X113171184Y-131627563D01*
X112908648Y-131735365D01*
X112899693Y-131735338D01*
X112893386Y-131728998D01*
X112700672Y-131260979D01*
X112700691Y-131252026D01*
X112703215Y-131248256D01*
X112798254Y-131153217D01*
X112806526Y-131149791D01*
X112810977Y-131150671D01*
G37*
%TD.AperFunction*%
%TD*%
%TA.AperFunction,Conductor*%
%TO.N,/RCC_OSC32_IN*%
G36*
X112476920Y-122748318D02*
G01*
X112478460Y-122750219D01*
X112769526Y-123198433D01*
X112771157Y-123207238D01*
X112766085Y-123214618D01*
X112764224Y-123215601D01*
X112504511Y-123324115D01*
X112495556Y-123324142D01*
X112495489Y-123324115D01*
X112231847Y-123213960D01*
X112225535Y-123207608D01*
X112224930Y-123200657D01*
X112322982Y-122754082D01*
X112328104Y-122746736D01*
X112334410Y-122744891D01*
X112468647Y-122744891D01*
X112476920Y-122748318D01*
G37*
%TD.AperFunction*%
%TD*%
%TA.AperFunction,Conductor*%
%TO.N,/RCC_OSC32_IN*%
G36*
X112675428Y-119777425D02*
G01*
X112677997Y-119781262D01*
X112786134Y-120043271D01*
X112786123Y-120052226D01*
X112781789Y-120057483D01*
X112477941Y-120259140D01*
X112471471Y-120261092D01*
X112337966Y-120261092D01*
X112329693Y-120257665D01*
X112326266Y-120249392D01*
X112326327Y-120248195D01*
X112373923Y-119785467D01*
X112378179Y-119777588D01*
X112385520Y-119774964D01*
X112667143Y-119774026D01*
X112675428Y-119777425D01*
G37*
%TD.AperFunction*%
%TD*%
%TA.AperFunction,Conductor*%
%TO.N,/RCC_OSC32_OUT*%
G36*
X111450306Y-119664661D02*
G01*
X111456614Y-119671002D01*
X111649327Y-120139018D01*
X111649308Y-120147973D01*
X111646781Y-120151746D01*
X111551746Y-120246781D01*
X111543473Y-120250208D01*
X111539018Y-120249327D01*
X111271125Y-120139018D01*
X111071001Y-120056613D01*
X111064657Y-120050295D01*
X111064634Y-120041353D01*
X111172436Y-119778814D01*
X111178746Y-119772464D01*
X111441353Y-119664634D01*
X111450306Y-119664661D01*
G37*
%TD.AperFunction*%
%TD*%
%TA.AperFunction,Conductor*%
%TO.N,/RCC_OSC32_OUT*%
G36*
X111751192Y-122923951D02*
G01*
X111753284Y-122926797D01*
X111993211Y-123385072D01*
X111994013Y-123393991D01*
X111988273Y-123400864D01*
X111987357Y-123401295D01*
X111726477Y-123510297D01*
X111717522Y-123510324D01*
X111717455Y-123510297D01*
X111454761Y-123400538D01*
X111448449Y-123394186D01*
X111448149Y-123386114D01*
X111597367Y-122928596D01*
X111603190Y-122921793D01*
X111608490Y-122920524D01*
X111742919Y-122920524D01*
X111751192Y-122923951D01*
G37*
%TD.AperFunction*%
%TD*%
M02*
