M48
; DRILL file {KiCad 8.0.3} date 2024-11-24T21:54:32-0600
; FORMAT={-:-/ absolute / metric / decimal}
; #@! TF.CreationDate,2024-11-24T21:54:32-06:00
; #@! TF.GenerationSoftware,Kicad,Pcbnew,8.0.3
; #@! TF.FileFunction,Plated,1,4,PTH
FMAT,2
METRIC
; #@! TA.AperFunction,Plated,PTH,ViaDrill
T1C0.300
; #@! TA.AperFunction,Plated,PTH,ComponentDrill
T2C0.500
; #@! TA.AperFunction,Plated,PTH,ComponentDrill
T3C0.600
; #@! TA.AperFunction,Plated,PTH,ComponentDrill
T4C0.750
; #@! TA.AperFunction,Plated,PTH,ComponentDrill
T5C1.000
; #@! TA.AperFunction,Plated,PTH,ComponentDrill
T6C1.300
%
G90
G05
T1
X95.05Y-130.55
X95.075Y-126.9
X96.5Y-114.8
X96.5Y-120.525
X96.875Y-130.55
X96.9Y-126.875
X100.6Y-143.975
X101.95Y-138.325
X102.575Y-132.7
X102.65Y-131.75
X103.375Y-112.125
X103.85Y-134.637
X103.875Y-132.425
X104.1Y-141.975
X104.175Y-122.5
X105.375Y-128.6
X105.925Y-118.9
X106.175Y-110.75
X106.175Y-114.75
X106.275Y-137.375
X106.475Y-139.3
X106.8Y-121.525
X107.8Y-131.575
X108.025Y-141.375
X108.3Y-144.35
X108.725Y-121.975
X109.125Y-128.575
X109.637Y-131.575
X110.089Y-125.325
X110.125Y-127.25
X110.487Y-137.425
X110.525Y-122.0
X110.528Y-134.25
X110.725Y-124.75
X111.075Y-126.775
X111.175Y-119.775
X111.4Y-134.8
X111.425Y-125.325
X111.722Y-123.511
X111.925Y-130.025
X111.925Y-131.675
X111.975Y-110.75
X112.312Y-137.425
X112.5Y-123.325
X112.675Y-119.775
X112.725Y-130.025
X113.131Y-126.07
X113.163Y-129.291
X113.175Y-131.625
X113.694Y-127.981
X113.975Y-123.825
X114.087Y-130.225
X114.925Y-116.075
X115.3Y-129.175
X116.4Y-142.1
X117.325Y-140.075
X117.625Y-119.475
X117.675Y-116.375
X117.85Y-130.4
X117.998Y-120.604
X118.025Y-129.6
X118.1Y-125.85
X118.1Y-127.725
X118.433Y-121.275
X119.725Y-122.7
X119.85Y-121.275
X120.025Y-133.95
X120.15Y-125.9
X120.175Y-129.425
X120.2Y-127.775
X120.5Y-120.75
X120.725Y-116.4
X121.1Y-122.675
X121.325Y-121.275
X121.4Y-133.05
X121.8Y-127.25
X122.2Y-125.95
X122.3Y-129.575
X122.525Y-122.741
X122.575Y-130.35
X122.675Y-128.375
X123.075Y-132.575
X124.375Y-131.875
X125.0Y-119.6
X125.425Y-134.35
X125.548Y-126.277
X125.625Y-127.8
X125.825Y-131.875
X130.2Y-129.65
X130.225Y-131.6
X132.312Y-127.025
T2
X100.1Y-134.675
X100.775Y-141.35
X107.55Y-124.8
T4
X97.275Y-138.45
X97.275Y-140.45
T5
X111.11Y-140.875
X113.65Y-140.875
X131.325Y-115.925
X131.325Y-118.465
X131.325Y-121.005
X131.325Y-123.545
T6
X116.435Y-110.6
X121.515Y-110.6
T3
X96.07Y-124.195G85X95.27Y-124.195
G05
X96.07Y-132.835G85X95.27Y-132.835
G05
X100.4Y-124.195G85X99.3Y-124.195
G05
X100.4Y-132.835G85X99.3Y-132.835
G05
M30
