%TF.GenerationSoftware,KiCad,Pcbnew,8.0.3*%
%TF.CreationDate,2025-03-18T19:22:59-05:00*%
%TF.ProjectId,wearable_v2_nrf,77656172-6162-46c6-955f-76325f6e7266,rev?*%
%TF.SameCoordinates,Original*%
%TF.FileFunction,Soldermask,Top*%
%TF.FilePolarity,Negative*%
%FSLAX46Y46*%
G04 Gerber Fmt 4.6, Leading zero omitted, Abs format (unit mm)*
G04 Created by KiCad (PCBNEW 8.0.3) date 2025-03-18 19:22:59*
%MOMM*%
%LPD*%
G01*
G04 APERTURE LIST*
G04 Aperture macros list*
%AMRoundRect*
0 Rectangle with rounded corners*
0 $1 Rounding radius*
0 $2 $3 $4 $5 $6 $7 $8 $9 X,Y pos of 4 corners*
0 Add a 4 corners polygon primitive as box body*
4,1,4,$2,$3,$4,$5,$6,$7,$8,$9,$2,$3,0*
0 Add four circle primitives for the rounded corners*
1,1,$1+$1,$2,$3*
1,1,$1+$1,$4,$5*
1,1,$1+$1,$6,$7*
1,1,$1+$1,$8,$9*
0 Add four rect primitives between the rounded corners*
20,1,$1+$1,$2,$3,$4,$5,0*
20,1,$1+$1,$4,$5,$6,$7,0*
20,1,$1+$1,$6,$7,$8,$9,0*
20,1,$1+$1,$8,$9,$2,$3,0*%
%AMFreePoly0*
4,1,9,3.862500,-0.866500,0.737500,-0.866500,0.737500,-0.450000,-0.737500,-0.450000,-0.737500,0.450000,0.737500,0.450000,0.737500,0.866500,3.862500,0.866500,3.862500,-0.866500,3.862500,-0.866500,$1*%
G04 Aperture macros list end*
%ADD10RoundRect,0.250000X-0.475000X0.250000X-0.475000X-0.250000X0.475000X-0.250000X0.475000X0.250000X0*%
%ADD11R,1.700000X1.700000*%
%ADD12O,1.700000X1.700000*%
%ADD13RoundRect,0.200000X-0.200000X-0.450000X0.200000X-0.450000X0.200000X0.450000X-0.200000X0.450000X0*%
%ADD14O,0.800000X1.300000*%
%ADD15RoundRect,0.250000X0.475000X-0.250000X0.475000X0.250000X-0.475000X0.250000X-0.475000X-0.250000X0*%
%ADD16R,2.750000X1.000000*%
%ADD17RoundRect,0.218750X0.381250X-0.218750X0.381250X0.218750X-0.381250X0.218750X-0.381250X-0.218750X0*%
%ADD18RoundRect,0.250000X-0.262500X-0.450000X0.262500X-0.450000X0.262500X0.450000X-0.262500X0.450000X0*%
%ADD19RoundRect,0.243750X0.456250X-0.243750X0.456250X0.243750X-0.456250X0.243750X-0.456250X-0.243750X0*%
%ADD20RoundRect,0.250000X-0.450000X0.262500X-0.450000X-0.262500X0.450000X-0.262500X0.450000X0.262500X0*%
%ADD21RoundRect,0.243750X-0.456250X0.243750X-0.456250X-0.243750X0.456250X-0.243750X0.456250X0.243750X0*%
%ADD22R,1.500000X1.500000*%
%ADD23R,1.500000X0.800000*%
%ADD24RoundRect,0.218750X-0.381250X0.218750X-0.381250X-0.218750X0.381250X-0.218750X0.381250X0.218750X0*%
%ADD25RoundRect,0.250000X-0.250000X-0.475000X0.250000X-0.475000X0.250000X0.475000X-0.250000X0.475000X0*%
%ADD26RoundRect,0.250000X0.262500X0.450000X-0.262500X0.450000X-0.262500X-0.450000X0.262500X-0.450000X0*%
%ADD27R,0.600000X1.100000*%
%ADD28RoundRect,0.062500X-0.337500X-0.062500X0.337500X-0.062500X0.337500X0.062500X-0.337500X0.062500X0*%
%ADD29RoundRect,0.062500X-0.062500X-0.337500X0.062500X-0.337500X0.062500X0.337500X-0.062500X0.337500X0*%
%ADD30R,3.600000X3.600000*%
%ADD31RoundRect,0.150000X-0.150000X0.512500X-0.150000X-0.512500X0.150000X-0.512500X0.150000X0.512500X0*%
%ADD32R,0.850000X1.200000*%
%ADD33RoundRect,0.250000X0.450000X-0.262500X0.450000X0.262500X-0.450000X0.262500X-0.450000X-0.262500X0*%
%ADD34R,1.200000X0.700000*%
%ADD35R,1.200000X0.760000*%
%ADD36R,1.200000X0.800000*%
%ADD37C,2.010000*%
%ADD38O,2.304000X1.304000*%
%ADD39R,1.000000X1.000000*%
%ADD40RoundRect,0.225000X0.225000X-0.425000X0.225000X0.425000X-0.225000X0.425000X-0.225000X-0.425000X0*%
%ADD41FreePoly0,90.000000*%
%ADD42R,0.500000X1.075000*%
%ADD43RoundRect,0.250000X0.250000X0.475000X-0.250000X0.475000X-0.250000X-0.475000X0.250000X-0.475000X0*%
%ADD44RoundRect,0.102000X-0.125000X0.237500X-0.125000X-0.237500X0.125000X-0.237500X0.125000X0.237500X0*%
%ADD45RoundRect,0.102000X-0.237500X0.125000X-0.237500X-0.125000X0.237500X-0.125000X0.237500X0.125000X0*%
%ADD46R,0.650000X1.100000*%
%ADD47RoundRect,0.218750X-0.218750X-0.381250X0.218750X-0.381250X0.218750X0.381250X-0.218750X0.381250X0*%
%ADD48R,1.600200X0.863600*%
%ADD49RoundRect,0.250000X-0.250000X-0.250000X0.250000X-0.250000X0.250000X0.250000X-0.250000X0.250000X0*%
G04 APERTURE END LIST*
D10*
%TO.C,C13*%
X119981500Y-61194500D03*
X119981500Y-63094500D03*
%TD*%
D11*
%TO.C,R5*%
X110200000Y-55275000D03*
D12*
X107660000Y-55275000D03*
%TD*%
D13*
%TO.C,BT1*%
X95250000Y-51350000D03*
D14*
X96500000Y-51350000D03*
%TD*%
D15*
%TO.C,C8*%
X112050000Y-62000000D03*
X112050000Y-60100000D03*
%TD*%
D16*
%TO.C,SW1*%
X84225000Y-77225000D03*
X89975000Y-77225000D03*
X84225000Y-81225000D03*
X89975000Y-81225000D03*
%TD*%
D17*
%TO.C,L2*%
X108300000Y-62112500D03*
X108300000Y-59987500D03*
%TD*%
D18*
%TO.C,R8*%
X108087500Y-75825000D03*
X109912500Y-75825000D03*
%TD*%
D15*
%TO.C,C9*%
X106350000Y-61950000D03*
X106350000Y-60050000D03*
%TD*%
%TO.C,C4*%
X104300000Y-61950000D03*
X104300000Y-60050000D03*
%TD*%
D19*
%TO.C,D2*%
X112450000Y-85187500D03*
X112450000Y-83312500D03*
%TD*%
D20*
%TO.C,R6*%
X112475000Y-79950000D03*
X112475000Y-81775000D03*
%TD*%
D21*
%TO.C,D3*%
X114200000Y-50050000D03*
X114200000Y-51925000D03*
%TD*%
D22*
%TO.C,TP5*%
X98400000Y-80375000D03*
%TD*%
D20*
%TO.C,R1*%
X99375000Y-69075000D03*
X99375000Y-70900000D03*
%TD*%
D10*
%TO.C,C1*%
X93250000Y-58650000D03*
X93250000Y-60550000D03*
%TD*%
D23*
%TO.C,Y2*%
X103025000Y-65850000D03*
X103025000Y-67350000D03*
%TD*%
D11*
%TO.C,M1*%
X106825000Y-86400000D03*
D12*
X109365000Y-86400000D03*
%TD*%
D11*
%TO.C,J1*%
X115550000Y-76545000D03*
D12*
X115550000Y-79085000D03*
X115550000Y-81625000D03*
X115550000Y-84165000D03*
%TD*%
D22*
%TO.C,TP6*%
X94275000Y-67825000D03*
%TD*%
D24*
%TO.C,L3*%
X110100000Y-59987500D03*
X110100000Y-62112500D03*
%TD*%
D25*
%TO.C,C6*%
X101375000Y-69025000D03*
X103275000Y-69025000D03*
%TD*%
%TO.C,C7*%
X115150000Y-66975000D03*
X117050000Y-66975000D03*
%TD*%
D26*
%TO.C,R13*%
X88700000Y-56975000D03*
X86875000Y-56975000D03*
%TD*%
D27*
%TO.C,Q2*%
X109825000Y-77600000D03*
X107925000Y-77600000D03*
X108875000Y-79800000D03*
%TD*%
D28*
%TO.C,U1*%
X107075000Y-65825000D03*
X107075000Y-66325000D03*
X107075000Y-66825000D03*
X107075000Y-67325000D03*
X107075000Y-67825000D03*
X107075000Y-68325000D03*
X107075000Y-68825000D03*
X107075000Y-69325000D03*
D29*
X107775000Y-70025000D03*
X108275000Y-70025000D03*
X108775000Y-70025000D03*
X109275000Y-70025000D03*
X109775000Y-70025000D03*
X110275000Y-70025000D03*
X110775000Y-70025000D03*
X111275000Y-70025000D03*
D28*
X111975000Y-69325000D03*
X111975000Y-68825000D03*
X111975000Y-68325000D03*
X111975000Y-67825000D03*
X111975000Y-67325000D03*
X111975000Y-66825000D03*
X111975000Y-66325000D03*
X111975000Y-65825000D03*
D29*
X111275000Y-65125000D03*
X110775000Y-65125000D03*
X110275000Y-65125000D03*
X109775000Y-65125000D03*
X109275000Y-65125000D03*
X108775000Y-65125000D03*
X108275000Y-65125000D03*
X107775000Y-65125000D03*
D30*
X109525000Y-67575000D03*
%TD*%
D15*
%TO.C,C10*%
X114225000Y-62025000D03*
X114225000Y-60125000D03*
%TD*%
D31*
%TO.C,IC1*%
X97162500Y-55012500D03*
X96212500Y-55012500D03*
X95262500Y-55012500D03*
X95262500Y-57287500D03*
X97162500Y-57287500D03*
%TD*%
D32*
%TO.C,Y1*%
X116893500Y-61431500D03*
X116893500Y-63057500D03*
X118093500Y-63057500D03*
X118093500Y-61431500D03*
%TD*%
D33*
%TO.C,R7*%
X114150000Y-55300000D03*
X114150000Y-53475000D03*
%TD*%
D34*
%TO.C,J2*%
X88227500Y-67900000D03*
D35*
X88227500Y-69920000D03*
D36*
X88227500Y-71150000D03*
D34*
X88227500Y-68900000D03*
D35*
X88227500Y-66880000D03*
D36*
X88227500Y-65650000D03*
D37*
X84347500Y-64080000D03*
X84347500Y-72720000D03*
D38*
X88118500Y-64082000D03*
X88118500Y-72718000D03*
%TD*%
D39*
%TO.C,TP2*%
X87750000Y-54775000D03*
%TD*%
D22*
%TO.C,TP4*%
X98450000Y-77375000D03*
%TD*%
D40*
%TO.C,U4*%
X95350000Y-62525000D03*
D41*
X96850000Y-62437500D03*
D40*
X98350000Y-62525000D03*
%TD*%
D42*
%TO.C,D1*%
X91075000Y-61062000D03*
X91075000Y-58738000D03*
%TD*%
D43*
%TO.C,C12*%
X118206500Y-59419500D03*
X116306500Y-59419500D03*
%TD*%
D44*
%TO.C,U3*%
X96550000Y-71550000D03*
X96050000Y-71550000D03*
X95550000Y-71550000D03*
X95050000Y-71550000D03*
D45*
X94887500Y-72212500D03*
X94887500Y-72712500D03*
X94887500Y-73212500D03*
D44*
X95050000Y-73875000D03*
X95550000Y-73875000D03*
X96050000Y-73875000D03*
X96550000Y-73875000D03*
D45*
X96712500Y-73212500D03*
X96712500Y-72712500D03*
X96712500Y-72212500D03*
%TD*%
D11*
%TO.C,J3*%
X102100000Y-86350000D03*
D12*
X99560000Y-86350000D03*
X97020000Y-86350000D03*
%TD*%
D46*
%TO.C,Q1*%
X91240000Y-56825000D03*
X93160000Y-56825000D03*
X92200000Y-54725000D03*
%TD*%
D39*
%TO.C,TP1*%
X87800000Y-60250000D03*
%TD*%
D33*
%TO.C,R10*%
X102525000Y-77050000D03*
X102525000Y-75225000D03*
%TD*%
D47*
%TO.C,L1*%
X116937500Y-70200000D03*
X119062500Y-70200000D03*
%TD*%
D33*
%TO.C,R9*%
X99025000Y-57112500D03*
X99025000Y-55287500D03*
%TD*%
D48*
%TO.C,U5*%
X120825000Y-70175000D03*
X120825000Y-73222602D03*
%TD*%
D49*
%TO.C,D4*%
X106700000Y-83625000D03*
X109200000Y-83625000D03*
%TD*%
D10*
%TO.C,C3*%
X115262500Y-70125000D03*
X115262500Y-72025000D03*
%TD*%
D25*
%TO.C,C11*%
X106975000Y-81675000D03*
X108875000Y-81675000D03*
%TD*%
%TO.C,C5*%
X101375000Y-64150000D03*
X103275000Y-64150000D03*
%TD*%
D22*
%TO.C,TP7*%
X105750000Y-79375000D03*
%TD*%
D39*
%TO.C,TP3*%
X92725000Y-63675000D03*
%TD*%
M02*
