%TF.GenerationSoftware,KiCad,Pcbnew,8.0.3*%
%TF.CreationDate,2025-03-04T10:01:38-06:00*%
%TF.ProjectId,wearable_v2_nrf,77656172-6162-46c6-955f-76325f6e7266,rev?*%
%TF.SameCoordinates,Original*%
%TF.FileFunction,Legend,Bot*%
%TF.FilePolarity,Positive*%
%FSLAX46Y46*%
G04 Gerber Fmt 4.6, Leading zero omitted, Abs format (unit mm)*
G04 Created by KiCad (PCBNEW 8.0.3) date 2025-03-04 10:01:38*
%MOMM*%
%LPD*%
G01*
G04 APERTURE LIST*
%ADD10C,0.150000*%
%ADD11C,0.120000*%
G04 APERTURE END LIST*
D10*
X85566666Y-65954819D02*
X85899999Y-65478628D01*
X86138094Y-65954819D02*
X86138094Y-64954819D01*
X86138094Y-64954819D02*
X85757142Y-64954819D01*
X85757142Y-64954819D02*
X85661904Y-65002438D01*
X85661904Y-65002438D02*
X85614285Y-65050057D01*
X85614285Y-65050057D02*
X85566666Y-65145295D01*
X85566666Y-65145295D02*
X85566666Y-65288152D01*
X85566666Y-65288152D02*
X85614285Y-65383390D01*
X85614285Y-65383390D02*
X85661904Y-65431009D01*
X85661904Y-65431009D02*
X85757142Y-65478628D01*
X85757142Y-65478628D02*
X86138094Y-65478628D01*
X85185713Y-65050057D02*
X85138094Y-65002438D01*
X85138094Y-65002438D02*
X85042856Y-64954819D01*
X85042856Y-64954819D02*
X84804761Y-64954819D01*
X84804761Y-64954819D02*
X84709523Y-65002438D01*
X84709523Y-65002438D02*
X84661904Y-65050057D01*
X84661904Y-65050057D02*
X84614285Y-65145295D01*
X84614285Y-65145295D02*
X84614285Y-65240533D01*
X84614285Y-65240533D02*
X84661904Y-65383390D01*
X84661904Y-65383390D02*
X85233332Y-65954819D01*
X85233332Y-65954819D02*
X84614285Y-65954819D01*
X88504580Y-79058333D02*
X88552200Y-79010714D01*
X88552200Y-79010714D02*
X88599819Y-78867857D01*
X88599819Y-78867857D02*
X88599819Y-78772619D01*
X88599819Y-78772619D02*
X88552200Y-78629762D01*
X88552200Y-78629762D02*
X88456961Y-78534524D01*
X88456961Y-78534524D02*
X88361723Y-78486905D01*
X88361723Y-78486905D02*
X88171247Y-78439286D01*
X88171247Y-78439286D02*
X88028390Y-78439286D01*
X88028390Y-78439286D02*
X87837914Y-78486905D01*
X87837914Y-78486905D02*
X87742676Y-78534524D01*
X87742676Y-78534524D02*
X87647438Y-78629762D01*
X87647438Y-78629762D02*
X87599819Y-78772619D01*
X87599819Y-78772619D02*
X87599819Y-78867857D01*
X87599819Y-78867857D02*
X87647438Y-79010714D01*
X87647438Y-79010714D02*
X87695057Y-79058333D01*
X87695057Y-79439286D02*
X87647438Y-79486905D01*
X87647438Y-79486905D02*
X87599819Y-79582143D01*
X87599819Y-79582143D02*
X87599819Y-79820238D01*
X87599819Y-79820238D02*
X87647438Y-79915476D01*
X87647438Y-79915476D02*
X87695057Y-79963095D01*
X87695057Y-79963095D02*
X87790295Y-80010714D01*
X87790295Y-80010714D02*
X87885533Y-80010714D01*
X87885533Y-80010714D02*
X88028390Y-79963095D01*
X88028390Y-79963095D02*
X88599819Y-79391667D01*
X88599819Y-79391667D02*
X88599819Y-80010714D01*
X109091666Y-55004819D02*
X109424999Y-54528628D01*
X109663094Y-55004819D02*
X109663094Y-54004819D01*
X109663094Y-54004819D02*
X109282142Y-54004819D01*
X109282142Y-54004819D02*
X109186904Y-54052438D01*
X109186904Y-54052438D02*
X109139285Y-54100057D01*
X109139285Y-54100057D02*
X109091666Y-54195295D01*
X109091666Y-54195295D02*
X109091666Y-54338152D01*
X109091666Y-54338152D02*
X109139285Y-54433390D01*
X109139285Y-54433390D02*
X109186904Y-54481009D01*
X109186904Y-54481009D02*
X109282142Y-54528628D01*
X109282142Y-54528628D02*
X109663094Y-54528628D01*
X108234523Y-54338152D02*
X108234523Y-55004819D01*
X108472618Y-53957200D02*
X108710713Y-54671485D01*
X108710713Y-54671485D02*
X108091666Y-54671485D01*
X85566666Y-68904819D02*
X85899999Y-68428628D01*
X86138094Y-68904819D02*
X86138094Y-67904819D01*
X86138094Y-67904819D02*
X85757142Y-67904819D01*
X85757142Y-67904819D02*
X85661904Y-67952438D01*
X85661904Y-67952438D02*
X85614285Y-68000057D01*
X85614285Y-68000057D02*
X85566666Y-68095295D01*
X85566666Y-68095295D02*
X85566666Y-68238152D01*
X85566666Y-68238152D02*
X85614285Y-68333390D01*
X85614285Y-68333390D02*
X85661904Y-68381009D01*
X85661904Y-68381009D02*
X85757142Y-68428628D01*
X85757142Y-68428628D02*
X86138094Y-68428628D01*
X85233332Y-67904819D02*
X84614285Y-67904819D01*
X84614285Y-67904819D02*
X84947618Y-68285771D01*
X84947618Y-68285771D02*
X84804761Y-68285771D01*
X84804761Y-68285771D02*
X84709523Y-68333390D01*
X84709523Y-68333390D02*
X84661904Y-68381009D01*
X84661904Y-68381009D02*
X84614285Y-68476247D01*
X84614285Y-68476247D02*
X84614285Y-68714342D01*
X84614285Y-68714342D02*
X84661904Y-68809580D01*
X84661904Y-68809580D02*
X84709523Y-68857200D01*
X84709523Y-68857200D02*
X84804761Y-68904819D01*
X84804761Y-68904819D02*
X85090475Y-68904819D01*
X85090475Y-68904819D02*
X85185713Y-68857200D01*
X85185713Y-68857200D02*
X85233332Y-68809580D01*
D11*
%TO.C,R2*%
X85172936Y-66415000D02*
X85627064Y-66415000D01*
X85172936Y-67885000D02*
X85627064Y-67885000D01*
%TO.C,C2*%
X89090000Y-79486252D02*
X89090000Y-78963748D01*
X90560000Y-79486252D02*
X90560000Y-78963748D01*
%TO.C,R4*%
X109152064Y-52165000D02*
X108697936Y-52165000D01*
X109152064Y-53635000D02*
X108697936Y-53635000D01*
%TO.C,R3*%
X85172936Y-69365000D02*
X85627064Y-69365000D01*
X85172936Y-70835000D02*
X85627064Y-70835000D01*
%TD*%
M02*
