%TF.GenerationSoftware,KiCad,Pcbnew,8.0.3*%
%TF.CreationDate,2025-03-04T10:01:38-06:00*%
%TF.ProjectId,wearable_v2_nrf,77656172-6162-46c6-955f-76325f6e7266,rev?*%
%TF.SameCoordinates,Original*%
%TF.FileFunction,Legend,Top*%
%TF.FilePolarity,Positive*%
%FSLAX46Y46*%
G04 Gerber Fmt 4.6, Leading zero omitted, Abs format (unit mm)*
G04 Created by KiCad (PCBNEW 8.0.3) date 2025-03-04 10:01:38*
%MOMM*%
%LPD*%
G01*
G04 APERTURE LIST*
%ADD10C,0.150000*%
%ADD11C,0.254000*%
%ADD12C,0.120000*%
%ADD13C,0.200000*%
%ADD14C,0.100000*%
%ADD15C,0.127000*%
%ADD16C,0.152400*%
G04 APERTURE END LIST*
D10*
X122489580Y-62217857D02*
X122537200Y-62265476D01*
X122537200Y-62265476D02*
X122584819Y-62408333D01*
X122584819Y-62408333D02*
X122584819Y-62503571D01*
X122584819Y-62503571D02*
X122537200Y-62646428D01*
X122537200Y-62646428D02*
X122441961Y-62741666D01*
X122441961Y-62741666D02*
X122346723Y-62789285D01*
X122346723Y-62789285D02*
X122156247Y-62836904D01*
X122156247Y-62836904D02*
X122013390Y-62836904D01*
X122013390Y-62836904D02*
X121822914Y-62789285D01*
X121822914Y-62789285D02*
X121727676Y-62741666D01*
X121727676Y-62741666D02*
X121632438Y-62646428D01*
X121632438Y-62646428D02*
X121584819Y-62503571D01*
X121584819Y-62503571D02*
X121584819Y-62408333D01*
X121584819Y-62408333D02*
X121632438Y-62265476D01*
X121632438Y-62265476D02*
X121680057Y-62217857D01*
X122584819Y-61265476D02*
X122584819Y-61836904D01*
X122584819Y-61551190D02*
X121584819Y-61551190D01*
X121584819Y-61551190D02*
X121727676Y-61646428D01*
X121727676Y-61646428D02*
X121822914Y-61741666D01*
X121822914Y-61741666D02*
X121870533Y-61836904D01*
X121584819Y-60932142D02*
X121584819Y-60313095D01*
X121584819Y-60313095D02*
X121965771Y-60646428D01*
X121965771Y-60646428D02*
X121965771Y-60503571D01*
X121965771Y-60503571D02*
X122013390Y-60408333D01*
X122013390Y-60408333D02*
X122061009Y-60360714D01*
X122061009Y-60360714D02*
X122156247Y-60313095D01*
X122156247Y-60313095D02*
X122394342Y-60313095D01*
X122394342Y-60313095D02*
X122489580Y-60360714D01*
X122489580Y-60360714D02*
X122537200Y-60408333D01*
X122537200Y-60408333D02*
X122584819Y-60503571D01*
X122584819Y-60503571D02*
X122584819Y-60789285D01*
X122584819Y-60789285D02*
X122537200Y-60884523D01*
X122537200Y-60884523D02*
X122489580Y-60932142D01*
X113424819Y-51061666D02*
X112948628Y-51394999D01*
X113424819Y-51633094D02*
X112424819Y-51633094D01*
X112424819Y-51633094D02*
X112424819Y-51252142D01*
X112424819Y-51252142D02*
X112472438Y-51156904D01*
X112472438Y-51156904D02*
X112520057Y-51109285D01*
X112520057Y-51109285D02*
X112615295Y-51061666D01*
X112615295Y-51061666D02*
X112758152Y-51061666D01*
X112758152Y-51061666D02*
X112853390Y-51109285D01*
X112853390Y-51109285D02*
X112901009Y-51156904D01*
X112901009Y-51156904D02*
X112948628Y-51252142D01*
X112948628Y-51252142D02*
X112948628Y-51633094D01*
X112424819Y-50156904D02*
X112424819Y-50633094D01*
X112424819Y-50633094D02*
X112901009Y-50680713D01*
X112901009Y-50680713D02*
X112853390Y-50633094D01*
X112853390Y-50633094D02*
X112805771Y-50537856D01*
X112805771Y-50537856D02*
X112805771Y-50299761D01*
X112805771Y-50299761D02*
X112853390Y-50204523D01*
X112853390Y-50204523D02*
X112901009Y-50156904D01*
X112901009Y-50156904D02*
X112996247Y-50109285D01*
X112996247Y-50109285D02*
X113234342Y-50109285D01*
X113234342Y-50109285D02*
X113329580Y-50156904D01*
X113329580Y-50156904D02*
X113377200Y-50204523D01*
X113377200Y-50204523D02*
X113424819Y-50299761D01*
X113424819Y-50299761D02*
X113424819Y-50537856D01*
X113424819Y-50537856D02*
X113377200Y-50633094D01*
X113377200Y-50633094D02*
X113329580Y-50680713D01*
X94989285Y-47606009D02*
X95132142Y-47653628D01*
X95132142Y-47653628D02*
X95179761Y-47701247D01*
X95179761Y-47701247D02*
X95227380Y-47796485D01*
X95227380Y-47796485D02*
X95227380Y-47939342D01*
X95227380Y-47939342D02*
X95179761Y-48034580D01*
X95179761Y-48034580D02*
X95132142Y-48082200D01*
X95132142Y-48082200D02*
X95036904Y-48129819D01*
X95036904Y-48129819D02*
X94655952Y-48129819D01*
X94655952Y-48129819D02*
X94655952Y-47129819D01*
X94655952Y-47129819D02*
X94989285Y-47129819D01*
X94989285Y-47129819D02*
X95084523Y-47177438D01*
X95084523Y-47177438D02*
X95132142Y-47225057D01*
X95132142Y-47225057D02*
X95179761Y-47320295D01*
X95179761Y-47320295D02*
X95179761Y-47415533D01*
X95179761Y-47415533D02*
X95132142Y-47510771D01*
X95132142Y-47510771D02*
X95084523Y-47558390D01*
X95084523Y-47558390D02*
X94989285Y-47606009D01*
X94989285Y-47606009D02*
X94655952Y-47606009D01*
X95513095Y-47129819D02*
X96084523Y-47129819D01*
X95798809Y-48129819D02*
X95798809Y-47129819D01*
X96941666Y-48129819D02*
X96370238Y-48129819D01*
X96655952Y-48129819D02*
X96655952Y-47129819D01*
X96655952Y-47129819D02*
X96560714Y-47272676D01*
X96560714Y-47272676D02*
X96465476Y-47367914D01*
X96465476Y-47367914D02*
X96370238Y-47415533D01*
X110729580Y-61216666D02*
X110777200Y-61264285D01*
X110777200Y-61264285D02*
X110824819Y-61407142D01*
X110824819Y-61407142D02*
X110824819Y-61502380D01*
X110824819Y-61502380D02*
X110777200Y-61645237D01*
X110777200Y-61645237D02*
X110681961Y-61740475D01*
X110681961Y-61740475D02*
X110586723Y-61788094D01*
X110586723Y-61788094D02*
X110396247Y-61835713D01*
X110396247Y-61835713D02*
X110253390Y-61835713D01*
X110253390Y-61835713D02*
X110062914Y-61788094D01*
X110062914Y-61788094D02*
X109967676Y-61740475D01*
X109967676Y-61740475D02*
X109872438Y-61645237D01*
X109872438Y-61645237D02*
X109824819Y-61502380D01*
X109824819Y-61502380D02*
X109824819Y-61407142D01*
X109824819Y-61407142D02*
X109872438Y-61264285D01*
X109872438Y-61264285D02*
X109920057Y-61216666D01*
X110253390Y-60645237D02*
X110205771Y-60740475D01*
X110205771Y-60740475D02*
X110158152Y-60788094D01*
X110158152Y-60788094D02*
X110062914Y-60835713D01*
X110062914Y-60835713D02*
X110015295Y-60835713D01*
X110015295Y-60835713D02*
X109920057Y-60788094D01*
X109920057Y-60788094D02*
X109872438Y-60740475D01*
X109872438Y-60740475D02*
X109824819Y-60645237D01*
X109824819Y-60645237D02*
X109824819Y-60454761D01*
X109824819Y-60454761D02*
X109872438Y-60359523D01*
X109872438Y-60359523D02*
X109920057Y-60311904D01*
X109920057Y-60311904D02*
X110015295Y-60264285D01*
X110015295Y-60264285D02*
X110062914Y-60264285D01*
X110062914Y-60264285D02*
X110158152Y-60311904D01*
X110158152Y-60311904D02*
X110205771Y-60359523D01*
X110205771Y-60359523D02*
X110253390Y-60454761D01*
X110253390Y-60454761D02*
X110253390Y-60645237D01*
X110253390Y-60645237D02*
X110301009Y-60740475D01*
X110301009Y-60740475D02*
X110348628Y-60788094D01*
X110348628Y-60788094D02*
X110443866Y-60835713D01*
X110443866Y-60835713D02*
X110634342Y-60835713D01*
X110634342Y-60835713D02*
X110729580Y-60788094D01*
X110729580Y-60788094D02*
X110777200Y-60740475D01*
X110777200Y-60740475D02*
X110824819Y-60645237D01*
X110824819Y-60645237D02*
X110824819Y-60454761D01*
X110824819Y-60454761D02*
X110777200Y-60359523D01*
X110777200Y-60359523D02*
X110729580Y-60311904D01*
X110729580Y-60311904D02*
X110634342Y-60264285D01*
X110634342Y-60264285D02*
X110443866Y-60264285D01*
X110443866Y-60264285D02*
X110348628Y-60311904D01*
X110348628Y-60311904D02*
X110301009Y-60359523D01*
X110301009Y-60359523D02*
X110253390Y-60454761D01*
X85766667Y-75132200D02*
X85909524Y-75179819D01*
X85909524Y-75179819D02*
X86147619Y-75179819D01*
X86147619Y-75179819D02*
X86242857Y-75132200D01*
X86242857Y-75132200D02*
X86290476Y-75084580D01*
X86290476Y-75084580D02*
X86338095Y-74989342D01*
X86338095Y-74989342D02*
X86338095Y-74894104D01*
X86338095Y-74894104D02*
X86290476Y-74798866D01*
X86290476Y-74798866D02*
X86242857Y-74751247D01*
X86242857Y-74751247D02*
X86147619Y-74703628D01*
X86147619Y-74703628D02*
X85957143Y-74656009D01*
X85957143Y-74656009D02*
X85861905Y-74608390D01*
X85861905Y-74608390D02*
X85814286Y-74560771D01*
X85814286Y-74560771D02*
X85766667Y-74465533D01*
X85766667Y-74465533D02*
X85766667Y-74370295D01*
X85766667Y-74370295D02*
X85814286Y-74275057D01*
X85814286Y-74275057D02*
X85861905Y-74227438D01*
X85861905Y-74227438D02*
X85957143Y-74179819D01*
X85957143Y-74179819D02*
X86195238Y-74179819D01*
X86195238Y-74179819D02*
X86338095Y-74227438D01*
X86671429Y-74179819D02*
X86909524Y-75179819D01*
X86909524Y-75179819D02*
X87100000Y-74465533D01*
X87100000Y-74465533D02*
X87290476Y-75179819D01*
X87290476Y-75179819D02*
X87528572Y-74179819D01*
X88433333Y-75179819D02*
X87861905Y-75179819D01*
X88147619Y-75179819D02*
X88147619Y-74179819D01*
X88147619Y-74179819D02*
X88052381Y-74322676D01*
X88052381Y-74322676D02*
X87957143Y-74417914D01*
X87957143Y-74417914D02*
X87861905Y-74465533D01*
X107204819Y-61216666D02*
X107204819Y-61692856D01*
X107204819Y-61692856D02*
X106204819Y-61692856D01*
X106300057Y-60930951D02*
X106252438Y-60883332D01*
X106252438Y-60883332D02*
X106204819Y-60788094D01*
X106204819Y-60788094D02*
X106204819Y-60549999D01*
X106204819Y-60549999D02*
X106252438Y-60454761D01*
X106252438Y-60454761D02*
X106300057Y-60407142D01*
X106300057Y-60407142D02*
X106395295Y-60359523D01*
X106395295Y-60359523D02*
X106490533Y-60359523D01*
X106490533Y-60359523D02*
X106633390Y-60407142D01*
X106633390Y-60407142D02*
X107204819Y-60978570D01*
X107204819Y-60978570D02*
X107204819Y-60359523D01*
X108833333Y-74629819D02*
X108500000Y-74153628D01*
X108261905Y-74629819D02*
X108261905Y-73629819D01*
X108261905Y-73629819D02*
X108642857Y-73629819D01*
X108642857Y-73629819D02*
X108738095Y-73677438D01*
X108738095Y-73677438D02*
X108785714Y-73725057D01*
X108785714Y-73725057D02*
X108833333Y-73820295D01*
X108833333Y-73820295D02*
X108833333Y-73963152D01*
X108833333Y-73963152D02*
X108785714Y-74058390D01*
X108785714Y-74058390D02*
X108738095Y-74106009D01*
X108738095Y-74106009D02*
X108642857Y-74153628D01*
X108642857Y-74153628D02*
X108261905Y-74153628D01*
X109404762Y-74058390D02*
X109309524Y-74010771D01*
X109309524Y-74010771D02*
X109261905Y-73963152D01*
X109261905Y-73963152D02*
X109214286Y-73867914D01*
X109214286Y-73867914D02*
X109214286Y-73820295D01*
X109214286Y-73820295D02*
X109261905Y-73725057D01*
X109261905Y-73725057D02*
X109309524Y-73677438D01*
X109309524Y-73677438D02*
X109404762Y-73629819D01*
X109404762Y-73629819D02*
X109595238Y-73629819D01*
X109595238Y-73629819D02*
X109690476Y-73677438D01*
X109690476Y-73677438D02*
X109738095Y-73725057D01*
X109738095Y-73725057D02*
X109785714Y-73820295D01*
X109785714Y-73820295D02*
X109785714Y-73867914D01*
X109785714Y-73867914D02*
X109738095Y-73963152D01*
X109738095Y-73963152D02*
X109690476Y-74010771D01*
X109690476Y-74010771D02*
X109595238Y-74058390D01*
X109595238Y-74058390D02*
X109404762Y-74058390D01*
X109404762Y-74058390D02*
X109309524Y-74106009D01*
X109309524Y-74106009D02*
X109261905Y-74153628D01*
X109261905Y-74153628D02*
X109214286Y-74248866D01*
X109214286Y-74248866D02*
X109214286Y-74439342D01*
X109214286Y-74439342D02*
X109261905Y-74534580D01*
X109261905Y-74534580D02*
X109309524Y-74582200D01*
X109309524Y-74582200D02*
X109404762Y-74629819D01*
X109404762Y-74629819D02*
X109595238Y-74629819D01*
X109595238Y-74629819D02*
X109690476Y-74582200D01*
X109690476Y-74582200D02*
X109738095Y-74534580D01*
X109738095Y-74534580D02*
X109785714Y-74439342D01*
X109785714Y-74439342D02*
X109785714Y-74248866D01*
X109785714Y-74248866D02*
X109738095Y-74153628D01*
X109738095Y-74153628D02*
X109690476Y-74106009D01*
X109690476Y-74106009D02*
X109595238Y-74058390D01*
X105464580Y-96316666D02*
X105512200Y-96364285D01*
X105512200Y-96364285D02*
X105559819Y-96507142D01*
X105559819Y-96507142D02*
X105559819Y-96602380D01*
X105559819Y-96602380D02*
X105512200Y-96745237D01*
X105512200Y-96745237D02*
X105416961Y-96840475D01*
X105416961Y-96840475D02*
X105321723Y-96888094D01*
X105321723Y-96888094D02*
X105131247Y-96935713D01*
X105131247Y-96935713D02*
X104988390Y-96935713D01*
X104988390Y-96935713D02*
X104797914Y-96888094D01*
X104797914Y-96888094D02*
X104702676Y-96840475D01*
X104702676Y-96840475D02*
X104607438Y-96745237D01*
X104607438Y-96745237D02*
X104559819Y-96602380D01*
X104559819Y-96602380D02*
X104559819Y-96507142D01*
X104559819Y-96507142D02*
X104607438Y-96364285D01*
X104607438Y-96364285D02*
X104655057Y-96316666D01*
X105559819Y-95840475D02*
X105559819Y-95649999D01*
X105559819Y-95649999D02*
X105512200Y-95554761D01*
X105512200Y-95554761D02*
X105464580Y-95507142D01*
X105464580Y-95507142D02*
X105321723Y-95411904D01*
X105321723Y-95411904D02*
X105131247Y-95364285D01*
X105131247Y-95364285D02*
X104750295Y-95364285D01*
X104750295Y-95364285D02*
X104655057Y-95411904D01*
X104655057Y-95411904D02*
X104607438Y-95459523D01*
X104607438Y-95459523D02*
X104559819Y-95554761D01*
X104559819Y-95554761D02*
X104559819Y-95745237D01*
X104559819Y-95745237D02*
X104607438Y-95840475D01*
X104607438Y-95840475D02*
X104655057Y-95888094D01*
X104655057Y-95888094D02*
X104750295Y-95935713D01*
X104750295Y-95935713D02*
X104988390Y-95935713D01*
X104988390Y-95935713D02*
X105083628Y-95888094D01*
X105083628Y-95888094D02*
X105131247Y-95840475D01*
X105131247Y-95840475D02*
X105178866Y-95745237D01*
X105178866Y-95745237D02*
X105178866Y-95554761D01*
X105178866Y-95554761D02*
X105131247Y-95459523D01*
X105131247Y-95459523D02*
X105083628Y-95411904D01*
X105083628Y-95411904D02*
X104988390Y-95364285D01*
X103414580Y-96316666D02*
X103462200Y-96364285D01*
X103462200Y-96364285D02*
X103509819Y-96507142D01*
X103509819Y-96507142D02*
X103509819Y-96602380D01*
X103509819Y-96602380D02*
X103462200Y-96745237D01*
X103462200Y-96745237D02*
X103366961Y-96840475D01*
X103366961Y-96840475D02*
X103271723Y-96888094D01*
X103271723Y-96888094D02*
X103081247Y-96935713D01*
X103081247Y-96935713D02*
X102938390Y-96935713D01*
X102938390Y-96935713D02*
X102747914Y-96888094D01*
X102747914Y-96888094D02*
X102652676Y-96840475D01*
X102652676Y-96840475D02*
X102557438Y-96745237D01*
X102557438Y-96745237D02*
X102509819Y-96602380D01*
X102509819Y-96602380D02*
X102509819Y-96507142D01*
X102509819Y-96507142D02*
X102557438Y-96364285D01*
X102557438Y-96364285D02*
X102605057Y-96316666D01*
X102843152Y-95459523D02*
X103509819Y-95459523D01*
X102462200Y-95697618D02*
X103176485Y-95935713D01*
X103176485Y-95935713D02*
X103176485Y-95316666D01*
X111254819Y-84988094D02*
X110254819Y-84988094D01*
X110254819Y-84988094D02*
X110254819Y-84749999D01*
X110254819Y-84749999D02*
X110302438Y-84607142D01*
X110302438Y-84607142D02*
X110397676Y-84511904D01*
X110397676Y-84511904D02*
X110492914Y-84464285D01*
X110492914Y-84464285D02*
X110683390Y-84416666D01*
X110683390Y-84416666D02*
X110826247Y-84416666D01*
X110826247Y-84416666D02*
X111016723Y-84464285D01*
X111016723Y-84464285D02*
X111111961Y-84511904D01*
X111111961Y-84511904D02*
X111207200Y-84607142D01*
X111207200Y-84607142D02*
X111254819Y-84749999D01*
X111254819Y-84749999D02*
X111254819Y-84988094D01*
X110350057Y-84035713D02*
X110302438Y-83988094D01*
X110302438Y-83988094D02*
X110254819Y-83892856D01*
X110254819Y-83892856D02*
X110254819Y-83654761D01*
X110254819Y-83654761D02*
X110302438Y-83559523D01*
X110302438Y-83559523D02*
X110350057Y-83511904D01*
X110350057Y-83511904D02*
X110445295Y-83464285D01*
X110445295Y-83464285D02*
X110540533Y-83464285D01*
X110540533Y-83464285D02*
X110683390Y-83511904D01*
X110683390Y-83511904D02*
X111254819Y-84083332D01*
X111254819Y-84083332D02*
X111254819Y-83464285D01*
X114579819Y-81029166D02*
X114103628Y-81362499D01*
X114579819Y-81600594D02*
X113579819Y-81600594D01*
X113579819Y-81600594D02*
X113579819Y-81219642D01*
X113579819Y-81219642D02*
X113627438Y-81124404D01*
X113627438Y-81124404D02*
X113675057Y-81076785D01*
X113675057Y-81076785D02*
X113770295Y-81029166D01*
X113770295Y-81029166D02*
X113913152Y-81029166D01*
X113913152Y-81029166D02*
X114008390Y-81076785D01*
X114008390Y-81076785D02*
X114056009Y-81124404D01*
X114056009Y-81124404D02*
X114103628Y-81219642D01*
X114103628Y-81219642D02*
X114103628Y-81600594D01*
X113579819Y-80172023D02*
X113579819Y-80362499D01*
X113579819Y-80362499D02*
X113627438Y-80457737D01*
X113627438Y-80457737D02*
X113675057Y-80505356D01*
X113675057Y-80505356D02*
X113817914Y-80600594D01*
X113817914Y-80600594D02*
X114008390Y-80648213D01*
X114008390Y-80648213D02*
X114389342Y-80648213D01*
X114389342Y-80648213D02*
X114484580Y-80600594D01*
X114484580Y-80600594D02*
X114532200Y-80552975D01*
X114532200Y-80552975D02*
X114579819Y-80457737D01*
X114579819Y-80457737D02*
X114579819Y-80267261D01*
X114579819Y-80267261D02*
X114532200Y-80172023D01*
X114532200Y-80172023D02*
X114484580Y-80124404D01*
X114484580Y-80124404D02*
X114389342Y-80076785D01*
X114389342Y-80076785D02*
X114151247Y-80076785D01*
X114151247Y-80076785D02*
X114056009Y-80124404D01*
X114056009Y-80124404D02*
X114008390Y-80172023D01*
X114008390Y-80172023D02*
X113960771Y-80267261D01*
X113960771Y-80267261D02*
X113960771Y-80457737D01*
X113960771Y-80457737D02*
X114008390Y-80552975D01*
X114008390Y-80552975D02*
X114056009Y-80600594D01*
X114056009Y-80600594D02*
X114151247Y-80648213D01*
X116304819Y-51725594D02*
X115304819Y-51725594D01*
X115304819Y-51725594D02*
X115304819Y-51487499D01*
X115304819Y-51487499D02*
X115352438Y-51344642D01*
X115352438Y-51344642D02*
X115447676Y-51249404D01*
X115447676Y-51249404D02*
X115542914Y-51201785D01*
X115542914Y-51201785D02*
X115733390Y-51154166D01*
X115733390Y-51154166D02*
X115876247Y-51154166D01*
X115876247Y-51154166D02*
X116066723Y-51201785D01*
X116066723Y-51201785D02*
X116161961Y-51249404D01*
X116161961Y-51249404D02*
X116257200Y-51344642D01*
X116257200Y-51344642D02*
X116304819Y-51487499D01*
X116304819Y-51487499D02*
X116304819Y-51725594D01*
X115304819Y-50820832D02*
X115304819Y-50201785D01*
X115304819Y-50201785D02*
X115685771Y-50535118D01*
X115685771Y-50535118D02*
X115685771Y-50392261D01*
X115685771Y-50392261D02*
X115733390Y-50297023D01*
X115733390Y-50297023D02*
X115781009Y-50249404D01*
X115781009Y-50249404D02*
X115876247Y-50201785D01*
X115876247Y-50201785D02*
X116114342Y-50201785D01*
X116114342Y-50201785D02*
X116209580Y-50249404D01*
X116209580Y-50249404D02*
X116257200Y-50297023D01*
X116257200Y-50297023D02*
X116304819Y-50392261D01*
X116304819Y-50392261D02*
X116304819Y-50677975D01*
X116304819Y-50677975D02*
X116257200Y-50773213D01*
X116257200Y-50773213D02*
X116209580Y-50820832D01*
X97138095Y-78181819D02*
X97709523Y-78181819D01*
X97423809Y-79181819D02*
X97423809Y-78181819D01*
X98042857Y-79181819D02*
X98042857Y-78181819D01*
X98042857Y-78181819D02*
X98423809Y-78181819D01*
X98423809Y-78181819D02*
X98519047Y-78229438D01*
X98519047Y-78229438D02*
X98566666Y-78277057D01*
X98566666Y-78277057D02*
X98614285Y-78372295D01*
X98614285Y-78372295D02*
X98614285Y-78515152D01*
X98614285Y-78515152D02*
X98566666Y-78610390D01*
X98566666Y-78610390D02*
X98519047Y-78658009D01*
X98519047Y-78658009D02*
X98423809Y-78705628D01*
X98423809Y-78705628D02*
X98042857Y-78705628D01*
X99519047Y-78181819D02*
X99042857Y-78181819D01*
X99042857Y-78181819D02*
X98995238Y-78658009D01*
X98995238Y-78658009D02*
X99042857Y-78610390D01*
X99042857Y-78610390D02*
X99138095Y-78562771D01*
X99138095Y-78562771D02*
X99376190Y-78562771D01*
X99376190Y-78562771D02*
X99471428Y-78610390D01*
X99471428Y-78610390D02*
X99519047Y-78658009D01*
X99519047Y-78658009D02*
X99566666Y-78753247D01*
X99566666Y-78753247D02*
X99566666Y-78991342D01*
X99566666Y-78991342D02*
X99519047Y-79086580D01*
X99519047Y-79086580D02*
X99471428Y-79134200D01*
X99471428Y-79134200D02*
X99376190Y-79181819D01*
X99376190Y-79181819D02*
X99138095Y-79181819D01*
X99138095Y-79181819D02*
X99042857Y-79134200D01*
X99042857Y-79134200D02*
X98995238Y-79086580D01*
X101479819Y-70154166D02*
X101003628Y-70487499D01*
X101479819Y-70725594D02*
X100479819Y-70725594D01*
X100479819Y-70725594D02*
X100479819Y-70344642D01*
X100479819Y-70344642D02*
X100527438Y-70249404D01*
X100527438Y-70249404D02*
X100575057Y-70201785D01*
X100575057Y-70201785D02*
X100670295Y-70154166D01*
X100670295Y-70154166D02*
X100813152Y-70154166D01*
X100813152Y-70154166D02*
X100908390Y-70201785D01*
X100908390Y-70201785D02*
X100956009Y-70249404D01*
X100956009Y-70249404D02*
X101003628Y-70344642D01*
X101003628Y-70344642D02*
X101003628Y-70725594D01*
X101479819Y-69201785D02*
X101479819Y-69773213D01*
X101479819Y-69487499D02*
X100479819Y-69487499D01*
X100479819Y-69487499D02*
X100622676Y-69582737D01*
X100622676Y-69582737D02*
X100717914Y-69677975D01*
X100717914Y-69677975D02*
X100765533Y-69773213D01*
X95289580Y-59766666D02*
X95337200Y-59814285D01*
X95337200Y-59814285D02*
X95384819Y-59957142D01*
X95384819Y-59957142D02*
X95384819Y-60052380D01*
X95384819Y-60052380D02*
X95337200Y-60195237D01*
X95337200Y-60195237D02*
X95241961Y-60290475D01*
X95241961Y-60290475D02*
X95146723Y-60338094D01*
X95146723Y-60338094D02*
X94956247Y-60385713D01*
X94956247Y-60385713D02*
X94813390Y-60385713D01*
X94813390Y-60385713D02*
X94622914Y-60338094D01*
X94622914Y-60338094D02*
X94527676Y-60290475D01*
X94527676Y-60290475D02*
X94432438Y-60195237D01*
X94432438Y-60195237D02*
X94384819Y-60052380D01*
X94384819Y-60052380D02*
X94384819Y-59957142D01*
X94384819Y-59957142D02*
X94432438Y-59814285D01*
X94432438Y-59814285D02*
X94480057Y-59766666D01*
X95384819Y-58814285D02*
X95384819Y-59385713D01*
X95384819Y-59099999D02*
X94384819Y-59099999D01*
X94384819Y-59099999D02*
X94527676Y-59195237D01*
X94527676Y-59195237D02*
X94622914Y-59290475D01*
X94622914Y-59290475D02*
X94670533Y-59385713D01*
X104803628Y-67076190D02*
X105279819Y-67076190D01*
X104279819Y-67409523D02*
X104803628Y-67076190D01*
X104803628Y-67076190D02*
X104279819Y-66742857D01*
X104375057Y-66457142D02*
X104327438Y-66409523D01*
X104327438Y-66409523D02*
X104279819Y-66314285D01*
X104279819Y-66314285D02*
X104279819Y-66076190D01*
X104279819Y-66076190D02*
X104327438Y-65980952D01*
X104327438Y-65980952D02*
X104375057Y-65933333D01*
X104375057Y-65933333D02*
X104470295Y-65885714D01*
X104470295Y-65885714D02*
X104565533Y-65885714D01*
X104565533Y-65885714D02*
X104708390Y-65933333D01*
X104708390Y-65933333D02*
X105279819Y-66504761D01*
X105279819Y-66504761D02*
X105279819Y-65885714D01*
X104949819Y-87209523D02*
X103949819Y-87209523D01*
X103949819Y-87209523D02*
X104664104Y-86876190D01*
X104664104Y-86876190D02*
X103949819Y-86542857D01*
X103949819Y-86542857D02*
X104949819Y-86542857D01*
X104949819Y-85542857D02*
X104949819Y-86114285D01*
X104949819Y-85828571D02*
X103949819Y-85828571D01*
X103949819Y-85828571D02*
X104092676Y-85923809D01*
X104092676Y-85923809D02*
X104187914Y-86019047D01*
X104187914Y-86019047D02*
X104235533Y-86114285D01*
X115216666Y-73669819D02*
X115216666Y-74384104D01*
X115216666Y-74384104D02*
X115169047Y-74526961D01*
X115169047Y-74526961D02*
X115073809Y-74622200D01*
X115073809Y-74622200D02*
X114930952Y-74669819D01*
X114930952Y-74669819D02*
X114835714Y-74669819D01*
X116216666Y-74669819D02*
X115645238Y-74669819D01*
X115930952Y-74669819D02*
X115930952Y-73669819D01*
X115930952Y-73669819D02*
X115835714Y-73812676D01*
X115835714Y-73812676D02*
X115740476Y-73907914D01*
X115740476Y-73907914D02*
X115645238Y-73955533D01*
X93013095Y-65631819D02*
X93584523Y-65631819D01*
X93298809Y-66631819D02*
X93298809Y-65631819D01*
X93917857Y-66631819D02*
X93917857Y-65631819D01*
X93917857Y-65631819D02*
X94298809Y-65631819D01*
X94298809Y-65631819D02*
X94394047Y-65679438D01*
X94394047Y-65679438D02*
X94441666Y-65727057D01*
X94441666Y-65727057D02*
X94489285Y-65822295D01*
X94489285Y-65822295D02*
X94489285Y-65965152D01*
X94489285Y-65965152D02*
X94441666Y-66060390D01*
X94441666Y-66060390D02*
X94394047Y-66108009D01*
X94394047Y-66108009D02*
X94298809Y-66155628D01*
X94298809Y-66155628D02*
X93917857Y-66155628D01*
X95346428Y-65631819D02*
X95155952Y-65631819D01*
X95155952Y-65631819D02*
X95060714Y-65679438D01*
X95060714Y-65679438D02*
X95013095Y-65727057D01*
X95013095Y-65727057D02*
X94917857Y-65869914D01*
X94917857Y-65869914D02*
X94870238Y-66060390D01*
X94870238Y-66060390D02*
X94870238Y-66441342D01*
X94870238Y-66441342D02*
X94917857Y-66536580D01*
X94917857Y-66536580D02*
X94965476Y-66584200D01*
X94965476Y-66584200D02*
X95060714Y-66631819D01*
X95060714Y-66631819D02*
X95251190Y-66631819D01*
X95251190Y-66631819D02*
X95346428Y-66584200D01*
X95346428Y-66584200D02*
X95394047Y-66536580D01*
X95394047Y-66536580D02*
X95441666Y-66441342D01*
X95441666Y-66441342D02*
X95441666Y-66203247D01*
X95441666Y-66203247D02*
X95394047Y-66108009D01*
X95394047Y-66108009D02*
X95346428Y-66060390D01*
X95346428Y-66060390D02*
X95251190Y-66012771D01*
X95251190Y-66012771D02*
X95060714Y-66012771D01*
X95060714Y-66012771D02*
X94965476Y-66060390D01*
X94965476Y-66060390D02*
X94917857Y-66108009D01*
X94917857Y-66108009D02*
X94870238Y-66203247D01*
X112104819Y-61216666D02*
X112104819Y-61692856D01*
X112104819Y-61692856D02*
X111104819Y-61692856D01*
X111104819Y-60978570D02*
X111104819Y-60359523D01*
X111104819Y-60359523D02*
X111485771Y-60692856D01*
X111485771Y-60692856D02*
X111485771Y-60549999D01*
X111485771Y-60549999D02*
X111533390Y-60454761D01*
X111533390Y-60454761D02*
X111581009Y-60407142D01*
X111581009Y-60407142D02*
X111676247Y-60359523D01*
X111676247Y-60359523D02*
X111914342Y-60359523D01*
X111914342Y-60359523D02*
X112009580Y-60407142D01*
X112009580Y-60407142D02*
X112057200Y-60454761D01*
X112057200Y-60454761D02*
X112104819Y-60549999D01*
X112104819Y-60549999D02*
X112104819Y-60835713D01*
X112104819Y-60835713D02*
X112057200Y-60930951D01*
X112057200Y-60930951D02*
X112009580Y-60978570D01*
X102158333Y-67704580D02*
X102110714Y-67752200D01*
X102110714Y-67752200D02*
X101967857Y-67799819D01*
X101967857Y-67799819D02*
X101872619Y-67799819D01*
X101872619Y-67799819D02*
X101729762Y-67752200D01*
X101729762Y-67752200D02*
X101634524Y-67656961D01*
X101634524Y-67656961D02*
X101586905Y-67561723D01*
X101586905Y-67561723D02*
X101539286Y-67371247D01*
X101539286Y-67371247D02*
X101539286Y-67228390D01*
X101539286Y-67228390D02*
X101586905Y-67037914D01*
X101586905Y-67037914D02*
X101634524Y-66942676D01*
X101634524Y-66942676D02*
X101729762Y-66847438D01*
X101729762Y-66847438D02*
X101872619Y-66799819D01*
X101872619Y-66799819D02*
X101967857Y-66799819D01*
X101967857Y-66799819D02*
X102110714Y-66847438D01*
X102110714Y-66847438D02*
X102158333Y-66895057D01*
X103015476Y-66799819D02*
X102825000Y-66799819D01*
X102825000Y-66799819D02*
X102729762Y-66847438D01*
X102729762Y-66847438D02*
X102682143Y-66895057D01*
X102682143Y-66895057D02*
X102586905Y-67037914D01*
X102586905Y-67037914D02*
X102539286Y-67228390D01*
X102539286Y-67228390D02*
X102539286Y-67609342D01*
X102539286Y-67609342D02*
X102586905Y-67704580D01*
X102586905Y-67704580D02*
X102634524Y-67752200D01*
X102634524Y-67752200D02*
X102729762Y-67799819D01*
X102729762Y-67799819D02*
X102920238Y-67799819D01*
X102920238Y-67799819D02*
X103015476Y-67752200D01*
X103015476Y-67752200D02*
X103063095Y-67704580D01*
X103063095Y-67704580D02*
X103110714Y-67609342D01*
X103110714Y-67609342D02*
X103110714Y-67371247D01*
X103110714Y-67371247D02*
X103063095Y-67276009D01*
X103063095Y-67276009D02*
X103015476Y-67228390D01*
X103015476Y-67228390D02*
X102920238Y-67180771D01*
X102920238Y-67180771D02*
X102729762Y-67180771D01*
X102729762Y-67180771D02*
X102634524Y-67228390D01*
X102634524Y-67228390D02*
X102586905Y-67276009D01*
X102586905Y-67276009D02*
X102539286Y-67371247D01*
X115933333Y-65654580D02*
X115885714Y-65702200D01*
X115885714Y-65702200D02*
X115742857Y-65749819D01*
X115742857Y-65749819D02*
X115647619Y-65749819D01*
X115647619Y-65749819D02*
X115504762Y-65702200D01*
X115504762Y-65702200D02*
X115409524Y-65606961D01*
X115409524Y-65606961D02*
X115361905Y-65511723D01*
X115361905Y-65511723D02*
X115314286Y-65321247D01*
X115314286Y-65321247D02*
X115314286Y-65178390D01*
X115314286Y-65178390D02*
X115361905Y-64987914D01*
X115361905Y-64987914D02*
X115409524Y-64892676D01*
X115409524Y-64892676D02*
X115504762Y-64797438D01*
X115504762Y-64797438D02*
X115647619Y-64749819D01*
X115647619Y-64749819D02*
X115742857Y-64749819D01*
X115742857Y-64749819D02*
X115885714Y-64797438D01*
X115885714Y-64797438D02*
X115933333Y-64845057D01*
X116266667Y-64749819D02*
X116933333Y-64749819D01*
X116933333Y-64749819D02*
X116504762Y-65749819D01*
D11*
X109570270Y-78820952D02*
X109509794Y-78941904D01*
X109509794Y-78941904D02*
X109388842Y-79062857D01*
X109388842Y-79062857D02*
X109207413Y-79244285D01*
X109207413Y-79244285D02*
X109146937Y-79365238D01*
X109146937Y-79365238D02*
X109146937Y-79486190D01*
X109449318Y-79425714D02*
X109388842Y-79546666D01*
X109388842Y-79546666D02*
X109267889Y-79667619D01*
X109267889Y-79667619D02*
X109025984Y-79728095D01*
X109025984Y-79728095D02*
X108602651Y-79728095D01*
X108602651Y-79728095D02*
X108360746Y-79667619D01*
X108360746Y-79667619D02*
X108239794Y-79546666D01*
X108239794Y-79546666D02*
X108179318Y-79425714D01*
X108179318Y-79425714D02*
X108179318Y-79183809D01*
X108179318Y-79183809D02*
X108239794Y-79062857D01*
X108239794Y-79062857D02*
X108360746Y-78941904D01*
X108360746Y-78941904D02*
X108602651Y-78881428D01*
X108602651Y-78881428D02*
X109025984Y-78881428D01*
X109025984Y-78881428D02*
X109267889Y-78941904D01*
X109267889Y-78941904D02*
X109388842Y-79062857D01*
X109388842Y-79062857D02*
X109449318Y-79183809D01*
X109449318Y-79183809D02*
X109449318Y-79425714D01*
X108300270Y-78397619D02*
X108239794Y-78337143D01*
X108239794Y-78337143D02*
X108179318Y-78216190D01*
X108179318Y-78216190D02*
X108179318Y-77913809D01*
X108179318Y-77913809D02*
X108239794Y-77792857D01*
X108239794Y-77792857D02*
X108300270Y-77732381D01*
X108300270Y-77732381D02*
X108421222Y-77671904D01*
X108421222Y-77671904D02*
X108542175Y-77671904D01*
X108542175Y-77671904D02*
X108723603Y-77732381D01*
X108723603Y-77732381D02*
X109449318Y-78458095D01*
X109449318Y-78458095D02*
X109449318Y-77671904D01*
D10*
X108763095Y-63229819D02*
X108763095Y-64039342D01*
X108763095Y-64039342D02*
X108810714Y-64134580D01*
X108810714Y-64134580D02*
X108858333Y-64182200D01*
X108858333Y-64182200D02*
X108953571Y-64229819D01*
X108953571Y-64229819D02*
X109144047Y-64229819D01*
X109144047Y-64229819D02*
X109239285Y-64182200D01*
X109239285Y-64182200D02*
X109286904Y-64134580D01*
X109286904Y-64134580D02*
X109334523Y-64039342D01*
X109334523Y-64039342D02*
X109334523Y-63229819D01*
X110334523Y-64229819D02*
X109763095Y-64229819D01*
X110048809Y-64229819D02*
X110048809Y-63229819D01*
X110048809Y-63229819D02*
X109953571Y-63372676D01*
X109953571Y-63372676D02*
X109858333Y-63467914D01*
X109858333Y-63467914D02*
X109763095Y-63515533D01*
X112904580Y-61717857D02*
X112952200Y-61765476D01*
X112952200Y-61765476D02*
X112999819Y-61908333D01*
X112999819Y-61908333D02*
X112999819Y-62003571D01*
X112999819Y-62003571D02*
X112952200Y-62146428D01*
X112952200Y-62146428D02*
X112856961Y-62241666D01*
X112856961Y-62241666D02*
X112761723Y-62289285D01*
X112761723Y-62289285D02*
X112571247Y-62336904D01*
X112571247Y-62336904D02*
X112428390Y-62336904D01*
X112428390Y-62336904D02*
X112237914Y-62289285D01*
X112237914Y-62289285D02*
X112142676Y-62241666D01*
X112142676Y-62241666D02*
X112047438Y-62146428D01*
X112047438Y-62146428D02*
X111999819Y-62003571D01*
X111999819Y-62003571D02*
X111999819Y-61908333D01*
X111999819Y-61908333D02*
X112047438Y-61765476D01*
X112047438Y-61765476D02*
X112095057Y-61717857D01*
X112999819Y-60765476D02*
X112999819Y-61336904D01*
X112999819Y-61051190D02*
X111999819Y-61051190D01*
X111999819Y-61051190D02*
X112142676Y-61146428D01*
X112142676Y-61146428D02*
X112237914Y-61241666D01*
X112237914Y-61241666D02*
X112285533Y-61336904D01*
X111999819Y-60146428D02*
X111999819Y-60051190D01*
X111999819Y-60051190D02*
X112047438Y-59955952D01*
X112047438Y-59955952D02*
X112095057Y-59908333D01*
X112095057Y-59908333D02*
X112190295Y-59860714D01*
X112190295Y-59860714D02*
X112380771Y-59813095D01*
X112380771Y-59813095D02*
X112618866Y-59813095D01*
X112618866Y-59813095D02*
X112809342Y-59860714D01*
X112809342Y-59860714D02*
X112904580Y-59908333D01*
X112904580Y-59908333D02*
X112952200Y-59955952D01*
X112952200Y-59955952D02*
X112999819Y-60051190D01*
X112999819Y-60051190D02*
X112999819Y-60146428D01*
X112999819Y-60146428D02*
X112952200Y-60241666D01*
X112952200Y-60241666D02*
X112904580Y-60289285D01*
X112904580Y-60289285D02*
X112809342Y-60336904D01*
X112809342Y-60336904D02*
X112618866Y-60384523D01*
X112618866Y-60384523D02*
X112380771Y-60384523D01*
X112380771Y-60384523D02*
X112190295Y-60336904D01*
X112190295Y-60336904D02*
X112095057Y-60289285D01*
X112095057Y-60289285D02*
X112047438Y-60241666D01*
X112047438Y-60241666D02*
X111999819Y-60146428D01*
X99067319Y-57126189D02*
X98067319Y-57126189D01*
X98972080Y-56078571D02*
X99019700Y-56126190D01*
X99019700Y-56126190D02*
X99067319Y-56269047D01*
X99067319Y-56269047D02*
X99067319Y-56364285D01*
X99067319Y-56364285D02*
X99019700Y-56507142D01*
X99019700Y-56507142D02*
X98924461Y-56602380D01*
X98924461Y-56602380D02*
X98829223Y-56649999D01*
X98829223Y-56649999D02*
X98638747Y-56697618D01*
X98638747Y-56697618D02*
X98495890Y-56697618D01*
X98495890Y-56697618D02*
X98305414Y-56649999D01*
X98305414Y-56649999D02*
X98210176Y-56602380D01*
X98210176Y-56602380D02*
X98114938Y-56507142D01*
X98114938Y-56507142D02*
X98067319Y-56364285D01*
X98067319Y-56364285D02*
X98067319Y-56269047D01*
X98067319Y-56269047D02*
X98114938Y-56126190D01*
X98114938Y-56126190D02*
X98162557Y-56078571D01*
X99067319Y-55126190D02*
X99067319Y-55697618D01*
X99067319Y-55411904D02*
X98067319Y-55411904D01*
X98067319Y-55411904D02*
X98210176Y-55507142D01*
X98210176Y-55507142D02*
X98305414Y-55602380D01*
X98305414Y-55602380D02*
X98353033Y-55697618D01*
D11*
X117694556Y-62279761D02*
X118299318Y-62279761D01*
X117029318Y-62703094D02*
X117694556Y-62279761D01*
X117694556Y-62279761D02*
X117029318Y-61856427D01*
X118299318Y-60767856D02*
X118299318Y-61493571D01*
X118299318Y-61130714D02*
X117029318Y-61130714D01*
X117029318Y-61130714D02*
X117210746Y-61251666D01*
X117210746Y-61251666D02*
X117331699Y-61372618D01*
X117331699Y-61372618D02*
X117392175Y-61493571D01*
D10*
X112954819Y-54554166D02*
X112478628Y-54887499D01*
X112954819Y-55125594D02*
X111954819Y-55125594D01*
X111954819Y-55125594D02*
X111954819Y-54744642D01*
X111954819Y-54744642D02*
X112002438Y-54649404D01*
X112002438Y-54649404D02*
X112050057Y-54601785D01*
X112050057Y-54601785D02*
X112145295Y-54554166D01*
X112145295Y-54554166D02*
X112288152Y-54554166D01*
X112288152Y-54554166D02*
X112383390Y-54601785D01*
X112383390Y-54601785D02*
X112431009Y-54649404D01*
X112431009Y-54649404D02*
X112478628Y-54744642D01*
X112478628Y-54744642D02*
X112478628Y-55125594D01*
X111954819Y-54220832D02*
X111954819Y-53554166D01*
X111954819Y-53554166D02*
X112954819Y-53982737D01*
D11*
X84753818Y-68823332D02*
X85660961Y-68823332D01*
X85660961Y-68823332D02*
X85842389Y-68883809D01*
X85842389Y-68883809D02*
X85963342Y-69004761D01*
X85963342Y-69004761D02*
X86023818Y-69186190D01*
X86023818Y-69186190D02*
X86023818Y-69307142D01*
X84874770Y-68279047D02*
X84814294Y-68218571D01*
X84814294Y-68218571D02*
X84753818Y-68097618D01*
X84753818Y-68097618D02*
X84753818Y-67795237D01*
X84753818Y-67795237D02*
X84814294Y-67674285D01*
X84814294Y-67674285D02*
X84874770Y-67613809D01*
X84874770Y-67613809D02*
X84995722Y-67553332D01*
X84995722Y-67553332D02*
X85116675Y-67553332D01*
X85116675Y-67553332D02*
X85298103Y-67613809D01*
X85298103Y-67613809D02*
X86023818Y-68339523D01*
X86023818Y-68339523D02*
X86023818Y-67553332D01*
D10*
X86063095Y-53131819D02*
X86634523Y-53131819D01*
X86348809Y-54131819D02*
X86348809Y-53131819D01*
X86967857Y-54131819D02*
X86967857Y-53131819D01*
X86967857Y-53131819D02*
X87348809Y-53131819D01*
X87348809Y-53131819D02*
X87444047Y-53179438D01*
X87444047Y-53179438D02*
X87491666Y-53227057D01*
X87491666Y-53227057D02*
X87539285Y-53322295D01*
X87539285Y-53322295D02*
X87539285Y-53465152D01*
X87539285Y-53465152D02*
X87491666Y-53560390D01*
X87491666Y-53560390D02*
X87444047Y-53608009D01*
X87444047Y-53608009D02*
X87348809Y-53655628D01*
X87348809Y-53655628D02*
X86967857Y-53655628D01*
X87920238Y-53227057D02*
X87967857Y-53179438D01*
X87967857Y-53179438D02*
X88063095Y-53131819D01*
X88063095Y-53131819D02*
X88301190Y-53131819D01*
X88301190Y-53131819D02*
X88396428Y-53179438D01*
X88396428Y-53179438D02*
X88444047Y-53227057D01*
X88444047Y-53227057D02*
X88491666Y-53322295D01*
X88491666Y-53322295D02*
X88491666Y-53417533D01*
X88491666Y-53417533D02*
X88444047Y-53560390D01*
X88444047Y-53560390D02*
X87872619Y-54131819D01*
X87872619Y-54131819D02*
X88491666Y-54131819D01*
X97188095Y-75181819D02*
X97759523Y-75181819D01*
X97473809Y-76181819D02*
X97473809Y-75181819D01*
X98092857Y-76181819D02*
X98092857Y-75181819D01*
X98092857Y-75181819D02*
X98473809Y-75181819D01*
X98473809Y-75181819D02*
X98569047Y-75229438D01*
X98569047Y-75229438D02*
X98616666Y-75277057D01*
X98616666Y-75277057D02*
X98664285Y-75372295D01*
X98664285Y-75372295D02*
X98664285Y-75515152D01*
X98664285Y-75515152D02*
X98616666Y-75610390D01*
X98616666Y-75610390D02*
X98569047Y-75658009D01*
X98569047Y-75658009D02*
X98473809Y-75705628D01*
X98473809Y-75705628D02*
X98092857Y-75705628D01*
X99521428Y-75515152D02*
X99521428Y-76181819D01*
X99283333Y-75134200D02*
X99045238Y-75848485D01*
X99045238Y-75848485D02*
X99664285Y-75848485D01*
X92804819Y-61336904D02*
X93614342Y-61336904D01*
X93614342Y-61336904D02*
X93709580Y-61289285D01*
X93709580Y-61289285D02*
X93757200Y-61241666D01*
X93757200Y-61241666D02*
X93804819Y-61146428D01*
X93804819Y-61146428D02*
X93804819Y-60955952D01*
X93804819Y-60955952D02*
X93757200Y-60860714D01*
X93757200Y-60860714D02*
X93709580Y-60813095D01*
X93709580Y-60813095D02*
X93614342Y-60765476D01*
X93614342Y-60765476D02*
X92804819Y-60765476D01*
X93138152Y-59860714D02*
X93804819Y-59860714D01*
X92757200Y-60098809D02*
X93471485Y-60336904D01*
X93471485Y-60336904D02*
X93471485Y-59717857D01*
D11*
X91649318Y-60837381D02*
X90379318Y-60837381D01*
X90379318Y-60837381D02*
X90379318Y-60535000D01*
X90379318Y-60535000D02*
X90439794Y-60353571D01*
X90439794Y-60353571D02*
X90560746Y-60232619D01*
X90560746Y-60232619D02*
X90681699Y-60172142D01*
X90681699Y-60172142D02*
X90923603Y-60111666D01*
X90923603Y-60111666D02*
X91105032Y-60111666D01*
X91105032Y-60111666D02*
X91346937Y-60172142D01*
X91346937Y-60172142D02*
X91467889Y-60232619D01*
X91467889Y-60232619D02*
X91588842Y-60353571D01*
X91588842Y-60353571D02*
X91649318Y-60535000D01*
X91649318Y-60535000D02*
X91649318Y-60837381D01*
X91649318Y-58902142D02*
X91649318Y-59627857D01*
X91649318Y-59265000D02*
X90379318Y-59265000D01*
X90379318Y-59265000D02*
X90560746Y-59385952D01*
X90560746Y-59385952D02*
X90681699Y-59506904D01*
X90681699Y-59506904D02*
X90742175Y-59627857D01*
D10*
X117082142Y-60889580D02*
X117034523Y-60937200D01*
X117034523Y-60937200D02*
X116891666Y-60984819D01*
X116891666Y-60984819D02*
X116796428Y-60984819D01*
X116796428Y-60984819D02*
X116653571Y-60937200D01*
X116653571Y-60937200D02*
X116558333Y-60841961D01*
X116558333Y-60841961D02*
X116510714Y-60746723D01*
X116510714Y-60746723D02*
X116463095Y-60556247D01*
X116463095Y-60556247D02*
X116463095Y-60413390D01*
X116463095Y-60413390D02*
X116510714Y-60222914D01*
X116510714Y-60222914D02*
X116558333Y-60127676D01*
X116558333Y-60127676D02*
X116653571Y-60032438D01*
X116653571Y-60032438D02*
X116796428Y-59984819D01*
X116796428Y-59984819D02*
X116891666Y-59984819D01*
X116891666Y-59984819D02*
X117034523Y-60032438D01*
X117034523Y-60032438D02*
X117082142Y-60080057D01*
X118034523Y-60984819D02*
X117463095Y-60984819D01*
X117748809Y-60984819D02*
X117748809Y-59984819D01*
X117748809Y-59984819D02*
X117653571Y-60127676D01*
X117653571Y-60127676D02*
X117558333Y-60222914D01*
X117558333Y-60222914D02*
X117463095Y-60270533D01*
X118415476Y-60080057D02*
X118463095Y-60032438D01*
X118463095Y-60032438D02*
X118558333Y-59984819D01*
X118558333Y-59984819D02*
X118796428Y-59984819D01*
X118796428Y-59984819D02*
X118891666Y-60032438D01*
X118891666Y-60032438D02*
X118939285Y-60080057D01*
X118939285Y-60080057D02*
X118986904Y-60175295D01*
X118986904Y-60175295D02*
X118986904Y-60270533D01*
X118986904Y-60270533D02*
X118939285Y-60413390D01*
X118939285Y-60413390D02*
X118367857Y-60984819D01*
X118367857Y-60984819D02*
X118986904Y-60984819D01*
X97479676Y-73192119D02*
X97997771Y-73192119D01*
X97997771Y-73192119D02*
X98058723Y-73161642D01*
X98058723Y-73161642D02*
X98089200Y-73131166D01*
X98089200Y-73131166D02*
X98119676Y-73070214D01*
X98119676Y-73070214D02*
X98119676Y-72948309D01*
X98119676Y-72948309D02*
X98089200Y-72887357D01*
X98089200Y-72887357D02*
X98058723Y-72856880D01*
X98058723Y-72856880D02*
X97997771Y-72826404D01*
X97997771Y-72826404D02*
X97479676Y-72826404D01*
X97479676Y-72582595D02*
X97479676Y-72186404D01*
X97479676Y-72186404D02*
X97723485Y-72399738D01*
X97723485Y-72399738D02*
X97723485Y-72308309D01*
X97723485Y-72308309D02*
X97753961Y-72247357D01*
X97753961Y-72247357D02*
X97784438Y-72216881D01*
X97784438Y-72216881D02*
X97845390Y-72186404D01*
X97845390Y-72186404D02*
X97997771Y-72186404D01*
X97997771Y-72186404D02*
X98058723Y-72216881D01*
X98058723Y-72216881D02*
X98089200Y-72247357D01*
X98089200Y-72247357D02*
X98119676Y-72308309D01*
X98119676Y-72308309D02*
X98119676Y-72491166D01*
X98119676Y-72491166D02*
X98089200Y-72552119D01*
X98089200Y-72552119D02*
X98058723Y-72582595D01*
X103884819Y-86683333D02*
X104599104Y-86683333D01*
X104599104Y-86683333D02*
X104741961Y-86730952D01*
X104741961Y-86730952D02*
X104837200Y-86826190D01*
X104837200Y-86826190D02*
X104884819Y-86969047D01*
X104884819Y-86969047D02*
X104884819Y-87064285D01*
X103884819Y-86302380D02*
X103884819Y-85683333D01*
X103884819Y-85683333D02*
X104265771Y-86016666D01*
X104265771Y-86016666D02*
X104265771Y-85873809D01*
X104265771Y-85873809D02*
X104313390Y-85778571D01*
X104313390Y-85778571D02*
X104361009Y-85730952D01*
X104361009Y-85730952D02*
X104456247Y-85683333D01*
X104456247Y-85683333D02*
X104694342Y-85683333D01*
X104694342Y-85683333D02*
X104789580Y-85730952D01*
X104789580Y-85730952D02*
X104837200Y-85778571D01*
X104837200Y-85778571D02*
X104884819Y-85873809D01*
X104884819Y-85873809D02*
X104884819Y-86159523D01*
X104884819Y-86159523D02*
X104837200Y-86254761D01*
X104837200Y-86254761D02*
X104789580Y-86302380D01*
D11*
X92129047Y-56820270D02*
X92008095Y-56759794D01*
X92008095Y-56759794D02*
X91887142Y-56638842D01*
X91887142Y-56638842D02*
X91705714Y-56457413D01*
X91705714Y-56457413D02*
X91584761Y-56396937D01*
X91584761Y-56396937D02*
X91463809Y-56396937D01*
X91524285Y-56699318D02*
X91403333Y-56638842D01*
X91403333Y-56638842D02*
X91282380Y-56517889D01*
X91282380Y-56517889D02*
X91221904Y-56275984D01*
X91221904Y-56275984D02*
X91221904Y-55852651D01*
X91221904Y-55852651D02*
X91282380Y-55610746D01*
X91282380Y-55610746D02*
X91403333Y-55489794D01*
X91403333Y-55489794D02*
X91524285Y-55429318D01*
X91524285Y-55429318D02*
X91766190Y-55429318D01*
X91766190Y-55429318D02*
X91887142Y-55489794D01*
X91887142Y-55489794D02*
X92008095Y-55610746D01*
X92008095Y-55610746D02*
X92068571Y-55852651D01*
X92068571Y-55852651D02*
X92068571Y-56275984D01*
X92068571Y-56275984D02*
X92008095Y-56517889D01*
X92008095Y-56517889D02*
X91887142Y-56638842D01*
X91887142Y-56638842D02*
X91766190Y-56699318D01*
X91766190Y-56699318D02*
X91524285Y-56699318D01*
X93278095Y-56699318D02*
X92552380Y-56699318D01*
X92915237Y-56699318D02*
X92915237Y-55429318D01*
X92915237Y-55429318D02*
X92794285Y-55610746D01*
X92794285Y-55610746D02*
X92673333Y-55731699D01*
X92673333Y-55731699D02*
X92552380Y-55792175D01*
D10*
X86538095Y-58256819D02*
X87109523Y-58256819D01*
X86823809Y-59256819D02*
X86823809Y-58256819D01*
X87442857Y-59256819D02*
X87442857Y-58256819D01*
X87442857Y-58256819D02*
X87823809Y-58256819D01*
X87823809Y-58256819D02*
X87919047Y-58304438D01*
X87919047Y-58304438D02*
X87966666Y-58352057D01*
X87966666Y-58352057D02*
X88014285Y-58447295D01*
X88014285Y-58447295D02*
X88014285Y-58590152D01*
X88014285Y-58590152D02*
X87966666Y-58685390D01*
X87966666Y-58685390D02*
X87919047Y-58733009D01*
X87919047Y-58733009D02*
X87823809Y-58780628D01*
X87823809Y-58780628D02*
X87442857Y-58780628D01*
X88966666Y-59256819D02*
X88395238Y-59256819D01*
X88680952Y-59256819D02*
X88680952Y-58256819D01*
X88680952Y-58256819D02*
X88585714Y-58399676D01*
X88585714Y-58399676D02*
X88490476Y-58494914D01*
X88490476Y-58494914D02*
X88395238Y-58542533D01*
X101329819Y-76780357D02*
X100853628Y-77113690D01*
X101329819Y-77351785D02*
X100329819Y-77351785D01*
X100329819Y-77351785D02*
X100329819Y-76970833D01*
X100329819Y-76970833D02*
X100377438Y-76875595D01*
X100377438Y-76875595D02*
X100425057Y-76827976D01*
X100425057Y-76827976D02*
X100520295Y-76780357D01*
X100520295Y-76780357D02*
X100663152Y-76780357D01*
X100663152Y-76780357D02*
X100758390Y-76827976D01*
X100758390Y-76827976D02*
X100806009Y-76875595D01*
X100806009Y-76875595D02*
X100853628Y-76970833D01*
X100853628Y-76970833D02*
X100853628Y-77351785D01*
X101329819Y-75827976D02*
X101329819Y-76399404D01*
X101329819Y-76113690D02*
X100329819Y-76113690D01*
X100329819Y-76113690D02*
X100472676Y-76208928D01*
X100472676Y-76208928D02*
X100567914Y-76304166D01*
X100567914Y-76304166D02*
X100615533Y-76399404D01*
X100329819Y-75208928D02*
X100329819Y-75113690D01*
X100329819Y-75113690D02*
X100377438Y-75018452D01*
X100377438Y-75018452D02*
X100425057Y-74970833D01*
X100425057Y-74970833D02*
X100520295Y-74923214D01*
X100520295Y-74923214D02*
X100710771Y-74875595D01*
X100710771Y-74875595D02*
X100948866Y-74875595D01*
X100948866Y-74875595D02*
X101139342Y-74923214D01*
X101139342Y-74923214D02*
X101234580Y-74970833D01*
X101234580Y-74970833D02*
X101282200Y-75018452D01*
X101282200Y-75018452D02*
X101329819Y-75113690D01*
X101329819Y-75113690D02*
X101329819Y-75208928D01*
X101329819Y-75208928D02*
X101282200Y-75304166D01*
X101282200Y-75304166D02*
X101234580Y-75351785D01*
X101234580Y-75351785D02*
X101139342Y-75399404D01*
X101139342Y-75399404D02*
X100948866Y-75447023D01*
X100948866Y-75447023D02*
X100710771Y-75447023D01*
X100710771Y-75447023D02*
X100520295Y-75399404D01*
X100520295Y-75399404D02*
X100425057Y-75351785D01*
X100425057Y-75351785D02*
X100377438Y-75304166D01*
X100377438Y-75304166D02*
X100329819Y-75208928D01*
X117833333Y-69104819D02*
X117357143Y-69104819D01*
X117357143Y-69104819D02*
X117357143Y-68104819D01*
X118690476Y-69104819D02*
X118119048Y-69104819D01*
X118404762Y-69104819D02*
X118404762Y-68104819D01*
X118404762Y-68104819D02*
X118309524Y-68247676D01*
X118309524Y-68247676D02*
X118214286Y-68342914D01*
X118214286Y-68342914D02*
X118119048Y-68390533D01*
X97829819Y-56366666D02*
X97353628Y-56699999D01*
X97829819Y-56938094D02*
X96829819Y-56938094D01*
X96829819Y-56938094D02*
X96829819Y-56557142D01*
X96829819Y-56557142D02*
X96877438Y-56461904D01*
X96877438Y-56461904D02*
X96925057Y-56414285D01*
X96925057Y-56414285D02*
X97020295Y-56366666D01*
X97020295Y-56366666D02*
X97163152Y-56366666D01*
X97163152Y-56366666D02*
X97258390Y-56414285D01*
X97258390Y-56414285D02*
X97306009Y-56461904D01*
X97306009Y-56461904D02*
X97353628Y-56557142D01*
X97353628Y-56557142D02*
X97353628Y-56938094D01*
X97829819Y-55890475D02*
X97829819Y-55699999D01*
X97829819Y-55699999D02*
X97782200Y-55604761D01*
X97782200Y-55604761D02*
X97734580Y-55557142D01*
X97734580Y-55557142D02*
X97591723Y-55461904D01*
X97591723Y-55461904D02*
X97401247Y-55414285D01*
X97401247Y-55414285D02*
X97020295Y-55414285D01*
X97020295Y-55414285D02*
X96925057Y-55461904D01*
X96925057Y-55461904D02*
X96877438Y-55509523D01*
X96877438Y-55509523D02*
X96829819Y-55604761D01*
X96829819Y-55604761D02*
X96829819Y-55795237D01*
X96829819Y-55795237D02*
X96877438Y-55890475D01*
X96877438Y-55890475D02*
X96925057Y-55938094D01*
X96925057Y-55938094D02*
X97020295Y-55985713D01*
X97020295Y-55985713D02*
X97258390Y-55985713D01*
X97258390Y-55985713D02*
X97353628Y-55938094D01*
X97353628Y-55938094D02*
X97401247Y-55890475D01*
X97401247Y-55890475D02*
X97448866Y-55795237D01*
X97448866Y-55795237D02*
X97448866Y-55604761D01*
X97448866Y-55604761D02*
X97401247Y-55509523D01*
X97401247Y-55509523D02*
X97353628Y-55461904D01*
X97353628Y-55461904D02*
X97258390Y-55414285D01*
X121370180Y-70936896D02*
X120560657Y-70936896D01*
X120560657Y-70936896D02*
X120465419Y-70984515D01*
X120465419Y-70984515D02*
X120417800Y-71032134D01*
X120417800Y-71032134D02*
X120370180Y-71127372D01*
X120370180Y-71127372D02*
X120370180Y-71317848D01*
X120370180Y-71317848D02*
X120417800Y-71413086D01*
X120417800Y-71413086D02*
X120465419Y-71460705D01*
X120465419Y-71460705D02*
X120560657Y-71508324D01*
X120560657Y-71508324D02*
X121370180Y-71508324D01*
X121370180Y-72460705D02*
X121370180Y-71984515D01*
X121370180Y-71984515D02*
X120893990Y-71936896D01*
X120893990Y-71936896D02*
X120941609Y-71984515D01*
X120941609Y-71984515D02*
X120989228Y-72079753D01*
X120989228Y-72079753D02*
X120989228Y-72317848D01*
X120989228Y-72317848D02*
X120941609Y-72413086D01*
X120941609Y-72413086D02*
X120893990Y-72460705D01*
X120893990Y-72460705D02*
X120798752Y-72508324D01*
X120798752Y-72508324D02*
X120560657Y-72508324D01*
X120560657Y-72508324D02*
X120465419Y-72460705D01*
X120465419Y-72460705D02*
X120417800Y-72413086D01*
X120417800Y-72413086D02*
X120370180Y-72317848D01*
X120370180Y-72317848D02*
X120370180Y-72079753D01*
X120370180Y-72079753D02*
X120417800Y-71984515D01*
X120417800Y-71984515D02*
X120465419Y-71936896D01*
X107211905Y-82229819D02*
X107211905Y-81229819D01*
X107211905Y-81229819D02*
X107450000Y-81229819D01*
X107450000Y-81229819D02*
X107592857Y-81277438D01*
X107592857Y-81277438D02*
X107688095Y-81372676D01*
X107688095Y-81372676D02*
X107735714Y-81467914D01*
X107735714Y-81467914D02*
X107783333Y-81658390D01*
X107783333Y-81658390D02*
X107783333Y-81801247D01*
X107783333Y-81801247D02*
X107735714Y-81991723D01*
X107735714Y-81991723D02*
X107688095Y-82086961D01*
X107688095Y-82086961D02*
X107592857Y-82182200D01*
X107592857Y-82182200D02*
X107450000Y-82229819D01*
X107450000Y-82229819D02*
X107211905Y-82229819D01*
X108640476Y-81563152D02*
X108640476Y-82229819D01*
X108402381Y-81182200D02*
X108164286Y-81896485D01*
X108164286Y-81896485D02*
X108783333Y-81896485D01*
X117302080Y-71241666D02*
X117349700Y-71289285D01*
X117349700Y-71289285D02*
X117397319Y-71432142D01*
X117397319Y-71432142D02*
X117397319Y-71527380D01*
X117397319Y-71527380D02*
X117349700Y-71670237D01*
X117349700Y-71670237D02*
X117254461Y-71765475D01*
X117254461Y-71765475D02*
X117159223Y-71813094D01*
X117159223Y-71813094D02*
X116968747Y-71860713D01*
X116968747Y-71860713D02*
X116825890Y-71860713D01*
X116825890Y-71860713D02*
X116635414Y-71813094D01*
X116635414Y-71813094D02*
X116540176Y-71765475D01*
X116540176Y-71765475D02*
X116444938Y-71670237D01*
X116444938Y-71670237D02*
X116397319Y-71527380D01*
X116397319Y-71527380D02*
X116397319Y-71432142D01*
X116397319Y-71432142D02*
X116444938Y-71289285D01*
X116444938Y-71289285D02*
X116492557Y-71241666D01*
X116397319Y-70908332D02*
X116397319Y-70289285D01*
X116397319Y-70289285D02*
X116778271Y-70622618D01*
X116778271Y-70622618D02*
X116778271Y-70479761D01*
X116778271Y-70479761D02*
X116825890Y-70384523D01*
X116825890Y-70384523D02*
X116873509Y-70336904D01*
X116873509Y-70336904D02*
X116968747Y-70289285D01*
X116968747Y-70289285D02*
X117206842Y-70289285D01*
X117206842Y-70289285D02*
X117302080Y-70336904D01*
X117302080Y-70336904D02*
X117349700Y-70384523D01*
X117349700Y-70384523D02*
X117397319Y-70479761D01*
X117397319Y-70479761D02*
X117397319Y-70765475D01*
X117397319Y-70765475D02*
X117349700Y-70860713D01*
X117349700Y-70860713D02*
X117302080Y-70908332D01*
X107282142Y-80354580D02*
X107234523Y-80402200D01*
X107234523Y-80402200D02*
X107091666Y-80449819D01*
X107091666Y-80449819D02*
X106996428Y-80449819D01*
X106996428Y-80449819D02*
X106853571Y-80402200D01*
X106853571Y-80402200D02*
X106758333Y-80306961D01*
X106758333Y-80306961D02*
X106710714Y-80211723D01*
X106710714Y-80211723D02*
X106663095Y-80021247D01*
X106663095Y-80021247D02*
X106663095Y-79878390D01*
X106663095Y-79878390D02*
X106710714Y-79687914D01*
X106710714Y-79687914D02*
X106758333Y-79592676D01*
X106758333Y-79592676D02*
X106853571Y-79497438D01*
X106853571Y-79497438D02*
X106996428Y-79449819D01*
X106996428Y-79449819D02*
X107091666Y-79449819D01*
X107091666Y-79449819D02*
X107234523Y-79497438D01*
X107234523Y-79497438D02*
X107282142Y-79545057D01*
X108234523Y-80449819D02*
X107663095Y-80449819D01*
X107948809Y-80449819D02*
X107948809Y-79449819D01*
X107948809Y-79449819D02*
X107853571Y-79592676D01*
X107853571Y-79592676D02*
X107758333Y-79687914D01*
X107758333Y-79687914D02*
X107663095Y-79735533D01*
X109186904Y-80449819D02*
X108615476Y-80449819D01*
X108901190Y-80449819D02*
X108901190Y-79449819D01*
X108901190Y-79449819D02*
X108805952Y-79592676D01*
X108805952Y-79592676D02*
X108710714Y-79687914D01*
X108710714Y-79687914D02*
X108615476Y-79735533D01*
X102158333Y-62829580D02*
X102110714Y-62877200D01*
X102110714Y-62877200D02*
X101967857Y-62924819D01*
X101967857Y-62924819D02*
X101872619Y-62924819D01*
X101872619Y-62924819D02*
X101729762Y-62877200D01*
X101729762Y-62877200D02*
X101634524Y-62781961D01*
X101634524Y-62781961D02*
X101586905Y-62686723D01*
X101586905Y-62686723D02*
X101539286Y-62496247D01*
X101539286Y-62496247D02*
X101539286Y-62353390D01*
X101539286Y-62353390D02*
X101586905Y-62162914D01*
X101586905Y-62162914D02*
X101634524Y-62067676D01*
X101634524Y-62067676D02*
X101729762Y-61972438D01*
X101729762Y-61972438D02*
X101872619Y-61924819D01*
X101872619Y-61924819D02*
X101967857Y-61924819D01*
X101967857Y-61924819D02*
X102110714Y-61972438D01*
X102110714Y-61972438D02*
X102158333Y-62020057D01*
X103063095Y-61924819D02*
X102586905Y-61924819D01*
X102586905Y-61924819D02*
X102539286Y-62401009D01*
X102539286Y-62401009D02*
X102586905Y-62353390D01*
X102586905Y-62353390D02*
X102682143Y-62305771D01*
X102682143Y-62305771D02*
X102920238Y-62305771D01*
X102920238Y-62305771D02*
X103015476Y-62353390D01*
X103015476Y-62353390D02*
X103063095Y-62401009D01*
X103063095Y-62401009D02*
X103110714Y-62496247D01*
X103110714Y-62496247D02*
X103110714Y-62734342D01*
X103110714Y-62734342D02*
X103063095Y-62829580D01*
X103063095Y-62829580D02*
X103015476Y-62877200D01*
X103015476Y-62877200D02*
X102920238Y-62924819D01*
X102920238Y-62924819D02*
X102682143Y-62924819D01*
X102682143Y-62924819D02*
X102586905Y-62877200D01*
X102586905Y-62877200D02*
X102539286Y-62829580D01*
X104488095Y-77181819D02*
X105059523Y-77181819D01*
X104773809Y-78181819D02*
X104773809Y-77181819D01*
X105392857Y-78181819D02*
X105392857Y-77181819D01*
X105392857Y-77181819D02*
X105773809Y-77181819D01*
X105773809Y-77181819D02*
X105869047Y-77229438D01*
X105869047Y-77229438D02*
X105916666Y-77277057D01*
X105916666Y-77277057D02*
X105964285Y-77372295D01*
X105964285Y-77372295D02*
X105964285Y-77515152D01*
X105964285Y-77515152D02*
X105916666Y-77610390D01*
X105916666Y-77610390D02*
X105869047Y-77658009D01*
X105869047Y-77658009D02*
X105773809Y-77705628D01*
X105773809Y-77705628D02*
X105392857Y-77705628D01*
X106297619Y-77181819D02*
X106964285Y-77181819D01*
X106964285Y-77181819D02*
X106535714Y-78181819D01*
X91463095Y-61681819D02*
X92034523Y-61681819D01*
X91748809Y-62681819D02*
X91748809Y-61681819D01*
X92367857Y-62681819D02*
X92367857Y-61681819D01*
X92367857Y-61681819D02*
X92748809Y-61681819D01*
X92748809Y-61681819D02*
X92844047Y-61729438D01*
X92844047Y-61729438D02*
X92891666Y-61777057D01*
X92891666Y-61777057D02*
X92939285Y-61872295D01*
X92939285Y-61872295D02*
X92939285Y-62015152D01*
X92939285Y-62015152D02*
X92891666Y-62110390D01*
X92891666Y-62110390D02*
X92844047Y-62158009D01*
X92844047Y-62158009D02*
X92748809Y-62205628D01*
X92748809Y-62205628D02*
X92367857Y-62205628D01*
X93272619Y-61681819D02*
X93891666Y-61681819D01*
X93891666Y-61681819D02*
X93558333Y-62062771D01*
X93558333Y-62062771D02*
X93701190Y-62062771D01*
X93701190Y-62062771D02*
X93796428Y-62110390D01*
X93796428Y-62110390D02*
X93844047Y-62158009D01*
X93844047Y-62158009D02*
X93891666Y-62253247D01*
X93891666Y-62253247D02*
X93891666Y-62491342D01*
X93891666Y-62491342D02*
X93844047Y-62586580D01*
X93844047Y-62586580D02*
X93796428Y-62634200D01*
X93796428Y-62634200D02*
X93701190Y-62681819D01*
X93701190Y-62681819D02*
X93415476Y-62681819D01*
X93415476Y-62681819D02*
X93320238Y-62634200D01*
X93320238Y-62634200D02*
X93272619Y-62586580D01*
D12*
%TO.C,C13*%
X119715000Y-61313748D02*
X119715000Y-61836252D01*
X121185000Y-61313748D02*
X121185000Y-61836252D01*
%TO.C,R5*%
X106330000Y-45185000D02*
X106330000Y-53815000D01*
X107300000Y-53815000D02*
X107300000Y-54225000D01*
X108020000Y-53815000D02*
X108020000Y-54225000D01*
X108930000Y-45185000D02*
X108930000Y-53815000D01*
X109048100Y-45185000D02*
X109048100Y-53815000D01*
X109166195Y-45185000D02*
X109166195Y-53815000D01*
X109284290Y-45185000D02*
X109284290Y-53815000D01*
X109402385Y-45185000D02*
X109402385Y-53815000D01*
X109520480Y-45185000D02*
X109520480Y-53815000D01*
X109638575Y-45185000D02*
X109638575Y-53815000D01*
X109756670Y-45185000D02*
X109756670Y-53815000D01*
X109840000Y-53815000D02*
X109840000Y-54165000D01*
X109874765Y-45185000D02*
X109874765Y-53815000D01*
X109992860Y-45185000D02*
X109992860Y-53815000D01*
X110110955Y-45185000D02*
X110110955Y-53815000D01*
X110229050Y-45185000D02*
X110229050Y-53815000D01*
X110347145Y-45185000D02*
X110347145Y-53815000D01*
X110465240Y-45185000D02*
X110465240Y-53815000D01*
X110560000Y-53815000D02*
X110560000Y-54165000D01*
X110583335Y-45185000D02*
X110583335Y-53815000D01*
X110701430Y-45185000D02*
X110701430Y-53815000D01*
X110819525Y-45185000D02*
X110819525Y-53815000D01*
X110937620Y-45185000D02*
X110937620Y-53815000D01*
X111055715Y-45185000D02*
X111055715Y-53815000D01*
X111173810Y-45185000D02*
X111173810Y-53815000D01*
X111291905Y-45185000D02*
X111291905Y-53815000D01*
X111410000Y-45185000D02*
X111410000Y-53815000D01*
X111530000Y-45185000D02*
X106330000Y-45185000D01*
X111530000Y-45185000D02*
X111530000Y-53815000D01*
X111530000Y-53815000D02*
X106330000Y-53815000D01*
X111530000Y-55275000D02*
X111530000Y-56385000D01*
X111530000Y-56385000D02*
X110200000Y-56385000D01*
%TO.C,BT1*%
X92415000Y-48465000D02*
X92415000Y-49715000D01*
X92715000Y-48765000D02*
X92715000Y-53485000D01*
X92715000Y-50075000D02*
X93325000Y-50075000D01*
X92715000Y-51375000D02*
X93325000Y-51375000D01*
X92715000Y-53485000D02*
X98835000Y-53485000D01*
X93325000Y-49375000D02*
X93325000Y-52875000D01*
X93325000Y-52875000D02*
X98225000Y-52875000D01*
X93665000Y-48465000D02*
X92415000Y-48465000D01*
X94175000Y-48565000D02*
X94175000Y-48765000D01*
X94475000Y-48565000D02*
X94175000Y-48565000D01*
X94475000Y-48665000D02*
X94175000Y-48665000D01*
X94475000Y-48765000D02*
X94475000Y-48565000D01*
X95275000Y-48765000D02*
X95275000Y-49375000D01*
X95275000Y-49375000D02*
X93325000Y-49375000D01*
X95675000Y-52375000D02*
X95875000Y-52375000D01*
X95675000Y-52875000D02*
X95675000Y-52375000D01*
X95775000Y-52875000D02*
X95775000Y-52375000D01*
X95875000Y-52375000D02*
X95875000Y-52875000D01*
X96275000Y-49375000D02*
X96275000Y-48765000D01*
X98225000Y-49375000D02*
X96275000Y-49375000D01*
X98225000Y-52875000D02*
X98225000Y-49375000D01*
X98835000Y-48765000D02*
X92715000Y-48765000D01*
X98835000Y-50075000D02*
X98225000Y-50075000D01*
X98835000Y-51375000D02*
X98225000Y-51375000D01*
X98835000Y-53485000D02*
X98835000Y-48765000D01*
%TO.C,C8*%
X111315000Y-61311252D02*
X111315000Y-60788748D01*
X112785000Y-61311252D02*
X112785000Y-60788748D01*
%TO.C,SW1*%
X83850000Y-75825000D02*
X83850000Y-76475000D01*
X83850000Y-77975000D02*
X83850000Y-80475000D01*
X83850000Y-82625000D02*
X83850000Y-81975000D01*
X90350000Y-75825000D02*
X83850000Y-75825000D01*
X90350000Y-76475000D02*
X90350000Y-75825000D01*
X90350000Y-77975000D02*
X90350000Y-80475000D01*
X90350000Y-81975000D02*
X90350000Y-82625000D01*
X90350000Y-82625000D02*
X83850000Y-82625000D01*
%TO.C,L2*%
X107740000Y-61449622D02*
X107740000Y-60650378D01*
X108860000Y-61449622D02*
X108860000Y-60650378D01*
%TO.C,R8*%
X108772936Y-75090000D02*
X109227064Y-75090000D01*
X108772936Y-76560000D02*
X109227064Y-76560000D01*
%TO.C,C9*%
X105615000Y-61261252D02*
X105615000Y-60738748D01*
X107085000Y-61261252D02*
X107085000Y-60738748D01*
%TO.C,C4*%
X103565000Y-61261252D02*
X103565000Y-60738748D01*
X105035000Y-61261252D02*
X105035000Y-60738748D01*
%TO.C,D2*%
X111490000Y-83250000D02*
X111490000Y-85935000D01*
X111490000Y-85935000D02*
X113410000Y-85935000D01*
X113410000Y-85935000D02*
X113410000Y-83250000D01*
%TO.C,R6*%
X111740000Y-80635436D02*
X111740000Y-81089564D01*
X113210000Y-80635436D02*
X113210000Y-81089564D01*
%TO.C,D3*%
X113240000Y-49302500D02*
X113240000Y-51987500D01*
X115160000Y-49302500D02*
X113240000Y-49302500D01*
X115160000Y-51987500D02*
X115160000Y-49302500D01*
%TO.C,TP5*%
X97450000Y-79425000D02*
X99350000Y-79425000D01*
X97450000Y-81325000D02*
X97450000Y-79425000D01*
X99350000Y-79425000D02*
X99350000Y-81325000D01*
X99350000Y-81325000D02*
X97450000Y-81325000D01*
%TO.C,R1*%
X98640000Y-69760436D02*
X98640000Y-70214564D01*
X100110000Y-69760436D02*
X100110000Y-70214564D01*
%TO.C,C1*%
X92515000Y-59338748D02*
X92515000Y-59861252D01*
X93985000Y-59338748D02*
X93985000Y-59861252D01*
%TO.C,Y2*%
X102225000Y-66450000D02*
X102225000Y-66750000D01*
X103775000Y-65250000D02*
X102275000Y-65250000D01*
X103825000Y-66450000D02*
X103825000Y-66750000D01*
%TO.C,M1*%
X105495000Y-87730000D02*
X105495000Y-86400000D01*
X106825000Y-87730000D02*
X105495000Y-87730000D01*
X108095000Y-85070000D02*
X110695000Y-85070000D01*
X108095000Y-87730000D02*
X108095000Y-85070000D01*
X108095000Y-87730000D02*
X110695000Y-87730000D01*
X110695000Y-87730000D02*
X110695000Y-85070000D01*
%TO.C,J1*%
X114220000Y-75215000D02*
X115550000Y-75215000D01*
X114220000Y-76545000D02*
X114220000Y-75215000D01*
X114220000Y-77815000D02*
X114220000Y-85495000D01*
X114220000Y-77815000D02*
X116880000Y-77815000D01*
X114220000Y-85495000D02*
X116880000Y-85495000D01*
X116880000Y-77815000D02*
X116880000Y-85495000D01*
%TO.C,TP6*%
X93325000Y-66875000D02*
X95225000Y-66875000D01*
X93325000Y-68775000D02*
X93325000Y-66875000D01*
X95225000Y-66875000D02*
X95225000Y-68775000D01*
X95225000Y-68775000D02*
X93325000Y-68775000D01*
%TO.C,L3*%
X109540000Y-60650378D02*
X109540000Y-61449622D01*
X110660000Y-60650378D02*
X110660000Y-61449622D01*
%TO.C,C6*%
X102063748Y-68290000D02*
X102586252Y-68290000D01*
X102063748Y-69760000D02*
X102586252Y-69760000D01*
%TO.C,C7*%
X115838748Y-66240000D02*
X116361252Y-66240000D01*
X115838748Y-67710000D02*
X116361252Y-67710000D01*
D13*
%TO.C,Q2*%
X107425000Y-78500000D02*
X110325000Y-78500000D01*
X107425000Y-78900000D02*
X107425000Y-78500000D01*
X110325000Y-78500000D02*
X110325000Y-78900000D01*
X110325000Y-78900000D02*
X107425000Y-78900000D01*
X110375000Y-77050000D02*
X110375000Y-78150000D01*
D12*
%TO.C,U1*%
X106915000Y-65440000D02*
X106915000Y-65205000D01*
X106915000Y-70185000D02*
X106915000Y-69710000D01*
X107390000Y-64965000D02*
X107215000Y-64965000D01*
X107390000Y-70185000D02*
X106915000Y-70185000D01*
X111660000Y-64965000D02*
X112135000Y-64965000D01*
X111660000Y-70185000D02*
X112135000Y-70185000D01*
X112135000Y-64965000D02*
X112135000Y-65440000D01*
X112135000Y-70185000D02*
X112135000Y-69710000D01*
X106915000Y-64965000D02*
X106675000Y-64635000D01*
X107155000Y-64635000D01*
X106915000Y-64965000D01*
G36*
X106915000Y-64965000D02*
G01*
X106675000Y-64635000D01*
X107155000Y-64635000D01*
X106915000Y-64965000D01*
G37*
%TO.C,C10*%
X113490000Y-61336252D02*
X113490000Y-60813748D01*
X114960000Y-61336252D02*
X114960000Y-60813748D01*
%TO.C,IC1*%
X94652500Y-56150000D02*
X94652500Y-55350000D01*
X94652500Y-56150000D02*
X94652500Y-56950000D01*
X97772500Y-56150000D02*
X97772500Y-55350000D01*
X97772500Y-56150000D02*
X97772500Y-56950000D01*
X98052500Y-55090000D02*
X97722500Y-54850000D01*
X98052500Y-54610000D01*
X98052500Y-55090000D01*
G36*
X98052500Y-55090000D02*
G01*
X97722500Y-54850000D01*
X98052500Y-54610000D01*
X98052500Y-55090000D01*
G37*
D13*
%TO.C,Y1*%
X116562000Y-60775000D02*
X116562000Y-60775000D01*
X116562000Y-60975000D02*
X116562000Y-60975000D01*
D14*
X116962000Y-61575000D02*
X116962000Y-61775000D01*
X118963000Y-61575000D02*
X118963000Y-61775000D01*
D13*
X116562000Y-60775000D02*
G75*
G02*
X116563000Y-60975000I500J-100000D01*
G01*
X116562000Y-60975000D02*
G75*
G02*
X116563000Y-60775000I500J100000D01*
G01*
D12*
%TO.C,R7*%
X113415000Y-54614564D02*
X113415000Y-54160436D01*
X114885000Y-54614564D02*
X114885000Y-54160436D01*
D13*
%TO.C,J2*%
X81747500Y-63930000D02*
X81747500Y-72870000D01*
X81747500Y-72870000D02*
X82797500Y-72870000D01*
X82797500Y-63930000D02*
X81747500Y-63930000D01*
X86597500Y-63930000D02*
X85797500Y-63930000D01*
X86597500Y-72870000D02*
X85797500Y-72870000D01*
X89597500Y-67900000D02*
X89597500Y-67900000D01*
X89697500Y-67900000D02*
X89697500Y-67900000D01*
X89697500Y-67900000D02*
X89697500Y-67900000D01*
X89597500Y-67900000D02*
G75*
G02*
X89697500Y-67900000I50000J0D01*
G01*
X89597500Y-67900000D02*
G75*
G02*
X89697500Y-67900000I50000J0D01*
G01*
X89697500Y-67900000D02*
G75*
G02*
X89597500Y-67900000I-50000J0D01*
G01*
D12*
%TO.C,TP2*%
X86625000Y-54425000D02*
X88025000Y-54425000D01*
X86625000Y-55825000D02*
X86625000Y-54425000D01*
X88025000Y-54425000D02*
X88025000Y-55825000D01*
X88025000Y-55825000D02*
X86625000Y-55825000D01*
%TO.C,TP4*%
X97500000Y-76425000D02*
X99400000Y-76425000D01*
X97500000Y-78325000D02*
X97500000Y-76425000D01*
X99400000Y-76425000D02*
X99400000Y-78325000D01*
X99400000Y-78325000D02*
X97500000Y-78325000D01*
%TO.C,U4*%
X94490000Y-61795000D02*
X94490000Y-59215000D01*
X95470000Y-59215000D02*
X94490000Y-59215000D01*
X98230000Y-59215000D02*
X99210000Y-59215000D01*
X99210000Y-59215000D02*
X99210000Y-61935000D01*
X94640000Y-62345000D02*
X94310000Y-62585000D01*
X94310000Y-62105000D01*
X94640000Y-62345000D01*
G36*
X94640000Y-62345000D02*
G01*
X94310000Y-62585000D01*
X94310000Y-62105000D01*
X94640000Y-62345000D01*
G37*
D13*
%TO.C,D1*%
X90425000Y-61600000D02*
X90425000Y-59050000D01*
X91725000Y-60750000D02*
X91725000Y-59050000D01*
D12*
%TO.C,C12*%
X117986252Y-58115000D02*
X117463748Y-58115000D01*
X117986252Y-59585000D02*
X117463748Y-59585000D01*
D15*
%TO.C,U3*%
X94550000Y-71212500D02*
X94550000Y-71767500D01*
X94550000Y-73657500D02*
X94550000Y-74212500D01*
X94605000Y-71212500D02*
X94550000Y-71212500D01*
X94605000Y-74212500D02*
X94550000Y-74212500D01*
X97050000Y-71212500D02*
X96995000Y-71212500D01*
X97050000Y-71212500D02*
X97050000Y-71767500D01*
X97050000Y-73657500D02*
X97050000Y-74212500D01*
X97050000Y-74212500D02*
X96995000Y-74212500D01*
D10*
X96775000Y-70712500D02*
G75*
G02*
X96625000Y-70712500I-75000J0D01*
G01*
X96625000Y-70712500D02*
G75*
G02*
X96775000Y-70712500I75000J0D01*
G01*
D12*
%TO.C,J3*%
X95690000Y-85020000D02*
X95690000Y-87680000D01*
X100830000Y-85020000D02*
X95690000Y-85020000D01*
X100830000Y-85020000D02*
X100830000Y-87680000D01*
X100830000Y-87680000D02*
X95690000Y-87680000D01*
X102100000Y-85020000D02*
X103430000Y-85020000D01*
X103430000Y-85020000D02*
X103430000Y-86350000D01*
D13*
%TO.C,Q1*%
X90650000Y-54590000D02*
X91750000Y-54590000D01*
X92100000Y-54675000D02*
X92400000Y-54675000D01*
X92100000Y-57575000D02*
X92100000Y-54675000D01*
X92400000Y-54675000D02*
X92400000Y-57575000D01*
X92400000Y-57575000D02*
X92100000Y-57575000D01*
D12*
%TO.C,TP1*%
X87100000Y-59550000D02*
X88500000Y-59550000D01*
X87100000Y-60950000D02*
X87100000Y-59550000D01*
X88500000Y-59550000D02*
X88500000Y-60950000D01*
X88500000Y-60950000D02*
X87100000Y-60950000D01*
%TO.C,R10*%
X101790000Y-76364564D02*
X101790000Y-75910436D01*
X103260000Y-76364564D02*
X103260000Y-75910436D01*
%TO.C,L1*%
X117600378Y-69640000D02*
X118399622Y-69640000D01*
X117600378Y-70760000D02*
X118399622Y-70760000D01*
%TO.C,R9*%
X98290000Y-56427064D02*
X98290000Y-55972936D01*
X99760000Y-56427064D02*
X99760000Y-55972936D01*
D16*
%TO.C,U5*%
X119897900Y-70914350D02*
X119897900Y-72483252D01*
X121752100Y-72483252D02*
X121752100Y-70914350D01*
D12*
%TO.C,D4*%
X105940000Y-82775000D02*
X105940000Y-84475000D01*
X105940000Y-82775000D02*
X109200000Y-82775000D01*
X105940000Y-84475000D02*
X109200000Y-84475000D01*
%TO.C,C3*%
X114527500Y-70813748D02*
X114527500Y-71336252D01*
X115997500Y-70813748D02*
X115997500Y-71336252D01*
%TO.C,C11*%
X107663748Y-80940000D02*
X108186252Y-80940000D01*
X107663748Y-82410000D02*
X108186252Y-82410000D01*
%TO.C,C5*%
X102063748Y-63415000D02*
X102586252Y-63415000D01*
X102063748Y-64885000D02*
X102586252Y-64885000D01*
%TO.C,TP7*%
X104800000Y-78425000D02*
X106700000Y-78425000D01*
X104800000Y-80325000D02*
X104800000Y-78425000D01*
X106700000Y-78425000D02*
X106700000Y-80325000D01*
X106700000Y-80325000D02*
X104800000Y-80325000D01*
%TO.C,TP3*%
X92025000Y-62975000D02*
X93425000Y-62975000D01*
X92025000Y-64375000D02*
X92025000Y-62975000D01*
X93425000Y-62975000D02*
X93425000Y-64375000D01*
X93425000Y-64375000D02*
X92025000Y-64375000D01*
%TD*%
M02*
